%TF.GenerationSoftware,KiCad,Pcbnew,9.0.3*%
%TF.CreationDate,2025-08-20T13:57:26+02:00*%
%TF.ProjectId,Methanesense,4d657468-616e-4657-9365-6e73652e6b69,v2.0.0*%
%TF.SameCoordinates,Original*%
%TF.FileFunction,Drillmap*%
%TF.FilePolarity,Positive*%
%FSLAX45Y45*%
G04 Gerber Fmt 4.5, Leading zero omitted, Abs format (unit mm)*
G04 Created by KiCad (PCBNEW 9.0.3) date 2025-08-20 13:57:26*
%MOMM*%
%LPD*%
G01*
G04 APERTURE LIST*
%ADD10C,0.100000*%
%ADD11C,0.200000*%
%ADD12C,0.130000*%
%ADD13C,0.300000*%
G04 APERTURE END LIST*
D10*
X15131000Y-5020000D02*
G75*
G02*
X15031000Y-5120000I-100000J0D01*
G01*
X15101711Y-4726711D02*
G75*
G02*
X15130999Y-4797421I-70711J-70709D01*
G01*
X14700000Y-5400000D02*
G75*
G02*
X14600000Y-5300000I0J100000D01*
G01*
X15031000Y-5400000D02*
G75*
G02*
X15131000Y-5500000I0J-100000D01*
G01*
X6031000Y-4797421D02*
G75*
G02*
X6060289Y-4726710I100000J1D01*
G01*
X14989579Y-4656000D02*
G75*
G02*
X15060290Y-4685289I1J-100000D01*
G01*
X15101711Y-4726711D02*
X15060289Y-4685289D01*
X14989579Y-7656000D02*
X6172421Y-7656000D01*
X6060289Y-7585289D02*
G75*
G02*
X6031004Y-7514579I70721J70709D01*
G01*
X14700000Y-5120000D02*
X15031000Y-5120000D01*
X14509881Y-4785850D02*
X14593619Y-4690150D01*
X15101711Y-7585289D02*
X15060289Y-7626711D01*
X6101711Y-4685289D02*
G75*
G02*
X6172421Y-4656004I70709J-70721D01*
G01*
X15060289Y-7626711D02*
G75*
G02*
X14989579Y-7655999I-70709J70711D01*
G01*
X6060289Y-7585289D02*
X6101711Y-7626711D01*
X15131000Y-4797421D02*
X15131000Y-5020000D01*
X14509881Y-4785850D02*
G75*
G02*
X14434623Y-4819998I-75251J65840D01*
G01*
X14089963Y-4696949D02*
X14150037Y-4779051D01*
X14230740Y-4820000D02*
X14434623Y-4820000D01*
X14230740Y-4820000D02*
G75*
G02*
X14150037Y-4779051I0J100000D01*
G01*
X14009260Y-4656000D02*
G75*
G02*
X14089963Y-4696949I0J-100000D01*
G01*
X15131000Y-7514579D02*
G75*
G02*
X15101709Y-7585288I-99990J-1D01*
G01*
X6172421Y-7656000D02*
G75*
G02*
X6101710Y-7626711I-1J100000D01*
G01*
X6031000Y-7514579D02*
X6031000Y-4797421D01*
X15131000Y-7514579D02*
X15131000Y-5500000D01*
X14600000Y-5300000D02*
X14600000Y-5220000D01*
X15031000Y-5400000D02*
X14700000Y-5400000D01*
X14600000Y-5220000D02*
G75*
G02*
X14700000Y-5120000I100000J0D01*
G01*
X14989579Y-4656000D02*
X14668877Y-4656000D01*
X14009260Y-4656000D02*
X6172421Y-4656000D01*
X6060289Y-4726711D02*
X6101711Y-4685289D01*
X14593619Y-4690150D02*
G75*
G02*
X14668877Y-4656002I75251J-65840D01*
G01*
D11*
D10*
X6111000Y-5497000D02*
X6146000Y-5532000D01*
X6146000Y-5497000D02*
X6111000Y-5532000D01*
X6111000Y-6005000D02*
X6146000Y-6040000D01*
X6146000Y-6005000D02*
X6111000Y-6040000D01*
X6111000Y-6259000D02*
X6146000Y-6294000D01*
X6146000Y-6259000D02*
X6111000Y-6294000D01*
X6111000Y-6513000D02*
X6146000Y-6548000D01*
X6146000Y-6513000D02*
X6111000Y-6548000D01*
X6111000Y-6767000D02*
X6146000Y-6802000D01*
X6146000Y-6767000D02*
X6111000Y-6802000D01*
X6111000Y-7021000D02*
X6146000Y-7056000D01*
X6146000Y-7021000D02*
X6111000Y-7056000D01*
X6111000Y-7275000D02*
X6146000Y-7310000D01*
X6146000Y-7275000D02*
X6111000Y-7310000D01*
X6122500Y-7522500D02*
X6157500Y-7557500D01*
X6157500Y-7522500D02*
X6122500Y-7557500D01*
X6142500Y-5802500D02*
X6177500Y-5837500D01*
X6177500Y-5802500D02*
X6142500Y-5837500D01*
X6222500Y-4702500D02*
X6257500Y-4737500D01*
X6257500Y-4702500D02*
X6222500Y-4737500D01*
X6302500Y-7122500D02*
X6337500Y-7157500D01*
X6337500Y-7122500D02*
X6302500Y-7157500D01*
X6302500Y-7282500D02*
X6337500Y-7317500D01*
X6337500Y-7282500D02*
X6302500Y-7317500D01*
X6302500Y-7482500D02*
X6337500Y-7517500D01*
X6337500Y-7482500D02*
X6302500Y-7517500D01*
X6357500Y-5482500D02*
X6392500Y-5517500D01*
X6392500Y-5482500D02*
X6357500Y-5517500D01*
X6365000Y-6767000D02*
X6400000Y-6802000D01*
X6400000Y-6767000D02*
X6365000Y-6802000D01*
X6442500Y-5882500D02*
X6477500Y-5917500D01*
X6477500Y-5882500D02*
X6442500Y-5917500D01*
X6482500Y-4722500D02*
X6517500Y-4757500D01*
X6517500Y-4722500D02*
X6482500Y-4757500D01*
X6482500Y-7022500D02*
X6517500Y-7057500D01*
X6517500Y-7022500D02*
X6482500Y-7057500D01*
X6482500Y-7542500D02*
X6517500Y-7577500D01*
X6517500Y-7542500D02*
X6482500Y-7577500D01*
X6542500Y-5602500D02*
X6577500Y-5637500D01*
X6577500Y-5602500D02*
X6542500Y-5637500D01*
X6557500Y-5882500D02*
X6592500Y-5917500D01*
X6592500Y-5882500D02*
X6557500Y-5917500D01*
X6572978Y-6962500D02*
X6607978Y-6997500D01*
X6607978Y-6962500D02*
X6572978Y-6997500D01*
X6582500Y-5682500D02*
X6617500Y-5717500D01*
X6617500Y-5682500D02*
X6582500Y-5717500D01*
X6602500Y-4722500D02*
X6637500Y-4757500D01*
X6637500Y-4722500D02*
X6602500Y-4757500D01*
X6619000Y-6767000D02*
X6654000Y-6802000D01*
X6654000Y-6767000D02*
X6619000Y-6802000D01*
X6629249Y-5771296D02*
X6664249Y-5806296D01*
X6664249Y-5771296D02*
X6629249Y-5806296D01*
X6642500Y-7382500D02*
X6677500Y-7417500D01*
X6677500Y-7382500D02*
X6642500Y-7417500D01*
X6642500Y-7462500D02*
X6677500Y-7497500D01*
X6677500Y-7462500D02*
X6642500Y-7497500D01*
X6662500Y-7122500D02*
X6697500Y-7157500D01*
X6697500Y-7122500D02*
X6662500Y-7157500D01*
X6682500Y-5557500D02*
X6717500Y-5592500D01*
X6717500Y-5557500D02*
X6682500Y-5592500D01*
X6702058Y-7190480D02*
X6737058Y-7225480D01*
X6737058Y-7190480D02*
X6702058Y-7225480D01*
X6722500Y-5642500D02*
X6757500Y-5677500D01*
X6757500Y-5642500D02*
X6722500Y-5677500D01*
X6742500Y-4722500D02*
X6777500Y-4757500D01*
X6777500Y-4722500D02*
X6742500Y-4757500D01*
X6752554Y-7345475D02*
X6787554Y-7380475D01*
X6787554Y-7345475D02*
X6752554Y-7380475D01*
X6757500Y-6454139D02*
X6792500Y-6489139D01*
X6792500Y-6454139D02*
X6757500Y-6489139D01*
X6765828Y-7218857D02*
X6800828Y-7253857D01*
X6800828Y-7218857D02*
X6765828Y-7253857D01*
X6785697Y-6111956D02*
X6820697Y-6146956D01*
X6820697Y-6111956D02*
X6785697Y-6146956D01*
X6811639Y-6400000D02*
X6846639Y-6435000D01*
X6846639Y-6400000D02*
X6811639Y-6435000D01*
X6827605Y-7347517D02*
X6862605Y-7382517D01*
X6862605Y-7347517D02*
X6827605Y-7382517D01*
X6836795Y-7215283D02*
X6871795Y-7250283D01*
X6871795Y-7215283D02*
X6836795Y-7250283D01*
X6873000Y-7021000D02*
X6908000Y-7056000D01*
X6908000Y-7021000D02*
X6873000Y-7056000D01*
X6873000Y-7529000D02*
X6908000Y-7564000D01*
X6908000Y-7529000D02*
X6873000Y-7564000D01*
X6876241Y-6187921D02*
X6911241Y-6222921D01*
X6911241Y-6187921D02*
X6876241Y-6222921D01*
X6882500Y-6107500D02*
X6917500Y-6142500D01*
X6917500Y-6107500D02*
X6882500Y-6142500D01*
X6902010Y-6779750D02*
X6937010Y-6814750D01*
X6937010Y-6779750D02*
X6902010Y-6814750D01*
X6903361Y-6400000D02*
X6938361Y-6435000D01*
X6938361Y-6400000D02*
X6903361Y-6435000D01*
X6913889Y-7368961D02*
X6948889Y-7403961D01*
X6948889Y-7368961D02*
X6913889Y-7403961D01*
X6928091Y-5578002D02*
X6963091Y-5613002D01*
X6963091Y-5578002D02*
X6928091Y-5613002D01*
X6992978Y-5612500D02*
X7027978Y-5647500D01*
X7027978Y-5612500D02*
X6992978Y-5647500D01*
X7002442Y-6746017D02*
X7037442Y-6781017D01*
X7037442Y-6746017D02*
X7002442Y-6781017D01*
X7002978Y-6902500D02*
X7037978Y-6937500D01*
X7037978Y-6902500D02*
X7002978Y-6937500D01*
X7009195Y-7367517D02*
X7044195Y-7402517D01*
X7044195Y-7367517D02*
X7009195Y-7402517D01*
X7015322Y-7200055D02*
X7050322Y-7235055D01*
X7050322Y-7200055D02*
X7015322Y-7235055D01*
X7027855Y-5839139D02*
X7062855Y-5874139D01*
X7062855Y-5839139D02*
X7027855Y-5874139D01*
X7081151Y-5627727D02*
X7116151Y-5662727D01*
X7116151Y-5627727D02*
X7081151Y-5662727D01*
X7082715Y-7214350D02*
X7117715Y-7249350D01*
X7117715Y-7214350D02*
X7082715Y-7249350D01*
X7082715Y-7352711D02*
X7117715Y-7387711D01*
X7117715Y-7352711D02*
X7082715Y-7387711D01*
X7106815Y-6603455D02*
X7141815Y-6638455D01*
X7141815Y-6603455D02*
X7106815Y-6638455D01*
X7127000Y-7529000D02*
X7162000Y-7564000D01*
X7162000Y-7529000D02*
X7127000Y-7564000D01*
X7131253Y-5831200D02*
X7166253Y-5866200D01*
X7166253Y-5831200D02*
X7131253Y-5866200D01*
X7153172Y-7198013D02*
X7188172Y-7233013D01*
X7188172Y-7198013D02*
X7153172Y-7233013D01*
X7159725Y-5576629D02*
X7194725Y-5611629D01*
X7194725Y-5576629D02*
X7159725Y-5611629D01*
X7162662Y-6707503D02*
X7197662Y-6742503D01*
X7197662Y-6707503D02*
X7162662Y-6742503D01*
X7163384Y-6787500D02*
X7198384Y-6822500D01*
X7198384Y-6787500D02*
X7163384Y-6822500D01*
X7165928Y-5496615D02*
X7200928Y-5531615D01*
X7200928Y-5496615D02*
X7165928Y-5531615D01*
X7182500Y-6302500D02*
X7217500Y-6337500D01*
X7217500Y-6302500D02*
X7182500Y-6337500D01*
X7182500Y-6502500D02*
X7217500Y-6537500D01*
X7217500Y-6502500D02*
X7182500Y-6537500D01*
X7182500Y-6962500D02*
X7217500Y-6997500D01*
X7217500Y-6962500D02*
X7182500Y-6997500D01*
X7182978Y-6067500D02*
X7217978Y-6102500D01*
X7217978Y-6067500D02*
X7182978Y-6102500D01*
X7184379Y-5686597D02*
X7219379Y-5721597D01*
X7219379Y-5686597D02*
X7184379Y-5721597D01*
X7187890Y-7350669D02*
X7222890Y-7385669D01*
X7222890Y-7350669D02*
X7187890Y-7385669D01*
X7195028Y-5421373D02*
X7230028Y-5456373D01*
X7230028Y-5421373D02*
X7195028Y-5456373D01*
X7201813Y-6593457D02*
X7236813Y-6628457D01*
X7236813Y-6593457D02*
X7201813Y-6628457D01*
X7222500Y-4922500D02*
X7257500Y-4957500D01*
X7257500Y-4922500D02*
X7222500Y-4957500D01*
X7242500Y-5002500D02*
X7277500Y-5037500D01*
X7277500Y-5002500D02*
X7242500Y-5037500D01*
X7242500Y-5102500D02*
X7277500Y-5137500D01*
X7277500Y-5102500D02*
X7242500Y-5137500D01*
X7253751Y-7364964D02*
X7288751Y-7399964D01*
X7288751Y-7364964D02*
X7253751Y-7399964D01*
X7276272Y-5225639D02*
X7311272Y-5260639D01*
X7311272Y-5225639D02*
X7276272Y-5260639D01*
X7282500Y-6962500D02*
X7317500Y-6997500D01*
X7317500Y-6962500D02*
X7282500Y-6997500D01*
X7322500Y-7222500D02*
X7357500Y-7257500D01*
X7357500Y-7222500D02*
X7322500Y-7257500D01*
X7322500Y-7342500D02*
X7357500Y-7377500D01*
X7357500Y-7342500D02*
X7322500Y-7377500D01*
X7327127Y-5163884D02*
X7362127Y-5198884D01*
X7362127Y-5163884D02*
X7327127Y-5198884D01*
X7381000Y-7529000D02*
X7416000Y-7564000D01*
X7416000Y-7529000D02*
X7381000Y-7564000D01*
X7382500Y-7202500D02*
X7417500Y-7237500D01*
X7417500Y-7202500D02*
X7382500Y-7237500D01*
X7400281Y-7367007D02*
X7435281Y-7402007D01*
X7435281Y-7367007D02*
X7400281Y-7402007D01*
X7457500Y-5194382D02*
X7492500Y-5229382D01*
X7492500Y-5194382D02*
X7457500Y-5229382D01*
X7462500Y-4962500D02*
X7497500Y-4997500D01*
X7497500Y-4962500D02*
X7462500Y-4997500D01*
X7462500Y-5042500D02*
X7497500Y-5077500D01*
X7497500Y-5042500D02*
X7462500Y-5077500D01*
X7462500Y-7202500D02*
X7497500Y-7237500D01*
X7497500Y-7202500D02*
X7462500Y-7237500D01*
X7472478Y-5592500D02*
X7507478Y-5627500D01*
X7507478Y-5592500D02*
X7472478Y-5627500D01*
X7472478Y-5792500D02*
X7507478Y-5827500D01*
X7507478Y-5792500D02*
X7472478Y-5827500D01*
X7472478Y-5992500D02*
X7507478Y-6027500D01*
X7507478Y-5992500D02*
X7472478Y-6027500D01*
X7472478Y-6192500D02*
X7507478Y-6227500D01*
X7507478Y-6192500D02*
X7472478Y-6227500D01*
X7472478Y-6392500D02*
X7507478Y-6427500D01*
X7507478Y-6392500D02*
X7472478Y-6427500D01*
X7472478Y-6592500D02*
X7507478Y-6627500D01*
X7507478Y-6592500D02*
X7472478Y-6627500D01*
X7474140Y-7381182D02*
X7509140Y-7416182D01*
X7509140Y-7381182D02*
X7474140Y-7416182D01*
X7482500Y-6962500D02*
X7517500Y-6997500D01*
X7517500Y-6962500D02*
X7482500Y-6997500D01*
X7542500Y-7182500D02*
X7577500Y-7217500D01*
X7577500Y-7182500D02*
X7542500Y-7217500D01*
X7547649Y-7001182D02*
X7582649Y-7036182D01*
X7582649Y-7001182D02*
X7547649Y-7036182D01*
X7552478Y-5692500D02*
X7587478Y-5727500D01*
X7587478Y-5692500D02*
X7552478Y-5727500D01*
X7552478Y-5892500D02*
X7587478Y-5927500D01*
X7587478Y-5892500D02*
X7552478Y-5927500D01*
X7552478Y-6092500D02*
X7587478Y-6127500D01*
X7587478Y-6092500D02*
X7552478Y-6127500D01*
X7552478Y-6292500D02*
X7587478Y-6327500D01*
X7587478Y-6292500D02*
X7552478Y-6327500D01*
X7552478Y-6492500D02*
X7587478Y-6527500D01*
X7587478Y-6492500D02*
X7552478Y-6527500D01*
X7552478Y-6682500D02*
X7587478Y-6717500D01*
X7587478Y-6682500D02*
X7552478Y-6717500D01*
X7552978Y-5492500D02*
X7587978Y-5527500D01*
X7587978Y-5492500D02*
X7552978Y-5527500D01*
X7562500Y-7082500D02*
X7597500Y-7117500D01*
X7597500Y-7082500D02*
X7562500Y-7117500D01*
X7562500Y-7362500D02*
X7597500Y-7397500D01*
X7597500Y-7362500D02*
X7562500Y-7397500D01*
X7632478Y-5205386D02*
X7667478Y-5240386D01*
X7667478Y-5205386D02*
X7632478Y-5240386D01*
X7632478Y-5592500D02*
X7667478Y-5627500D01*
X7667478Y-5592500D02*
X7632478Y-5627500D01*
X7632478Y-5792500D02*
X7667478Y-5827500D01*
X7667478Y-5792500D02*
X7632478Y-5827500D01*
X7632478Y-5992500D02*
X7667478Y-6027500D01*
X7667478Y-5992500D02*
X7632478Y-6027500D01*
X7632478Y-6192500D02*
X7667478Y-6227500D01*
X7667478Y-6192500D02*
X7632478Y-6227500D01*
X7632478Y-6392500D02*
X7667478Y-6427500D01*
X7667478Y-6392500D02*
X7632478Y-6427500D01*
X7632478Y-6592500D02*
X7667478Y-6627500D01*
X7667478Y-6592500D02*
X7632478Y-6627500D01*
X7635000Y-7529000D02*
X7670000Y-7564000D01*
X7670000Y-7529000D02*
X7635000Y-7564000D01*
X7646052Y-7101523D02*
X7681052Y-7136523D01*
X7681052Y-7101523D02*
X7646052Y-7136523D01*
X7661363Y-7358095D02*
X7696363Y-7393095D01*
X7696363Y-7358095D02*
X7661363Y-7393095D01*
X7679778Y-6948906D02*
X7714778Y-6983906D01*
X7714778Y-6948906D02*
X7679778Y-6983906D01*
X7712478Y-5692500D02*
X7747478Y-5727500D01*
X7747478Y-5692500D02*
X7712478Y-5727500D01*
X7712478Y-5892500D02*
X7747478Y-5927500D01*
X7747478Y-5892500D02*
X7712478Y-5927500D01*
X7712478Y-6092500D02*
X7747478Y-6127500D01*
X7747478Y-6092500D02*
X7712478Y-6127500D01*
X7712478Y-6292500D02*
X7747478Y-6327500D01*
X7747478Y-6292500D02*
X7712478Y-6327500D01*
X7712478Y-6492500D02*
X7747478Y-6527500D01*
X7747478Y-6492500D02*
X7712478Y-6527500D01*
X7712478Y-6682500D02*
X7747478Y-6717500D01*
X7747478Y-6682500D02*
X7712478Y-6717500D01*
X7718275Y-5492500D02*
X7753275Y-5527500D01*
X7753275Y-5492500D02*
X7718275Y-5527500D01*
X7742500Y-7342500D02*
X7777500Y-7377500D01*
X7777500Y-7342500D02*
X7742500Y-7377500D01*
X7792478Y-5592500D02*
X7827478Y-5627500D01*
X7827478Y-5592500D02*
X7792478Y-5627500D01*
X7792478Y-5792500D02*
X7827478Y-5827500D01*
X7827478Y-5792500D02*
X7792478Y-5827500D01*
X7792478Y-5992500D02*
X7827478Y-6027500D01*
X7827478Y-5992500D02*
X7792478Y-6027500D01*
X7792478Y-6192500D02*
X7827478Y-6227500D01*
X7827478Y-6192500D02*
X7792478Y-6227500D01*
X7792478Y-6392500D02*
X7827478Y-6427500D01*
X7827478Y-6392500D02*
X7792478Y-6427500D01*
X7792478Y-6592500D02*
X7827478Y-6627500D01*
X7827478Y-6592500D02*
X7792478Y-6627500D01*
X7802500Y-7302500D02*
X7837500Y-7337500D01*
X7837500Y-7302500D02*
X7802500Y-7337500D01*
X7807500Y-5229139D02*
X7842500Y-5264139D01*
X7842500Y-5229139D02*
X7807500Y-5264139D01*
X7822500Y-6962500D02*
X7857500Y-6997500D01*
X7857500Y-6962500D02*
X7822500Y-6997500D01*
X7822500Y-7082500D02*
X7857500Y-7117500D01*
X7857500Y-7082500D02*
X7822500Y-7117500D01*
X7822500Y-7182500D02*
X7857500Y-7217500D01*
X7857500Y-7182500D02*
X7822500Y-7217500D01*
X7872478Y-5492500D02*
X7907478Y-5527500D01*
X7907478Y-5492500D02*
X7872478Y-5527500D01*
X7872478Y-5692500D02*
X7907478Y-5727500D01*
X7907478Y-5692500D02*
X7872478Y-5727500D01*
X7872478Y-5892500D02*
X7907478Y-5927500D01*
X7907478Y-5892500D02*
X7872478Y-5927500D01*
X7872478Y-6092500D02*
X7907478Y-6127500D01*
X7907478Y-6092500D02*
X7872478Y-6127500D01*
X7872478Y-6292500D02*
X7907478Y-6327500D01*
X7907478Y-6292500D02*
X7872478Y-6327500D01*
X7872478Y-6492500D02*
X7907478Y-6527500D01*
X7907478Y-6492500D02*
X7872478Y-6527500D01*
X7872478Y-6682500D02*
X7907478Y-6717500D01*
X7907478Y-6682500D02*
X7872478Y-6717500D01*
X7889000Y-7529000D02*
X7924000Y-7564000D01*
X7924000Y-7529000D02*
X7889000Y-7564000D01*
X7902500Y-7022500D02*
X7937500Y-7057500D01*
X7937500Y-7022500D02*
X7902500Y-7057500D01*
X7902500Y-7122500D02*
X7937500Y-7157500D01*
X7937500Y-7122500D02*
X7902500Y-7157500D01*
X7902500Y-7282500D02*
X7937500Y-7317500D01*
X7937500Y-7282500D02*
X7902500Y-7317500D01*
X7907500Y-5229139D02*
X7942500Y-5264139D01*
X7942500Y-5229139D02*
X7907500Y-5264139D01*
X7952478Y-5592500D02*
X7987478Y-5627500D01*
X7987478Y-5592500D02*
X7952478Y-5627500D01*
X7952478Y-5792500D02*
X7987478Y-5827500D01*
X7987478Y-5792500D02*
X7952478Y-5827500D01*
X7952478Y-5992500D02*
X7987478Y-6027500D01*
X7987478Y-5992500D02*
X7952478Y-6027500D01*
X7952478Y-6192500D02*
X7987478Y-6227500D01*
X7987478Y-6192500D02*
X7952478Y-6227500D01*
X7952478Y-6392500D02*
X7987478Y-6427500D01*
X7987478Y-6392500D02*
X7952478Y-6427500D01*
X7952478Y-6592500D02*
X7987478Y-6627500D01*
X7987478Y-6592500D02*
X7952478Y-6627500D01*
X7960926Y-6956244D02*
X7995926Y-6991244D01*
X7995926Y-6956244D02*
X7960926Y-6991244D01*
X7964904Y-7060693D02*
X7999904Y-7095693D01*
X7999904Y-7060693D02*
X7964904Y-7095693D01*
X7982500Y-5082500D02*
X8017500Y-5117500D01*
X8017500Y-5082500D02*
X7982500Y-5117500D01*
X7982500Y-5229139D02*
X8017500Y-5264139D01*
X8017500Y-5229139D02*
X7982500Y-5264139D01*
X7983989Y-7176032D02*
X8018989Y-7211032D01*
X8018989Y-7176032D02*
X7983989Y-7211032D01*
X7991139Y-4914827D02*
X8026139Y-4949827D01*
X8026139Y-4914827D02*
X7991139Y-4949827D01*
X8011372Y-7300499D02*
X8046372Y-7335499D01*
X8046372Y-7300499D02*
X8011372Y-7335499D01*
X8032478Y-5692500D02*
X8067478Y-5727500D01*
X8067478Y-5692500D02*
X8032478Y-5727500D01*
X8032478Y-5892500D02*
X8067478Y-5927500D01*
X8067478Y-5892500D02*
X8032478Y-5927500D01*
X8032478Y-6092500D02*
X8067478Y-6127500D01*
X8067478Y-6092500D02*
X8032478Y-6127500D01*
X8032478Y-6292500D02*
X8067478Y-6327500D01*
X8067478Y-6292500D02*
X8032478Y-6327500D01*
X8032478Y-6492500D02*
X8067478Y-6527500D01*
X8067478Y-6492500D02*
X8032478Y-6527500D01*
X8032478Y-6682500D02*
X8067478Y-6717500D01*
X8067478Y-6682500D02*
X8032478Y-6717500D01*
X8042500Y-4982500D02*
X8077500Y-5017500D01*
X8077500Y-4982500D02*
X8042500Y-5017500D01*
X8062500Y-5082500D02*
X8097500Y-5117500D01*
X8097500Y-5082500D02*
X8062500Y-5117500D01*
X8082500Y-5229139D02*
X8117500Y-5264139D01*
X8117500Y-5229139D02*
X8082500Y-5264139D01*
X8102647Y-7181011D02*
X8137647Y-7216011D01*
X8137647Y-7181011D02*
X8102647Y-7216011D01*
X8109285Y-7329541D02*
X8144285Y-7364541D01*
X8144285Y-7329541D02*
X8109285Y-7364541D01*
X8112478Y-5592500D02*
X8147478Y-5627500D01*
X8147478Y-5592500D02*
X8112478Y-5627500D01*
X8112478Y-5992500D02*
X8147478Y-6027500D01*
X8147478Y-5992500D02*
X8112478Y-6027500D01*
X8112478Y-6192500D02*
X8147478Y-6227500D01*
X8147478Y-6192500D02*
X8112478Y-6227500D01*
X8112478Y-6392500D02*
X8147478Y-6427500D01*
X8147478Y-6392500D02*
X8112478Y-6427500D01*
X8112478Y-6592500D02*
X8147478Y-6627500D01*
X8147478Y-6592500D02*
X8112478Y-6627500D01*
X8112499Y-6947393D02*
X8147499Y-6982393D01*
X8147499Y-6947393D02*
X8112499Y-6982393D01*
X8113393Y-5806004D02*
X8148393Y-5841004D01*
X8148393Y-5806004D02*
X8113393Y-5841004D01*
X8115094Y-7062353D02*
X8150094Y-7097353D01*
X8150094Y-7062353D02*
X8115094Y-7097353D01*
X8132600Y-4852600D02*
X8167600Y-4887600D01*
X8167600Y-4852600D02*
X8132600Y-4887600D01*
X8142500Y-5082500D02*
X8177500Y-5117500D01*
X8177500Y-5082500D02*
X8142500Y-5117500D01*
X8143000Y-7529000D02*
X8178000Y-7564000D01*
X8178000Y-7529000D02*
X8143000Y-7564000D01*
X8202500Y-7202500D02*
X8237500Y-7237500D01*
X8237500Y-7202500D02*
X8202500Y-7237500D01*
X8220476Y-7331201D02*
X8255476Y-7366201D01*
X8255476Y-7331201D02*
X8220476Y-7366201D01*
X8302500Y-6962500D02*
X8337500Y-6997500D01*
X8337500Y-6962500D02*
X8302500Y-6997500D01*
X8302500Y-7202500D02*
X8337500Y-7237500D01*
X8337500Y-7202500D02*
X8302500Y-7237500D01*
X8310922Y-7330371D02*
X8345922Y-7365371D01*
X8345922Y-7330371D02*
X8310922Y-7365371D01*
X8322500Y-7082500D02*
X8357500Y-7117500D01*
X8357500Y-7082500D02*
X8322500Y-7117500D01*
X8373054Y-5457462D02*
X8408054Y-5492462D01*
X8408054Y-5457462D02*
X8373054Y-5492462D01*
X8377201Y-6454054D02*
X8412201Y-6489054D01*
X8412201Y-6454054D02*
X8377201Y-6489054D01*
X8378978Y-5927360D02*
X8413978Y-5962360D01*
X8413978Y-5927360D02*
X8378978Y-5962360D01*
X8382500Y-6942500D02*
X8417500Y-6977500D01*
X8417500Y-6942500D02*
X8382500Y-6977500D01*
X8382978Y-6532500D02*
X8417978Y-6567500D01*
X8417978Y-6532500D02*
X8382978Y-6567500D01*
X8382978Y-6602500D02*
X8417978Y-6637500D01*
X8417978Y-6602500D02*
X8382978Y-6637500D01*
X8386383Y-6146877D02*
X8421383Y-6181877D01*
X8421383Y-6146877D02*
X8386383Y-6181877D01*
X8390478Y-5317500D02*
X8425478Y-5352500D01*
X8425478Y-5317500D02*
X8390478Y-5352500D01*
X8394536Y-6067294D02*
X8429536Y-6102294D01*
X8429536Y-6067294D02*
X8394536Y-6102294D01*
X8397000Y-7529000D02*
X8432000Y-7564000D01*
X8432000Y-7529000D02*
X8397000Y-7564000D01*
X8402500Y-6882500D02*
X8437500Y-6917500D01*
X8437500Y-6882500D02*
X8402500Y-6917500D01*
X8406253Y-6297993D02*
X8441253Y-6332993D01*
X8441253Y-6297993D02*
X8406253Y-6332993D01*
X8412710Y-5747500D02*
X8447710Y-5782500D01*
X8447710Y-5747500D02*
X8412710Y-5782500D01*
X8412978Y-6382500D02*
X8447978Y-6417500D01*
X8447978Y-6382500D02*
X8412978Y-6417500D01*
X8422500Y-7002500D02*
X8457500Y-7037500D01*
X8457500Y-7002500D02*
X8422500Y-7037500D01*
X8422500Y-7202500D02*
X8457500Y-7237500D01*
X8457500Y-7202500D02*
X8422500Y-7237500D01*
X8424527Y-5993128D02*
X8459527Y-6028128D01*
X8459527Y-5993128D02*
X8424527Y-6028128D01*
X8432069Y-7332031D02*
X8467069Y-7367031D01*
X8467069Y-7332031D02*
X8432069Y-7367031D01*
X8432978Y-6222589D02*
X8467978Y-6257589D01*
X8467978Y-6222589D02*
X8432978Y-6257589D01*
X8452978Y-5902500D02*
X8487978Y-5937500D01*
X8487978Y-5902500D02*
X8452978Y-5937500D01*
X8457513Y-6531824D02*
X8492513Y-6566824D01*
X8492513Y-6531824D02*
X8457513Y-6566824D01*
X8458340Y-6459597D02*
X8493340Y-6494597D01*
X8493340Y-6459597D02*
X8458340Y-6494597D01*
X8466310Y-5318960D02*
X8501310Y-5353960D01*
X8501310Y-5318960D02*
X8466310Y-5353960D01*
X8485995Y-6304421D02*
X8520995Y-6339421D01*
X8520995Y-6304421D02*
X8485995Y-6339421D01*
X8505893Y-5730746D02*
X8540893Y-5765746D01*
X8540893Y-5730746D02*
X8505893Y-5765746D01*
X8532500Y-6979139D02*
X8567500Y-7014139D01*
X8567500Y-6979139D02*
X8532500Y-7014139D01*
X8562500Y-5256000D02*
X8597500Y-5291000D01*
X8597500Y-5256000D02*
X8562500Y-5291000D01*
X8562500Y-6222500D02*
X8597500Y-6257500D01*
X8597500Y-6222500D02*
X8562500Y-6257500D01*
X8562500Y-6342500D02*
X8597500Y-6377500D01*
X8597500Y-6342500D02*
X8562500Y-6377500D01*
X8562500Y-6422500D02*
X8597500Y-6457500D01*
X8597500Y-6422500D02*
X8562500Y-6457500D01*
X8602500Y-7202500D02*
X8637500Y-7237500D01*
X8637500Y-7202500D02*
X8602500Y-7237500D01*
X8607500Y-5747500D02*
X8642500Y-5782500D01*
X8642500Y-5747500D02*
X8607500Y-5782500D01*
X8656987Y-5461852D02*
X8691987Y-5496852D01*
X8691987Y-5461852D02*
X8656987Y-5496852D01*
X8662500Y-7102500D02*
X8697500Y-7137500D01*
X8697500Y-7102500D02*
X8662500Y-7137500D01*
X8662500Y-7422500D02*
X8697500Y-7457500D01*
X8697500Y-7422500D02*
X8662500Y-7457500D01*
X8682500Y-5747500D02*
X8717500Y-5782500D01*
X8717500Y-5747500D02*
X8682500Y-5782500D01*
X8682500Y-6279139D02*
X8717500Y-6314139D01*
X8717500Y-6279139D02*
X8682500Y-6314139D01*
X8732500Y-6454139D02*
X8767500Y-6489139D01*
X8767500Y-6454139D02*
X8732500Y-6489139D01*
X8782500Y-6079139D02*
X8817500Y-6114139D01*
X8817500Y-6079139D02*
X8782500Y-6114139D01*
X8802978Y-5462500D02*
X8837978Y-5497500D01*
X8837978Y-5462500D02*
X8802978Y-5497500D01*
X8810288Y-6848901D02*
X8845288Y-6883901D01*
X8845288Y-6848901D02*
X8810288Y-6883901D01*
X8812978Y-6762500D02*
X8847978Y-6797500D01*
X8847978Y-6762500D02*
X8812978Y-6797500D01*
X8832500Y-6979139D02*
X8867500Y-7014139D01*
X8867500Y-6979139D02*
X8832500Y-7014139D01*
X8842500Y-7542500D02*
X8877500Y-7577500D01*
X8877500Y-7542500D02*
X8842500Y-7577500D01*
X8872978Y-5452500D02*
X8907978Y-5487500D01*
X8907978Y-5452500D02*
X8872978Y-5487500D01*
X8907211Y-6162433D02*
X8942211Y-6197433D01*
X8942211Y-6162433D02*
X8907211Y-6197433D01*
X8907500Y-6281609D02*
X8942500Y-6316609D01*
X8942500Y-6281609D02*
X8907500Y-6316609D01*
X8907500Y-6381706D02*
X8942500Y-6416706D01*
X8942500Y-6381706D02*
X8907500Y-6416706D01*
X9002500Y-7222500D02*
X9037500Y-7257500D01*
X9037500Y-7222500D02*
X9002500Y-7257500D01*
X9002500Y-7302500D02*
X9037500Y-7337500D01*
X9037500Y-7302500D02*
X9002500Y-7337500D01*
X9039164Y-5356314D02*
X9074164Y-5391314D01*
X9074164Y-5356314D02*
X9039164Y-5391314D01*
X9042500Y-7122500D02*
X9077500Y-7157500D01*
X9077500Y-7122500D02*
X9042500Y-7157500D01*
X9042500Y-7422500D02*
X9077500Y-7457500D01*
X9077500Y-7422500D02*
X9042500Y-7457500D01*
X9092978Y-6592500D02*
X9127978Y-6627500D01*
X9127978Y-6592500D02*
X9092978Y-6627500D01*
X9127500Y-6229139D02*
X9162500Y-6264139D01*
X9162500Y-6229139D02*
X9127500Y-6264139D01*
X9132978Y-5402500D02*
X9167978Y-5437500D01*
X9167978Y-5402500D02*
X9132978Y-5437500D01*
X9142978Y-5322500D02*
X9177978Y-5357500D01*
X9177978Y-5322500D02*
X9142978Y-5357500D01*
X9157500Y-6554139D02*
X9192500Y-6589139D01*
X9192500Y-6554139D02*
X9157500Y-6589139D01*
X9159000Y-7275000D02*
X9194000Y-7310000D01*
X9194000Y-7275000D02*
X9159000Y-7310000D01*
X9164489Y-6804489D02*
X9199489Y-6839489D01*
X9199489Y-6804489D02*
X9164489Y-6839489D01*
X9182978Y-6652500D02*
X9217978Y-6687500D01*
X9217978Y-6652500D02*
X9182978Y-6687500D01*
X9193342Y-6348638D02*
X9228342Y-6383638D01*
X9228342Y-6348638D02*
X9193342Y-6383638D01*
X9228903Y-6564929D02*
X9263903Y-6599929D01*
X9263903Y-6564929D02*
X9228903Y-6599929D01*
X9242500Y-7562500D02*
X9277500Y-7597500D01*
X9277500Y-7562500D02*
X9242500Y-7597500D01*
X9252978Y-6812500D02*
X9287978Y-6847500D01*
X9287978Y-6812500D02*
X9252978Y-6847500D01*
X9292978Y-6632500D02*
X9327978Y-6667500D01*
X9327978Y-6632500D02*
X9292978Y-6667500D01*
X9308386Y-7025011D02*
X9343386Y-7060011D01*
X9343386Y-7025011D02*
X9308386Y-7060011D01*
X9317884Y-6826167D02*
X9352884Y-6861167D01*
X9352884Y-6826167D02*
X9317884Y-6861167D01*
X9322978Y-6762500D02*
X9357978Y-6797500D01*
X9357978Y-6762500D02*
X9322978Y-6797500D01*
X9326750Y-6905958D02*
X9361750Y-6940958D01*
X9361750Y-6905958D02*
X9326750Y-6940958D01*
X9432978Y-6102500D02*
X9467978Y-6137500D01*
X9467978Y-6102500D02*
X9432978Y-6137500D01*
X9476409Y-6908359D02*
X9511409Y-6943359D01*
X9511409Y-6908359D02*
X9476409Y-6943359D01*
X9542978Y-6152500D02*
X9577978Y-6187500D01*
X9577978Y-6152500D02*
X9542978Y-6187500D01*
X9551460Y-6278353D02*
X9586460Y-6313353D01*
X9586460Y-6278353D02*
X9551460Y-6313353D01*
X9652978Y-6102500D02*
X9687978Y-6137500D01*
X9687978Y-6102500D02*
X9652978Y-6137500D01*
X9652978Y-7222500D02*
X9687978Y-7257500D01*
X9687978Y-7222500D02*
X9652978Y-7257500D01*
X9667000Y-7529000D02*
X9702000Y-7564000D01*
X9702000Y-7529000D02*
X9667000Y-7564000D01*
X9702500Y-6962500D02*
X9737500Y-6997500D01*
X9737500Y-6962500D02*
X9702500Y-6997500D01*
X9727782Y-6447627D02*
X9762782Y-6482627D01*
X9762782Y-6447627D02*
X9727782Y-6482627D01*
X9762500Y-6102500D02*
X9797500Y-6137500D01*
X9797500Y-6102500D02*
X9762500Y-6137500D01*
X9762500Y-7042500D02*
X9797500Y-7077500D01*
X9797500Y-7042500D02*
X9762500Y-7077500D01*
X9767978Y-6362500D02*
X9802978Y-6397500D01*
X9802978Y-6362500D02*
X9767978Y-6397500D01*
X9769702Y-6299138D02*
X9804702Y-6334138D01*
X9804702Y-6299138D02*
X9769702Y-6334138D01*
X9782500Y-7542500D02*
X9817500Y-7577500D01*
X9817500Y-7542500D02*
X9782500Y-7577500D01*
X9802477Y-6440119D02*
X9837477Y-6475119D01*
X9837477Y-6440119D02*
X9802477Y-6475119D01*
X9921000Y-7529000D02*
X9956000Y-7564000D01*
X9956000Y-7529000D02*
X9921000Y-7564000D01*
X10035405Y-6160073D02*
X10070405Y-6195073D01*
X10070405Y-6160073D02*
X10035405Y-6195073D01*
X10042978Y-7062500D02*
X10077978Y-7097500D01*
X10077978Y-7062500D02*
X10042978Y-7097500D01*
X10075188Y-6232500D02*
X10110188Y-6267500D01*
X10110188Y-6232500D02*
X10075188Y-6267500D01*
X10082978Y-6402500D02*
X10117978Y-6437500D01*
X10117978Y-6402500D02*
X10082978Y-6437500D01*
X10175000Y-7529000D02*
X10210000Y-7564000D01*
X10210000Y-7529000D02*
X10175000Y-7564000D01*
X10257500Y-7157500D02*
X10292500Y-7192500D01*
X10292500Y-7157500D02*
X10257500Y-7192500D01*
X10262978Y-7032500D02*
X10297978Y-7067500D01*
X10297978Y-7032500D02*
X10262978Y-7067500D01*
X10282500Y-6002500D02*
X10317500Y-6037500D01*
X10317500Y-6002500D02*
X10282500Y-6037500D01*
X10380674Y-6585811D02*
X10415674Y-6620811D01*
X10415674Y-6585811D02*
X10380674Y-6620811D01*
X10398067Y-6511125D02*
X10433067Y-6546125D01*
X10433067Y-6511125D02*
X10398067Y-6546125D01*
X10429000Y-7529000D02*
X10464000Y-7564000D01*
X10464000Y-7529000D02*
X10429000Y-7564000D01*
X10542500Y-6302500D02*
X10577500Y-6337500D01*
X10577500Y-6302500D02*
X10542500Y-6337500D01*
X10558609Y-5379139D02*
X10593609Y-5414139D01*
X10593609Y-5379139D02*
X10558609Y-5414139D01*
X10564434Y-7177685D02*
X10599434Y-7212685D01*
X10599434Y-7177685D02*
X10564434Y-7212685D01*
X10588609Y-5284895D02*
X10623609Y-5319895D01*
X10623609Y-5284895D02*
X10588609Y-5319895D01*
X10643609Y-5215248D02*
X10678609Y-5250248D01*
X10678609Y-5215248D02*
X10643609Y-5250248D01*
X10662978Y-7192500D02*
X10697978Y-7227500D01*
X10697978Y-7192500D02*
X10662978Y-7227500D01*
X10683000Y-7529000D02*
X10718000Y-7564000D01*
X10718000Y-7529000D02*
X10683000Y-7564000D01*
X10714434Y-7364324D02*
X10749434Y-7399324D01*
X10749434Y-7364324D02*
X10714434Y-7399324D01*
X10726314Y-5243818D02*
X10761314Y-5278818D01*
X10761314Y-5243818D02*
X10726314Y-5278818D01*
X10757846Y-6330223D02*
X10792846Y-6365223D01*
X10792846Y-6330223D02*
X10757846Y-6365223D01*
X10812978Y-7379139D02*
X10847978Y-7414139D01*
X10847978Y-7379139D02*
X10812978Y-7414139D01*
X10837328Y-6492944D02*
X10872328Y-6527944D01*
X10872328Y-6492944D02*
X10837328Y-6527944D01*
X10842941Y-6422578D02*
X10877941Y-6457578D01*
X10877941Y-6422578D02*
X10842941Y-6457578D01*
X10857500Y-6579139D02*
X10892500Y-6614139D01*
X10892500Y-6579139D02*
X10857500Y-6614139D01*
X10892978Y-5212500D02*
X10927978Y-5247500D01*
X10927978Y-5212500D02*
X10892978Y-5247500D01*
X10915143Y-6651497D02*
X10950143Y-6686497D01*
X10950143Y-6651497D02*
X10915143Y-6686497D01*
X10937000Y-4735000D02*
X10972000Y-4770000D01*
X10972000Y-4735000D02*
X10937000Y-4770000D01*
X10942500Y-6222500D02*
X10977500Y-6257500D01*
X10977500Y-6222500D02*
X10942500Y-6257500D01*
X10942978Y-5692500D02*
X10977978Y-5727500D01*
X10977978Y-5692500D02*
X10942978Y-5727500D01*
X11062500Y-6362500D02*
X11097500Y-6397500D01*
X11097500Y-6362500D02*
X11062500Y-6397500D01*
X11072978Y-5642500D02*
X11107978Y-5677500D01*
X11107978Y-5642500D02*
X11072978Y-5677500D01*
X11142500Y-6402500D02*
X11177500Y-6437500D01*
X11177500Y-6402500D02*
X11142500Y-6437500D01*
X11191000Y-4735000D02*
X11226000Y-4770000D01*
X11226000Y-4735000D02*
X11191000Y-4770000D01*
X11191000Y-7529000D02*
X11226000Y-7564000D01*
X11226000Y-7529000D02*
X11191000Y-7564000D01*
X11202500Y-6122500D02*
X11237500Y-6157500D01*
X11237500Y-6122500D02*
X11202500Y-6157500D01*
X11222500Y-6422500D02*
X11257500Y-6457500D01*
X11257500Y-6422500D02*
X11222500Y-6457500D01*
X11232500Y-6294000D02*
X11267500Y-6329000D01*
X11267500Y-6294000D02*
X11232500Y-6329000D01*
X11232500Y-6569000D02*
X11267500Y-6604000D01*
X11267500Y-6569000D02*
X11232500Y-6604000D01*
X11271815Y-5354824D02*
X11306815Y-5389824D01*
X11306815Y-5354824D02*
X11271815Y-5389824D01*
X11282500Y-6022500D02*
X11317500Y-6057500D01*
X11317500Y-6022500D02*
X11282500Y-6057500D01*
X11443925Y-7174898D02*
X11478925Y-7209898D01*
X11478925Y-7174898D02*
X11443925Y-7209898D01*
X11445000Y-4735000D02*
X11480000Y-4770000D01*
X11480000Y-4735000D02*
X11445000Y-4770000D01*
X11445000Y-5243000D02*
X11480000Y-5278000D01*
X11480000Y-5243000D02*
X11445000Y-5278000D01*
X11445000Y-7529000D02*
X11480000Y-7564000D01*
X11480000Y-7529000D02*
X11445000Y-7564000D01*
X11462500Y-7022500D02*
X11497500Y-7057500D01*
X11497500Y-7022500D02*
X11462500Y-7057500D01*
X11482500Y-5022500D02*
X11517500Y-5057500D01*
X11517500Y-5022500D02*
X11482500Y-5057500D01*
X11491815Y-5484824D02*
X11526815Y-5519824D01*
X11526815Y-5484824D02*
X11491815Y-5519824D01*
X11557500Y-7079139D02*
X11592500Y-7114139D01*
X11592500Y-7079139D02*
X11557500Y-7114139D01*
X11602500Y-7562500D02*
X11637500Y-7597500D01*
X11637500Y-7562500D02*
X11602500Y-7597500D01*
X11644660Y-5865959D02*
X11679660Y-5900959D01*
X11679660Y-5865959D02*
X11644660Y-5900959D01*
X11699000Y-4735000D02*
X11734000Y-4770000D01*
X11734000Y-4735000D02*
X11699000Y-4770000D01*
X11699000Y-5243000D02*
X11734000Y-5278000D01*
X11734000Y-5243000D02*
X11699000Y-5278000D01*
X11699000Y-6513000D02*
X11734000Y-6548000D01*
X11734000Y-6513000D02*
X11699000Y-6548000D01*
X11741815Y-5484824D02*
X11776815Y-5519824D01*
X11776815Y-5484824D02*
X11741815Y-5519824D01*
X11862979Y-5776881D02*
X11897979Y-5811881D01*
X11897979Y-5776881D02*
X11862979Y-5811881D01*
X11953000Y-4735000D02*
X11988000Y-4770000D01*
X11988000Y-4735000D02*
X11953000Y-4770000D01*
X11953000Y-5243000D02*
X11988000Y-5278000D01*
X11988000Y-5243000D02*
X11953000Y-5278000D01*
X11953000Y-6005000D02*
X11988000Y-6040000D01*
X11988000Y-6005000D02*
X11953000Y-6040000D01*
X12012312Y-5435045D02*
X12047312Y-5470045D01*
X12047312Y-5435045D02*
X12012312Y-5470045D01*
X12039390Y-5673309D02*
X12074390Y-5708309D01*
X12074390Y-5673309D02*
X12039390Y-5708309D01*
X12107500Y-5332500D02*
X12142500Y-5367500D01*
X12142500Y-5332500D02*
X12107500Y-5367500D01*
X12122500Y-5242500D02*
X12157500Y-5277500D01*
X12157500Y-5242500D02*
X12122500Y-5277500D01*
X12182500Y-5002500D02*
X12217500Y-5037500D01*
X12217500Y-5002500D02*
X12182500Y-5037500D01*
X12182500Y-5102500D02*
X12217500Y-5137500D01*
X12217500Y-5102500D02*
X12182500Y-5137500D01*
X12202500Y-5242500D02*
X12237500Y-5277500D01*
X12237500Y-5242500D02*
X12202500Y-5277500D01*
X12202500Y-5322500D02*
X12237500Y-5357500D01*
X12237500Y-5322500D02*
X12202500Y-5357500D01*
X12207000Y-4735000D02*
X12242000Y-4770000D01*
X12242000Y-4735000D02*
X12207000Y-4770000D01*
X12207500Y-5407500D02*
X12242500Y-5442500D01*
X12242500Y-5407500D02*
X12207500Y-5442500D01*
X12207500Y-7182500D02*
X12242500Y-7217500D01*
X12242500Y-7182500D02*
X12207500Y-7217500D01*
X12211594Y-5644236D02*
X12246594Y-5679236D01*
X12246594Y-5644236D02*
X12211594Y-5679236D01*
X12213053Y-5508045D02*
X12248053Y-5543045D01*
X12248053Y-5508045D02*
X12213053Y-5543045D01*
X12262500Y-4922500D02*
X12297500Y-4957500D01*
X12297500Y-4922500D02*
X12262500Y-4957500D01*
X12262500Y-7582500D02*
X12297500Y-7617500D01*
X12297500Y-7582500D02*
X12262500Y-7617500D01*
X12342500Y-4922500D02*
X12377500Y-4957500D01*
X12377500Y-4922500D02*
X12342500Y-4957500D01*
X12385000Y-5732535D02*
X12420000Y-5767535D01*
X12420000Y-5732535D02*
X12385000Y-5767535D01*
X12442500Y-5422500D02*
X12477500Y-5457500D01*
X12477500Y-5422500D02*
X12442500Y-5457500D01*
X12442500Y-5522500D02*
X12477500Y-5557500D01*
X12477500Y-5522500D02*
X12442500Y-5557500D01*
X12442500Y-6292500D02*
X12477500Y-6327500D01*
X12477500Y-6292500D02*
X12442500Y-6327500D01*
X12502500Y-7355790D02*
X12537500Y-7390790D01*
X12537500Y-7355790D02*
X12502500Y-7390790D01*
X12532471Y-6707471D02*
X12567471Y-6742471D01*
X12567471Y-6707471D02*
X12532471Y-6742471D01*
X12582500Y-4862500D02*
X12617500Y-4897500D01*
X12617500Y-4862500D02*
X12582500Y-4897500D01*
X12582500Y-6955790D02*
X12617500Y-6990790D01*
X12617500Y-6955790D02*
X12582500Y-6990790D01*
X12607500Y-6277500D02*
X12642500Y-6312500D01*
X12642500Y-6277500D02*
X12607500Y-6312500D01*
X12622500Y-4922500D02*
X12657500Y-4957500D01*
X12657500Y-4922500D02*
X12622500Y-4957500D01*
X12659422Y-6933812D02*
X12694422Y-6968812D01*
X12694422Y-6933812D02*
X12659422Y-6968812D01*
X12662500Y-4862500D02*
X12697500Y-4897500D01*
X12697500Y-4862500D02*
X12662500Y-4897500D01*
X12673013Y-5559082D02*
X12708013Y-5594082D01*
X12708013Y-5559082D02*
X12673013Y-5594082D01*
X12680000Y-6760000D02*
X12715000Y-6795000D01*
X12715000Y-6760000D02*
X12680000Y-6795000D01*
X12702500Y-7395790D02*
X12737500Y-7430790D01*
X12737500Y-7395790D02*
X12702500Y-7430790D01*
X12733975Y-6900790D02*
X12768975Y-6935790D01*
X12768975Y-6900790D02*
X12733975Y-6935790D01*
X12757500Y-6277500D02*
X12792500Y-6312500D01*
X12792500Y-6277500D02*
X12757500Y-6312500D01*
X12762500Y-5082500D02*
X12797500Y-5117500D01*
X12797500Y-5082500D02*
X12762500Y-5117500D01*
X12792964Y-4864256D02*
X12827964Y-4899256D01*
X12827964Y-4864256D02*
X12792964Y-4899256D01*
X12835451Y-6259511D02*
X12870451Y-6294511D01*
X12870451Y-6259511D02*
X12835451Y-6294511D01*
X12857500Y-4807500D02*
X12892500Y-4842500D01*
X12892500Y-4807500D02*
X12857500Y-4842500D01*
X12857500Y-6332500D02*
X12892500Y-6367500D01*
X12892500Y-6332500D02*
X12857500Y-6367500D01*
X12857630Y-7182500D02*
X12892630Y-7217500D01*
X12892630Y-7182500D02*
X12857630Y-7217500D01*
X12862500Y-7582500D02*
X12897500Y-7617500D01*
X12897500Y-7582500D02*
X12862500Y-7617500D01*
X12869855Y-5531595D02*
X12904855Y-5566595D01*
X12904855Y-5531595D02*
X12869855Y-5566595D01*
X12936584Y-6342428D02*
X12971584Y-6377428D01*
X12971584Y-6342428D02*
X12936584Y-6377428D01*
X12953436Y-5525346D02*
X12988436Y-5560346D01*
X12988436Y-5525346D02*
X12953436Y-5560346D01*
X12954970Y-7010790D02*
X12989970Y-7045790D01*
X12989970Y-7010790D02*
X12954970Y-7045790D01*
X12964628Y-5109866D02*
X12999628Y-5144866D01*
X12999628Y-5109866D02*
X12964628Y-5144866D01*
X12982500Y-6272500D02*
X13017500Y-6307500D01*
X13017500Y-6272500D02*
X12982500Y-6307500D01*
X12982500Y-6862500D02*
X13017500Y-6897500D01*
X13017500Y-6862500D02*
X12982500Y-6897500D01*
X13007500Y-6732500D02*
X13042500Y-6767500D01*
X13042500Y-6732500D02*
X13007500Y-6767500D01*
X13063202Y-7188840D02*
X13098202Y-7223840D01*
X13098202Y-7188840D02*
X13063202Y-7223840D01*
X13082500Y-5482500D02*
X13117500Y-5517500D01*
X13117500Y-5482500D02*
X13082500Y-5517500D01*
X13131533Y-5630017D02*
X13166533Y-5665017D01*
X13166533Y-5630017D02*
X13131533Y-5665017D01*
X13143648Y-4724057D02*
X13178648Y-4759057D01*
X13178648Y-4724057D02*
X13143648Y-4759057D01*
X13162500Y-5862500D02*
X13197500Y-5897500D01*
X13197500Y-5862500D02*
X13162500Y-5897500D01*
X13182500Y-5507500D02*
X13217500Y-5542500D01*
X13217500Y-5507500D02*
X13182500Y-5542500D01*
X13232500Y-4832500D02*
X13267500Y-4867500D01*
X13267500Y-4832500D02*
X13232500Y-4867500D01*
X13272500Y-6825790D02*
X13307500Y-6860790D01*
X13307500Y-6825790D02*
X13272500Y-6860790D01*
X13282500Y-4957500D02*
X13317500Y-4992500D01*
X13317500Y-4957500D02*
X13282500Y-4992500D01*
X13282500Y-5607500D02*
X13317500Y-5642500D01*
X13317500Y-5607500D02*
X13282500Y-5642500D01*
X13282500Y-7582500D02*
X13317500Y-7617500D01*
X13317500Y-7582500D02*
X13282500Y-7617500D01*
X13302500Y-7335790D02*
X13337500Y-7370790D01*
X13337500Y-7335790D02*
X13302500Y-7370790D01*
X13307500Y-6332500D02*
X13342500Y-6367500D01*
X13342500Y-6332500D02*
X13307500Y-6367500D01*
X13342500Y-6902500D02*
X13377500Y-6937500D01*
X13377500Y-6902500D02*
X13342500Y-6937500D01*
X13357500Y-5857500D02*
X13392500Y-5892500D01*
X13392500Y-5857500D02*
X13357500Y-5892500D01*
X13362500Y-7402500D02*
X13397500Y-7437500D01*
X13397500Y-7402500D02*
X13362500Y-7437500D01*
X13407500Y-5057500D02*
X13442500Y-5092500D01*
X13442500Y-5057500D02*
X13407500Y-5092500D01*
X13407500Y-6432500D02*
X13442500Y-6467500D01*
X13442500Y-6432500D02*
X13407500Y-6467500D01*
X13432500Y-5607500D02*
X13467500Y-5642500D01*
X13467500Y-5607500D02*
X13432500Y-5642500D01*
X13466862Y-5782744D02*
X13501862Y-5817744D01*
X13501862Y-5782744D02*
X13466862Y-5817744D01*
X13477000Y-4735000D02*
X13512000Y-4770000D01*
X13512000Y-4735000D02*
X13477000Y-4770000D01*
X13532500Y-5507500D02*
X13567500Y-5542500D01*
X13567500Y-5507500D02*
X13532500Y-5542500D01*
X13572401Y-5022401D02*
X13607401Y-5057401D01*
X13607401Y-5022401D02*
X13572401Y-5057401D01*
X13582500Y-7362500D02*
X13617500Y-7397500D01*
X13617500Y-7362500D02*
X13582500Y-7397500D01*
X13602500Y-6915790D02*
X13637500Y-6950790D01*
X13637500Y-6915790D02*
X13602500Y-6950790D01*
X13662500Y-7395790D02*
X13697500Y-7430790D01*
X13697500Y-7395790D02*
X13662500Y-7430790D01*
X13662500Y-7582500D02*
X13697500Y-7617500D01*
X13697500Y-7582500D02*
X13662500Y-7617500D01*
X13707500Y-5157500D02*
X13742500Y-5192500D01*
X13742500Y-5157500D02*
X13707500Y-5192500D01*
X13715261Y-5782744D02*
X13750261Y-5817744D01*
X13750261Y-5782744D02*
X13715261Y-5817744D01*
X13731000Y-4735000D02*
X13766000Y-4770000D01*
X13766000Y-4735000D02*
X13731000Y-4770000D01*
X13742500Y-6842500D02*
X13777500Y-6877500D01*
X13777500Y-6842500D02*
X13742500Y-6877500D01*
X13802500Y-7395790D02*
X13837500Y-7430790D01*
X13837500Y-7395790D02*
X13802500Y-7430790D01*
X13822500Y-5442500D02*
X13857500Y-5477500D01*
X13857500Y-5442500D02*
X13822500Y-5477500D01*
X13822500Y-7315790D02*
X13857500Y-7350790D01*
X13857500Y-7315790D02*
X13822500Y-7350790D01*
X13842500Y-5302500D02*
X13877500Y-5337500D01*
X13877500Y-5302500D02*
X13842500Y-5337500D01*
X13857500Y-5157500D02*
X13892500Y-5192500D01*
X13892500Y-5157500D02*
X13857500Y-5192500D01*
X13882500Y-6842500D02*
X13917500Y-6877500D01*
X13917500Y-6842500D02*
X13882500Y-6877500D01*
X13882500Y-6915790D02*
X13917500Y-6950790D01*
X13917500Y-6915790D02*
X13882500Y-6950790D01*
X13962500Y-5402500D02*
X13997500Y-5437500D01*
X13997500Y-5402500D02*
X13962500Y-5437500D01*
X13982500Y-6682500D02*
X14017500Y-6717500D01*
X14017500Y-6682500D02*
X13982500Y-6717500D01*
X13985000Y-4735000D02*
X14020000Y-4770000D01*
X14020000Y-4735000D02*
X13985000Y-4770000D01*
X14002500Y-7342500D02*
X14037500Y-7377500D01*
X14037500Y-7342500D02*
X14002500Y-7377500D01*
X14002500Y-7442500D02*
X14037500Y-7477500D01*
X14037500Y-7442500D02*
X14002500Y-7477500D01*
X14031250Y-4967500D02*
X14066250Y-5002500D01*
X14066250Y-4967500D02*
X14031250Y-5002500D01*
X14062500Y-7122500D02*
X14097500Y-7157500D01*
X14097500Y-7122500D02*
X14062500Y-7157500D01*
X14162500Y-7582500D02*
X14197500Y-7617500D01*
X14197500Y-7582500D02*
X14162500Y-7617500D01*
X14202500Y-6902500D02*
X14237500Y-6937500D01*
X14237500Y-6902500D02*
X14202500Y-6937500D01*
X14222500Y-6182500D02*
X14257500Y-6217500D01*
X14257500Y-6182500D02*
X14222500Y-6217500D01*
X14262500Y-7082500D02*
X14297500Y-7117500D01*
X14297500Y-7082500D02*
X14262500Y-7117500D01*
X14262500Y-7282500D02*
X14297500Y-7317500D01*
X14297500Y-7282500D02*
X14262500Y-7317500D01*
X14262500Y-7442500D02*
X14297500Y-7477500D01*
X14297500Y-7442500D02*
X14262500Y-7477500D01*
X14462500Y-5922500D02*
X14497500Y-5957500D01*
X14497500Y-5922500D02*
X14462500Y-5957500D01*
X14482500Y-6202500D02*
X14517500Y-6237500D01*
X14517500Y-6202500D02*
X14482500Y-6237500D01*
X14571250Y-4785000D02*
X14606250Y-4820000D01*
X14606250Y-4785000D02*
X14571250Y-4820000D01*
X14571250Y-4872500D02*
X14606250Y-4907500D01*
X14606250Y-4872500D02*
X14571250Y-4907500D01*
X14631250Y-5032500D02*
X14666250Y-5067500D01*
X14666250Y-5032500D02*
X14631250Y-5067500D01*
X14722500Y-7562500D02*
X14757500Y-7597500D01*
X14757500Y-7562500D02*
X14722500Y-7597500D01*
X14747000Y-5622500D02*
X14782000Y-5657500D01*
X14782000Y-5622500D02*
X14747000Y-5657500D01*
X14747000Y-5751000D02*
X14782000Y-5786000D01*
X14782000Y-5751000D02*
X14747000Y-5786000D01*
X14747000Y-6005000D02*
X14782000Y-6040000D01*
X14782000Y-6005000D02*
X14747000Y-6040000D01*
X14747000Y-6259000D02*
X14782000Y-6294000D01*
X14782000Y-6259000D02*
X14747000Y-6294000D01*
X14747000Y-6513000D02*
X14782000Y-6548000D01*
X14782000Y-6513000D02*
X14747000Y-6548000D01*
X15001000Y-5622500D02*
X15036000Y-5657500D01*
X15036000Y-5622500D02*
X15001000Y-5657500D01*
X15001000Y-5751000D02*
X15036000Y-5786000D01*
X15036000Y-5751000D02*
X15001000Y-5786000D01*
X15001000Y-6005000D02*
X15036000Y-6040000D01*
X15036000Y-6005000D02*
X15001000Y-6040000D01*
X15001000Y-6259000D02*
X15036000Y-6294000D01*
X15036000Y-6259000D02*
X15001000Y-6294000D01*
X15001000Y-6513000D02*
X15036000Y-6548000D01*
X15036000Y-6513000D02*
X15001000Y-6548000D01*
X15001000Y-6767000D02*
X15036000Y-6802000D01*
X15036000Y-6767000D02*
X15001000Y-6802000D01*
X15001000Y-7021000D02*
X15036000Y-7056000D01*
X15036000Y-7021000D02*
X15001000Y-7056000D01*
X15001000Y-7275000D02*
X15036000Y-7310000D01*
X15036000Y-7275000D02*
X15001000Y-7310000D01*
X15001000Y-7529000D02*
X15036000Y-7564000D01*
X15036000Y-7529000D02*
X15001000Y-7564000D01*
X15018909Y-4814405D02*
X15053909Y-4849405D01*
X15053909Y-4814405D02*
X15018909Y-4849405D01*
X15031250Y-4952500D02*
X15066250Y-4987500D01*
X15066250Y-4952500D02*
X15031250Y-4987500D01*
X9979547Y-6650000D02*
G75*
G02*
X9944547Y-6650000I-17500J0D01*
G01*
X9944547Y-6650000D02*
G75*
G02*
X9979547Y-6650000I17500J0D01*
G01*
X9979547Y-6750000D02*
G75*
G02*
X9944547Y-6750000I-17500J0D01*
G01*
X9944547Y-6750000D02*
G75*
G02*
X9979547Y-6750000I17500J0D01*
G01*
X9979547Y-6850000D02*
G75*
G02*
X9944547Y-6850000I-17500J0D01*
G01*
X9944547Y-6850000D02*
G75*
G02*
X9979547Y-6850000I17500J0D01*
G01*
X10079547Y-6650000D02*
G75*
G02*
X10044547Y-6650000I-17500J0D01*
G01*
X10044547Y-6650000D02*
G75*
G02*
X10079547Y-6650000I17500J0D01*
G01*
X10079547Y-6750000D02*
G75*
G02*
X10044547Y-6750000I-17500J0D01*
G01*
X10044547Y-6750000D02*
G75*
G02*
X10079547Y-6750000I17500J0D01*
G01*
X10079547Y-6850000D02*
G75*
G02*
X10044547Y-6850000I-17500J0D01*
G01*
X10044547Y-6850000D02*
G75*
G02*
X10079547Y-6850000I17500J0D01*
G01*
X10179547Y-6650000D02*
G75*
G02*
X10144547Y-6650000I-17500J0D01*
G01*
X10144547Y-6650000D02*
G75*
G02*
X10179547Y-6650000I17500J0D01*
G01*
X10179547Y-6750000D02*
G75*
G02*
X10144547Y-6750000I-17500J0D01*
G01*
X10144547Y-6750000D02*
G75*
G02*
X10179547Y-6750000I17500J0D01*
G01*
X10179547Y-6850000D02*
G75*
G02*
X10144547Y-6850000I-17500J0D01*
G01*
X10144547Y-6850000D02*
G75*
G02*
X10179547Y-6850000I17500J0D01*
G01*
X6890000Y-4970000D02*
X6890000Y-5010000D01*
X6870000Y-4990000D02*
X6910000Y-4990000D01*
X6946328Y-5308238D02*
X6946328Y-5348238D01*
X6926328Y-5328238D02*
X6966328Y-5328238D01*
X7000000Y-5251639D02*
X7000000Y-5291639D01*
X6980000Y-5271639D02*
X7020000Y-5271639D01*
X8860478Y-5297500D02*
X8860478Y-5337500D01*
X8840478Y-5317500D02*
X8880478Y-5317500D01*
X8933062Y-5242500D02*
X8933062Y-5282500D01*
X8913062Y-5262500D02*
X8953062Y-5262500D01*
X9500478Y-7100000D02*
X9500478Y-7140000D01*
X9480478Y-7120000D02*
X9520478Y-7120000D01*
X9512047Y-6660000D02*
X9512047Y-6700000D01*
X9492047Y-6680000D02*
X9532047Y-6680000D01*
X9578661Y-6722463D02*
X9578661Y-6762463D01*
X9558661Y-6742463D02*
X9598661Y-6742463D01*
X9590478Y-7100000D02*
X9590478Y-7140000D01*
X9570478Y-7120000D02*
X9610478Y-7120000D01*
X9595478Y-6606569D02*
X9595478Y-6646569D01*
X9575478Y-6626569D02*
X9615478Y-6626569D01*
X9655478Y-6666569D02*
X9655478Y-6706569D01*
X9635478Y-6686569D02*
X9675478Y-6686569D01*
X10442047Y-6730000D02*
X10442047Y-6770000D01*
X10422047Y-6750000D02*
X10462047Y-6750000D01*
X10526117Y-6728907D02*
X10526117Y-6768907D01*
X10506117Y-6748907D02*
X10546117Y-6748907D01*
X10607841Y-6950000D02*
X10607841Y-6990000D01*
X10587841Y-6970000D02*
X10627841Y-6970000D01*
X12191608Y-5984487D02*
X12191608Y-6024487D01*
X12171608Y-6004487D02*
X12211608Y-6004487D01*
X12316389Y-5909618D02*
X12316389Y-5949618D01*
X12296389Y-5929618D02*
X12336389Y-5929618D01*
X12463956Y-5905278D02*
X12463956Y-5945278D01*
X12443956Y-5925278D02*
X12483956Y-5925278D01*
X13080000Y-5785000D02*
X13080000Y-5825000D01*
X13060000Y-5805000D02*
X13100000Y-5805000D01*
X13080000Y-5900000D02*
X13080000Y-5940000D01*
X13060000Y-5920000D02*
X13100000Y-5920000D01*
X14480284Y-7035284D02*
X14480284Y-6978715D01*
X14423715Y-6978715D01*
X14423715Y-7035284D01*
X14480284Y-7035284D01*
X14480284Y-7395284D02*
X14480284Y-7338715D01*
X14423715Y-7338715D01*
X14423715Y-7395284D01*
X14480284Y-7395284D01*
X14840284Y-7035284D02*
X14840284Y-6978715D01*
X14783715Y-6978715D01*
X14783715Y-7035284D01*
X14840284Y-7035284D01*
X14840284Y-7395284D02*
X14840284Y-7338715D01*
X14783715Y-7338715D01*
X14783715Y-7395284D01*
X14840284Y-7395284D01*
X8320000Y-4970000D02*
X8370000Y-4920000D01*
X8320000Y-4870000D01*
X8270000Y-4920000D01*
X8320000Y-4970000D01*
X8574000Y-4970000D02*
X8624000Y-4920000D01*
X8574000Y-4870000D01*
X8524000Y-4920000D01*
X8574000Y-4970000D01*
X8828000Y-4970000D02*
X8878000Y-4920000D01*
X8828000Y-4870000D01*
X8778000Y-4920000D01*
X8828000Y-4970000D01*
X9082000Y-4970000D02*
X9132000Y-4920000D01*
X9082000Y-4870000D01*
X9032000Y-4920000D01*
X9082000Y-4970000D01*
X9336000Y-4970000D02*
X9386000Y-4920000D01*
X9336000Y-4870000D01*
X9286000Y-4920000D01*
X9336000Y-4970000D01*
X9590000Y-4970000D02*
X9640000Y-4920000D01*
X9590000Y-4870000D01*
X9540000Y-4920000D01*
X9590000Y-4970000D01*
X9844000Y-4970000D02*
X9894000Y-4920000D01*
X9844000Y-4870000D01*
X9794000Y-4920000D01*
X9844000Y-4970000D01*
X10098000Y-4970000D02*
X10148000Y-4920000D01*
X10098000Y-4870000D01*
X10048000Y-4920000D01*
X10098000Y-4970000D01*
X10352000Y-4970000D02*
X10402000Y-4920000D01*
X10352000Y-4870000D01*
X10302000Y-4920000D01*
X10352000Y-4970000D01*
X10606000Y-4970000D02*
X10656000Y-4920000D01*
X10606000Y-4870000D01*
X10556000Y-4920000D01*
X10606000Y-4970000D01*
X10860000Y-4970000D02*
X10910000Y-4920000D01*
X10860000Y-4870000D01*
X10810000Y-4920000D01*
X10860000Y-4970000D01*
X11114000Y-4970000D02*
X11164000Y-4920000D01*
X11114000Y-4870000D01*
X11064000Y-4920000D01*
X11114000Y-4970000D01*
X11368000Y-4970000D02*
X11418000Y-4920000D01*
X11368000Y-4870000D01*
X11318000Y-4920000D01*
X11368000Y-4970000D01*
D12*
X14103000Y-5735500D02*
X14233000Y-5865500D01*
X14233000Y-5735500D02*
X14103000Y-5865500D01*
X14233000Y-5800500D02*
G75*
G02*
X14103000Y-5800500I-65000J0D01*
G01*
X14103000Y-5800500D02*
G75*
G02*
X14233000Y-5800500I65000J0D01*
G01*
X14103000Y-5950500D02*
X14233000Y-6080500D01*
X14233000Y-5950500D02*
X14103000Y-6080500D01*
X14233000Y-6015500D02*
G75*
G02*
X14103000Y-6015500I-65000J0D01*
G01*
X14103000Y-6015500D02*
G75*
G02*
X14233000Y-6015500I65000J0D01*
G01*
X14298000Y-5673000D02*
X14428000Y-5803000D01*
X14428000Y-5673000D02*
X14298000Y-5803000D01*
X14428000Y-5738000D02*
G75*
G02*
X14298000Y-5738000I-65000J0D01*
G01*
X14298000Y-5738000D02*
G75*
G02*
X14428000Y-5738000I65000J0D01*
G01*
X14298000Y-6013000D02*
X14428000Y-6143000D01*
X14428000Y-6013000D02*
X14298000Y-6143000D01*
X14428000Y-6078000D02*
G75*
G02*
X14298000Y-6078000I-65000J0D01*
G01*
X14298000Y-6078000D02*
G75*
G02*
X14428000Y-6078000I65000J0D01*
G01*
D11*
X6374500Y-6100000D02*
X6574500Y-6300000D01*
X6574500Y-6100000D02*
X6374500Y-6300000D01*
X6474500Y-6100000D02*
X6474500Y-6300000D01*
X6374500Y-6200000D02*
X6574500Y-6200000D01*
X13664500Y-6100000D02*
X13864500Y-6300000D01*
X13864500Y-6100000D02*
X13664500Y-6300000D01*
X13764500Y-6100000D02*
X13764500Y-6300000D01*
X13664500Y-6200000D02*
X13864500Y-6200000D01*
D13*
X14163000Y-5133000D02*
X14463000Y-5433000D01*
X14463000Y-5133000D02*
X14163000Y-5433000D01*
X14419067Y-5389067D02*
X14419067Y-5176933D01*
X14206933Y-5176933D01*
X14206933Y-5389067D01*
X14419067Y-5389067D01*
X14163000Y-6383000D02*
X14463000Y-6683000D01*
X14463000Y-6383000D02*
X14163000Y-6683000D01*
X14419067Y-6639067D02*
X14419067Y-6426933D01*
X14206933Y-6426933D01*
X14206933Y-6639067D01*
X14419067Y-6639067D01*
D11*
X6286777Y-7972484D02*
X6286777Y-7772484D01*
X6286777Y-7772484D02*
X6334396Y-7772484D01*
X6334396Y-7772484D02*
X6362967Y-7782008D01*
X6362967Y-7782008D02*
X6382015Y-7801055D01*
X6382015Y-7801055D02*
X6391539Y-7820103D01*
X6391539Y-7820103D02*
X6401062Y-7858198D01*
X6401062Y-7858198D02*
X6401062Y-7886769D01*
X6401062Y-7886769D02*
X6391539Y-7924865D01*
X6391539Y-7924865D02*
X6382015Y-7943912D01*
X6382015Y-7943912D02*
X6362967Y-7962960D01*
X6362967Y-7962960D02*
X6334396Y-7972484D01*
X6334396Y-7972484D02*
X6286777Y-7972484D01*
X6486777Y-7972484D02*
X6486777Y-7839150D01*
X6486777Y-7877246D02*
X6496301Y-7858198D01*
X6496301Y-7858198D02*
X6505824Y-7848674D01*
X6505824Y-7848674D02*
X6524872Y-7839150D01*
X6524872Y-7839150D02*
X6543920Y-7839150D01*
X6610586Y-7972484D02*
X6610586Y-7839150D01*
X6610586Y-7772484D02*
X6601062Y-7782008D01*
X6601062Y-7782008D02*
X6610586Y-7791531D01*
X6610586Y-7791531D02*
X6620110Y-7782008D01*
X6620110Y-7782008D02*
X6610586Y-7772484D01*
X6610586Y-7772484D02*
X6610586Y-7791531D01*
X6734396Y-7972484D02*
X6715348Y-7962960D01*
X6715348Y-7962960D02*
X6705824Y-7943912D01*
X6705824Y-7943912D02*
X6705824Y-7772484D01*
X6839158Y-7972484D02*
X6820110Y-7962960D01*
X6820110Y-7962960D02*
X6810586Y-7943912D01*
X6810586Y-7943912D02*
X6810586Y-7772484D01*
X7067729Y-7972484D02*
X7067729Y-7772484D01*
X7067729Y-7772484D02*
X7134396Y-7915341D01*
X7134396Y-7915341D02*
X7201062Y-7772484D01*
X7201062Y-7772484D02*
X7201062Y-7972484D01*
X7382015Y-7972484D02*
X7382015Y-7867722D01*
X7382015Y-7867722D02*
X7372491Y-7848674D01*
X7372491Y-7848674D02*
X7353443Y-7839150D01*
X7353443Y-7839150D02*
X7315348Y-7839150D01*
X7315348Y-7839150D02*
X7296301Y-7848674D01*
X7382015Y-7962960D02*
X7362967Y-7972484D01*
X7362967Y-7972484D02*
X7315348Y-7972484D01*
X7315348Y-7972484D02*
X7296301Y-7962960D01*
X7296301Y-7962960D02*
X7286777Y-7943912D01*
X7286777Y-7943912D02*
X7286777Y-7924865D01*
X7286777Y-7924865D02*
X7296301Y-7905817D01*
X7296301Y-7905817D02*
X7315348Y-7896293D01*
X7315348Y-7896293D02*
X7362967Y-7896293D01*
X7362967Y-7896293D02*
X7382015Y-7886769D01*
X7477253Y-7839150D02*
X7477253Y-8039150D01*
X7477253Y-7848674D02*
X7496301Y-7839150D01*
X7496301Y-7839150D02*
X7534396Y-7839150D01*
X7534396Y-7839150D02*
X7553443Y-7848674D01*
X7553443Y-7848674D02*
X7562967Y-7858198D01*
X7562967Y-7858198D02*
X7572491Y-7877246D01*
X7572491Y-7877246D02*
X7572491Y-7934388D01*
X7572491Y-7934388D02*
X7562967Y-7953436D01*
X7562967Y-7953436D02*
X7553443Y-7962960D01*
X7553443Y-7962960D02*
X7534396Y-7972484D01*
X7534396Y-7972484D02*
X7496301Y-7972484D01*
X7496301Y-7972484D02*
X7477253Y-7962960D01*
X7658205Y-7953436D02*
X7667729Y-7962960D01*
X7667729Y-7962960D02*
X7658205Y-7972484D01*
X7658205Y-7972484D02*
X7648682Y-7962960D01*
X7648682Y-7962960D02*
X7658205Y-7953436D01*
X7658205Y-7953436D02*
X7658205Y-7972484D01*
X7658205Y-7848674D02*
X7667729Y-7858198D01*
X7667729Y-7858198D02*
X7658205Y-7867722D01*
X7658205Y-7867722D02*
X7648682Y-7858198D01*
X7648682Y-7858198D02*
X7658205Y-7848674D01*
X7658205Y-7848674D02*
X7658205Y-7867722D01*
D10*
X5991000Y-8283500D02*
X6026000Y-8318500D01*
X6026000Y-8283500D02*
X5991000Y-8318500D01*
D11*
X6324872Y-8192484D02*
X6343920Y-8192484D01*
X6343920Y-8192484D02*
X6362967Y-8202008D01*
X6362967Y-8202008D02*
X6372491Y-8211531D01*
X6372491Y-8211531D02*
X6382015Y-8230579D01*
X6382015Y-8230579D02*
X6391539Y-8268674D01*
X6391539Y-8268674D02*
X6391539Y-8316293D01*
X6391539Y-8316293D02*
X6382015Y-8354388D01*
X6382015Y-8354388D02*
X6372491Y-8373436D01*
X6372491Y-8373436D02*
X6362967Y-8382960D01*
X6362967Y-8382960D02*
X6343920Y-8392484D01*
X6343920Y-8392484D02*
X6324872Y-8392484D01*
X6324872Y-8392484D02*
X6305824Y-8382960D01*
X6305824Y-8382960D02*
X6296301Y-8373436D01*
X6296301Y-8373436D02*
X6286777Y-8354388D01*
X6286777Y-8354388D02*
X6277253Y-8316293D01*
X6277253Y-8316293D02*
X6277253Y-8268674D01*
X6277253Y-8268674D02*
X6286777Y-8230579D01*
X6286777Y-8230579D02*
X6296301Y-8211531D01*
X6296301Y-8211531D02*
X6305824Y-8202008D01*
X6305824Y-8202008D02*
X6324872Y-8192484D01*
X6477253Y-8373436D02*
X6486777Y-8382960D01*
X6486777Y-8382960D02*
X6477253Y-8392484D01*
X6477253Y-8392484D02*
X6467729Y-8382960D01*
X6467729Y-8382960D02*
X6477253Y-8373436D01*
X6477253Y-8373436D02*
X6477253Y-8392484D01*
X6553443Y-8192484D02*
X6677253Y-8192484D01*
X6677253Y-8192484D02*
X6610586Y-8268674D01*
X6610586Y-8268674D02*
X6639158Y-8268674D01*
X6639158Y-8268674D02*
X6658205Y-8278198D01*
X6658205Y-8278198D02*
X6667729Y-8287722D01*
X6667729Y-8287722D02*
X6677253Y-8306769D01*
X6677253Y-8306769D02*
X6677253Y-8354388D01*
X6677253Y-8354388D02*
X6667729Y-8373436D01*
X6667729Y-8373436D02*
X6658205Y-8382960D01*
X6658205Y-8382960D02*
X6639158Y-8392484D01*
X6639158Y-8392484D02*
X6582015Y-8392484D01*
X6582015Y-8392484D02*
X6562967Y-8382960D01*
X6562967Y-8382960D02*
X6553443Y-8373436D01*
X6858205Y-8192484D02*
X6762967Y-8192484D01*
X6762967Y-8192484D02*
X6753443Y-8287722D01*
X6753443Y-8287722D02*
X6762967Y-8278198D01*
X6762967Y-8278198D02*
X6782015Y-8268674D01*
X6782015Y-8268674D02*
X6829634Y-8268674D01*
X6829634Y-8268674D02*
X6848682Y-8278198D01*
X6848682Y-8278198D02*
X6858205Y-8287722D01*
X6858205Y-8287722D02*
X6867729Y-8306769D01*
X6867729Y-8306769D02*
X6867729Y-8354388D01*
X6867729Y-8354388D02*
X6858205Y-8373436D01*
X6858205Y-8373436D02*
X6848682Y-8382960D01*
X6848682Y-8382960D02*
X6829634Y-8392484D01*
X6829634Y-8392484D02*
X6782015Y-8392484D01*
X6782015Y-8392484D02*
X6762967Y-8382960D01*
X6762967Y-8382960D02*
X6753443Y-8373436D01*
X6991539Y-8192484D02*
X7010586Y-8192484D01*
X7010586Y-8192484D02*
X7029634Y-8202008D01*
X7029634Y-8202008D02*
X7039158Y-8211531D01*
X7039158Y-8211531D02*
X7048682Y-8230579D01*
X7048682Y-8230579D02*
X7058205Y-8268674D01*
X7058205Y-8268674D02*
X7058205Y-8316293D01*
X7058205Y-8316293D02*
X7048682Y-8354388D01*
X7048682Y-8354388D02*
X7039158Y-8373436D01*
X7039158Y-8373436D02*
X7029634Y-8382960D01*
X7029634Y-8382960D02*
X7010586Y-8392484D01*
X7010586Y-8392484D02*
X6991539Y-8392484D01*
X6991539Y-8392484D02*
X6972491Y-8382960D01*
X6972491Y-8382960D02*
X6962967Y-8373436D01*
X6962967Y-8373436D02*
X6953443Y-8354388D01*
X6953443Y-8354388D02*
X6943920Y-8316293D01*
X6943920Y-8316293D02*
X6943920Y-8268674D01*
X6943920Y-8268674D02*
X6953443Y-8230579D01*
X6953443Y-8230579D02*
X6962967Y-8211531D01*
X6962967Y-8211531D02*
X6972491Y-8202008D01*
X6972491Y-8202008D02*
X6991539Y-8192484D01*
X7143920Y-8392484D02*
X7143920Y-8259150D01*
X7143920Y-8278198D02*
X7153443Y-8268674D01*
X7153443Y-8268674D02*
X7172491Y-8259150D01*
X7172491Y-8259150D02*
X7201063Y-8259150D01*
X7201063Y-8259150D02*
X7220110Y-8268674D01*
X7220110Y-8268674D02*
X7229634Y-8287722D01*
X7229634Y-8287722D02*
X7229634Y-8392484D01*
X7229634Y-8287722D02*
X7239158Y-8268674D01*
X7239158Y-8268674D02*
X7258205Y-8259150D01*
X7258205Y-8259150D02*
X7286777Y-8259150D01*
X7286777Y-8259150D02*
X7305824Y-8268674D01*
X7305824Y-8268674D02*
X7315348Y-8287722D01*
X7315348Y-8287722D02*
X7315348Y-8392484D01*
X7410586Y-8392484D02*
X7410586Y-8259150D01*
X7410586Y-8278198D02*
X7420110Y-8268674D01*
X7420110Y-8268674D02*
X7439158Y-8259150D01*
X7439158Y-8259150D02*
X7467729Y-8259150D01*
X7467729Y-8259150D02*
X7486777Y-8268674D01*
X7486777Y-8268674D02*
X7496301Y-8287722D01*
X7496301Y-8287722D02*
X7496301Y-8392484D01*
X7496301Y-8287722D02*
X7505824Y-8268674D01*
X7505824Y-8268674D02*
X7524872Y-8259150D01*
X7524872Y-8259150D02*
X7553443Y-8259150D01*
X7553443Y-8259150D02*
X7572491Y-8268674D01*
X7572491Y-8268674D02*
X7582015Y-8287722D01*
X7582015Y-8287722D02*
X7582015Y-8392484D01*
X7972491Y-8182960D02*
X7801063Y-8440103D01*
X8229634Y-8192484D02*
X8248682Y-8192484D01*
X8248682Y-8192484D02*
X8267729Y-8202008D01*
X8267729Y-8202008D02*
X8277253Y-8211531D01*
X8277253Y-8211531D02*
X8286777Y-8230579D01*
X8286777Y-8230579D02*
X8296301Y-8268674D01*
X8296301Y-8268674D02*
X8296301Y-8316293D01*
X8296301Y-8316293D02*
X8286777Y-8354388D01*
X8286777Y-8354388D02*
X8277253Y-8373436D01*
X8277253Y-8373436D02*
X8267729Y-8382960D01*
X8267729Y-8382960D02*
X8248682Y-8392484D01*
X8248682Y-8392484D02*
X8229634Y-8392484D01*
X8229634Y-8392484D02*
X8210586Y-8382960D01*
X8210586Y-8382960D02*
X8201063Y-8373436D01*
X8201063Y-8373436D02*
X8191539Y-8354388D01*
X8191539Y-8354388D02*
X8182015Y-8316293D01*
X8182015Y-8316293D02*
X8182015Y-8268674D01*
X8182015Y-8268674D02*
X8191539Y-8230579D01*
X8191539Y-8230579D02*
X8201063Y-8211531D01*
X8201063Y-8211531D02*
X8210586Y-8202008D01*
X8210586Y-8202008D02*
X8229634Y-8192484D01*
X8382015Y-8373436D02*
X8391539Y-8382960D01*
X8391539Y-8382960D02*
X8382015Y-8392484D01*
X8382015Y-8392484D02*
X8372491Y-8382960D01*
X8372491Y-8382960D02*
X8382015Y-8373436D01*
X8382015Y-8373436D02*
X8382015Y-8392484D01*
X8515348Y-8192484D02*
X8534396Y-8192484D01*
X8534396Y-8192484D02*
X8553444Y-8202008D01*
X8553444Y-8202008D02*
X8562968Y-8211531D01*
X8562968Y-8211531D02*
X8572491Y-8230579D01*
X8572491Y-8230579D02*
X8582015Y-8268674D01*
X8582015Y-8268674D02*
X8582015Y-8316293D01*
X8582015Y-8316293D02*
X8572491Y-8354388D01*
X8572491Y-8354388D02*
X8562968Y-8373436D01*
X8562968Y-8373436D02*
X8553444Y-8382960D01*
X8553444Y-8382960D02*
X8534396Y-8392484D01*
X8534396Y-8392484D02*
X8515348Y-8392484D01*
X8515348Y-8392484D02*
X8496301Y-8382960D01*
X8496301Y-8382960D02*
X8486777Y-8373436D01*
X8486777Y-8373436D02*
X8477253Y-8354388D01*
X8477253Y-8354388D02*
X8467729Y-8316293D01*
X8467729Y-8316293D02*
X8467729Y-8268674D01*
X8467729Y-8268674D02*
X8477253Y-8230579D01*
X8477253Y-8230579D02*
X8486777Y-8211531D01*
X8486777Y-8211531D02*
X8496301Y-8202008D01*
X8496301Y-8202008D02*
X8515348Y-8192484D01*
X8772491Y-8392484D02*
X8658206Y-8392484D01*
X8715348Y-8392484D02*
X8715348Y-8192484D01*
X8715348Y-8192484D02*
X8696301Y-8221055D01*
X8696301Y-8221055D02*
X8677253Y-8240103D01*
X8677253Y-8240103D02*
X8658206Y-8249627D01*
X8839158Y-8192484D02*
X8962968Y-8192484D01*
X8962968Y-8192484D02*
X8896301Y-8268674D01*
X8896301Y-8268674D02*
X8924872Y-8268674D01*
X8924872Y-8268674D02*
X8943920Y-8278198D01*
X8943920Y-8278198D02*
X8953444Y-8287722D01*
X8953444Y-8287722D02*
X8962968Y-8306769D01*
X8962968Y-8306769D02*
X8962968Y-8354388D01*
X8962968Y-8354388D02*
X8953444Y-8373436D01*
X8953444Y-8373436D02*
X8943920Y-8382960D01*
X8943920Y-8382960D02*
X8924872Y-8392484D01*
X8924872Y-8392484D02*
X8867729Y-8392484D01*
X8867729Y-8392484D02*
X8848682Y-8382960D01*
X8848682Y-8382960D02*
X8839158Y-8373436D01*
X9077253Y-8278198D02*
X9058206Y-8268674D01*
X9058206Y-8268674D02*
X9048682Y-8259150D01*
X9048682Y-8259150D02*
X9039158Y-8240103D01*
X9039158Y-8240103D02*
X9039158Y-8230579D01*
X9039158Y-8230579D02*
X9048682Y-8211531D01*
X9048682Y-8211531D02*
X9058206Y-8202008D01*
X9058206Y-8202008D02*
X9077253Y-8192484D01*
X9077253Y-8192484D02*
X9115349Y-8192484D01*
X9115349Y-8192484D02*
X9134396Y-8202008D01*
X9134396Y-8202008D02*
X9143920Y-8211531D01*
X9143920Y-8211531D02*
X9153444Y-8230579D01*
X9153444Y-8230579D02*
X9153444Y-8240103D01*
X9153444Y-8240103D02*
X9143920Y-8259150D01*
X9143920Y-8259150D02*
X9134396Y-8268674D01*
X9134396Y-8268674D02*
X9115349Y-8278198D01*
X9115349Y-8278198D02*
X9077253Y-8278198D01*
X9077253Y-8278198D02*
X9058206Y-8287722D01*
X9058206Y-8287722D02*
X9048682Y-8297246D01*
X9048682Y-8297246D02*
X9039158Y-8316293D01*
X9039158Y-8316293D02*
X9039158Y-8354388D01*
X9039158Y-8354388D02*
X9048682Y-8373436D01*
X9048682Y-8373436D02*
X9058206Y-8382960D01*
X9058206Y-8382960D02*
X9077253Y-8392484D01*
X9077253Y-8392484D02*
X9115349Y-8392484D01*
X9115349Y-8392484D02*
X9134396Y-8382960D01*
X9134396Y-8382960D02*
X9143920Y-8373436D01*
X9143920Y-8373436D02*
X9153444Y-8354388D01*
X9153444Y-8354388D02*
X9153444Y-8316293D01*
X9153444Y-8316293D02*
X9143920Y-8297246D01*
X9143920Y-8297246D02*
X9134396Y-8287722D01*
X9134396Y-8287722D02*
X9115349Y-8278198D01*
X9229634Y-8192484D02*
X9229634Y-8230579D01*
X9305825Y-8192484D02*
X9305825Y-8230579D01*
X9601063Y-8468674D02*
X9591539Y-8459150D01*
X9591539Y-8459150D02*
X9572491Y-8430579D01*
X9572491Y-8430579D02*
X9562968Y-8411531D01*
X9562968Y-8411531D02*
X9553444Y-8382960D01*
X9553444Y-8382960D02*
X9543920Y-8335341D01*
X9543920Y-8335341D02*
X9543920Y-8297246D01*
X9543920Y-8297246D02*
X9553444Y-8249627D01*
X9553444Y-8249627D02*
X9562968Y-8221055D01*
X9562968Y-8221055D02*
X9572491Y-8202008D01*
X9572491Y-8202008D02*
X9591539Y-8173436D01*
X9591539Y-8173436D02*
X9601063Y-8163912D01*
X9762968Y-8259150D02*
X9762968Y-8392484D01*
X9715349Y-8182960D02*
X9667730Y-8325817D01*
X9667730Y-8325817D02*
X9791539Y-8325817D01*
X9962968Y-8192484D02*
X9867730Y-8192484D01*
X9867730Y-8192484D02*
X9858206Y-8287722D01*
X9858206Y-8287722D02*
X9867730Y-8278198D01*
X9867730Y-8278198D02*
X9886777Y-8268674D01*
X9886777Y-8268674D02*
X9934396Y-8268674D01*
X9934396Y-8268674D02*
X9953444Y-8278198D01*
X9953444Y-8278198D02*
X9962968Y-8287722D01*
X9962968Y-8287722D02*
X9972491Y-8306769D01*
X9972491Y-8306769D02*
X9972491Y-8354388D01*
X9972491Y-8354388D02*
X9962968Y-8373436D01*
X9962968Y-8373436D02*
X9953444Y-8382960D01*
X9953444Y-8382960D02*
X9934396Y-8392484D01*
X9934396Y-8392484D02*
X9886777Y-8392484D01*
X9886777Y-8392484D02*
X9867730Y-8382960D01*
X9867730Y-8382960D02*
X9858206Y-8373436D01*
X10039158Y-8192484D02*
X10172491Y-8192484D01*
X10172491Y-8192484D02*
X10086777Y-8392484D01*
X10401063Y-8392484D02*
X10401063Y-8192484D01*
X10486777Y-8392484D02*
X10486777Y-8287722D01*
X10486777Y-8287722D02*
X10477253Y-8268674D01*
X10477253Y-8268674D02*
X10458206Y-8259150D01*
X10458206Y-8259150D02*
X10429634Y-8259150D01*
X10429634Y-8259150D02*
X10410587Y-8268674D01*
X10410587Y-8268674D02*
X10401063Y-8278198D01*
X10610587Y-8392484D02*
X10591539Y-8382960D01*
X10591539Y-8382960D02*
X10582015Y-8373436D01*
X10582015Y-8373436D02*
X10572492Y-8354388D01*
X10572492Y-8354388D02*
X10572492Y-8297246D01*
X10572492Y-8297246D02*
X10582015Y-8278198D01*
X10582015Y-8278198D02*
X10591539Y-8268674D01*
X10591539Y-8268674D02*
X10610587Y-8259150D01*
X10610587Y-8259150D02*
X10639158Y-8259150D01*
X10639158Y-8259150D02*
X10658206Y-8268674D01*
X10658206Y-8268674D02*
X10667730Y-8278198D01*
X10667730Y-8278198D02*
X10677253Y-8297246D01*
X10677253Y-8297246D02*
X10677253Y-8354388D01*
X10677253Y-8354388D02*
X10667730Y-8373436D01*
X10667730Y-8373436D02*
X10658206Y-8382960D01*
X10658206Y-8382960D02*
X10639158Y-8392484D01*
X10639158Y-8392484D02*
X10610587Y-8392484D01*
X10791539Y-8392484D02*
X10772492Y-8382960D01*
X10772492Y-8382960D02*
X10762968Y-8363912D01*
X10762968Y-8363912D02*
X10762968Y-8192484D01*
X10943920Y-8382960D02*
X10924873Y-8392484D01*
X10924873Y-8392484D02*
X10886777Y-8392484D01*
X10886777Y-8392484D02*
X10867730Y-8382960D01*
X10867730Y-8382960D02*
X10858206Y-8363912D01*
X10858206Y-8363912D02*
X10858206Y-8287722D01*
X10858206Y-8287722D02*
X10867730Y-8268674D01*
X10867730Y-8268674D02*
X10886777Y-8259150D01*
X10886777Y-8259150D02*
X10924873Y-8259150D01*
X10924873Y-8259150D02*
X10943920Y-8268674D01*
X10943920Y-8268674D02*
X10953444Y-8287722D01*
X10953444Y-8287722D02*
X10953444Y-8306769D01*
X10953444Y-8306769D02*
X10858206Y-8325817D01*
X11029634Y-8382960D02*
X11048682Y-8392484D01*
X11048682Y-8392484D02*
X11086777Y-8392484D01*
X11086777Y-8392484D02*
X11105825Y-8382960D01*
X11105825Y-8382960D02*
X11115349Y-8363912D01*
X11115349Y-8363912D02*
X11115349Y-8354388D01*
X11115349Y-8354388D02*
X11105825Y-8335341D01*
X11105825Y-8335341D02*
X11086777Y-8325817D01*
X11086777Y-8325817D02*
X11058206Y-8325817D01*
X11058206Y-8325817D02*
X11039158Y-8316293D01*
X11039158Y-8316293D02*
X11029634Y-8297246D01*
X11029634Y-8297246D02*
X11029634Y-8287722D01*
X11029634Y-8287722D02*
X11039158Y-8268674D01*
X11039158Y-8268674D02*
X11058206Y-8259150D01*
X11058206Y-8259150D02*
X11086777Y-8259150D01*
X11086777Y-8259150D02*
X11105825Y-8268674D01*
X11182015Y-8468674D02*
X11191539Y-8459150D01*
X11191539Y-8459150D02*
X11210587Y-8430579D01*
X11210587Y-8430579D02*
X11220111Y-8411531D01*
X11220111Y-8411531D02*
X11229634Y-8382960D01*
X11229634Y-8382960D02*
X11239158Y-8335341D01*
X11239158Y-8335341D02*
X11239158Y-8297246D01*
X11239158Y-8297246D02*
X11229634Y-8249627D01*
X11229634Y-8249627D02*
X11220111Y-8221055D01*
X11220111Y-8221055D02*
X11210587Y-8202008D01*
X11210587Y-8202008D02*
X11191539Y-8173436D01*
X11191539Y-8173436D02*
X11182015Y-8163912D01*
D10*
X6026000Y-8565000D02*
G75*
G02*
X5991000Y-8565000I-17500J0D01*
G01*
X5991000Y-8565000D02*
G75*
G02*
X6026000Y-8565000I17500J0D01*
G01*
D11*
X6324872Y-8456484D02*
X6343920Y-8456484D01*
X6343920Y-8456484D02*
X6362967Y-8466008D01*
X6362967Y-8466008D02*
X6372491Y-8475531D01*
X6372491Y-8475531D02*
X6382015Y-8494579D01*
X6382015Y-8494579D02*
X6391539Y-8532674D01*
X6391539Y-8532674D02*
X6391539Y-8580293D01*
X6391539Y-8580293D02*
X6382015Y-8618389D01*
X6382015Y-8618389D02*
X6372491Y-8637436D01*
X6372491Y-8637436D02*
X6362967Y-8646960D01*
X6362967Y-8646960D02*
X6343920Y-8656484D01*
X6343920Y-8656484D02*
X6324872Y-8656484D01*
X6324872Y-8656484D02*
X6305824Y-8646960D01*
X6305824Y-8646960D02*
X6296301Y-8637436D01*
X6296301Y-8637436D02*
X6286777Y-8618389D01*
X6286777Y-8618389D02*
X6277253Y-8580293D01*
X6277253Y-8580293D02*
X6277253Y-8532674D01*
X6277253Y-8532674D02*
X6286777Y-8494579D01*
X6286777Y-8494579D02*
X6296301Y-8475531D01*
X6296301Y-8475531D02*
X6305824Y-8466008D01*
X6305824Y-8466008D02*
X6324872Y-8456484D01*
X6477253Y-8637436D02*
X6486777Y-8646960D01*
X6486777Y-8646960D02*
X6477253Y-8656484D01*
X6477253Y-8656484D02*
X6467729Y-8646960D01*
X6467729Y-8646960D02*
X6477253Y-8637436D01*
X6477253Y-8637436D02*
X6477253Y-8656484D01*
X6553443Y-8456484D02*
X6677253Y-8456484D01*
X6677253Y-8456484D02*
X6610586Y-8532674D01*
X6610586Y-8532674D02*
X6639158Y-8532674D01*
X6639158Y-8532674D02*
X6658205Y-8542198D01*
X6658205Y-8542198D02*
X6667729Y-8551722D01*
X6667729Y-8551722D02*
X6677253Y-8570770D01*
X6677253Y-8570770D02*
X6677253Y-8618389D01*
X6677253Y-8618389D02*
X6667729Y-8637436D01*
X6667729Y-8637436D02*
X6658205Y-8646960D01*
X6658205Y-8646960D02*
X6639158Y-8656484D01*
X6639158Y-8656484D02*
X6582015Y-8656484D01*
X6582015Y-8656484D02*
X6562967Y-8646960D01*
X6562967Y-8646960D02*
X6553443Y-8637436D01*
X6858205Y-8456484D02*
X6762967Y-8456484D01*
X6762967Y-8456484D02*
X6753443Y-8551722D01*
X6753443Y-8551722D02*
X6762967Y-8542198D01*
X6762967Y-8542198D02*
X6782015Y-8532674D01*
X6782015Y-8532674D02*
X6829634Y-8532674D01*
X6829634Y-8532674D02*
X6848682Y-8542198D01*
X6848682Y-8542198D02*
X6858205Y-8551722D01*
X6858205Y-8551722D02*
X6867729Y-8570770D01*
X6867729Y-8570770D02*
X6867729Y-8618389D01*
X6867729Y-8618389D02*
X6858205Y-8637436D01*
X6858205Y-8637436D02*
X6848682Y-8646960D01*
X6848682Y-8646960D02*
X6829634Y-8656484D01*
X6829634Y-8656484D02*
X6782015Y-8656484D01*
X6782015Y-8656484D02*
X6762967Y-8646960D01*
X6762967Y-8646960D02*
X6753443Y-8637436D01*
X6991539Y-8456484D02*
X7010586Y-8456484D01*
X7010586Y-8456484D02*
X7029634Y-8466008D01*
X7029634Y-8466008D02*
X7039158Y-8475531D01*
X7039158Y-8475531D02*
X7048682Y-8494579D01*
X7048682Y-8494579D02*
X7058205Y-8532674D01*
X7058205Y-8532674D02*
X7058205Y-8580293D01*
X7058205Y-8580293D02*
X7048682Y-8618389D01*
X7048682Y-8618389D02*
X7039158Y-8637436D01*
X7039158Y-8637436D02*
X7029634Y-8646960D01*
X7029634Y-8646960D02*
X7010586Y-8656484D01*
X7010586Y-8656484D02*
X6991539Y-8656484D01*
X6991539Y-8656484D02*
X6972491Y-8646960D01*
X6972491Y-8646960D02*
X6962967Y-8637436D01*
X6962967Y-8637436D02*
X6953443Y-8618389D01*
X6953443Y-8618389D02*
X6943920Y-8580293D01*
X6943920Y-8580293D02*
X6943920Y-8532674D01*
X6943920Y-8532674D02*
X6953443Y-8494579D01*
X6953443Y-8494579D02*
X6962967Y-8475531D01*
X6962967Y-8475531D02*
X6972491Y-8466008D01*
X6972491Y-8466008D02*
X6991539Y-8456484D01*
X7143920Y-8656484D02*
X7143920Y-8523150D01*
X7143920Y-8542198D02*
X7153443Y-8532674D01*
X7153443Y-8532674D02*
X7172491Y-8523150D01*
X7172491Y-8523150D02*
X7201063Y-8523150D01*
X7201063Y-8523150D02*
X7220110Y-8532674D01*
X7220110Y-8532674D02*
X7229634Y-8551722D01*
X7229634Y-8551722D02*
X7229634Y-8656484D01*
X7229634Y-8551722D02*
X7239158Y-8532674D01*
X7239158Y-8532674D02*
X7258205Y-8523150D01*
X7258205Y-8523150D02*
X7286777Y-8523150D01*
X7286777Y-8523150D02*
X7305824Y-8532674D01*
X7305824Y-8532674D02*
X7315348Y-8551722D01*
X7315348Y-8551722D02*
X7315348Y-8656484D01*
X7410586Y-8656484D02*
X7410586Y-8523150D01*
X7410586Y-8542198D02*
X7420110Y-8532674D01*
X7420110Y-8532674D02*
X7439158Y-8523150D01*
X7439158Y-8523150D02*
X7467729Y-8523150D01*
X7467729Y-8523150D02*
X7486777Y-8532674D01*
X7486777Y-8532674D02*
X7496301Y-8551722D01*
X7496301Y-8551722D02*
X7496301Y-8656484D01*
X7496301Y-8551722D02*
X7505824Y-8532674D01*
X7505824Y-8532674D02*
X7524872Y-8523150D01*
X7524872Y-8523150D02*
X7553443Y-8523150D01*
X7553443Y-8523150D02*
X7572491Y-8532674D01*
X7572491Y-8532674D02*
X7582015Y-8551722D01*
X7582015Y-8551722D02*
X7582015Y-8656484D01*
X7972491Y-8446960D02*
X7801063Y-8704103D01*
X8229634Y-8456484D02*
X8248682Y-8456484D01*
X8248682Y-8456484D02*
X8267729Y-8466008D01*
X8267729Y-8466008D02*
X8277253Y-8475531D01*
X8277253Y-8475531D02*
X8286777Y-8494579D01*
X8286777Y-8494579D02*
X8296301Y-8532674D01*
X8296301Y-8532674D02*
X8296301Y-8580293D01*
X8296301Y-8580293D02*
X8286777Y-8618389D01*
X8286777Y-8618389D02*
X8277253Y-8637436D01*
X8277253Y-8637436D02*
X8267729Y-8646960D01*
X8267729Y-8646960D02*
X8248682Y-8656484D01*
X8248682Y-8656484D02*
X8229634Y-8656484D01*
X8229634Y-8656484D02*
X8210586Y-8646960D01*
X8210586Y-8646960D02*
X8201063Y-8637436D01*
X8201063Y-8637436D02*
X8191539Y-8618389D01*
X8191539Y-8618389D02*
X8182015Y-8580293D01*
X8182015Y-8580293D02*
X8182015Y-8532674D01*
X8182015Y-8532674D02*
X8191539Y-8494579D01*
X8191539Y-8494579D02*
X8201063Y-8475531D01*
X8201063Y-8475531D02*
X8210586Y-8466008D01*
X8210586Y-8466008D02*
X8229634Y-8456484D01*
X8382015Y-8637436D02*
X8391539Y-8646960D01*
X8391539Y-8646960D02*
X8382015Y-8656484D01*
X8382015Y-8656484D02*
X8372491Y-8646960D01*
X8372491Y-8646960D02*
X8382015Y-8637436D01*
X8382015Y-8637436D02*
X8382015Y-8656484D01*
X8515348Y-8456484D02*
X8534396Y-8456484D01*
X8534396Y-8456484D02*
X8553444Y-8466008D01*
X8553444Y-8466008D02*
X8562968Y-8475531D01*
X8562968Y-8475531D02*
X8572491Y-8494579D01*
X8572491Y-8494579D02*
X8582015Y-8532674D01*
X8582015Y-8532674D02*
X8582015Y-8580293D01*
X8582015Y-8580293D02*
X8572491Y-8618389D01*
X8572491Y-8618389D02*
X8562968Y-8637436D01*
X8562968Y-8637436D02*
X8553444Y-8646960D01*
X8553444Y-8646960D02*
X8534396Y-8656484D01*
X8534396Y-8656484D02*
X8515348Y-8656484D01*
X8515348Y-8656484D02*
X8496301Y-8646960D01*
X8496301Y-8646960D02*
X8486777Y-8637436D01*
X8486777Y-8637436D02*
X8477253Y-8618389D01*
X8477253Y-8618389D02*
X8467729Y-8580293D01*
X8467729Y-8580293D02*
X8467729Y-8532674D01*
X8467729Y-8532674D02*
X8477253Y-8494579D01*
X8477253Y-8494579D02*
X8486777Y-8475531D01*
X8486777Y-8475531D02*
X8496301Y-8466008D01*
X8496301Y-8466008D02*
X8515348Y-8456484D01*
X8772491Y-8656484D02*
X8658206Y-8656484D01*
X8715348Y-8656484D02*
X8715348Y-8456484D01*
X8715348Y-8456484D02*
X8696301Y-8485055D01*
X8696301Y-8485055D02*
X8677253Y-8504103D01*
X8677253Y-8504103D02*
X8658206Y-8513627D01*
X8839158Y-8456484D02*
X8962968Y-8456484D01*
X8962968Y-8456484D02*
X8896301Y-8532674D01*
X8896301Y-8532674D02*
X8924872Y-8532674D01*
X8924872Y-8532674D02*
X8943920Y-8542198D01*
X8943920Y-8542198D02*
X8953444Y-8551722D01*
X8953444Y-8551722D02*
X8962968Y-8570770D01*
X8962968Y-8570770D02*
X8962968Y-8618389D01*
X8962968Y-8618389D02*
X8953444Y-8637436D01*
X8953444Y-8637436D02*
X8943920Y-8646960D01*
X8943920Y-8646960D02*
X8924872Y-8656484D01*
X8924872Y-8656484D02*
X8867729Y-8656484D01*
X8867729Y-8656484D02*
X8848682Y-8646960D01*
X8848682Y-8646960D02*
X8839158Y-8637436D01*
X9077253Y-8542198D02*
X9058206Y-8532674D01*
X9058206Y-8532674D02*
X9048682Y-8523150D01*
X9048682Y-8523150D02*
X9039158Y-8504103D01*
X9039158Y-8504103D02*
X9039158Y-8494579D01*
X9039158Y-8494579D02*
X9048682Y-8475531D01*
X9048682Y-8475531D02*
X9058206Y-8466008D01*
X9058206Y-8466008D02*
X9077253Y-8456484D01*
X9077253Y-8456484D02*
X9115349Y-8456484D01*
X9115349Y-8456484D02*
X9134396Y-8466008D01*
X9134396Y-8466008D02*
X9143920Y-8475531D01*
X9143920Y-8475531D02*
X9153444Y-8494579D01*
X9153444Y-8494579D02*
X9153444Y-8504103D01*
X9153444Y-8504103D02*
X9143920Y-8523150D01*
X9143920Y-8523150D02*
X9134396Y-8532674D01*
X9134396Y-8532674D02*
X9115349Y-8542198D01*
X9115349Y-8542198D02*
X9077253Y-8542198D01*
X9077253Y-8542198D02*
X9058206Y-8551722D01*
X9058206Y-8551722D02*
X9048682Y-8561246D01*
X9048682Y-8561246D02*
X9039158Y-8580293D01*
X9039158Y-8580293D02*
X9039158Y-8618389D01*
X9039158Y-8618389D02*
X9048682Y-8637436D01*
X9048682Y-8637436D02*
X9058206Y-8646960D01*
X9058206Y-8646960D02*
X9077253Y-8656484D01*
X9077253Y-8656484D02*
X9115349Y-8656484D01*
X9115349Y-8656484D02*
X9134396Y-8646960D01*
X9134396Y-8646960D02*
X9143920Y-8637436D01*
X9143920Y-8637436D02*
X9153444Y-8618389D01*
X9153444Y-8618389D02*
X9153444Y-8580293D01*
X9153444Y-8580293D02*
X9143920Y-8561246D01*
X9143920Y-8561246D02*
X9134396Y-8551722D01*
X9134396Y-8551722D02*
X9115349Y-8542198D01*
X9229634Y-8456484D02*
X9229634Y-8494579D01*
X9305825Y-8456484D02*
X9305825Y-8494579D01*
X9601063Y-8732674D02*
X9591539Y-8723150D01*
X9591539Y-8723150D02*
X9572491Y-8694579D01*
X9572491Y-8694579D02*
X9562968Y-8675531D01*
X9562968Y-8675531D02*
X9553444Y-8646960D01*
X9553444Y-8646960D02*
X9543920Y-8599341D01*
X9543920Y-8599341D02*
X9543920Y-8561246D01*
X9543920Y-8561246D02*
X9553444Y-8513627D01*
X9553444Y-8513627D02*
X9562968Y-8485055D01*
X9562968Y-8485055D02*
X9572491Y-8466008D01*
X9572491Y-8466008D02*
X9591539Y-8437436D01*
X9591539Y-8437436D02*
X9601063Y-8427912D01*
X9686777Y-8656484D02*
X9724872Y-8656484D01*
X9724872Y-8656484D02*
X9743920Y-8646960D01*
X9743920Y-8646960D02*
X9753444Y-8637436D01*
X9753444Y-8637436D02*
X9772491Y-8608865D01*
X9772491Y-8608865D02*
X9782015Y-8570770D01*
X9782015Y-8570770D02*
X9782015Y-8494579D01*
X9782015Y-8494579D02*
X9772491Y-8475531D01*
X9772491Y-8475531D02*
X9762968Y-8466008D01*
X9762968Y-8466008D02*
X9743920Y-8456484D01*
X9743920Y-8456484D02*
X9705825Y-8456484D01*
X9705825Y-8456484D02*
X9686777Y-8466008D01*
X9686777Y-8466008D02*
X9677253Y-8475531D01*
X9677253Y-8475531D02*
X9667730Y-8494579D01*
X9667730Y-8494579D02*
X9667730Y-8542198D01*
X9667730Y-8542198D02*
X9677253Y-8561246D01*
X9677253Y-8561246D02*
X9686777Y-8570770D01*
X9686777Y-8570770D02*
X9705825Y-8580293D01*
X9705825Y-8580293D02*
X9743920Y-8580293D01*
X9743920Y-8580293D02*
X9762968Y-8570770D01*
X9762968Y-8570770D02*
X9772491Y-8561246D01*
X9772491Y-8561246D02*
X9782015Y-8542198D01*
X10020111Y-8656484D02*
X10020111Y-8456484D01*
X10105825Y-8656484D02*
X10105825Y-8551722D01*
X10105825Y-8551722D02*
X10096301Y-8532674D01*
X10096301Y-8532674D02*
X10077253Y-8523150D01*
X10077253Y-8523150D02*
X10048682Y-8523150D01*
X10048682Y-8523150D02*
X10029634Y-8532674D01*
X10029634Y-8532674D02*
X10020111Y-8542198D01*
X10229634Y-8656484D02*
X10210587Y-8646960D01*
X10210587Y-8646960D02*
X10201063Y-8637436D01*
X10201063Y-8637436D02*
X10191539Y-8618389D01*
X10191539Y-8618389D02*
X10191539Y-8561246D01*
X10191539Y-8561246D02*
X10201063Y-8542198D01*
X10201063Y-8542198D02*
X10210587Y-8532674D01*
X10210587Y-8532674D02*
X10229634Y-8523150D01*
X10229634Y-8523150D02*
X10258206Y-8523150D01*
X10258206Y-8523150D02*
X10277253Y-8532674D01*
X10277253Y-8532674D02*
X10286777Y-8542198D01*
X10286777Y-8542198D02*
X10296301Y-8561246D01*
X10296301Y-8561246D02*
X10296301Y-8618389D01*
X10296301Y-8618389D02*
X10286777Y-8637436D01*
X10286777Y-8637436D02*
X10277253Y-8646960D01*
X10277253Y-8646960D02*
X10258206Y-8656484D01*
X10258206Y-8656484D02*
X10229634Y-8656484D01*
X10410587Y-8656484D02*
X10391539Y-8646960D01*
X10391539Y-8646960D02*
X10382015Y-8627912D01*
X10382015Y-8627912D02*
X10382015Y-8456484D01*
X10562968Y-8646960D02*
X10543920Y-8656484D01*
X10543920Y-8656484D02*
X10505825Y-8656484D01*
X10505825Y-8656484D02*
X10486777Y-8646960D01*
X10486777Y-8646960D02*
X10477253Y-8627912D01*
X10477253Y-8627912D02*
X10477253Y-8551722D01*
X10477253Y-8551722D02*
X10486777Y-8532674D01*
X10486777Y-8532674D02*
X10505825Y-8523150D01*
X10505825Y-8523150D02*
X10543920Y-8523150D01*
X10543920Y-8523150D02*
X10562968Y-8532674D01*
X10562968Y-8532674D02*
X10572492Y-8551722D01*
X10572492Y-8551722D02*
X10572492Y-8570770D01*
X10572492Y-8570770D02*
X10477253Y-8589817D01*
X10648682Y-8646960D02*
X10667730Y-8656484D01*
X10667730Y-8656484D02*
X10705825Y-8656484D01*
X10705825Y-8656484D02*
X10724873Y-8646960D01*
X10724873Y-8646960D02*
X10734396Y-8627912D01*
X10734396Y-8627912D02*
X10734396Y-8618389D01*
X10734396Y-8618389D02*
X10724873Y-8599341D01*
X10724873Y-8599341D02*
X10705825Y-8589817D01*
X10705825Y-8589817D02*
X10677253Y-8589817D01*
X10677253Y-8589817D02*
X10658206Y-8580293D01*
X10658206Y-8580293D02*
X10648682Y-8561246D01*
X10648682Y-8561246D02*
X10648682Y-8551722D01*
X10648682Y-8551722D02*
X10658206Y-8532674D01*
X10658206Y-8532674D02*
X10677253Y-8523150D01*
X10677253Y-8523150D02*
X10705825Y-8523150D01*
X10705825Y-8523150D02*
X10724873Y-8532674D01*
X10801063Y-8732674D02*
X10810587Y-8723150D01*
X10810587Y-8723150D02*
X10829634Y-8694579D01*
X10829634Y-8694579D02*
X10839158Y-8675531D01*
X10839158Y-8675531D02*
X10848682Y-8646960D01*
X10848682Y-8646960D02*
X10858206Y-8599341D01*
X10858206Y-8599341D02*
X10858206Y-8561246D01*
X10858206Y-8561246D02*
X10848682Y-8513627D01*
X10848682Y-8513627D02*
X10839158Y-8485055D01*
X10839158Y-8485055D02*
X10829634Y-8466008D01*
X10829634Y-8466008D02*
X10810587Y-8437436D01*
X10810587Y-8437436D02*
X10801063Y-8427912D01*
D10*
X6006000Y-8809000D02*
X6006000Y-8849000D01*
X5986000Y-8829000D02*
X6026000Y-8829000D01*
D11*
X6324872Y-8720484D02*
X6343920Y-8720484D01*
X6343920Y-8720484D02*
X6362967Y-8730008D01*
X6362967Y-8730008D02*
X6372491Y-8739531D01*
X6372491Y-8739531D02*
X6382015Y-8758579D01*
X6382015Y-8758579D02*
X6391539Y-8796674D01*
X6391539Y-8796674D02*
X6391539Y-8844293D01*
X6391539Y-8844293D02*
X6382015Y-8882389D01*
X6382015Y-8882389D02*
X6372491Y-8901436D01*
X6372491Y-8901436D02*
X6362967Y-8910960D01*
X6362967Y-8910960D02*
X6343920Y-8920484D01*
X6343920Y-8920484D02*
X6324872Y-8920484D01*
X6324872Y-8920484D02*
X6305824Y-8910960D01*
X6305824Y-8910960D02*
X6296301Y-8901436D01*
X6296301Y-8901436D02*
X6286777Y-8882389D01*
X6286777Y-8882389D02*
X6277253Y-8844293D01*
X6277253Y-8844293D02*
X6277253Y-8796674D01*
X6277253Y-8796674D02*
X6286777Y-8758579D01*
X6286777Y-8758579D02*
X6296301Y-8739531D01*
X6296301Y-8739531D02*
X6305824Y-8730008D01*
X6305824Y-8730008D02*
X6324872Y-8720484D01*
X6477253Y-8901436D02*
X6486777Y-8910960D01*
X6486777Y-8910960D02*
X6477253Y-8920484D01*
X6477253Y-8920484D02*
X6467729Y-8910960D01*
X6467729Y-8910960D02*
X6477253Y-8901436D01*
X6477253Y-8901436D02*
X6477253Y-8920484D01*
X6658205Y-8787150D02*
X6658205Y-8920484D01*
X6610586Y-8710960D02*
X6562967Y-8853817D01*
X6562967Y-8853817D02*
X6686777Y-8853817D01*
X6801062Y-8720484D02*
X6820110Y-8720484D01*
X6820110Y-8720484D02*
X6839158Y-8730008D01*
X6839158Y-8730008D02*
X6848682Y-8739531D01*
X6848682Y-8739531D02*
X6858205Y-8758579D01*
X6858205Y-8758579D02*
X6867729Y-8796674D01*
X6867729Y-8796674D02*
X6867729Y-8844293D01*
X6867729Y-8844293D02*
X6858205Y-8882389D01*
X6858205Y-8882389D02*
X6848682Y-8901436D01*
X6848682Y-8901436D02*
X6839158Y-8910960D01*
X6839158Y-8910960D02*
X6820110Y-8920484D01*
X6820110Y-8920484D02*
X6801062Y-8920484D01*
X6801062Y-8920484D02*
X6782015Y-8910960D01*
X6782015Y-8910960D02*
X6772491Y-8901436D01*
X6772491Y-8901436D02*
X6762967Y-8882389D01*
X6762967Y-8882389D02*
X6753443Y-8844293D01*
X6753443Y-8844293D02*
X6753443Y-8796674D01*
X6753443Y-8796674D02*
X6762967Y-8758579D01*
X6762967Y-8758579D02*
X6772491Y-8739531D01*
X6772491Y-8739531D02*
X6782015Y-8730008D01*
X6782015Y-8730008D02*
X6801062Y-8720484D01*
X6991539Y-8720484D02*
X7010586Y-8720484D01*
X7010586Y-8720484D02*
X7029634Y-8730008D01*
X7029634Y-8730008D02*
X7039158Y-8739531D01*
X7039158Y-8739531D02*
X7048682Y-8758579D01*
X7048682Y-8758579D02*
X7058205Y-8796674D01*
X7058205Y-8796674D02*
X7058205Y-8844293D01*
X7058205Y-8844293D02*
X7048682Y-8882389D01*
X7048682Y-8882389D02*
X7039158Y-8901436D01*
X7039158Y-8901436D02*
X7029634Y-8910960D01*
X7029634Y-8910960D02*
X7010586Y-8920484D01*
X7010586Y-8920484D02*
X6991539Y-8920484D01*
X6991539Y-8920484D02*
X6972491Y-8910960D01*
X6972491Y-8910960D02*
X6962967Y-8901436D01*
X6962967Y-8901436D02*
X6953443Y-8882389D01*
X6953443Y-8882389D02*
X6943920Y-8844293D01*
X6943920Y-8844293D02*
X6943920Y-8796674D01*
X6943920Y-8796674D02*
X6953443Y-8758579D01*
X6953443Y-8758579D02*
X6962967Y-8739531D01*
X6962967Y-8739531D02*
X6972491Y-8730008D01*
X6972491Y-8730008D02*
X6991539Y-8720484D01*
X7143920Y-8920484D02*
X7143920Y-8787150D01*
X7143920Y-8806198D02*
X7153443Y-8796674D01*
X7153443Y-8796674D02*
X7172491Y-8787150D01*
X7172491Y-8787150D02*
X7201063Y-8787150D01*
X7201063Y-8787150D02*
X7220110Y-8796674D01*
X7220110Y-8796674D02*
X7229634Y-8815722D01*
X7229634Y-8815722D02*
X7229634Y-8920484D01*
X7229634Y-8815722D02*
X7239158Y-8796674D01*
X7239158Y-8796674D02*
X7258205Y-8787150D01*
X7258205Y-8787150D02*
X7286777Y-8787150D01*
X7286777Y-8787150D02*
X7305824Y-8796674D01*
X7305824Y-8796674D02*
X7315348Y-8815722D01*
X7315348Y-8815722D02*
X7315348Y-8920484D01*
X7410586Y-8920484D02*
X7410586Y-8787150D01*
X7410586Y-8806198D02*
X7420110Y-8796674D01*
X7420110Y-8796674D02*
X7439158Y-8787150D01*
X7439158Y-8787150D02*
X7467729Y-8787150D01*
X7467729Y-8787150D02*
X7486777Y-8796674D01*
X7486777Y-8796674D02*
X7496301Y-8815722D01*
X7496301Y-8815722D02*
X7496301Y-8920484D01*
X7496301Y-8815722D02*
X7505824Y-8796674D01*
X7505824Y-8796674D02*
X7524872Y-8787150D01*
X7524872Y-8787150D02*
X7553443Y-8787150D01*
X7553443Y-8787150D02*
X7572491Y-8796674D01*
X7572491Y-8796674D02*
X7582015Y-8815722D01*
X7582015Y-8815722D02*
X7582015Y-8920484D01*
X7972491Y-8710960D02*
X7801063Y-8968103D01*
X8229634Y-8720484D02*
X8248682Y-8720484D01*
X8248682Y-8720484D02*
X8267729Y-8730008D01*
X8267729Y-8730008D02*
X8277253Y-8739531D01*
X8277253Y-8739531D02*
X8286777Y-8758579D01*
X8286777Y-8758579D02*
X8296301Y-8796674D01*
X8296301Y-8796674D02*
X8296301Y-8844293D01*
X8296301Y-8844293D02*
X8286777Y-8882389D01*
X8286777Y-8882389D02*
X8277253Y-8901436D01*
X8277253Y-8901436D02*
X8267729Y-8910960D01*
X8267729Y-8910960D02*
X8248682Y-8920484D01*
X8248682Y-8920484D02*
X8229634Y-8920484D01*
X8229634Y-8920484D02*
X8210586Y-8910960D01*
X8210586Y-8910960D02*
X8201063Y-8901436D01*
X8201063Y-8901436D02*
X8191539Y-8882389D01*
X8191539Y-8882389D02*
X8182015Y-8844293D01*
X8182015Y-8844293D02*
X8182015Y-8796674D01*
X8182015Y-8796674D02*
X8191539Y-8758579D01*
X8191539Y-8758579D02*
X8201063Y-8739531D01*
X8201063Y-8739531D02*
X8210586Y-8730008D01*
X8210586Y-8730008D02*
X8229634Y-8720484D01*
X8382015Y-8901436D02*
X8391539Y-8910960D01*
X8391539Y-8910960D02*
X8382015Y-8920484D01*
X8382015Y-8920484D02*
X8372491Y-8910960D01*
X8372491Y-8910960D02*
X8382015Y-8901436D01*
X8382015Y-8901436D02*
X8382015Y-8920484D01*
X8515348Y-8720484D02*
X8534396Y-8720484D01*
X8534396Y-8720484D02*
X8553444Y-8730008D01*
X8553444Y-8730008D02*
X8562968Y-8739531D01*
X8562968Y-8739531D02*
X8572491Y-8758579D01*
X8572491Y-8758579D02*
X8582015Y-8796674D01*
X8582015Y-8796674D02*
X8582015Y-8844293D01*
X8582015Y-8844293D02*
X8572491Y-8882389D01*
X8572491Y-8882389D02*
X8562968Y-8901436D01*
X8562968Y-8901436D02*
X8553444Y-8910960D01*
X8553444Y-8910960D02*
X8534396Y-8920484D01*
X8534396Y-8920484D02*
X8515348Y-8920484D01*
X8515348Y-8920484D02*
X8496301Y-8910960D01*
X8496301Y-8910960D02*
X8486777Y-8901436D01*
X8486777Y-8901436D02*
X8477253Y-8882389D01*
X8477253Y-8882389D02*
X8467729Y-8844293D01*
X8467729Y-8844293D02*
X8467729Y-8796674D01*
X8467729Y-8796674D02*
X8477253Y-8758579D01*
X8477253Y-8758579D02*
X8486777Y-8739531D01*
X8486777Y-8739531D02*
X8496301Y-8730008D01*
X8496301Y-8730008D02*
X8515348Y-8720484D01*
X8772491Y-8920484D02*
X8658206Y-8920484D01*
X8715348Y-8920484D02*
X8715348Y-8720484D01*
X8715348Y-8720484D02*
X8696301Y-8749055D01*
X8696301Y-8749055D02*
X8677253Y-8768103D01*
X8677253Y-8768103D02*
X8658206Y-8777627D01*
X8953444Y-8720484D02*
X8858206Y-8720484D01*
X8858206Y-8720484D02*
X8848682Y-8815722D01*
X8848682Y-8815722D02*
X8858206Y-8806198D01*
X8858206Y-8806198D02*
X8877253Y-8796674D01*
X8877253Y-8796674D02*
X8924872Y-8796674D01*
X8924872Y-8796674D02*
X8943920Y-8806198D01*
X8943920Y-8806198D02*
X8953444Y-8815722D01*
X8953444Y-8815722D02*
X8962968Y-8834770D01*
X8962968Y-8834770D02*
X8962968Y-8882389D01*
X8962968Y-8882389D02*
X8953444Y-8901436D01*
X8953444Y-8901436D02*
X8943920Y-8910960D01*
X8943920Y-8910960D02*
X8924872Y-8920484D01*
X8924872Y-8920484D02*
X8877253Y-8920484D01*
X8877253Y-8920484D02*
X8858206Y-8910960D01*
X8858206Y-8910960D02*
X8848682Y-8901436D01*
X9029634Y-8720484D02*
X9162968Y-8720484D01*
X9162968Y-8720484D02*
X9077253Y-8920484D01*
X9229634Y-8720484D02*
X9229634Y-8758579D01*
X9305825Y-8720484D02*
X9305825Y-8758579D01*
X9601063Y-8996674D02*
X9591539Y-8987150D01*
X9591539Y-8987150D02*
X9572491Y-8958579D01*
X9572491Y-8958579D02*
X9562968Y-8939531D01*
X9562968Y-8939531D02*
X9553444Y-8910960D01*
X9553444Y-8910960D02*
X9543920Y-8863341D01*
X9543920Y-8863341D02*
X9543920Y-8825246D01*
X9543920Y-8825246D02*
X9553444Y-8777627D01*
X9553444Y-8777627D02*
X9562968Y-8749055D01*
X9562968Y-8749055D02*
X9572491Y-8730008D01*
X9572491Y-8730008D02*
X9591539Y-8701436D01*
X9591539Y-8701436D02*
X9601063Y-8691912D01*
X9782015Y-8920484D02*
X9667730Y-8920484D01*
X9724872Y-8920484D02*
X9724872Y-8720484D01*
X9724872Y-8720484D02*
X9705825Y-8749055D01*
X9705825Y-8749055D02*
X9686777Y-8768103D01*
X9686777Y-8768103D02*
X9667730Y-8777627D01*
X9877253Y-8920484D02*
X9915349Y-8920484D01*
X9915349Y-8920484D02*
X9934396Y-8910960D01*
X9934396Y-8910960D02*
X9943920Y-8901436D01*
X9943920Y-8901436D02*
X9962968Y-8872865D01*
X9962968Y-8872865D02*
X9972491Y-8834770D01*
X9972491Y-8834770D02*
X9972491Y-8758579D01*
X9972491Y-8758579D02*
X9962968Y-8739531D01*
X9962968Y-8739531D02*
X9953444Y-8730008D01*
X9953444Y-8730008D02*
X9934396Y-8720484D01*
X9934396Y-8720484D02*
X9896301Y-8720484D01*
X9896301Y-8720484D02*
X9877253Y-8730008D01*
X9877253Y-8730008D02*
X9867730Y-8739531D01*
X9867730Y-8739531D02*
X9858206Y-8758579D01*
X9858206Y-8758579D02*
X9858206Y-8806198D01*
X9858206Y-8806198D02*
X9867730Y-8825246D01*
X9867730Y-8825246D02*
X9877253Y-8834770D01*
X9877253Y-8834770D02*
X9896301Y-8844293D01*
X9896301Y-8844293D02*
X9934396Y-8844293D01*
X9934396Y-8844293D02*
X9953444Y-8834770D01*
X9953444Y-8834770D02*
X9962968Y-8825246D01*
X9962968Y-8825246D02*
X9972491Y-8806198D01*
X10210587Y-8920484D02*
X10210587Y-8720484D01*
X10296301Y-8920484D02*
X10296301Y-8815722D01*
X10296301Y-8815722D02*
X10286777Y-8796674D01*
X10286777Y-8796674D02*
X10267730Y-8787150D01*
X10267730Y-8787150D02*
X10239158Y-8787150D01*
X10239158Y-8787150D02*
X10220111Y-8796674D01*
X10220111Y-8796674D02*
X10210587Y-8806198D01*
X10420111Y-8920484D02*
X10401063Y-8910960D01*
X10401063Y-8910960D02*
X10391539Y-8901436D01*
X10391539Y-8901436D02*
X10382015Y-8882389D01*
X10382015Y-8882389D02*
X10382015Y-8825246D01*
X10382015Y-8825246D02*
X10391539Y-8806198D01*
X10391539Y-8806198D02*
X10401063Y-8796674D01*
X10401063Y-8796674D02*
X10420111Y-8787150D01*
X10420111Y-8787150D02*
X10448682Y-8787150D01*
X10448682Y-8787150D02*
X10467730Y-8796674D01*
X10467730Y-8796674D02*
X10477253Y-8806198D01*
X10477253Y-8806198D02*
X10486777Y-8825246D01*
X10486777Y-8825246D02*
X10486777Y-8882389D01*
X10486777Y-8882389D02*
X10477253Y-8901436D01*
X10477253Y-8901436D02*
X10467730Y-8910960D01*
X10467730Y-8910960D02*
X10448682Y-8920484D01*
X10448682Y-8920484D02*
X10420111Y-8920484D01*
X10601063Y-8920484D02*
X10582015Y-8910960D01*
X10582015Y-8910960D02*
X10572492Y-8891912D01*
X10572492Y-8891912D02*
X10572492Y-8720484D01*
X10753444Y-8910960D02*
X10734396Y-8920484D01*
X10734396Y-8920484D02*
X10696301Y-8920484D01*
X10696301Y-8920484D02*
X10677253Y-8910960D01*
X10677253Y-8910960D02*
X10667730Y-8891912D01*
X10667730Y-8891912D02*
X10667730Y-8815722D01*
X10667730Y-8815722D02*
X10677253Y-8796674D01*
X10677253Y-8796674D02*
X10696301Y-8787150D01*
X10696301Y-8787150D02*
X10734396Y-8787150D01*
X10734396Y-8787150D02*
X10753444Y-8796674D01*
X10753444Y-8796674D02*
X10762968Y-8815722D01*
X10762968Y-8815722D02*
X10762968Y-8834770D01*
X10762968Y-8834770D02*
X10667730Y-8853817D01*
X10839158Y-8910960D02*
X10858206Y-8920484D01*
X10858206Y-8920484D02*
X10896301Y-8920484D01*
X10896301Y-8920484D02*
X10915349Y-8910960D01*
X10915349Y-8910960D02*
X10924873Y-8891912D01*
X10924873Y-8891912D02*
X10924873Y-8882389D01*
X10924873Y-8882389D02*
X10915349Y-8863341D01*
X10915349Y-8863341D02*
X10896301Y-8853817D01*
X10896301Y-8853817D02*
X10867730Y-8853817D01*
X10867730Y-8853817D02*
X10848682Y-8844293D01*
X10848682Y-8844293D02*
X10839158Y-8825246D01*
X10839158Y-8825246D02*
X10839158Y-8815722D01*
X10839158Y-8815722D02*
X10848682Y-8796674D01*
X10848682Y-8796674D02*
X10867730Y-8787150D01*
X10867730Y-8787150D02*
X10896301Y-8787150D01*
X10896301Y-8787150D02*
X10915349Y-8796674D01*
X10991539Y-8996674D02*
X11001063Y-8987150D01*
X11001063Y-8987150D02*
X11020111Y-8958579D01*
X11020111Y-8958579D02*
X11029634Y-8939531D01*
X11029634Y-8939531D02*
X11039158Y-8910960D01*
X11039158Y-8910960D02*
X11048682Y-8863341D01*
X11048682Y-8863341D02*
X11048682Y-8825246D01*
X11048682Y-8825246D02*
X11039158Y-8777627D01*
X11039158Y-8777627D02*
X11029634Y-8749055D01*
X11029634Y-8749055D02*
X11020111Y-8730008D01*
X11020111Y-8730008D02*
X11001063Y-8701436D01*
X11001063Y-8701436D02*
X10991539Y-8691912D01*
D10*
X6014284Y-9121285D02*
X6014284Y-9064716D01*
X5957715Y-9064716D01*
X5957715Y-9121285D01*
X6014284Y-9121285D01*
D11*
X6324872Y-8984484D02*
X6343920Y-8984484D01*
X6343920Y-8984484D02*
X6362967Y-8994008D01*
X6362967Y-8994008D02*
X6372491Y-9003531D01*
X6372491Y-9003531D02*
X6382015Y-9022579D01*
X6382015Y-9022579D02*
X6391539Y-9060674D01*
X6391539Y-9060674D02*
X6391539Y-9108293D01*
X6391539Y-9108293D02*
X6382015Y-9146389D01*
X6382015Y-9146389D02*
X6372491Y-9165436D01*
X6372491Y-9165436D02*
X6362967Y-9174960D01*
X6362967Y-9174960D02*
X6343920Y-9184484D01*
X6343920Y-9184484D02*
X6324872Y-9184484D01*
X6324872Y-9184484D02*
X6305824Y-9174960D01*
X6305824Y-9174960D02*
X6296301Y-9165436D01*
X6296301Y-9165436D02*
X6286777Y-9146389D01*
X6286777Y-9146389D02*
X6277253Y-9108293D01*
X6277253Y-9108293D02*
X6277253Y-9060674D01*
X6277253Y-9060674D02*
X6286777Y-9022579D01*
X6286777Y-9022579D02*
X6296301Y-9003531D01*
X6296301Y-9003531D02*
X6305824Y-8994008D01*
X6305824Y-8994008D02*
X6324872Y-8984484D01*
X6477253Y-9165436D02*
X6486777Y-9174960D01*
X6486777Y-9174960D02*
X6477253Y-9184484D01*
X6477253Y-9184484D02*
X6467729Y-9174960D01*
X6467729Y-9174960D02*
X6477253Y-9165436D01*
X6477253Y-9165436D02*
X6477253Y-9184484D01*
X6601062Y-9070198D02*
X6582015Y-9060674D01*
X6582015Y-9060674D02*
X6572491Y-9051150D01*
X6572491Y-9051150D02*
X6562967Y-9032103D01*
X6562967Y-9032103D02*
X6562967Y-9022579D01*
X6562967Y-9022579D02*
X6572491Y-9003531D01*
X6572491Y-9003531D02*
X6582015Y-8994008D01*
X6582015Y-8994008D02*
X6601062Y-8984484D01*
X6601062Y-8984484D02*
X6639158Y-8984484D01*
X6639158Y-8984484D02*
X6658205Y-8994008D01*
X6658205Y-8994008D02*
X6667729Y-9003531D01*
X6667729Y-9003531D02*
X6677253Y-9022579D01*
X6677253Y-9022579D02*
X6677253Y-9032103D01*
X6677253Y-9032103D02*
X6667729Y-9051150D01*
X6667729Y-9051150D02*
X6658205Y-9060674D01*
X6658205Y-9060674D02*
X6639158Y-9070198D01*
X6639158Y-9070198D02*
X6601062Y-9070198D01*
X6601062Y-9070198D02*
X6582015Y-9079722D01*
X6582015Y-9079722D02*
X6572491Y-9089246D01*
X6572491Y-9089246D02*
X6562967Y-9108293D01*
X6562967Y-9108293D02*
X6562967Y-9146389D01*
X6562967Y-9146389D02*
X6572491Y-9165436D01*
X6572491Y-9165436D02*
X6582015Y-9174960D01*
X6582015Y-9174960D02*
X6601062Y-9184484D01*
X6601062Y-9184484D02*
X6639158Y-9184484D01*
X6639158Y-9184484D02*
X6658205Y-9174960D01*
X6658205Y-9174960D02*
X6667729Y-9165436D01*
X6667729Y-9165436D02*
X6677253Y-9146389D01*
X6677253Y-9146389D02*
X6677253Y-9108293D01*
X6677253Y-9108293D02*
X6667729Y-9089246D01*
X6667729Y-9089246D02*
X6658205Y-9079722D01*
X6658205Y-9079722D02*
X6639158Y-9070198D01*
X6801062Y-8984484D02*
X6820110Y-8984484D01*
X6820110Y-8984484D02*
X6839158Y-8994008D01*
X6839158Y-8994008D02*
X6848682Y-9003531D01*
X6848682Y-9003531D02*
X6858205Y-9022579D01*
X6858205Y-9022579D02*
X6867729Y-9060674D01*
X6867729Y-9060674D02*
X6867729Y-9108293D01*
X6867729Y-9108293D02*
X6858205Y-9146389D01*
X6858205Y-9146389D02*
X6848682Y-9165436D01*
X6848682Y-9165436D02*
X6839158Y-9174960D01*
X6839158Y-9174960D02*
X6820110Y-9184484D01*
X6820110Y-9184484D02*
X6801062Y-9184484D01*
X6801062Y-9184484D02*
X6782015Y-9174960D01*
X6782015Y-9174960D02*
X6772491Y-9165436D01*
X6772491Y-9165436D02*
X6762967Y-9146389D01*
X6762967Y-9146389D02*
X6753443Y-9108293D01*
X6753443Y-9108293D02*
X6753443Y-9060674D01*
X6753443Y-9060674D02*
X6762967Y-9022579D01*
X6762967Y-9022579D02*
X6772491Y-9003531D01*
X6772491Y-9003531D02*
X6782015Y-8994008D01*
X6782015Y-8994008D02*
X6801062Y-8984484D01*
X6991539Y-8984484D02*
X7010586Y-8984484D01*
X7010586Y-8984484D02*
X7029634Y-8994008D01*
X7029634Y-8994008D02*
X7039158Y-9003531D01*
X7039158Y-9003531D02*
X7048682Y-9022579D01*
X7048682Y-9022579D02*
X7058205Y-9060674D01*
X7058205Y-9060674D02*
X7058205Y-9108293D01*
X7058205Y-9108293D02*
X7048682Y-9146389D01*
X7048682Y-9146389D02*
X7039158Y-9165436D01*
X7039158Y-9165436D02*
X7029634Y-9174960D01*
X7029634Y-9174960D02*
X7010586Y-9184484D01*
X7010586Y-9184484D02*
X6991539Y-9184484D01*
X6991539Y-9184484D02*
X6972491Y-9174960D01*
X6972491Y-9174960D02*
X6962967Y-9165436D01*
X6962967Y-9165436D02*
X6953443Y-9146389D01*
X6953443Y-9146389D02*
X6943920Y-9108293D01*
X6943920Y-9108293D02*
X6943920Y-9060674D01*
X6943920Y-9060674D02*
X6953443Y-9022579D01*
X6953443Y-9022579D02*
X6962967Y-9003531D01*
X6962967Y-9003531D02*
X6972491Y-8994008D01*
X6972491Y-8994008D02*
X6991539Y-8984484D01*
X7143920Y-9184484D02*
X7143920Y-9051150D01*
X7143920Y-9070198D02*
X7153443Y-9060674D01*
X7153443Y-9060674D02*
X7172491Y-9051150D01*
X7172491Y-9051150D02*
X7201063Y-9051150D01*
X7201063Y-9051150D02*
X7220110Y-9060674D01*
X7220110Y-9060674D02*
X7229634Y-9079722D01*
X7229634Y-9079722D02*
X7229634Y-9184484D01*
X7229634Y-9079722D02*
X7239158Y-9060674D01*
X7239158Y-9060674D02*
X7258205Y-9051150D01*
X7258205Y-9051150D02*
X7286777Y-9051150D01*
X7286777Y-9051150D02*
X7305824Y-9060674D01*
X7305824Y-9060674D02*
X7315348Y-9079722D01*
X7315348Y-9079722D02*
X7315348Y-9184484D01*
X7410586Y-9184484D02*
X7410586Y-9051150D01*
X7410586Y-9070198D02*
X7420110Y-9060674D01*
X7420110Y-9060674D02*
X7439158Y-9051150D01*
X7439158Y-9051150D02*
X7467729Y-9051150D01*
X7467729Y-9051150D02*
X7486777Y-9060674D01*
X7486777Y-9060674D02*
X7496301Y-9079722D01*
X7496301Y-9079722D02*
X7496301Y-9184484D01*
X7496301Y-9079722D02*
X7505824Y-9060674D01*
X7505824Y-9060674D02*
X7524872Y-9051150D01*
X7524872Y-9051150D02*
X7553443Y-9051150D01*
X7553443Y-9051150D02*
X7572491Y-9060674D01*
X7572491Y-9060674D02*
X7582015Y-9079722D01*
X7582015Y-9079722D02*
X7582015Y-9184484D01*
X7972491Y-8974960D02*
X7801063Y-9232103D01*
X8229634Y-8984484D02*
X8248682Y-8984484D01*
X8248682Y-8984484D02*
X8267729Y-8994008D01*
X8267729Y-8994008D02*
X8277253Y-9003531D01*
X8277253Y-9003531D02*
X8286777Y-9022579D01*
X8286777Y-9022579D02*
X8296301Y-9060674D01*
X8296301Y-9060674D02*
X8296301Y-9108293D01*
X8296301Y-9108293D02*
X8286777Y-9146389D01*
X8286777Y-9146389D02*
X8277253Y-9165436D01*
X8277253Y-9165436D02*
X8267729Y-9174960D01*
X8267729Y-9174960D02*
X8248682Y-9184484D01*
X8248682Y-9184484D02*
X8229634Y-9184484D01*
X8229634Y-9184484D02*
X8210586Y-9174960D01*
X8210586Y-9174960D02*
X8201063Y-9165436D01*
X8201063Y-9165436D02*
X8191539Y-9146389D01*
X8191539Y-9146389D02*
X8182015Y-9108293D01*
X8182015Y-9108293D02*
X8182015Y-9060674D01*
X8182015Y-9060674D02*
X8191539Y-9022579D01*
X8191539Y-9022579D02*
X8201063Y-9003531D01*
X8201063Y-9003531D02*
X8210586Y-8994008D01*
X8210586Y-8994008D02*
X8229634Y-8984484D01*
X8382015Y-9165436D02*
X8391539Y-9174960D01*
X8391539Y-9174960D02*
X8382015Y-9184484D01*
X8382015Y-9184484D02*
X8372491Y-9174960D01*
X8372491Y-9174960D02*
X8382015Y-9165436D01*
X8382015Y-9165436D02*
X8382015Y-9184484D01*
X8515348Y-8984484D02*
X8534396Y-8984484D01*
X8534396Y-8984484D02*
X8553444Y-8994008D01*
X8553444Y-8994008D02*
X8562968Y-9003531D01*
X8562968Y-9003531D02*
X8572491Y-9022579D01*
X8572491Y-9022579D02*
X8582015Y-9060674D01*
X8582015Y-9060674D02*
X8582015Y-9108293D01*
X8582015Y-9108293D02*
X8572491Y-9146389D01*
X8572491Y-9146389D02*
X8562968Y-9165436D01*
X8562968Y-9165436D02*
X8553444Y-9174960D01*
X8553444Y-9174960D02*
X8534396Y-9184484D01*
X8534396Y-9184484D02*
X8515348Y-9184484D01*
X8515348Y-9184484D02*
X8496301Y-9174960D01*
X8496301Y-9174960D02*
X8486777Y-9165436D01*
X8486777Y-9165436D02*
X8477253Y-9146389D01*
X8477253Y-9146389D02*
X8467729Y-9108293D01*
X8467729Y-9108293D02*
X8467729Y-9060674D01*
X8467729Y-9060674D02*
X8477253Y-9022579D01*
X8477253Y-9022579D02*
X8486777Y-9003531D01*
X8486777Y-9003531D02*
X8496301Y-8994008D01*
X8496301Y-8994008D02*
X8515348Y-8984484D01*
X8648682Y-8984484D02*
X8772491Y-8984484D01*
X8772491Y-8984484D02*
X8705825Y-9060674D01*
X8705825Y-9060674D02*
X8734396Y-9060674D01*
X8734396Y-9060674D02*
X8753444Y-9070198D01*
X8753444Y-9070198D02*
X8762968Y-9079722D01*
X8762968Y-9079722D02*
X8772491Y-9098770D01*
X8772491Y-9098770D02*
X8772491Y-9146389D01*
X8772491Y-9146389D02*
X8762968Y-9165436D01*
X8762968Y-9165436D02*
X8753444Y-9174960D01*
X8753444Y-9174960D02*
X8734396Y-9184484D01*
X8734396Y-9184484D02*
X8677253Y-9184484D01*
X8677253Y-9184484D02*
X8658206Y-9174960D01*
X8658206Y-9174960D02*
X8648682Y-9165436D01*
X8962968Y-9184484D02*
X8848682Y-9184484D01*
X8905825Y-9184484D02*
X8905825Y-8984484D01*
X8905825Y-8984484D02*
X8886777Y-9013055D01*
X8886777Y-9013055D02*
X8867729Y-9032103D01*
X8867729Y-9032103D02*
X8848682Y-9041627D01*
X9143920Y-8984484D02*
X9048682Y-8984484D01*
X9048682Y-8984484D02*
X9039158Y-9079722D01*
X9039158Y-9079722D02*
X9048682Y-9070198D01*
X9048682Y-9070198D02*
X9067729Y-9060674D01*
X9067729Y-9060674D02*
X9115349Y-9060674D01*
X9115349Y-9060674D02*
X9134396Y-9070198D01*
X9134396Y-9070198D02*
X9143920Y-9079722D01*
X9143920Y-9079722D02*
X9153444Y-9098770D01*
X9153444Y-9098770D02*
X9153444Y-9146389D01*
X9153444Y-9146389D02*
X9143920Y-9165436D01*
X9143920Y-9165436D02*
X9134396Y-9174960D01*
X9134396Y-9174960D02*
X9115349Y-9184484D01*
X9115349Y-9184484D02*
X9067729Y-9184484D01*
X9067729Y-9184484D02*
X9048682Y-9174960D01*
X9048682Y-9174960D02*
X9039158Y-9165436D01*
X9229634Y-8984484D02*
X9229634Y-9022579D01*
X9305825Y-8984484D02*
X9305825Y-9022579D01*
X9601063Y-9260674D02*
X9591539Y-9251150D01*
X9591539Y-9251150D02*
X9572491Y-9222579D01*
X9572491Y-9222579D02*
X9562968Y-9203531D01*
X9562968Y-9203531D02*
X9553444Y-9174960D01*
X9553444Y-9174960D02*
X9543920Y-9127341D01*
X9543920Y-9127341D02*
X9543920Y-9089246D01*
X9543920Y-9089246D02*
X9553444Y-9041627D01*
X9553444Y-9041627D02*
X9562968Y-9013055D01*
X9562968Y-9013055D02*
X9572491Y-8994008D01*
X9572491Y-8994008D02*
X9591539Y-8965436D01*
X9591539Y-8965436D02*
X9601063Y-8955912D01*
X9762968Y-9051150D02*
X9762968Y-9184484D01*
X9715349Y-8974960D02*
X9667730Y-9117817D01*
X9667730Y-9117817D02*
X9791539Y-9117817D01*
X10020111Y-9184484D02*
X10020111Y-8984484D01*
X10105825Y-9184484D02*
X10105825Y-9079722D01*
X10105825Y-9079722D02*
X10096301Y-9060674D01*
X10096301Y-9060674D02*
X10077253Y-9051150D01*
X10077253Y-9051150D02*
X10048682Y-9051150D01*
X10048682Y-9051150D02*
X10029634Y-9060674D01*
X10029634Y-9060674D02*
X10020111Y-9070198D01*
X10229634Y-9184484D02*
X10210587Y-9174960D01*
X10210587Y-9174960D02*
X10201063Y-9165436D01*
X10201063Y-9165436D02*
X10191539Y-9146389D01*
X10191539Y-9146389D02*
X10191539Y-9089246D01*
X10191539Y-9089246D02*
X10201063Y-9070198D01*
X10201063Y-9070198D02*
X10210587Y-9060674D01*
X10210587Y-9060674D02*
X10229634Y-9051150D01*
X10229634Y-9051150D02*
X10258206Y-9051150D01*
X10258206Y-9051150D02*
X10277253Y-9060674D01*
X10277253Y-9060674D02*
X10286777Y-9070198D01*
X10286777Y-9070198D02*
X10296301Y-9089246D01*
X10296301Y-9089246D02*
X10296301Y-9146389D01*
X10296301Y-9146389D02*
X10286777Y-9165436D01*
X10286777Y-9165436D02*
X10277253Y-9174960D01*
X10277253Y-9174960D02*
X10258206Y-9184484D01*
X10258206Y-9184484D02*
X10229634Y-9184484D01*
X10410587Y-9184484D02*
X10391539Y-9174960D01*
X10391539Y-9174960D02*
X10382015Y-9155912D01*
X10382015Y-9155912D02*
X10382015Y-8984484D01*
X10562968Y-9174960D02*
X10543920Y-9184484D01*
X10543920Y-9184484D02*
X10505825Y-9184484D01*
X10505825Y-9184484D02*
X10486777Y-9174960D01*
X10486777Y-9174960D02*
X10477253Y-9155912D01*
X10477253Y-9155912D02*
X10477253Y-9079722D01*
X10477253Y-9079722D02*
X10486777Y-9060674D01*
X10486777Y-9060674D02*
X10505825Y-9051150D01*
X10505825Y-9051150D02*
X10543920Y-9051150D01*
X10543920Y-9051150D02*
X10562968Y-9060674D01*
X10562968Y-9060674D02*
X10572492Y-9079722D01*
X10572492Y-9079722D02*
X10572492Y-9098770D01*
X10572492Y-9098770D02*
X10477253Y-9117817D01*
X10648682Y-9174960D02*
X10667730Y-9184484D01*
X10667730Y-9184484D02*
X10705825Y-9184484D01*
X10705825Y-9184484D02*
X10724873Y-9174960D01*
X10724873Y-9174960D02*
X10734396Y-9155912D01*
X10734396Y-9155912D02*
X10734396Y-9146389D01*
X10734396Y-9146389D02*
X10724873Y-9127341D01*
X10724873Y-9127341D02*
X10705825Y-9117817D01*
X10705825Y-9117817D02*
X10677253Y-9117817D01*
X10677253Y-9117817D02*
X10658206Y-9108293D01*
X10658206Y-9108293D02*
X10648682Y-9089246D01*
X10648682Y-9089246D02*
X10648682Y-9079722D01*
X10648682Y-9079722D02*
X10658206Y-9060674D01*
X10658206Y-9060674D02*
X10677253Y-9051150D01*
X10677253Y-9051150D02*
X10705825Y-9051150D01*
X10705825Y-9051150D02*
X10724873Y-9060674D01*
X10801063Y-9260674D02*
X10810587Y-9251150D01*
X10810587Y-9251150D02*
X10829634Y-9222579D01*
X10829634Y-9222579D02*
X10839158Y-9203531D01*
X10839158Y-9203531D02*
X10848682Y-9174960D01*
X10848682Y-9174960D02*
X10858206Y-9127341D01*
X10858206Y-9127341D02*
X10858206Y-9089246D01*
X10858206Y-9089246D02*
X10848682Y-9041627D01*
X10848682Y-9041627D02*
X10839158Y-9013055D01*
X10839158Y-9013055D02*
X10829634Y-8994008D01*
X10829634Y-8994008D02*
X10810587Y-8965436D01*
X10810587Y-8965436D02*
X10801063Y-8955912D01*
D10*
X5976000Y-9407000D02*
X6026000Y-9357000D01*
X5976000Y-9307000D01*
X5926000Y-9357000D01*
X5976000Y-9407000D01*
D11*
X6391539Y-9448484D02*
X6277253Y-9448484D01*
X6334396Y-9448484D02*
X6334396Y-9248484D01*
X6334396Y-9248484D02*
X6315348Y-9277055D01*
X6315348Y-9277055D02*
X6296301Y-9296103D01*
X6296301Y-9296103D02*
X6277253Y-9305627D01*
X6477253Y-9429436D02*
X6486777Y-9438960D01*
X6486777Y-9438960D02*
X6477253Y-9448484D01*
X6477253Y-9448484D02*
X6467729Y-9438960D01*
X6467729Y-9438960D02*
X6477253Y-9429436D01*
X6477253Y-9429436D02*
X6477253Y-9448484D01*
X6610586Y-9248484D02*
X6629634Y-9248484D01*
X6629634Y-9248484D02*
X6648682Y-9258008D01*
X6648682Y-9258008D02*
X6658205Y-9267531D01*
X6658205Y-9267531D02*
X6667729Y-9286579D01*
X6667729Y-9286579D02*
X6677253Y-9324674D01*
X6677253Y-9324674D02*
X6677253Y-9372293D01*
X6677253Y-9372293D02*
X6667729Y-9410389D01*
X6667729Y-9410389D02*
X6658205Y-9429436D01*
X6658205Y-9429436D02*
X6648682Y-9438960D01*
X6648682Y-9438960D02*
X6629634Y-9448484D01*
X6629634Y-9448484D02*
X6610586Y-9448484D01*
X6610586Y-9448484D02*
X6591539Y-9438960D01*
X6591539Y-9438960D02*
X6582015Y-9429436D01*
X6582015Y-9429436D02*
X6572491Y-9410389D01*
X6572491Y-9410389D02*
X6562967Y-9372293D01*
X6562967Y-9372293D02*
X6562967Y-9324674D01*
X6562967Y-9324674D02*
X6572491Y-9286579D01*
X6572491Y-9286579D02*
X6582015Y-9267531D01*
X6582015Y-9267531D02*
X6591539Y-9258008D01*
X6591539Y-9258008D02*
X6610586Y-9248484D01*
X6801062Y-9248484D02*
X6820110Y-9248484D01*
X6820110Y-9248484D02*
X6839158Y-9258008D01*
X6839158Y-9258008D02*
X6848682Y-9267531D01*
X6848682Y-9267531D02*
X6858205Y-9286579D01*
X6858205Y-9286579D02*
X6867729Y-9324674D01*
X6867729Y-9324674D02*
X6867729Y-9372293D01*
X6867729Y-9372293D02*
X6858205Y-9410389D01*
X6858205Y-9410389D02*
X6848682Y-9429436D01*
X6848682Y-9429436D02*
X6839158Y-9438960D01*
X6839158Y-9438960D02*
X6820110Y-9448484D01*
X6820110Y-9448484D02*
X6801062Y-9448484D01*
X6801062Y-9448484D02*
X6782015Y-9438960D01*
X6782015Y-9438960D02*
X6772491Y-9429436D01*
X6772491Y-9429436D02*
X6762967Y-9410389D01*
X6762967Y-9410389D02*
X6753443Y-9372293D01*
X6753443Y-9372293D02*
X6753443Y-9324674D01*
X6753443Y-9324674D02*
X6762967Y-9286579D01*
X6762967Y-9286579D02*
X6772491Y-9267531D01*
X6772491Y-9267531D02*
X6782015Y-9258008D01*
X6782015Y-9258008D02*
X6801062Y-9248484D01*
X6991539Y-9248484D02*
X7010586Y-9248484D01*
X7010586Y-9248484D02*
X7029634Y-9258008D01*
X7029634Y-9258008D02*
X7039158Y-9267531D01*
X7039158Y-9267531D02*
X7048682Y-9286579D01*
X7048682Y-9286579D02*
X7058205Y-9324674D01*
X7058205Y-9324674D02*
X7058205Y-9372293D01*
X7058205Y-9372293D02*
X7048682Y-9410389D01*
X7048682Y-9410389D02*
X7039158Y-9429436D01*
X7039158Y-9429436D02*
X7029634Y-9438960D01*
X7029634Y-9438960D02*
X7010586Y-9448484D01*
X7010586Y-9448484D02*
X6991539Y-9448484D01*
X6991539Y-9448484D02*
X6972491Y-9438960D01*
X6972491Y-9438960D02*
X6962967Y-9429436D01*
X6962967Y-9429436D02*
X6953443Y-9410389D01*
X6953443Y-9410389D02*
X6943920Y-9372293D01*
X6943920Y-9372293D02*
X6943920Y-9324674D01*
X6943920Y-9324674D02*
X6953443Y-9286579D01*
X6953443Y-9286579D02*
X6962967Y-9267531D01*
X6962967Y-9267531D02*
X6972491Y-9258008D01*
X6972491Y-9258008D02*
X6991539Y-9248484D01*
X7143920Y-9448484D02*
X7143920Y-9315150D01*
X7143920Y-9334198D02*
X7153443Y-9324674D01*
X7153443Y-9324674D02*
X7172491Y-9315150D01*
X7172491Y-9315150D02*
X7201063Y-9315150D01*
X7201063Y-9315150D02*
X7220110Y-9324674D01*
X7220110Y-9324674D02*
X7229634Y-9343722D01*
X7229634Y-9343722D02*
X7229634Y-9448484D01*
X7229634Y-9343722D02*
X7239158Y-9324674D01*
X7239158Y-9324674D02*
X7258205Y-9315150D01*
X7258205Y-9315150D02*
X7286777Y-9315150D01*
X7286777Y-9315150D02*
X7305824Y-9324674D01*
X7305824Y-9324674D02*
X7315348Y-9343722D01*
X7315348Y-9343722D02*
X7315348Y-9448484D01*
X7410586Y-9448484D02*
X7410586Y-9315150D01*
X7410586Y-9334198D02*
X7420110Y-9324674D01*
X7420110Y-9324674D02*
X7439158Y-9315150D01*
X7439158Y-9315150D02*
X7467729Y-9315150D01*
X7467729Y-9315150D02*
X7486777Y-9324674D01*
X7486777Y-9324674D02*
X7496301Y-9343722D01*
X7496301Y-9343722D02*
X7496301Y-9448484D01*
X7496301Y-9343722D02*
X7505824Y-9324674D01*
X7505824Y-9324674D02*
X7524872Y-9315150D01*
X7524872Y-9315150D02*
X7553443Y-9315150D01*
X7553443Y-9315150D02*
X7572491Y-9324674D01*
X7572491Y-9324674D02*
X7582015Y-9343722D01*
X7582015Y-9343722D02*
X7582015Y-9448484D01*
X7972491Y-9238960D02*
X7801063Y-9496103D01*
X8229634Y-9248484D02*
X8248682Y-9248484D01*
X8248682Y-9248484D02*
X8267729Y-9258008D01*
X8267729Y-9258008D02*
X8277253Y-9267531D01*
X8277253Y-9267531D02*
X8286777Y-9286579D01*
X8286777Y-9286579D02*
X8296301Y-9324674D01*
X8296301Y-9324674D02*
X8296301Y-9372293D01*
X8296301Y-9372293D02*
X8286777Y-9410389D01*
X8286777Y-9410389D02*
X8277253Y-9429436D01*
X8277253Y-9429436D02*
X8267729Y-9438960D01*
X8267729Y-9438960D02*
X8248682Y-9448484D01*
X8248682Y-9448484D02*
X8229634Y-9448484D01*
X8229634Y-9448484D02*
X8210586Y-9438960D01*
X8210586Y-9438960D02*
X8201063Y-9429436D01*
X8201063Y-9429436D02*
X8191539Y-9410389D01*
X8191539Y-9410389D02*
X8182015Y-9372293D01*
X8182015Y-9372293D02*
X8182015Y-9324674D01*
X8182015Y-9324674D02*
X8191539Y-9286579D01*
X8191539Y-9286579D02*
X8201063Y-9267531D01*
X8201063Y-9267531D02*
X8210586Y-9258008D01*
X8210586Y-9258008D02*
X8229634Y-9248484D01*
X8382015Y-9429436D02*
X8391539Y-9438960D01*
X8391539Y-9438960D02*
X8382015Y-9448484D01*
X8382015Y-9448484D02*
X8372491Y-9438960D01*
X8372491Y-9438960D02*
X8382015Y-9429436D01*
X8382015Y-9429436D02*
X8382015Y-9448484D01*
X8515348Y-9248484D02*
X8534396Y-9248484D01*
X8534396Y-9248484D02*
X8553444Y-9258008D01*
X8553444Y-9258008D02*
X8562968Y-9267531D01*
X8562968Y-9267531D02*
X8572491Y-9286579D01*
X8572491Y-9286579D02*
X8582015Y-9324674D01*
X8582015Y-9324674D02*
X8582015Y-9372293D01*
X8582015Y-9372293D02*
X8572491Y-9410389D01*
X8572491Y-9410389D02*
X8562968Y-9429436D01*
X8562968Y-9429436D02*
X8553444Y-9438960D01*
X8553444Y-9438960D02*
X8534396Y-9448484D01*
X8534396Y-9448484D02*
X8515348Y-9448484D01*
X8515348Y-9448484D02*
X8496301Y-9438960D01*
X8496301Y-9438960D02*
X8486777Y-9429436D01*
X8486777Y-9429436D02*
X8477253Y-9410389D01*
X8477253Y-9410389D02*
X8467729Y-9372293D01*
X8467729Y-9372293D02*
X8467729Y-9324674D01*
X8467729Y-9324674D02*
X8477253Y-9286579D01*
X8477253Y-9286579D02*
X8486777Y-9267531D01*
X8486777Y-9267531D02*
X8496301Y-9258008D01*
X8496301Y-9258008D02*
X8515348Y-9248484D01*
X8648682Y-9248484D02*
X8772491Y-9248484D01*
X8772491Y-9248484D02*
X8705825Y-9324674D01*
X8705825Y-9324674D02*
X8734396Y-9324674D01*
X8734396Y-9324674D02*
X8753444Y-9334198D01*
X8753444Y-9334198D02*
X8762968Y-9343722D01*
X8762968Y-9343722D02*
X8772491Y-9362770D01*
X8772491Y-9362770D02*
X8772491Y-9410389D01*
X8772491Y-9410389D02*
X8762968Y-9429436D01*
X8762968Y-9429436D02*
X8753444Y-9438960D01*
X8753444Y-9438960D02*
X8734396Y-9448484D01*
X8734396Y-9448484D02*
X8677253Y-9448484D01*
X8677253Y-9448484D02*
X8658206Y-9438960D01*
X8658206Y-9438960D02*
X8648682Y-9429436D01*
X8867729Y-9448484D02*
X8905825Y-9448484D01*
X8905825Y-9448484D02*
X8924872Y-9438960D01*
X8924872Y-9438960D02*
X8934396Y-9429436D01*
X8934396Y-9429436D02*
X8953444Y-9400865D01*
X8953444Y-9400865D02*
X8962968Y-9362770D01*
X8962968Y-9362770D02*
X8962968Y-9286579D01*
X8962968Y-9286579D02*
X8953444Y-9267531D01*
X8953444Y-9267531D02*
X8943920Y-9258008D01*
X8943920Y-9258008D02*
X8924872Y-9248484D01*
X8924872Y-9248484D02*
X8886777Y-9248484D01*
X8886777Y-9248484D02*
X8867729Y-9258008D01*
X8867729Y-9258008D02*
X8858206Y-9267531D01*
X8858206Y-9267531D02*
X8848682Y-9286579D01*
X8848682Y-9286579D02*
X8848682Y-9334198D01*
X8848682Y-9334198D02*
X8858206Y-9353246D01*
X8858206Y-9353246D02*
X8867729Y-9362770D01*
X8867729Y-9362770D02*
X8886777Y-9372293D01*
X8886777Y-9372293D02*
X8924872Y-9372293D01*
X8924872Y-9372293D02*
X8943920Y-9362770D01*
X8943920Y-9362770D02*
X8953444Y-9353246D01*
X8953444Y-9353246D02*
X8962968Y-9334198D01*
X9134396Y-9315150D02*
X9134396Y-9448484D01*
X9086777Y-9238960D02*
X9039158Y-9381817D01*
X9039158Y-9381817D02*
X9162968Y-9381817D01*
X9229634Y-9248484D02*
X9229634Y-9286579D01*
X9305825Y-9248484D02*
X9305825Y-9286579D01*
X9601063Y-9524674D02*
X9591539Y-9515150D01*
X9591539Y-9515150D02*
X9572491Y-9486579D01*
X9572491Y-9486579D02*
X9562968Y-9467531D01*
X9562968Y-9467531D02*
X9553444Y-9438960D01*
X9553444Y-9438960D02*
X9543920Y-9391341D01*
X9543920Y-9391341D02*
X9543920Y-9353246D01*
X9543920Y-9353246D02*
X9553444Y-9305627D01*
X9553444Y-9305627D02*
X9562968Y-9277055D01*
X9562968Y-9277055D02*
X9572491Y-9258008D01*
X9572491Y-9258008D02*
X9591539Y-9229436D01*
X9591539Y-9229436D02*
X9601063Y-9219912D01*
X9782015Y-9448484D02*
X9667730Y-9448484D01*
X9724872Y-9448484D02*
X9724872Y-9248484D01*
X9724872Y-9248484D02*
X9705825Y-9277055D01*
X9705825Y-9277055D02*
X9686777Y-9296103D01*
X9686777Y-9296103D02*
X9667730Y-9305627D01*
X9848682Y-9248484D02*
X9972491Y-9248484D01*
X9972491Y-9248484D02*
X9905825Y-9324674D01*
X9905825Y-9324674D02*
X9934396Y-9324674D01*
X9934396Y-9324674D02*
X9953444Y-9334198D01*
X9953444Y-9334198D02*
X9962968Y-9343722D01*
X9962968Y-9343722D02*
X9972491Y-9362770D01*
X9972491Y-9362770D02*
X9972491Y-9410389D01*
X9972491Y-9410389D02*
X9962968Y-9429436D01*
X9962968Y-9429436D02*
X9953444Y-9438960D01*
X9953444Y-9438960D02*
X9934396Y-9448484D01*
X9934396Y-9448484D02*
X9877253Y-9448484D01*
X9877253Y-9448484D02*
X9858206Y-9438960D01*
X9858206Y-9438960D02*
X9848682Y-9429436D01*
X10210587Y-9448484D02*
X10210587Y-9248484D01*
X10296301Y-9448484D02*
X10296301Y-9343722D01*
X10296301Y-9343722D02*
X10286777Y-9324674D01*
X10286777Y-9324674D02*
X10267730Y-9315150D01*
X10267730Y-9315150D02*
X10239158Y-9315150D01*
X10239158Y-9315150D02*
X10220111Y-9324674D01*
X10220111Y-9324674D02*
X10210587Y-9334198D01*
X10420111Y-9448484D02*
X10401063Y-9438960D01*
X10401063Y-9438960D02*
X10391539Y-9429436D01*
X10391539Y-9429436D02*
X10382015Y-9410389D01*
X10382015Y-9410389D02*
X10382015Y-9353246D01*
X10382015Y-9353246D02*
X10391539Y-9334198D01*
X10391539Y-9334198D02*
X10401063Y-9324674D01*
X10401063Y-9324674D02*
X10420111Y-9315150D01*
X10420111Y-9315150D02*
X10448682Y-9315150D01*
X10448682Y-9315150D02*
X10467730Y-9324674D01*
X10467730Y-9324674D02*
X10477253Y-9334198D01*
X10477253Y-9334198D02*
X10486777Y-9353246D01*
X10486777Y-9353246D02*
X10486777Y-9410389D01*
X10486777Y-9410389D02*
X10477253Y-9429436D01*
X10477253Y-9429436D02*
X10467730Y-9438960D01*
X10467730Y-9438960D02*
X10448682Y-9448484D01*
X10448682Y-9448484D02*
X10420111Y-9448484D01*
X10601063Y-9448484D02*
X10582015Y-9438960D01*
X10582015Y-9438960D02*
X10572492Y-9419912D01*
X10572492Y-9419912D02*
X10572492Y-9248484D01*
X10753444Y-9438960D02*
X10734396Y-9448484D01*
X10734396Y-9448484D02*
X10696301Y-9448484D01*
X10696301Y-9448484D02*
X10677253Y-9438960D01*
X10677253Y-9438960D02*
X10667730Y-9419912D01*
X10667730Y-9419912D02*
X10667730Y-9343722D01*
X10667730Y-9343722D02*
X10677253Y-9324674D01*
X10677253Y-9324674D02*
X10696301Y-9315150D01*
X10696301Y-9315150D02*
X10734396Y-9315150D01*
X10734396Y-9315150D02*
X10753444Y-9324674D01*
X10753444Y-9324674D02*
X10762968Y-9343722D01*
X10762968Y-9343722D02*
X10762968Y-9362770D01*
X10762968Y-9362770D02*
X10667730Y-9381817D01*
X10839158Y-9438960D02*
X10858206Y-9448484D01*
X10858206Y-9448484D02*
X10896301Y-9448484D01*
X10896301Y-9448484D02*
X10915349Y-9438960D01*
X10915349Y-9438960D02*
X10924873Y-9419912D01*
X10924873Y-9419912D02*
X10924873Y-9410389D01*
X10924873Y-9410389D02*
X10915349Y-9391341D01*
X10915349Y-9391341D02*
X10896301Y-9381817D01*
X10896301Y-9381817D02*
X10867730Y-9381817D01*
X10867730Y-9381817D02*
X10848682Y-9372293D01*
X10848682Y-9372293D02*
X10839158Y-9353246D01*
X10839158Y-9353246D02*
X10839158Y-9343722D01*
X10839158Y-9343722D02*
X10848682Y-9324674D01*
X10848682Y-9324674D02*
X10867730Y-9315150D01*
X10867730Y-9315150D02*
X10896301Y-9315150D01*
X10896301Y-9315150D02*
X10915349Y-9324674D01*
X10991539Y-9524674D02*
X11001063Y-9515150D01*
X11001063Y-9515150D02*
X11020111Y-9486579D01*
X11020111Y-9486579D02*
X11029634Y-9467531D01*
X11029634Y-9467531D02*
X11039158Y-9438960D01*
X11039158Y-9438960D02*
X11048682Y-9391341D01*
X11048682Y-9391341D02*
X11048682Y-9353246D01*
X11048682Y-9353246D02*
X11039158Y-9305627D01*
X11039158Y-9305627D02*
X11029634Y-9277055D01*
X11029634Y-9277055D02*
X11020111Y-9258008D01*
X11020111Y-9258008D02*
X11001063Y-9229436D01*
X11001063Y-9229436D02*
X10991539Y-9219912D01*
D12*
X5896000Y-9556000D02*
X6026000Y-9686000D01*
X6026000Y-9556000D02*
X5896000Y-9686000D01*
X6026000Y-9621000D02*
G75*
G02*
X5896000Y-9621000I-65000J0D01*
G01*
X5896000Y-9621000D02*
G75*
G02*
X6026000Y-9621000I65000J0D01*
G01*
D11*
X6391539Y-9712484D02*
X6277253Y-9712484D01*
X6334396Y-9712484D02*
X6334396Y-9512484D01*
X6334396Y-9512484D02*
X6315348Y-9541055D01*
X6315348Y-9541055D02*
X6296301Y-9560103D01*
X6296301Y-9560103D02*
X6277253Y-9569627D01*
X6477253Y-9693436D02*
X6486777Y-9702960D01*
X6486777Y-9702960D02*
X6477253Y-9712484D01*
X6477253Y-9712484D02*
X6467729Y-9702960D01*
X6467729Y-9702960D02*
X6477253Y-9693436D01*
X6477253Y-9693436D02*
X6477253Y-9712484D01*
X6553443Y-9512484D02*
X6677253Y-9512484D01*
X6677253Y-9512484D02*
X6610586Y-9588674D01*
X6610586Y-9588674D02*
X6639158Y-9588674D01*
X6639158Y-9588674D02*
X6658205Y-9598198D01*
X6658205Y-9598198D02*
X6667729Y-9607722D01*
X6667729Y-9607722D02*
X6677253Y-9626770D01*
X6677253Y-9626770D02*
X6677253Y-9674389D01*
X6677253Y-9674389D02*
X6667729Y-9693436D01*
X6667729Y-9693436D02*
X6658205Y-9702960D01*
X6658205Y-9702960D02*
X6639158Y-9712484D01*
X6639158Y-9712484D02*
X6582015Y-9712484D01*
X6582015Y-9712484D02*
X6562967Y-9702960D01*
X6562967Y-9702960D02*
X6553443Y-9693436D01*
X6801062Y-9512484D02*
X6820110Y-9512484D01*
X6820110Y-9512484D02*
X6839158Y-9522008D01*
X6839158Y-9522008D02*
X6848682Y-9531531D01*
X6848682Y-9531531D02*
X6858205Y-9550579D01*
X6858205Y-9550579D02*
X6867729Y-9588674D01*
X6867729Y-9588674D02*
X6867729Y-9636293D01*
X6867729Y-9636293D02*
X6858205Y-9674389D01*
X6858205Y-9674389D02*
X6848682Y-9693436D01*
X6848682Y-9693436D02*
X6839158Y-9702960D01*
X6839158Y-9702960D02*
X6820110Y-9712484D01*
X6820110Y-9712484D02*
X6801062Y-9712484D01*
X6801062Y-9712484D02*
X6782015Y-9702960D01*
X6782015Y-9702960D02*
X6772491Y-9693436D01*
X6772491Y-9693436D02*
X6762967Y-9674389D01*
X6762967Y-9674389D02*
X6753443Y-9636293D01*
X6753443Y-9636293D02*
X6753443Y-9588674D01*
X6753443Y-9588674D02*
X6762967Y-9550579D01*
X6762967Y-9550579D02*
X6772491Y-9531531D01*
X6772491Y-9531531D02*
X6782015Y-9522008D01*
X6782015Y-9522008D02*
X6801062Y-9512484D01*
X6991539Y-9512484D02*
X7010586Y-9512484D01*
X7010586Y-9512484D02*
X7029634Y-9522008D01*
X7029634Y-9522008D02*
X7039158Y-9531531D01*
X7039158Y-9531531D02*
X7048682Y-9550579D01*
X7048682Y-9550579D02*
X7058205Y-9588674D01*
X7058205Y-9588674D02*
X7058205Y-9636293D01*
X7058205Y-9636293D02*
X7048682Y-9674389D01*
X7048682Y-9674389D02*
X7039158Y-9693436D01*
X7039158Y-9693436D02*
X7029634Y-9702960D01*
X7029634Y-9702960D02*
X7010586Y-9712484D01*
X7010586Y-9712484D02*
X6991539Y-9712484D01*
X6991539Y-9712484D02*
X6972491Y-9702960D01*
X6972491Y-9702960D02*
X6962967Y-9693436D01*
X6962967Y-9693436D02*
X6953443Y-9674389D01*
X6953443Y-9674389D02*
X6943920Y-9636293D01*
X6943920Y-9636293D02*
X6943920Y-9588674D01*
X6943920Y-9588674D02*
X6953443Y-9550579D01*
X6953443Y-9550579D02*
X6962967Y-9531531D01*
X6962967Y-9531531D02*
X6972491Y-9522008D01*
X6972491Y-9522008D02*
X6991539Y-9512484D01*
X7143920Y-9712484D02*
X7143920Y-9579150D01*
X7143920Y-9598198D02*
X7153443Y-9588674D01*
X7153443Y-9588674D02*
X7172491Y-9579150D01*
X7172491Y-9579150D02*
X7201063Y-9579150D01*
X7201063Y-9579150D02*
X7220110Y-9588674D01*
X7220110Y-9588674D02*
X7229634Y-9607722D01*
X7229634Y-9607722D02*
X7229634Y-9712484D01*
X7229634Y-9607722D02*
X7239158Y-9588674D01*
X7239158Y-9588674D02*
X7258205Y-9579150D01*
X7258205Y-9579150D02*
X7286777Y-9579150D01*
X7286777Y-9579150D02*
X7305824Y-9588674D01*
X7305824Y-9588674D02*
X7315348Y-9607722D01*
X7315348Y-9607722D02*
X7315348Y-9712484D01*
X7410586Y-9712484D02*
X7410586Y-9579150D01*
X7410586Y-9598198D02*
X7420110Y-9588674D01*
X7420110Y-9588674D02*
X7439158Y-9579150D01*
X7439158Y-9579150D02*
X7467729Y-9579150D01*
X7467729Y-9579150D02*
X7486777Y-9588674D01*
X7486777Y-9588674D02*
X7496301Y-9607722D01*
X7496301Y-9607722D02*
X7496301Y-9712484D01*
X7496301Y-9607722D02*
X7505824Y-9588674D01*
X7505824Y-9588674D02*
X7524872Y-9579150D01*
X7524872Y-9579150D02*
X7553443Y-9579150D01*
X7553443Y-9579150D02*
X7572491Y-9588674D01*
X7572491Y-9588674D02*
X7582015Y-9607722D01*
X7582015Y-9607722D02*
X7582015Y-9712484D01*
X7972491Y-9502960D02*
X7801063Y-9760103D01*
X8229634Y-9512484D02*
X8248682Y-9512484D01*
X8248682Y-9512484D02*
X8267729Y-9522008D01*
X8267729Y-9522008D02*
X8277253Y-9531531D01*
X8277253Y-9531531D02*
X8286777Y-9550579D01*
X8286777Y-9550579D02*
X8296301Y-9588674D01*
X8296301Y-9588674D02*
X8296301Y-9636293D01*
X8296301Y-9636293D02*
X8286777Y-9674389D01*
X8286777Y-9674389D02*
X8277253Y-9693436D01*
X8277253Y-9693436D02*
X8267729Y-9702960D01*
X8267729Y-9702960D02*
X8248682Y-9712484D01*
X8248682Y-9712484D02*
X8229634Y-9712484D01*
X8229634Y-9712484D02*
X8210586Y-9702960D01*
X8210586Y-9702960D02*
X8201063Y-9693436D01*
X8201063Y-9693436D02*
X8191539Y-9674389D01*
X8191539Y-9674389D02*
X8182015Y-9636293D01*
X8182015Y-9636293D02*
X8182015Y-9588674D01*
X8182015Y-9588674D02*
X8191539Y-9550579D01*
X8191539Y-9550579D02*
X8201063Y-9531531D01*
X8201063Y-9531531D02*
X8210586Y-9522008D01*
X8210586Y-9522008D02*
X8229634Y-9512484D01*
X8382015Y-9693436D02*
X8391539Y-9702960D01*
X8391539Y-9702960D02*
X8382015Y-9712484D01*
X8382015Y-9712484D02*
X8372491Y-9702960D01*
X8372491Y-9702960D02*
X8382015Y-9693436D01*
X8382015Y-9693436D02*
X8382015Y-9712484D01*
X8515348Y-9512484D02*
X8534396Y-9512484D01*
X8534396Y-9512484D02*
X8553444Y-9522008D01*
X8553444Y-9522008D02*
X8562968Y-9531531D01*
X8562968Y-9531531D02*
X8572491Y-9550579D01*
X8572491Y-9550579D02*
X8582015Y-9588674D01*
X8582015Y-9588674D02*
X8582015Y-9636293D01*
X8582015Y-9636293D02*
X8572491Y-9674389D01*
X8572491Y-9674389D02*
X8562968Y-9693436D01*
X8562968Y-9693436D02*
X8553444Y-9702960D01*
X8553444Y-9702960D02*
X8534396Y-9712484D01*
X8534396Y-9712484D02*
X8515348Y-9712484D01*
X8515348Y-9712484D02*
X8496301Y-9702960D01*
X8496301Y-9702960D02*
X8486777Y-9693436D01*
X8486777Y-9693436D02*
X8477253Y-9674389D01*
X8477253Y-9674389D02*
X8467729Y-9636293D01*
X8467729Y-9636293D02*
X8467729Y-9588674D01*
X8467729Y-9588674D02*
X8477253Y-9550579D01*
X8477253Y-9550579D02*
X8486777Y-9531531D01*
X8486777Y-9531531D02*
X8496301Y-9522008D01*
X8496301Y-9522008D02*
X8515348Y-9512484D01*
X8762968Y-9512484D02*
X8667729Y-9512484D01*
X8667729Y-9512484D02*
X8658206Y-9607722D01*
X8658206Y-9607722D02*
X8667729Y-9598198D01*
X8667729Y-9598198D02*
X8686777Y-9588674D01*
X8686777Y-9588674D02*
X8734396Y-9588674D01*
X8734396Y-9588674D02*
X8753444Y-9598198D01*
X8753444Y-9598198D02*
X8762968Y-9607722D01*
X8762968Y-9607722D02*
X8772491Y-9626770D01*
X8772491Y-9626770D02*
X8772491Y-9674389D01*
X8772491Y-9674389D02*
X8762968Y-9693436D01*
X8762968Y-9693436D02*
X8753444Y-9702960D01*
X8753444Y-9702960D02*
X8734396Y-9712484D01*
X8734396Y-9712484D02*
X8686777Y-9712484D01*
X8686777Y-9712484D02*
X8667729Y-9702960D01*
X8667729Y-9702960D02*
X8658206Y-9693436D01*
X8962968Y-9712484D02*
X8848682Y-9712484D01*
X8905825Y-9712484D02*
X8905825Y-9512484D01*
X8905825Y-9512484D02*
X8886777Y-9541055D01*
X8886777Y-9541055D02*
X8867729Y-9560103D01*
X8867729Y-9560103D02*
X8848682Y-9569627D01*
X9039158Y-9531531D02*
X9048682Y-9522008D01*
X9048682Y-9522008D02*
X9067729Y-9512484D01*
X9067729Y-9512484D02*
X9115349Y-9512484D01*
X9115349Y-9512484D02*
X9134396Y-9522008D01*
X9134396Y-9522008D02*
X9143920Y-9531531D01*
X9143920Y-9531531D02*
X9153444Y-9550579D01*
X9153444Y-9550579D02*
X9153444Y-9569627D01*
X9153444Y-9569627D02*
X9143920Y-9598198D01*
X9143920Y-9598198D02*
X9029634Y-9712484D01*
X9029634Y-9712484D02*
X9153444Y-9712484D01*
X9229634Y-9512484D02*
X9229634Y-9550579D01*
X9305825Y-9512484D02*
X9305825Y-9550579D01*
X9601063Y-9788674D02*
X9591539Y-9779150D01*
X9591539Y-9779150D02*
X9572491Y-9750579D01*
X9572491Y-9750579D02*
X9562968Y-9731531D01*
X9562968Y-9731531D02*
X9553444Y-9702960D01*
X9553444Y-9702960D02*
X9543920Y-9655341D01*
X9543920Y-9655341D02*
X9543920Y-9617246D01*
X9543920Y-9617246D02*
X9553444Y-9569627D01*
X9553444Y-9569627D02*
X9562968Y-9541055D01*
X9562968Y-9541055D02*
X9572491Y-9522008D01*
X9572491Y-9522008D02*
X9591539Y-9493436D01*
X9591539Y-9493436D02*
X9601063Y-9483912D01*
X9762968Y-9579150D02*
X9762968Y-9712484D01*
X9715349Y-9502960D02*
X9667730Y-9645817D01*
X9667730Y-9645817D02*
X9791539Y-9645817D01*
X10020111Y-9712484D02*
X10020111Y-9512484D01*
X10105825Y-9712484D02*
X10105825Y-9607722D01*
X10105825Y-9607722D02*
X10096301Y-9588674D01*
X10096301Y-9588674D02*
X10077253Y-9579150D01*
X10077253Y-9579150D02*
X10048682Y-9579150D01*
X10048682Y-9579150D02*
X10029634Y-9588674D01*
X10029634Y-9588674D02*
X10020111Y-9598198D01*
X10229634Y-9712484D02*
X10210587Y-9702960D01*
X10210587Y-9702960D02*
X10201063Y-9693436D01*
X10201063Y-9693436D02*
X10191539Y-9674389D01*
X10191539Y-9674389D02*
X10191539Y-9617246D01*
X10191539Y-9617246D02*
X10201063Y-9598198D01*
X10201063Y-9598198D02*
X10210587Y-9588674D01*
X10210587Y-9588674D02*
X10229634Y-9579150D01*
X10229634Y-9579150D02*
X10258206Y-9579150D01*
X10258206Y-9579150D02*
X10277253Y-9588674D01*
X10277253Y-9588674D02*
X10286777Y-9598198D01*
X10286777Y-9598198D02*
X10296301Y-9617246D01*
X10296301Y-9617246D02*
X10296301Y-9674389D01*
X10296301Y-9674389D02*
X10286777Y-9693436D01*
X10286777Y-9693436D02*
X10277253Y-9702960D01*
X10277253Y-9702960D02*
X10258206Y-9712484D01*
X10258206Y-9712484D02*
X10229634Y-9712484D01*
X10410587Y-9712484D02*
X10391539Y-9702960D01*
X10391539Y-9702960D02*
X10382015Y-9683912D01*
X10382015Y-9683912D02*
X10382015Y-9512484D01*
X10562968Y-9702960D02*
X10543920Y-9712484D01*
X10543920Y-9712484D02*
X10505825Y-9712484D01*
X10505825Y-9712484D02*
X10486777Y-9702960D01*
X10486777Y-9702960D02*
X10477253Y-9683912D01*
X10477253Y-9683912D02*
X10477253Y-9607722D01*
X10477253Y-9607722D02*
X10486777Y-9588674D01*
X10486777Y-9588674D02*
X10505825Y-9579150D01*
X10505825Y-9579150D02*
X10543920Y-9579150D01*
X10543920Y-9579150D02*
X10562968Y-9588674D01*
X10562968Y-9588674D02*
X10572492Y-9607722D01*
X10572492Y-9607722D02*
X10572492Y-9626770D01*
X10572492Y-9626770D02*
X10477253Y-9645817D01*
X10648682Y-9702960D02*
X10667730Y-9712484D01*
X10667730Y-9712484D02*
X10705825Y-9712484D01*
X10705825Y-9712484D02*
X10724873Y-9702960D01*
X10724873Y-9702960D02*
X10734396Y-9683912D01*
X10734396Y-9683912D02*
X10734396Y-9674389D01*
X10734396Y-9674389D02*
X10724873Y-9655341D01*
X10724873Y-9655341D02*
X10705825Y-9645817D01*
X10705825Y-9645817D02*
X10677253Y-9645817D01*
X10677253Y-9645817D02*
X10658206Y-9636293D01*
X10658206Y-9636293D02*
X10648682Y-9617246D01*
X10648682Y-9617246D02*
X10648682Y-9607722D01*
X10648682Y-9607722D02*
X10658206Y-9588674D01*
X10658206Y-9588674D02*
X10677253Y-9579150D01*
X10677253Y-9579150D02*
X10705825Y-9579150D01*
X10705825Y-9579150D02*
X10724873Y-9588674D01*
X10801063Y-9788674D02*
X10810587Y-9779150D01*
X10810587Y-9779150D02*
X10829634Y-9750579D01*
X10829634Y-9750579D02*
X10839158Y-9731531D01*
X10839158Y-9731531D02*
X10848682Y-9702960D01*
X10848682Y-9702960D02*
X10858206Y-9655341D01*
X10858206Y-9655341D02*
X10858206Y-9617246D01*
X10858206Y-9617246D02*
X10848682Y-9569627D01*
X10848682Y-9569627D02*
X10839158Y-9541055D01*
X10839158Y-9541055D02*
X10829634Y-9522008D01*
X10829634Y-9522008D02*
X10810587Y-9493436D01*
X10810587Y-9493436D02*
X10801063Y-9483912D01*
X5826000Y-9785000D02*
X6026000Y-9985000D01*
X6026000Y-9785000D02*
X5826000Y-9985000D01*
X5926000Y-9785000D02*
X5926000Y-9985000D01*
X5826000Y-9885000D02*
X6026000Y-9885000D01*
X6277253Y-9795531D02*
X6286777Y-9786008D01*
X6286777Y-9786008D02*
X6305824Y-9776484D01*
X6305824Y-9776484D02*
X6353443Y-9776484D01*
X6353443Y-9776484D02*
X6372491Y-9786008D01*
X6372491Y-9786008D02*
X6382015Y-9795531D01*
X6382015Y-9795531D02*
X6391539Y-9814579D01*
X6391539Y-9814579D02*
X6391539Y-9833627D01*
X6391539Y-9833627D02*
X6382015Y-9862198D01*
X6382015Y-9862198D02*
X6267729Y-9976484D01*
X6267729Y-9976484D02*
X6391539Y-9976484D01*
X6477253Y-9957436D02*
X6486777Y-9966960D01*
X6486777Y-9966960D02*
X6477253Y-9976484D01*
X6477253Y-9976484D02*
X6467729Y-9966960D01*
X6467729Y-9966960D02*
X6477253Y-9957436D01*
X6477253Y-9957436D02*
X6477253Y-9976484D01*
X6610586Y-9776484D02*
X6629634Y-9776484D01*
X6629634Y-9776484D02*
X6648682Y-9786008D01*
X6648682Y-9786008D02*
X6658205Y-9795531D01*
X6658205Y-9795531D02*
X6667729Y-9814579D01*
X6667729Y-9814579D02*
X6677253Y-9852674D01*
X6677253Y-9852674D02*
X6677253Y-9900293D01*
X6677253Y-9900293D02*
X6667729Y-9938389D01*
X6667729Y-9938389D02*
X6658205Y-9957436D01*
X6658205Y-9957436D02*
X6648682Y-9966960D01*
X6648682Y-9966960D02*
X6629634Y-9976484D01*
X6629634Y-9976484D02*
X6610586Y-9976484D01*
X6610586Y-9976484D02*
X6591539Y-9966960D01*
X6591539Y-9966960D02*
X6582015Y-9957436D01*
X6582015Y-9957436D02*
X6572491Y-9938389D01*
X6572491Y-9938389D02*
X6562967Y-9900293D01*
X6562967Y-9900293D02*
X6562967Y-9852674D01*
X6562967Y-9852674D02*
X6572491Y-9814579D01*
X6572491Y-9814579D02*
X6582015Y-9795531D01*
X6582015Y-9795531D02*
X6591539Y-9786008D01*
X6591539Y-9786008D02*
X6610586Y-9776484D01*
X6801062Y-9776484D02*
X6820110Y-9776484D01*
X6820110Y-9776484D02*
X6839158Y-9786008D01*
X6839158Y-9786008D02*
X6848682Y-9795531D01*
X6848682Y-9795531D02*
X6858205Y-9814579D01*
X6858205Y-9814579D02*
X6867729Y-9852674D01*
X6867729Y-9852674D02*
X6867729Y-9900293D01*
X6867729Y-9900293D02*
X6858205Y-9938389D01*
X6858205Y-9938389D02*
X6848682Y-9957436D01*
X6848682Y-9957436D02*
X6839158Y-9966960D01*
X6839158Y-9966960D02*
X6820110Y-9976484D01*
X6820110Y-9976484D02*
X6801062Y-9976484D01*
X6801062Y-9976484D02*
X6782015Y-9966960D01*
X6782015Y-9966960D02*
X6772491Y-9957436D01*
X6772491Y-9957436D02*
X6762967Y-9938389D01*
X6762967Y-9938389D02*
X6753443Y-9900293D01*
X6753443Y-9900293D02*
X6753443Y-9852674D01*
X6753443Y-9852674D02*
X6762967Y-9814579D01*
X6762967Y-9814579D02*
X6772491Y-9795531D01*
X6772491Y-9795531D02*
X6782015Y-9786008D01*
X6782015Y-9786008D02*
X6801062Y-9776484D01*
X6991539Y-9776484D02*
X7010586Y-9776484D01*
X7010586Y-9776484D02*
X7029634Y-9786008D01*
X7029634Y-9786008D02*
X7039158Y-9795531D01*
X7039158Y-9795531D02*
X7048682Y-9814579D01*
X7048682Y-9814579D02*
X7058205Y-9852674D01*
X7058205Y-9852674D02*
X7058205Y-9900293D01*
X7058205Y-9900293D02*
X7048682Y-9938389D01*
X7048682Y-9938389D02*
X7039158Y-9957436D01*
X7039158Y-9957436D02*
X7029634Y-9966960D01*
X7029634Y-9966960D02*
X7010586Y-9976484D01*
X7010586Y-9976484D02*
X6991539Y-9976484D01*
X6991539Y-9976484D02*
X6972491Y-9966960D01*
X6972491Y-9966960D02*
X6962967Y-9957436D01*
X6962967Y-9957436D02*
X6953443Y-9938389D01*
X6953443Y-9938389D02*
X6943920Y-9900293D01*
X6943920Y-9900293D02*
X6943920Y-9852674D01*
X6943920Y-9852674D02*
X6953443Y-9814579D01*
X6953443Y-9814579D02*
X6962967Y-9795531D01*
X6962967Y-9795531D02*
X6972491Y-9786008D01*
X6972491Y-9786008D02*
X6991539Y-9776484D01*
X7143920Y-9976484D02*
X7143920Y-9843150D01*
X7143920Y-9862198D02*
X7153443Y-9852674D01*
X7153443Y-9852674D02*
X7172491Y-9843150D01*
X7172491Y-9843150D02*
X7201063Y-9843150D01*
X7201063Y-9843150D02*
X7220110Y-9852674D01*
X7220110Y-9852674D02*
X7229634Y-9871722D01*
X7229634Y-9871722D02*
X7229634Y-9976484D01*
X7229634Y-9871722D02*
X7239158Y-9852674D01*
X7239158Y-9852674D02*
X7258205Y-9843150D01*
X7258205Y-9843150D02*
X7286777Y-9843150D01*
X7286777Y-9843150D02*
X7305824Y-9852674D01*
X7305824Y-9852674D02*
X7315348Y-9871722D01*
X7315348Y-9871722D02*
X7315348Y-9976484D01*
X7410586Y-9976484D02*
X7410586Y-9843150D01*
X7410586Y-9862198D02*
X7420110Y-9852674D01*
X7420110Y-9852674D02*
X7439158Y-9843150D01*
X7439158Y-9843150D02*
X7467729Y-9843150D01*
X7467729Y-9843150D02*
X7486777Y-9852674D01*
X7486777Y-9852674D02*
X7496301Y-9871722D01*
X7496301Y-9871722D02*
X7496301Y-9976484D01*
X7496301Y-9871722D02*
X7505824Y-9852674D01*
X7505824Y-9852674D02*
X7524872Y-9843150D01*
X7524872Y-9843150D02*
X7553443Y-9843150D01*
X7553443Y-9843150D02*
X7572491Y-9852674D01*
X7572491Y-9852674D02*
X7582015Y-9871722D01*
X7582015Y-9871722D02*
X7582015Y-9976484D01*
X7972491Y-9766960D02*
X7801063Y-10024103D01*
X8229634Y-9776484D02*
X8248682Y-9776484D01*
X8248682Y-9776484D02*
X8267729Y-9786008D01*
X8267729Y-9786008D02*
X8277253Y-9795531D01*
X8277253Y-9795531D02*
X8286777Y-9814579D01*
X8286777Y-9814579D02*
X8296301Y-9852674D01*
X8296301Y-9852674D02*
X8296301Y-9900293D01*
X8296301Y-9900293D02*
X8286777Y-9938389D01*
X8286777Y-9938389D02*
X8277253Y-9957436D01*
X8277253Y-9957436D02*
X8267729Y-9966960D01*
X8267729Y-9966960D02*
X8248682Y-9976484D01*
X8248682Y-9976484D02*
X8229634Y-9976484D01*
X8229634Y-9976484D02*
X8210586Y-9966960D01*
X8210586Y-9966960D02*
X8201063Y-9957436D01*
X8201063Y-9957436D02*
X8191539Y-9938389D01*
X8191539Y-9938389D02*
X8182015Y-9900293D01*
X8182015Y-9900293D02*
X8182015Y-9852674D01*
X8182015Y-9852674D02*
X8191539Y-9814579D01*
X8191539Y-9814579D02*
X8201063Y-9795531D01*
X8201063Y-9795531D02*
X8210586Y-9786008D01*
X8210586Y-9786008D02*
X8229634Y-9776484D01*
X8382015Y-9957436D02*
X8391539Y-9966960D01*
X8391539Y-9966960D02*
X8382015Y-9976484D01*
X8382015Y-9976484D02*
X8372491Y-9966960D01*
X8372491Y-9966960D02*
X8382015Y-9957436D01*
X8382015Y-9957436D02*
X8382015Y-9976484D01*
X8515348Y-9776484D02*
X8534396Y-9776484D01*
X8534396Y-9776484D02*
X8553444Y-9786008D01*
X8553444Y-9786008D02*
X8562968Y-9795531D01*
X8562968Y-9795531D02*
X8572491Y-9814579D01*
X8572491Y-9814579D02*
X8582015Y-9852674D01*
X8582015Y-9852674D02*
X8582015Y-9900293D01*
X8582015Y-9900293D02*
X8572491Y-9938389D01*
X8572491Y-9938389D02*
X8562968Y-9957436D01*
X8562968Y-9957436D02*
X8553444Y-9966960D01*
X8553444Y-9966960D02*
X8534396Y-9976484D01*
X8534396Y-9976484D02*
X8515348Y-9976484D01*
X8515348Y-9976484D02*
X8496301Y-9966960D01*
X8496301Y-9966960D02*
X8486777Y-9957436D01*
X8486777Y-9957436D02*
X8477253Y-9938389D01*
X8477253Y-9938389D02*
X8467729Y-9900293D01*
X8467729Y-9900293D02*
X8467729Y-9852674D01*
X8467729Y-9852674D02*
X8477253Y-9814579D01*
X8477253Y-9814579D02*
X8486777Y-9795531D01*
X8486777Y-9795531D02*
X8496301Y-9786008D01*
X8496301Y-9786008D02*
X8515348Y-9776484D01*
X8648682Y-9776484D02*
X8782015Y-9776484D01*
X8782015Y-9776484D02*
X8696301Y-9976484D01*
X8886777Y-9862198D02*
X8867729Y-9852674D01*
X8867729Y-9852674D02*
X8858206Y-9843150D01*
X8858206Y-9843150D02*
X8848682Y-9824103D01*
X8848682Y-9824103D02*
X8848682Y-9814579D01*
X8848682Y-9814579D02*
X8858206Y-9795531D01*
X8858206Y-9795531D02*
X8867729Y-9786008D01*
X8867729Y-9786008D02*
X8886777Y-9776484D01*
X8886777Y-9776484D02*
X8924872Y-9776484D01*
X8924872Y-9776484D02*
X8943920Y-9786008D01*
X8943920Y-9786008D02*
X8953444Y-9795531D01*
X8953444Y-9795531D02*
X8962968Y-9814579D01*
X8962968Y-9814579D02*
X8962968Y-9824103D01*
X8962968Y-9824103D02*
X8953444Y-9843150D01*
X8953444Y-9843150D02*
X8943920Y-9852674D01*
X8943920Y-9852674D02*
X8924872Y-9862198D01*
X8924872Y-9862198D02*
X8886777Y-9862198D01*
X8886777Y-9862198D02*
X8867729Y-9871722D01*
X8867729Y-9871722D02*
X8858206Y-9881246D01*
X8858206Y-9881246D02*
X8848682Y-9900293D01*
X8848682Y-9900293D02*
X8848682Y-9938389D01*
X8848682Y-9938389D02*
X8858206Y-9957436D01*
X8858206Y-9957436D02*
X8867729Y-9966960D01*
X8867729Y-9966960D02*
X8886777Y-9976484D01*
X8886777Y-9976484D02*
X8924872Y-9976484D01*
X8924872Y-9976484D02*
X8943920Y-9966960D01*
X8943920Y-9966960D02*
X8953444Y-9957436D01*
X8953444Y-9957436D02*
X8962968Y-9938389D01*
X8962968Y-9938389D02*
X8962968Y-9900293D01*
X8962968Y-9900293D02*
X8953444Y-9881246D01*
X8953444Y-9881246D02*
X8943920Y-9871722D01*
X8943920Y-9871722D02*
X8924872Y-9862198D01*
X9029634Y-9776484D02*
X9162968Y-9776484D01*
X9162968Y-9776484D02*
X9077253Y-9976484D01*
X9229634Y-9776484D02*
X9229634Y-9814579D01*
X9305825Y-9776484D02*
X9305825Y-9814579D01*
X9601063Y-10052674D02*
X9591539Y-10043150D01*
X9591539Y-10043150D02*
X9572491Y-10014579D01*
X9572491Y-10014579D02*
X9562968Y-9995531D01*
X9562968Y-9995531D02*
X9553444Y-9966960D01*
X9553444Y-9966960D02*
X9543920Y-9919341D01*
X9543920Y-9919341D02*
X9543920Y-9881246D01*
X9543920Y-9881246D02*
X9553444Y-9833627D01*
X9553444Y-9833627D02*
X9562968Y-9805055D01*
X9562968Y-9805055D02*
X9572491Y-9786008D01*
X9572491Y-9786008D02*
X9591539Y-9757436D01*
X9591539Y-9757436D02*
X9601063Y-9747912D01*
X9667730Y-9795531D02*
X9677253Y-9786008D01*
X9677253Y-9786008D02*
X9696301Y-9776484D01*
X9696301Y-9776484D02*
X9743920Y-9776484D01*
X9743920Y-9776484D02*
X9762968Y-9786008D01*
X9762968Y-9786008D02*
X9772491Y-9795531D01*
X9772491Y-9795531D02*
X9782015Y-9814579D01*
X9782015Y-9814579D02*
X9782015Y-9833627D01*
X9782015Y-9833627D02*
X9772491Y-9862198D01*
X9772491Y-9862198D02*
X9658206Y-9976484D01*
X9658206Y-9976484D02*
X9782015Y-9976484D01*
X10020111Y-9976484D02*
X10020111Y-9776484D01*
X10105825Y-9976484D02*
X10105825Y-9871722D01*
X10105825Y-9871722D02*
X10096301Y-9852674D01*
X10096301Y-9852674D02*
X10077253Y-9843150D01*
X10077253Y-9843150D02*
X10048682Y-9843150D01*
X10048682Y-9843150D02*
X10029634Y-9852674D01*
X10029634Y-9852674D02*
X10020111Y-9862198D01*
X10229634Y-9976484D02*
X10210587Y-9966960D01*
X10210587Y-9966960D02*
X10201063Y-9957436D01*
X10201063Y-9957436D02*
X10191539Y-9938389D01*
X10191539Y-9938389D02*
X10191539Y-9881246D01*
X10191539Y-9881246D02*
X10201063Y-9862198D01*
X10201063Y-9862198D02*
X10210587Y-9852674D01*
X10210587Y-9852674D02*
X10229634Y-9843150D01*
X10229634Y-9843150D02*
X10258206Y-9843150D01*
X10258206Y-9843150D02*
X10277253Y-9852674D01*
X10277253Y-9852674D02*
X10286777Y-9862198D01*
X10286777Y-9862198D02*
X10296301Y-9881246D01*
X10296301Y-9881246D02*
X10296301Y-9938389D01*
X10296301Y-9938389D02*
X10286777Y-9957436D01*
X10286777Y-9957436D02*
X10277253Y-9966960D01*
X10277253Y-9966960D02*
X10258206Y-9976484D01*
X10258206Y-9976484D02*
X10229634Y-9976484D01*
X10410587Y-9976484D02*
X10391539Y-9966960D01*
X10391539Y-9966960D02*
X10382015Y-9947912D01*
X10382015Y-9947912D02*
X10382015Y-9776484D01*
X10562968Y-9966960D02*
X10543920Y-9976484D01*
X10543920Y-9976484D02*
X10505825Y-9976484D01*
X10505825Y-9976484D02*
X10486777Y-9966960D01*
X10486777Y-9966960D02*
X10477253Y-9947912D01*
X10477253Y-9947912D02*
X10477253Y-9871722D01*
X10477253Y-9871722D02*
X10486777Y-9852674D01*
X10486777Y-9852674D02*
X10505825Y-9843150D01*
X10505825Y-9843150D02*
X10543920Y-9843150D01*
X10543920Y-9843150D02*
X10562968Y-9852674D01*
X10562968Y-9852674D02*
X10572492Y-9871722D01*
X10572492Y-9871722D02*
X10572492Y-9890770D01*
X10572492Y-9890770D02*
X10477253Y-9909817D01*
X10648682Y-9966960D02*
X10667730Y-9976484D01*
X10667730Y-9976484D02*
X10705825Y-9976484D01*
X10705825Y-9976484D02*
X10724873Y-9966960D01*
X10724873Y-9966960D02*
X10734396Y-9947912D01*
X10734396Y-9947912D02*
X10734396Y-9938389D01*
X10734396Y-9938389D02*
X10724873Y-9919341D01*
X10724873Y-9919341D02*
X10705825Y-9909817D01*
X10705825Y-9909817D02*
X10677253Y-9909817D01*
X10677253Y-9909817D02*
X10658206Y-9900293D01*
X10658206Y-9900293D02*
X10648682Y-9881246D01*
X10648682Y-9881246D02*
X10648682Y-9871722D01*
X10648682Y-9871722D02*
X10658206Y-9852674D01*
X10658206Y-9852674D02*
X10677253Y-9843150D01*
X10677253Y-9843150D02*
X10705825Y-9843150D01*
X10705825Y-9843150D02*
X10724873Y-9852674D01*
X10801063Y-10052674D02*
X10810587Y-10043150D01*
X10810587Y-10043150D02*
X10829634Y-10014579D01*
X10829634Y-10014579D02*
X10839158Y-9995531D01*
X10839158Y-9995531D02*
X10848682Y-9966960D01*
X10848682Y-9966960D02*
X10858206Y-9919341D01*
X10858206Y-9919341D02*
X10858206Y-9881246D01*
X10858206Y-9881246D02*
X10848682Y-9833627D01*
X10848682Y-9833627D02*
X10839158Y-9805055D01*
X10839158Y-9805055D02*
X10829634Y-9786008D01*
X10829634Y-9786008D02*
X10810587Y-9757436D01*
X10810587Y-9757436D02*
X10801063Y-9747912D01*
X5826000Y-10105000D02*
X6026000Y-10305000D01*
X6026000Y-10105000D02*
X5826000Y-10305000D01*
X5996711Y-10275711D02*
X5996711Y-10134289D01*
X5855289Y-10134289D01*
X5855289Y-10275711D01*
X5996711Y-10275711D01*
X6267729Y-10096484D02*
X6391539Y-10096484D01*
X6391539Y-10096484D02*
X6324872Y-10172674D01*
X6324872Y-10172674D02*
X6353443Y-10172674D01*
X6353443Y-10172674D02*
X6372491Y-10182198D01*
X6372491Y-10182198D02*
X6382015Y-10191722D01*
X6382015Y-10191722D02*
X6391539Y-10210770D01*
X6391539Y-10210770D02*
X6391539Y-10258389D01*
X6391539Y-10258389D02*
X6382015Y-10277436D01*
X6382015Y-10277436D02*
X6372491Y-10286960D01*
X6372491Y-10286960D02*
X6353443Y-10296484D01*
X6353443Y-10296484D02*
X6296301Y-10296484D01*
X6296301Y-10296484D02*
X6277253Y-10286960D01*
X6277253Y-10286960D02*
X6267729Y-10277436D01*
X6477253Y-10277436D02*
X6486777Y-10286960D01*
X6486777Y-10286960D02*
X6477253Y-10296484D01*
X6477253Y-10296484D02*
X6467729Y-10286960D01*
X6467729Y-10286960D02*
X6477253Y-10277436D01*
X6477253Y-10277436D02*
X6477253Y-10296484D01*
X6610586Y-10096484D02*
X6629634Y-10096484D01*
X6629634Y-10096484D02*
X6648682Y-10106008D01*
X6648682Y-10106008D02*
X6658205Y-10115531D01*
X6658205Y-10115531D02*
X6667729Y-10134579D01*
X6667729Y-10134579D02*
X6677253Y-10172674D01*
X6677253Y-10172674D02*
X6677253Y-10220293D01*
X6677253Y-10220293D02*
X6667729Y-10258389D01*
X6667729Y-10258389D02*
X6658205Y-10277436D01*
X6658205Y-10277436D02*
X6648682Y-10286960D01*
X6648682Y-10286960D02*
X6629634Y-10296484D01*
X6629634Y-10296484D02*
X6610586Y-10296484D01*
X6610586Y-10296484D02*
X6591539Y-10286960D01*
X6591539Y-10286960D02*
X6582015Y-10277436D01*
X6582015Y-10277436D02*
X6572491Y-10258389D01*
X6572491Y-10258389D02*
X6562967Y-10220293D01*
X6562967Y-10220293D02*
X6562967Y-10172674D01*
X6562967Y-10172674D02*
X6572491Y-10134579D01*
X6572491Y-10134579D02*
X6582015Y-10115531D01*
X6582015Y-10115531D02*
X6591539Y-10106008D01*
X6591539Y-10106008D02*
X6610586Y-10096484D01*
X6801062Y-10096484D02*
X6820110Y-10096484D01*
X6820110Y-10096484D02*
X6839158Y-10106008D01*
X6839158Y-10106008D02*
X6848682Y-10115531D01*
X6848682Y-10115531D02*
X6858205Y-10134579D01*
X6858205Y-10134579D02*
X6867729Y-10172674D01*
X6867729Y-10172674D02*
X6867729Y-10220293D01*
X6867729Y-10220293D02*
X6858205Y-10258389D01*
X6858205Y-10258389D02*
X6848682Y-10277436D01*
X6848682Y-10277436D02*
X6839158Y-10286960D01*
X6839158Y-10286960D02*
X6820110Y-10296484D01*
X6820110Y-10296484D02*
X6801062Y-10296484D01*
X6801062Y-10296484D02*
X6782015Y-10286960D01*
X6782015Y-10286960D02*
X6772491Y-10277436D01*
X6772491Y-10277436D02*
X6762967Y-10258389D01*
X6762967Y-10258389D02*
X6753443Y-10220293D01*
X6753443Y-10220293D02*
X6753443Y-10172674D01*
X6753443Y-10172674D02*
X6762967Y-10134579D01*
X6762967Y-10134579D02*
X6772491Y-10115531D01*
X6772491Y-10115531D02*
X6782015Y-10106008D01*
X6782015Y-10106008D02*
X6801062Y-10096484D01*
X6991539Y-10096484D02*
X7010586Y-10096484D01*
X7010586Y-10096484D02*
X7029634Y-10106008D01*
X7029634Y-10106008D02*
X7039158Y-10115531D01*
X7039158Y-10115531D02*
X7048682Y-10134579D01*
X7048682Y-10134579D02*
X7058205Y-10172674D01*
X7058205Y-10172674D02*
X7058205Y-10220293D01*
X7058205Y-10220293D02*
X7048682Y-10258389D01*
X7048682Y-10258389D02*
X7039158Y-10277436D01*
X7039158Y-10277436D02*
X7029634Y-10286960D01*
X7029634Y-10286960D02*
X7010586Y-10296484D01*
X7010586Y-10296484D02*
X6991539Y-10296484D01*
X6991539Y-10296484D02*
X6972491Y-10286960D01*
X6972491Y-10286960D02*
X6962967Y-10277436D01*
X6962967Y-10277436D02*
X6953443Y-10258389D01*
X6953443Y-10258389D02*
X6943920Y-10220293D01*
X6943920Y-10220293D02*
X6943920Y-10172674D01*
X6943920Y-10172674D02*
X6953443Y-10134579D01*
X6953443Y-10134579D02*
X6962967Y-10115531D01*
X6962967Y-10115531D02*
X6972491Y-10106008D01*
X6972491Y-10106008D02*
X6991539Y-10096484D01*
X7143920Y-10296484D02*
X7143920Y-10163150D01*
X7143920Y-10182198D02*
X7153443Y-10172674D01*
X7153443Y-10172674D02*
X7172491Y-10163150D01*
X7172491Y-10163150D02*
X7201063Y-10163150D01*
X7201063Y-10163150D02*
X7220110Y-10172674D01*
X7220110Y-10172674D02*
X7229634Y-10191722D01*
X7229634Y-10191722D02*
X7229634Y-10296484D01*
X7229634Y-10191722D02*
X7239158Y-10172674D01*
X7239158Y-10172674D02*
X7258205Y-10163150D01*
X7258205Y-10163150D02*
X7286777Y-10163150D01*
X7286777Y-10163150D02*
X7305824Y-10172674D01*
X7305824Y-10172674D02*
X7315348Y-10191722D01*
X7315348Y-10191722D02*
X7315348Y-10296484D01*
X7410586Y-10296484D02*
X7410586Y-10163150D01*
X7410586Y-10182198D02*
X7420110Y-10172674D01*
X7420110Y-10172674D02*
X7439158Y-10163150D01*
X7439158Y-10163150D02*
X7467729Y-10163150D01*
X7467729Y-10163150D02*
X7486777Y-10172674D01*
X7486777Y-10172674D02*
X7496301Y-10191722D01*
X7496301Y-10191722D02*
X7496301Y-10296484D01*
X7496301Y-10191722D02*
X7505824Y-10172674D01*
X7505824Y-10172674D02*
X7524872Y-10163150D01*
X7524872Y-10163150D02*
X7553443Y-10163150D01*
X7553443Y-10163150D02*
X7572491Y-10172674D01*
X7572491Y-10172674D02*
X7582015Y-10191722D01*
X7582015Y-10191722D02*
X7582015Y-10296484D01*
X7972491Y-10086960D02*
X7801063Y-10344103D01*
X8229634Y-10096484D02*
X8248682Y-10096484D01*
X8248682Y-10096484D02*
X8267729Y-10106008D01*
X8267729Y-10106008D02*
X8277253Y-10115531D01*
X8277253Y-10115531D02*
X8286777Y-10134579D01*
X8286777Y-10134579D02*
X8296301Y-10172674D01*
X8296301Y-10172674D02*
X8296301Y-10220293D01*
X8296301Y-10220293D02*
X8286777Y-10258389D01*
X8286777Y-10258389D02*
X8277253Y-10277436D01*
X8277253Y-10277436D02*
X8267729Y-10286960D01*
X8267729Y-10286960D02*
X8248682Y-10296484D01*
X8248682Y-10296484D02*
X8229634Y-10296484D01*
X8229634Y-10296484D02*
X8210586Y-10286960D01*
X8210586Y-10286960D02*
X8201063Y-10277436D01*
X8201063Y-10277436D02*
X8191539Y-10258389D01*
X8191539Y-10258389D02*
X8182015Y-10220293D01*
X8182015Y-10220293D02*
X8182015Y-10172674D01*
X8182015Y-10172674D02*
X8191539Y-10134579D01*
X8191539Y-10134579D02*
X8201063Y-10115531D01*
X8201063Y-10115531D02*
X8210586Y-10106008D01*
X8210586Y-10106008D02*
X8229634Y-10096484D01*
X8382015Y-10277436D02*
X8391539Y-10286960D01*
X8391539Y-10286960D02*
X8382015Y-10296484D01*
X8382015Y-10296484D02*
X8372491Y-10286960D01*
X8372491Y-10286960D02*
X8382015Y-10277436D01*
X8382015Y-10277436D02*
X8382015Y-10296484D01*
X8582015Y-10296484D02*
X8467729Y-10296484D01*
X8524872Y-10296484D02*
X8524872Y-10096484D01*
X8524872Y-10096484D02*
X8505825Y-10125055D01*
X8505825Y-10125055D02*
X8486777Y-10144103D01*
X8486777Y-10144103D02*
X8467729Y-10153627D01*
X8772491Y-10296484D02*
X8658206Y-10296484D01*
X8715348Y-10296484D02*
X8715348Y-10096484D01*
X8715348Y-10096484D02*
X8696301Y-10125055D01*
X8696301Y-10125055D02*
X8677253Y-10144103D01*
X8677253Y-10144103D02*
X8658206Y-10153627D01*
X8886777Y-10182198D02*
X8867729Y-10172674D01*
X8867729Y-10172674D02*
X8858206Y-10163150D01*
X8858206Y-10163150D02*
X8848682Y-10144103D01*
X8848682Y-10144103D02*
X8848682Y-10134579D01*
X8848682Y-10134579D02*
X8858206Y-10115531D01*
X8858206Y-10115531D02*
X8867729Y-10106008D01*
X8867729Y-10106008D02*
X8886777Y-10096484D01*
X8886777Y-10096484D02*
X8924872Y-10096484D01*
X8924872Y-10096484D02*
X8943920Y-10106008D01*
X8943920Y-10106008D02*
X8953444Y-10115531D01*
X8953444Y-10115531D02*
X8962968Y-10134579D01*
X8962968Y-10134579D02*
X8962968Y-10144103D01*
X8962968Y-10144103D02*
X8953444Y-10163150D01*
X8953444Y-10163150D02*
X8943920Y-10172674D01*
X8943920Y-10172674D02*
X8924872Y-10182198D01*
X8924872Y-10182198D02*
X8886777Y-10182198D01*
X8886777Y-10182198D02*
X8867729Y-10191722D01*
X8867729Y-10191722D02*
X8858206Y-10201246D01*
X8858206Y-10201246D02*
X8848682Y-10220293D01*
X8848682Y-10220293D02*
X8848682Y-10258389D01*
X8848682Y-10258389D02*
X8858206Y-10277436D01*
X8858206Y-10277436D02*
X8867729Y-10286960D01*
X8867729Y-10286960D02*
X8886777Y-10296484D01*
X8886777Y-10296484D02*
X8924872Y-10296484D01*
X8924872Y-10296484D02*
X8943920Y-10286960D01*
X8943920Y-10286960D02*
X8953444Y-10277436D01*
X8953444Y-10277436D02*
X8962968Y-10258389D01*
X8962968Y-10258389D02*
X8962968Y-10220293D01*
X8962968Y-10220293D02*
X8953444Y-10201246D01*
X8953444Y-10201246D02*
X8943920Y-10191722D01*
X8943920Y-10191722D02*
X8924872Y-10182198D01*
X9153444Y-10296484D02*
X9039158Y-10296484D01*
X9096301Y-10296484D02*
X9096301Y-10096484D01*
X9096301Y-10096484D02*
X9077253Y-10125055D01*
X9077253Y-10125055D02*
X9058206Y-10144103D01*
X9058206Y-10144103D02*
X9039158Y-10153627D01*
X9229634Y-10096484D02*
X9229634Y-10134579D01*
X9305825Y-10096484D02*
X9305825Y-10134579D01*
X9601063Y-10372674D02*
X9591539Y-10363150D01*
X9591539Y-10363150D02*
X9572491Y-10334579D01*
X9572491Y-10334579D02*
X9562968Y-10315531D01*
X9562968Y-10315531D02*
X9553444Y-10286960D01*
X9553444Y-10286960D02*
X9543920Y-10239341D01*
X9543920Y-10239341D02*
X9543920Y-10201246D01*
X9543920Y-10201246D02*
X9553444Y-10153627D01*
X9553444Y-10153627D02*
X9562968Y-10125055D01*
X9562968Y-10125055D02*
X9572491Y-10106008D01*
X9572491Y-10106008D02*
X9591539Y-10077436D01*
X9591539Y-10077436D02*
X9601063Y-10067912D01*
X9667730Y-10115531D02*
X9677253Y-10106008D01*
X9677253Y-10106008D02*
X9696301Y-10096484D01*
X9696301Y-10096484D02*
X9743920Y-10096484D01*
X9743920Y-10096484D02*
X9762968Y-10106008D01*
X9762968Y-10106008D02*
X9772491Y-10115531D01*
X9772491Y-10115531D02*
X9782015Y-10134579D01*
X9782015Y-10134579D02*
X9782015Y-10153627D01*
X9782015Y-10153627D02*
X9772491Y-10182198D01*
X9772491Y-10182198D02*
X9658206Y-10296484D01*
X9658206Y-10296484D02*
X9782015Y-10296484D01*
X10020111Y-10296484D02*
X10020111Y-10096484D01*
X10105825Y-10296484D02*
X10105825Y-10191722D01*
X10105825Y-10191722D02*
X10096301Y-10172674D01*
X10096301Y-10172674D02*
X10077253Y-10163150D01*
X10077253Y-10163150D02*
X10048682Y-10163150D01*
X10048682Y-10163150D02*
X10029634Y-10172674D01*
X10029634Y-10172674D02*
X10020111Y-10182198D01*
X10229634Y-10296484D02*
X10210587Y-10286960D01*
X10210587Y-10286960D02*
X10201063Y-10277436D01*
X10201063Y-10277436D02*
X10191539Y-10258389D01*
X10191539Y-10258389D02*
X10191539Y-10201246D01*
X10191539Y-10201246D02*
X10201063Y-10182198D01*
X10201063Y-10182198D02*
X10210587Y-10172674D01*
X10210587Y-10172674D02*
X10229634Y-10163150D01*
X10229634Y-10163150D02*
X10258206Y-10163150D01*
X10258206Y-10163150D02*
X10277253Y-10172674D01*
X10277253Y-10172674D02*
X10286777Y-10182198D01*
X10286777Y-10182198D02*
X10296301Y-10201246D01*
X10296301Y-10201246D02*
X10296301Y-10258389D01*
X10296301Y-10258389D02*
X10286777Y-10277436D01*
X10286777Y-10277436D02*
X10277253Y-10286960D01*
X10277253Y-10286960D02*
X10258206Y-10296484D01*
X10258206Y-10296484D02*
X10229634Y-10296484D01*
X10410587Y-10296484D02*
X10391539Y-10286960D01*
X10391539Y-10286960D02*
X10382015Y-10267912D01*
X10382015Y-10267912D02*
X10382015Y-10096484D01*
X10562968Y-10286960D02*
X10543920Y-10296484D01*
X10543920Y-10296484D02*
X10505825Y-10296484D01*
X10505825Y-10296484D02*
X10486777Y-10286960D01*
X10486777Y-10286960D02*
X10477253Y-10267912D01*
X10477253Y-10267912D02*
X10477253Y-10191722D01*
X10477253Y-10191722D02*
X10486777Y-10172674D01*
X10486777Y-10172674D02*
X10505825Y-10163150D01*
X10505825Y-10163150D02*
X10543920Y-10163150D01*
X10543920Y-10163150D02*
X10562968Y-10172674D01*
X10562968Y-10172674D02*
X10572492Y-10191722D01*
X10572492Y-10191722D02*
X10572492Y-10210770D01*
X10572492Y-10210770D02*
X10477253Y-10229817D01*
X10648682Y-10286960D02*
X10667730Y-10296484D01*
X10667730Y-10296484D02*
X10705825Y-10296484D01*
X10705825Y-10296484D02*
X10724873Y-10286960D01*
X10724873Y-10286960D02*
X10734396Y-10267912D01*
X10734396Y-10267912D02*
X10734396Y-10258389D01*
X10734396Y-10258389D02*
X10724873Y-10239341D01*
X10724873Y-10239341D02*
X10705825Y-10229817D01*
X10705825Y-10229817D02*
X10677253Y-10229817D01*
X10677253Y-10229817D02*
X10658206Y-10220293D01*
X10658206Y-10220293D02*
X10648682Y-10201246D01*
X10648682Y-10201246D02*
X10648682Y-10191722D01*
X10648682Y-10191722D02*
X10658206Y-10172674D01*
X10658206Y-10172674D02*
X10677253Y-10163150D01*
X10677253Y-10163150D02*
X10705825Y-10163150D01*
X10705825Y-10163150D02*
X10724873Y-10172674D01*
X10801063Y-10372674D02*
X10810587Y-10363150D01*
X10810587Y-10363150D02*
X10829634Y-10334579D01*
X10829634Y-10334579D02*
X10839158Y-10315531D01*
X10839158Y-10315531D02*
X10848682Y-10286960D01*
X10848682Y-10286960D02*
X10858206Y-10239341D01*
X10858206Y-10239341D02*
X10858206Y-10201246D01*
X10858206Y-10201246D02*
X10848682Y-10153627D01*
X10848682Y-10153627D02*
X10839158Y-10125055D01*
X10839158Y-10125055D02*
X10829634Y-10106008D01*
X10829634Y-10106008D02*
X10810587Y-10077436D01*
X10810587Y-10077436D02*
X10801063Y-10067912D01*
M02*
