%TF.GenerationSoftware,KiCad,Pcbnew,9.0.3*%
%TF.CreationDate,2025-08-20T13:57:26+02:00*%
%TF.ProjectId,Methanesense,4d657468-616e-4657-9365-6e73652e6b69,v2.0.0*%
%TF.SameCoordinates,Original*%
%TF.FileFunction,Drillmap*%
%TF.FilePolarity,Positive*%
%FSLAX45Y45*%
G04 Gerber Fmt 4.5, Leading zero omitted, Abs format (unit mm)*
G04 Created by KiCad (PCBNEW 9.0.3) date 2025-08-20 13:57:26*
%MOMM*%
%LPD*%
G01*
G04 APERTURE LIST*
%ADD10C,0.100000*%
%ADD11C,0.200000*%
%ADD12C,0.220000*%
G04 APERTURE END LIST*
D10*
X15131000Y-5020000D02*
G75*
G02*
X15031000Y-5120000I-100000J0D01*
G01*
X15101711Y-4726711D02*
G75*
G02*
X15130999Y-4797421I-70711J-70709D01*
G01*
X14700000Y-5400000D02*
G75*
G02*
X14600000Y-5300000I0J100000D01*
G01*
X15031000Y-5400000D02*
G75*
G02*
X15131000Y-5500000I0J-100000D01*
G01*
X6031000Y-4797421D02*
G75*
G02*
X6060289Y-4726710I100000J1D01*
G01*
X14989579Y-4656000D02*
G75*
G02*
X15060290Y-4685289I1J-100000D01*
G01*
X15101711Y-4726711D02*
X15060289Y-4685289D01*
X14989579Y-7656000D02*
X6172421Y-7656000D01*
X6060289Y-7585289D02*
G75*
G02*
X6031004Y-7514579I70721J70709D01*
G01*
X14700000Y-5120000D02*
X15031000Y-5120000D01*
X14509881Y-4785850D02*
X14593619Y-4690150D01*
X15101711Y-7585289D02*
X15060289Y-7626711D01*
X6101711Y-4685289D02*
G75*
G02*
X6172421Y-4656004I70709J-70721D01*
G01*
X15060289Y-7626711D02*
G75*
G02*
X14989579Y-7655999I-70709J70711D01*
G01*
X6060289Y-7585289D02*
X6101711Y-7626711D01*
X15131000Y-4797421D02*
X15131000Y-5020000D01*
X14509881Y-4785850D02*
G75*
G02*
X14434623Y-4819998I-75251J65840D01*
G01*
X14089963Y-4696949D02*
X14150037Y-4779051D01*
X14230740Y-4820000D02*
X14434623Y-4820000D01*
X14230740Y-4820000D02*
G75*
G02*
X14150037Y-4779051I0J100000D01*
G01*
X14009260Y-4656000D02*
G75*
G02*
X14089963Y-4696949I0J-100000D01*
G01*
X15131000Y-7514579D02*
G75*
G02*
X15101709Y-7585288I-99990J-1D01*
G01*
X6172421Y-7656000D02*
G75*
G02*
X6101710Y-7626711I-1J100000D01*
G01*
X6031000Y-7514579D02*
X6031000Y-4797421D01*
X15131000Y-7514579D02*
X15131000Y-5500000D01*
X14600000Y-5300000D02*
X14600000Y-5220000D01*
X15031000Y-5400000D02*
X14700000Y-5400000D01*
X14600000Y-5220000D02*
G75*
G02*
X14700000Y-5120000I100000J0D01*
G01*
X14989579Y-4656000D02*
X14668877Y-4656000D01*
X14009260Y-4656000D02*
X6172421Y-4656000D01*
X6060289Y-4726711D02*
X6101711Y-4685289D01*
X14593619Y-4690150D02*
G75*
G02*
X14668877Y-4656002I75251J-65840D01*
G01*
D11*
D10*
X6069470Y-4973870D02*
X6168530Y-5072930D01*
X6168530Y-4973870D02*
X6069470Y-5072930D01*
X6069470Y-5177070D02*
X6168530Y-5276130D01*
X6168530Y-5177070D02*
X6069470Y-5276130D01*
X6831470Y-5075470D02*
X6930530Y-5174530D01*
X6930530Y-5075470D02*
X6831470Y-5174530D01*
D12*
X9490000Y-7440000D02*
G75*
G02*
X9270000Y-7440000I-110000J0D01*
G01*
X9270000Y-7440000D02*
G75*
G02*
X9490000Y-7440000I110000J0D01*
G01*
X11890000Y-4900000D02*
G75*
G02*
X11670000Y-4900000I-110000J0D01*
G01*
X11670000Y-4900000D02*
G75*
G02*
X11890000Y-4900000I110000J0D01*
G01*
D11*
X6286777Y-7972484D02*
X6286777Y-7772484D01*
X6286777Y-7772484D02*
X6334396Y-7772484D01*
X6334396Y-7772484D02*
X6362967Y-7782008D01*
X6362967Y-7782008D02*
X6382015Y-7801055D01*
X6382015Y-7801055D02*
X6391539Y-7820103D01*
X6391539Y-7820103D02*
X6401062Y-7858198D01*
X6401062Y-7858198D02*
X6401062Y-7886769D01*
X6401062Y-7886769D02*
X6391539Y-7924865D01*
X6391539Y-7924865D02*
X6382015Y-7943912D01*
X6382015Y-7943912D02*
X6362967Y-7962960D01*
X6362967Y-7962960D02*
X6334396Y-7972484D01*
X6334396Y-7972484D02*
X6286777Y-7972484D01*
X6486777Y-7972484D02*
X6486777Y-7839150D01*
X6486777Y-7877246D02*
X6496301Y-7858198D01*
X6496301Y-7858198D02*
X6505824Y-7848674D01*
X6505824Y-7848674D02*
X6524872Y-7839150D01*
X6524872Y-7839150D02*
X6543920Y-7839150D01*
X6610586Y-7972484D02*
X6610586Y-7839150D01*
X6610586Y-7772484D02*
X6601062Y-7782008D01*
X6601062Y-7782008D02*
X6610586Y-7791531D01*
X6610586Y-7791531D02*
X6620110Y-7782008D01*
X6620110Y-7782008D02*
X6610586Y-7772484D01*
X6610586Y-7772484D02*
X6610586Y-7791531D01*
X6734396Y-7972484D02*
X6715348Y-7962960D01*
X6715348Y-7962960D02*
X6705824Y-7943912D01*
X6705824Y-7943912D02*
X6705824Y-7772484D01*
X6839158Y-7972484D02*
X6820110Y-7962960D01*
X6820110Y-7962960D02*
X6810586Y-7943912D01*
X6810586Y-7943912D02*
X6810586Y-7772484D01*
X7067729Y-7972484D02*
X7067729Y-7772484D01*
X7067729Y-7772484D02*
X7134396Y-7915341D01*
X7134396Y-7915341D02*
X7201062Y-7772484D01*
X7201062Y-7772484D02*
X7201062Y-7972484D01*
X7382015Y-7972484D02*
X7382015Y-7867722D01*
X7382015Y-7867722D02*
X7372491Y-7848674D01*
X7372491Y-7848674D02*
X7353443Y-7839150D01*
X7353443Y-7839150D02*
X7315348Y-7839150D01*
X7315348Y-7839150D02*
X7296301Y-7848674D01*
X7382015Y-7962960D02*
X7362967Y-7972484D01*
X7362967Y-7972484D02*
X7315348Y-7972484D01*
X7315348Y-7972484D02*
X7296301Y-7962960D01*
X7296301Y-7962960D02*
X7286777Y-7943912D01*
X7286777Y-7943912D02*
X7286777Y-7924865D01*
X7286777Y-7924865D02*
X7296301Y-7905817D01*
X7296301Y-7905817D02*
X7315348Y-7896293D01*
X7315348Y-7896293D02*
X7362967Y-7896293D01*
X7362967Y-7896293D02*
X7382015Y-7886769D01*
X7477253Y-7839150D02*
X7477253Y-8039150D01*
X7477253Y-7848674D02*
X7496301Y-7839150D01*
X7496301Y-7839150D02*
X7534396Y-7839150D01*
X7534396Y-7839150D02*
X7553443Y-7848674D01*
X7553443Y-7848674D02*
X7562967Y-7858198D01*
X7562967Y-7858198D02*
X7572491Y-7877246D01*
X7572491Y-7877246D02*
X7572491Y-7934388D01*
X7572491Y-7934388D02*
X7562967Y-7953436D01*
X7562967Y-7953436D02*
X7553443Y-7962960D01*
X7553443Y-7962960D02*
X7534396Y-7972484D01*
X7534396Y-7972484D02*
X7496301Y-7972484D01*
X7496301Y-7972484D02*
X7477253Y-7962960D01*
X7658205Y-7953436D02*
X7667729Y-7962960D01*
X7667729Y-7962960D02*
X7658205Y-7972484D01*
X7658205Y-7972484D02*
X7648682Y-7962960D01*
X7648682Y-7962960D02*
X7658205Y-7953436D01*
X7658205Y-7953436D02*
X7658205Y-7972484D01*
X7658205Y-7848674D02*
X7667729Y-7858198D01*
X7667729Y-7858198D02*
X7658205Y-7867722D01*
X7658205Y-7867722D02*
X7648682Y-7858198D01*
X7648682Y-7858198D02*
X7658205Y-7848674D01*
X7658205Y-7848674D02*
X7658205Y-7867722D01*
D10*
X5926940Y-8251470D02*
X6026000Y-8350530D01*
X6026000Y-8251470D02*
X5926940Y-8350530D01*
D11*
X6324872Y-8192484D02*
X6343920Y-8192484D01*
X6343920Y-8192484D02*
X6362967Y-8202008D01*
X6362967Y-8202008D02*
X6372491Y-8211531D01*
X6372491Y-8211531D02*
X6382015Y-8230579D01*
X6382015Y-8230579D02*
X6391539Y-8268674D01*
X6391539Y-8268674D02*
X6391539Y-8316293D01*
X6391539Y-8316293D02*
X6382015Y-8354388D01*
X6382015Y-8354388D02*
X6372491Y-8373436D01*
X6372491Y-8373436D02*
X6362967Y-8382960D01*
X6362967Y-8382960D02*
X6343920Y-8392484D01*
X6343920Y-8392484D02*
X6324872Y-8392484D01*
X6324872Y-8392484D02*
X6305824Y-8382960D01*
X6305824Y-8382960D02*
X6296301Y-8373436D01*
X6296301Y-8373436D02*
X6286777Y-8354388D01*
X6286777Y-8354388D02*
X6277253Y-8316293D01*
X6277253Y-8316293D02*
X6277253Y-8268674D01*
X6277253Y-8268674D02*
X6286777Y-8230579D01*
X6286777Y-8230579D02*
X6296301Y-8211531D01*
X6296301Y-8211531D02*
X6305824Y-8202008D01*
X6305824Y-8202008D02*
X6324872Y-8192484D01*
X6477253Y-8373436D02*
X6486777Y-8382960D01*
X6486777Y-8382960D02*
X6477253Y-8392484D01*
X6477253Y-8392484D02*
X6467729Y-8382960D01*
X6467729Y-8382960D02*
X6477253Y-8373436D01*
X6477253Y-8373436D02*
X6477253Y-8392484D01*
X6582015Y-8392484D02*
X6620110Y-8392484D01*
X6620110Y-8392484D02*
X6639158Y-8382960D01*
X6639158Y-8382960D02*
X6648682Y-8373436D01*
X6648682Y-8373436D02*
X6667729Y-8344865D01*
X6667729Y-8344865D02*
X6677253Y-8306769D01*
X6677253Y-8306769D02*
X6677253Y-8230579D01*
X6677253Y-8230579D02*
X6667729Y-8211531D01*
X6667729Y-8211531D02*
X6658205Y-8202008D01*
X6658205Y-8202008D02*
X6639158Y-8192484D01*
X6639158Y-8192484D02*
X6601062Y-8192484D01*
X6601062Y-8192484D02*
X6582015Y-8202008D01*
X6582015Y-8202008D02*
X6572491Y-8211531D01*
X6572491Y-8211531D02*
X6562967Y-8230579D01*
X6562967Y-8230579D02*
X6562967Y-8278198D01*
X6562967Y-8278198D02*
X6572491Y-8297246D01*
X6572491Y-8297246D02*
X6582015Y-8306769D01*
X6582015Y-8306769D02*
X6601062Y-8316293D01*
X6601062Y-8316293D02*
X6639158Y-8316293D01*
X6639158Y-8316293D02*
X6658205Y-8306769D01*
X6658205Y-8306769D02*
X6667729Y-8297246D01*
X6667729Y-8297246D02*
X6677253Y-8278198D01*
X6772491Y-8392484D02*
X6810586Y-8392484D01*
X6810586Y-8392484D02*
X6829634Y-8382960D01*
X6829634Y-8382960D02*
X6839158Y-8373436D01*
X6839158Y-8373436D02*
X6858205Y-8344865D01*
X6858205Y-8344865D02*
X6867729Y-8306769D01*
X6867729Y-8306769D02*
X6867729Y-8230579D01*
X6867729Y-8230579D02*
X6858205Y-8211531D01*
X6858205Y-8211531D02*
X6848682Y-8202008D01*
X6848682Y-8202008D02*
X6829634Y-8192484D01*
X6829634Y-8192484D02*
X6791539Y-8192484D01*
X6791539Y-8192484D02*
X6772491Y-8202008D01*
X6772491Y-8202008D02*
X6762967Y-8211531D01*
X6762967Y-8211531D02*
X6753443Y-8230579D01*
X6753443Y-8230579D02*
X6753443Y-8278198D01*
X6753443Y-8278198D02*
X6762967Y-8297246D01*
X6762967Y-8297246D02*
X6772491Y-8306769D01*
X6772491Y-8306769D02*
X6791539Y-8316293D01*
X6791539Y-8316293D02*
X6829634Y-8316293D01*
X6829634Y-8316293D02*
X6848682Y-8306769D01*
X6848682Y-8306769D02*
X6858205Y-8297246D01*
X6858205Y-8297246D02*
X6867729Y-8278198D01*
X7058205Y-8392484D02*
X6943920Y-8392484D01*
X7001062Y-8392484D02*
X7001062Y-8192484D01*
X7001062Y-8192484D02*
X6982015Y-8221055D01*
X6982015Y-8221055D02*
X6962967Y-8240103D01*
X6962967Y-8240103D02*
X6943920Y-8249627D01*
X7143920Y-8392484D02*
X7143920Y-8259150D01*
X7143920Y-8278198D02*
X7153443Y-8268674D01*
X7153443Y-8268674D02*
X7172491Y-8259150D01*
X7172491Y-8259150D02*
X7201063Y-8259150D01*
X7201063Y-8259150D02*
X7220110Y-8268674D01*
X7220110Y-8268674D02*
X7229634Y-8287722D01*
X7229634Y-8287722D02*
X7229634Y-8392484D01*
X7229634Y-8287722D02*
X7239158Y-8268674D01*
X7239158Y-8268674D02*
X7258205Y-8259150D01*
X7258205Y-8259150D02*
X7286777Y-8259150D01*
X7286777Y-8259150D02*
X7305824Y-8268674D01*
X7305824Y-8268674D02*
X7315348Y-8287722D01*
X7315348Y-8287722D02*
X7315348Y-8392484D01*
X7410586Y-8392484D02*
X7410586Y-8259150D01*
X7410586Y-8278198D02*
X7420110Y-8268674D01*
X7420110Y-8268674D02*
X7439158Y-8259150D01*
X7439158Y-8259150D02*
X7467729Y-8259150D01*
X7467729Y-8259150D02*
X7486777Y-8268674D01*
X7486777Y-8268674D02*
X7496301Y-8287722D01*
X7496301Y-8287722D02*
X7496301Y-8392484D01*
X7496301Y-8287722D02*
X7505824Y-8268674D01*
X7505824Y-8268674D02*
X7524872Y-8259150D01*
X7524872Y-8259150D02*
X7553443Y-8259150D01*
X7553443Y-8259150D02*
X7572491Y-8268674D01*
X7572491Y-8268674D02*
X7582015Y-8287722D01*
X7582015Y-8287722D02*
X7582015Y-8392484D01*
X7972491Y-8182960D02*
X7801063Y-8440103D01*
X8229634Y-8192484D02*
X8248682Y-8192484D01*
X8248682Y-8192484D02*
X8267729Y-8202008D01*
X8267729Y-8202008D02*
X8277253Y-8211531D01*
X8277253Y-8211531D02*
X8286777Y-8230579D01*
X8286777Y-8230579D02*
X8296301Y-8268674D01*
X8296301Y-8268674D02*
X8296301Y-8316293D01*
X8296301Y-8316293D02*
X8286777Y-8354388D01*
X8286777Y-8354388D02*
X8277253Y-8373436D01*
X8277253Y-8373436D02*
X8267729Y-8382960D01*
X8267729Y-8382960D02*
X8248682Y-8392484D01*
X8248682Y-8392484D02*
X8229634Y-8392484D01*
X8229634Y-8392484D02*
X8210586Y-8382960D01*
X8210586Y-8382960D02*
X8201063Y-8373436D01*
X8201063Y-8373436D02*
X8191539Y-8354388D01*
X8191539Y-8354388D02*
X8182015Y-8316293D01*
X8182015Y-8316293D02*
X8182015Y-8268674D01*
X8182015Y-8268674D02*
X8191539Y-8230579D01*
X8191539Y-8230579D02*
X8201063Y-8211531D01*
X8201063Y-8211531D02*
X8210586Y-8202008D01*
X8210586Y-8202008D02*
X8229634Y-8192484D01*
X8382015Y-8373436D02*
X8391539Y-8382960D01*
X8391539Y-8382960D02*
X8382015Y-8392484D01*
X8382015Y-8392484D02*
X8372491Y-8382960D01*
X8372491Y-8382960D02*
X8382015Y-8373436D01*
X8382015Y-8373436D02*
X8382015Y-8392484D01*
X8515348Y-8192484D02*
X8534396Y-8192484D01*
X8534396Y-8192484D02*
X8553444Y-8202008D01*
X8553444Y-8202008D02*
X8562968Y-8211531D01*
X8562968Y-8211531D02*
X8572491Y-8230579D01*
X8572491Y-8230579D02*
X8582015Y-8268674D01*
X8582015Y-8268674D02*
X8582015Y-8316293D01*
X8582015Y-8316293D02*
X8572491Y-8354388D01*
X8572491Y-8354388D02*
X8562968Y-8373436D01*
X8562968Y-8373436D02*
X8553444Y-8382960D01*
X8553444Y-8382960D02*
X8534396Y-8392484D01*
X8534396Y-8392484D02*
X8515348Y-8392484D01*
X8515348Y-8392484D02*
X8496301Y-8382960D01*
X8496301Y-8382960D02*
X8486777Y-8373436D01*
X8486777Y-8373436D02*
X8477253Y-8354388D01*
X8477253Y-8354388D02*
X8467729Y-8316293D01*
X8467729Y-8316293D02*
X8467729Y-8268674D01*
X8467729Y-8268674D02*
X8477253Y-8230579D01*
X8477253Y-8230579D02*
X8486777Y-8211531D01*
X8486777Y-8211531D02*
X8496301Y-8202008D01*
X8496301Y-8202008D02*
X8515348Y-8192484D01*
X8648682Y-8192484D02*
X8772491Y-8192484D01*
X8772491Y-8192484D02*
X8705825Y-8268674D01*
X8705825Y-8268674D02*
X8734396Y-8268674D01*
X8734396Y-8268674D02*
X8753444Y-8278198D01*
X8753444Y-8278198D02*
X8762968Y-8287722D01*
X8762968Y-8287722D02*
X8772491Y-8306769D01*
X8772491Y-8306769D02*
X8772491Y-8354388D01*
X8772491Y-8354388D02*
X8762968Y-8373436D01*
X8762968Y-8373436D02*
X8753444Y-8382960D01*
X8753444Y-8382960D02*
X8734396Y-8392484D01*
X8734396Y-8392484D02*
X8677253Y-8392484D01*
X8677253Y-8392484D02*
X8658206Y-8382960D01*
X8658206Y-8382960D02*
X8648682Y-8373436D01*
X8867729Y-8392484D02*
X8905825Y-8392484D01*
X8905825Y-8392484D02*
X8924872Y-8382960D01*
X8924872Y-8382960D02*
X8934396Y-8373436D01*
X8934396Y-8373436D02*
X8953444Y-8344865D01*
X8953444Y-8344865D02*
X8962968Y-8306769D01*
X8962968Y-8306769D02*
X8962968Y-8230579D01*
X8962968Y-8230579D02*
X8953444Y-8211531D01*
X8953444Y-8211531D02*
X8943920Y-8202008D01*
X8943920Y-8202008D02*
X8924872Y-8192484D01*
X8924872Y-8192484D02*
X8886777Y-8192484D01*
X8886777Y-8192484D02*
X8867729Y-8202008D01*
X8867729Y-8202008D02*
X8858206Y-8211531D01*
X8858206Y-8211531D02*
X8848682Y-8230579D01*
X8848682Y-8230579D02*
X8848682Y-8278198D01*
X8848682Y-8278198D02*
X8858206Y-8297246D01*
X8858206Y-8297246D02*
X8867729Y-8306769D01*
X8867729Y-8306769D02*
X8886777Y-8316293D01*
X8886777Y-8316293D02*
X8924872Y-8316293D01*
X8924872Y-8316293D02*
X8943920Y-8306769D01*
X8943920Y-8306769D02*
X8953444Y-8297246D01*
X8953444Y-8297246D02*
X8962968Y-8278198D01*
X9086777Y-8192484D02*
X9105825Y-8192484D01*
X9105825Y-8192484D02*
X9124872Y-8202008D01*
X9124872Y-8202008D02*
X9134396Y-8211531D01*
X9134396Y-8211531D02*
X9143920Y-8230579D01*
X9143920Y-8230579D02*
X9153444Y-8268674D01*
X9153444Y-8268674D02*
X9153444Y-8316293D01*
X9153444Y-8316293D02*
X9143920Y-8354388D01*
X9143920Y-8354388D02*
X9134396Y-8373436D01*
X9134396Y-8373436D02*
X9124872Y-8382960D01*
X9124872Y-8382960D02*
X9105825Y-8392484D01*
X9105825Y-8392484D02*
X9086777Y-8392484D01*
X9086777Y-8392484D02*
X9067729Y-8382960D01*
X9067729Y-8382960D02*
X9058206Y-8373436D01*
X9058206Y-8373436D02*
X9048682Y-8354388D01*
X9048682Y-8354388D02*
X9039158Y-8316293D01*
X9039158Y-8316293D02*
X9039158Y-8268674D01*
X9039158Y-8268674D02*
X9048682Y-8230579D01*
X9048682Y-8230579D02*
X9058206Y-8211531D01*
X9058206Y-8211531D02*
X9067729Y-8202008D01*
X9067729Y-8202008D02*
X9086777Y-8192484D01*
X9229634Y-8192484D02*
X9229634Y-8230579D01*
X9305825Y-8192484D02*
X9305825Y-8230579D01*
X9601063Y-8468674D02*
X9591539Y-8459150D01*
X9591539Y-8459150D02*
X9572491Y-8430579D01*
X9572491Y-8430579D02*
X9562968Y-8411531D01*
X9562968Y-8411531D02*
X9553444Y-8382960D01*
X9553444Y-8382960D02*
X9543920Y-8335341D01*
X9543920Y-8335341D02*
X9543920Y-8297246D01*
X9543920Y-8297246D02*
X9553444Y-8249627D01*
X9553444Y-8249627D02*
X9562968Y-8221055D01*
X9562968Y-8221055D02*
X9572491Y-8202008D01*
X9572491Y-8202008D02*
X9591539Y-8173436D01*
X9591539Y-8173436D02*
X9601063Y-8163912D01*
X9658206Y-8192484D02*
X9782015Y-8192484D01*
X9782015Y-8192484D02*
X9715349Y-8268674D01*
X9715349Y-8268674D02*
X9743920Y-8268674D01*
X9743920Y-8268674D02*
X9762968Y-8278198D01*
X9762968Y-8278198D02*
X9772491Y-8287722D01*
X9772491Y-8287722D02*
X9782015Y-8306769D01*
X9782015Y-8306769D02*
X9782015Y-8354388D01*
X9782015Y-8354388D02*
X9772491Y-8373436D01*
X9772491Y-8373436D02*
X9762968Y-8382960D01*
X9762968Y-8382960D02*
X9743920Y-8392484D01*
X9743920Y-8392484D02*
X9686777Y-8392484D01*
X9686777Y-8392484D02*
X9667730Y-8382960D01*
X9667730Y-8382960D02*
X9658206Y-8373436D01*
X10020111Y-8392484D02*
X10020111Y-8192484D01*
X10105825Y-8392484D02*
X10105825Y-8287722D01*
X10105825Y-8287722D02*
X10096301Y-8268674D01*
X10096301Y-8268674D02*
X10077253Y-8259150D01*
X10077253Y-8259150D02*
X10048682Y-8259150D01*
X10048682Y-8259150D02*
X10029634Y-8268674D01*
X10029634Y-8268674D02*
X10020111Y-8278198D01*
X10229634Y-8392484D02*
X10210587Y-8382960D01*
X10210587Y-8382960D02*
X10201063Y-8373436D01*
X10201063Y-8373436D02*
X10191539Y-8354388D01*
X10191539Y-8354388D02*
X10191539Y-8297246D01*
X10191539Y-8297246D02*
X10201063Y-8278198D01*
X10201063Y-8278198D02*
X10210587Y-8268674D01*
X10210587Y-8268674D02*
X10229634Y-8259150D01*
X10229634Y-8259150D02*
X10258206Y-8259150D01*
X10258206Y-8259150D02*
X10277253Y-8268674D01*
X10277253Y-8268674D02*
X10286777Y-8278198D01*
X10286777Y-8278198D02*
X10296301Y-8297246D01*
X10296301Y-8297246D02*
X10296301Y-8354388D01*
X10296301Y-8354388D02*
X10286777Y-8373436D01*
X10286777Y-8373436D02*
X10277253Y-8382960D01*
X10277253Y-8382960D02*
X10258206Y-8392484D01*
X10258206Y-8392484D02*
X10229634Y-8392484D01*
X10410587Y-8392484D02*
X10391539Y-8382960D01*
X10391539Y-8382960D02*
X10382015Y-8363912D01*
X10382015Y-8363912D02*
X10382015Y-8192484D01*
X10562968Y-8382960D02*
X10543920Y-8392484D01*
X10543920Y-8392484D02*
X10505825Y-8392484D01*
X10505825Y-8392484D02*
X10486777Y-8382960D01*
X10486777Y-8382960D02*
X10477253Y-8363912D01*
X10477253Y-8363912D02*
X10477253Y-8287722D01*
X10477253Y-8287722D02*
X10486777Y-8268674D01*
X10486777Y-8268674D02*
X10505825Y-8259150D01*
X10505825Y-8259150D02*
X10543920Y-8259150D01*
X10543920Y-8259150D02*
X10562968Y-8268674D01*
X10562968Y-8268674D02*
X10572492Y-8287722D01*
X10572492Y-8287722D02*
X10572492Y-8306769D01*
X10572492Y-8306769D02*
X10477253Y-8325817D01*
X10648682Y-8382960D02*
X10667730Y-8392484D01*
X10667730Y-8392484D02*
X10705825Y-8392484D01*
X10705825Y-8392484D02*
X10724873Y-8382960D01*
X10724873Y-8382960D02*
X10734396Y-8363912D01*
X10734396Y-8363912D02*
X10734396Y-8354388D01*
X10734396Y-8354388D02*
X10724873Y-8335341D01*
X10724873Y-8335341D02*
X10705825Y-8325817D01*
X10705825Y-8325817D02*
X10677253Y-8325817D01*
X10677253Y-8325817D02*
X10658206Y-8316293D01*
X10658206Y-8316293D02*
X10648682Y-8297246D01*
X10648682Y-8297246D02*
X10648682Y-8287722D01*
X10648682Y-8287722D02*
X10658206Y-8268674D01*
X10658206Y-8268674D02*
X10677253Y-8259150D01*
X10677253Y-8259150D02*
X10705825Y-8259150D01*
X10705825Y-8259150D02*
X10724873Y-8268674D01*
X10801063Y-8468674D02*
X10810587Y-8459150D01*
X10810587Y-8459150D02*
X10829634Y-8430579D01*
X10829634Y-8430579D02*
X10839158Y-8411531D01*
X10839158Y-8411531D02*
X10848682Y-8382960D01*
X10848682Y-8382960D02*
X10858206Y-8335341D01*
X10858206Y-8335341D02*
X10858206Y-8297246D01*
X10858206Y-8297246D02*
X10848682Y-8249627D01*
X10848682Y-8249627D02*
X10839158Y-8221055D01*
X10839158Y-8221055D02*
X10829634Y-8202008D01*
X10829634Y-8202008D02*
X10810587Y-8173436D01*
X10810587Y-8173436D02*
X10801063Y-8163912D01*
X11162968Y-8468674D02*
X11153444Y-8459150D01*
X11153444Y-8459150D02*
X11134396Y-8430579D01*
X11134396Y-8430579D02*
X11124873Y-8411531D01*
X11124873Y-8411531D02*
X11115349Y-8382960D01*
X11115349Y-8382960D02*
X11105825Y-8335341D01*
X11105825Y-8335341D02*
X11105825Y-8297246D01*
X11105825Y-8297246D02*
X11115349Y-8249627D01*
X11115349Y-8249627D02*
X11124873Y-8221055D01*
X11124873Y-8221055D02*
X11134396Y-8202008D01*
X11134396Y-8202008D02*
X11153444Y-8173436D01*
X11153444Y-8173436D02*
X11162968Y-8163912D01*
X11239158Y-8259150D02*
X11239158Y-8392484D01*
X11239158Y-8278198D02*
X11248682Y-8268674D01*
X11248682Y-8268674D02*
X11267730Y-8259150D01*
X11267730Y-8259150D02*
X11296301Y-8259150D01*
X11296301Y-8259150D02*
X11315349Y-8268674D01*
X11315349Y-8268674D02*
X11324872Y-8287722D01*
X11324872Y-8287722D02*
X11324872Y-8392484D01*
X11448682Y-8392484D02*
X11429634Y-8382960D01*
X11429634Y-8382960D02*
X11420111Y-8373436D01*
X11420111Y-8373436D02*
X11410587Y-8354388D01*
X11410587Y-8354388D02*
X11410587Y-8297246D01*
X11410587Y-8297246D02*
X11420111Y-8278198D01*
X11420111Y-8278198D02*
X11429634Y-8268674D01*
X11429634Y-8268674D02*
X11448682Y-8259150D01*
X11448682Y-8259150D02*
X11477253Y-8259150D01*
X11477253Y-8259150D02*
X11496301Y-8268674D01*
X11496301Y-8268674D02*
X11505825Y-8278198D01*
X11505825Y-8278198D02*
X11515349Y-8297246D01*
X11515349Y-8297246D02*
X11515349Y-8354388D01*
X11515349Y-8354388D02*
X11505825Y-8373436D01*
X11505825Y-8373436D02*
X11496301Y-8382960D01*
X11496301Y-8382960D02*
X11477253Y-8392484D01*
X11477253Y-8392484D02*
X11448682Y-8392484D01*
X11572492Y-8259150D02*
X11648682Y-8259150D01*
X11601063Y-8192484D02*
X11601063Y-8363912D01*
X11601063Y-8363912D02*
X11610587Y-8382960D01*
X11610587Y-8382960D02*
X11629634Y-8392484D01*
X11629634Y-8392484D02*
X11648682Y-8392484D01*
X11867730Y-8259150D02*
X11867730Y-8459150D01*
X11867730Y-8268674D02*
X11886777Y-8259150D01*
X11886777Y-8259150D02*
X11924873Y-8259150D01*
X11924873Y-8259150D02*
X11943920Y-8268674D01*
X11943920Y-8268674D02*
X11953444Y-8278198D01*
X11953444Y-8278198D02*
X11962968Y-8297246D01*
X11962968Y-8297246D02*
X11962968Y-8354388D01*
X11962968Y-8354388D02*
X11953444Y-8373436D01*
X11953444Y-8373436D02*
X11943920Y-8382960D01*
X11943920Y-8382960D02*
X11924873Y-8392484D01*
X11924873Y-8392484D02*
X11886777Y-8392484D01*
X11886777Y-8392484D02*
X11867730Y-8382960D01*
X12077253Y-8392484D02*
X12058206Y-8382960D01*
X12058206Y-8382960D02*
X12048682Y-8363912D01*
X12048682Y-8363912D02*
X12048682Y-8192484D01*
X12239158Y-8392484D02*
X12239158Y-8287722D01*
X12239158Y-8287722D02*
X12229634Y-8268674D01*
X12229634Y-8268674D02*
X12210587Y-8259150D01*
X12210587Y-8259150D02*
X12172492Y-8259150D01*
X12172492Y-8259150D02*
X12153444Y-8268674D01*
X12239158Y-8382960D02*
X12220111Y-8392484D01*
X12220111Y-8392484D02*
X12172492Y-8392484D01*
X12172492Y-8392484D02*
X12153444Y-8382960D01*
X12153444Y-8382960D02*
X12143920Y-8363912D01*
X12143920Y-8363912D02*
X12143920Y-8344865D01*
X12143920Y-8344865D02*
X12153444Y-8325817D01*
X12153444Y-8325817D02*
X12172492Y-8316293D01*
X12172492Y-8316293D02*
X12220111Y-8316293D01*
X12220111Y-8316293D02*
X12239158Y-8306769D01*
X12305825Y-8259150D02*
X12382015Y-8259150D01*
X12334396Y-8192484D02*
X12334396Y-8363912D01*
X12334396Y-8363912D02*
X12343920Y-8382960D01*
X12343920Y-8382960D02*
X12362968Y-8392484D01*
X12362968Y-8392484D02*
X12382015Y-8392484D01*
X12524873Y-8382960D02*
X12505825Y-8392484D01*
X12505825Y-8392484D02*
X12467730Y-8392484D01*
X12467730Y-8392484D02*
X12448682Y-8382960D01*
X12448682Y-8382960D02*
X12439158Y-8363912D01*
X12439158Y-8363912D02*
X12439158Y-8287722D01*
X12439158Y-8287722D02*
X12448682Y-8268674D01*
X12448682Y-8268674D02*
X12467730Y-8259150D01*
X12467730Y-8259150D02*
X12505825Y-8259150D01*
X12505825Y-8259150D02*
X12524873Y-8268674D01*
X12524873Y-8268674D02*
X12534396Y-8287722D01*
X12534396Y-8287722D02*
X12534396Y-8306769D01*
X12534396Y-8306769D02*
X12439158Y-8325817D01*
X12705825Y-8392484D02*
X12705825Y-8192484D01*
X12705825Y-8382960D02*
X12686777Y-8392484D01*
X12686777Y-8392484D02*
X12648682Y-8392484D01*
X12648682Y-8392484D02*
X12629634Y-8382960D01*
X12629634Y-8382960D02*
X12620111Y-8373436D01*
X12620111Y-8373436D02*
X12610587Y-8354388D01*
X12610587Y-8354388D02*
X12610587Y-8297246D01*
X12610587Y-8297246D02*
X12620111Y-8278198D01*
X12620111Y-8278198D02*
X12629634Y-8268674D01*
X12629634Y-8268674D02*
X12648682Y-8259150D01*
X12648682Y-8259150D02*
X12686777Y-8259150D01*
X12686777Y-8259150D02*
X12705825Y-8268674D01*
X12782015Y-8468674D02*
X12791539Y-8459150D01*
X12791539Y-8459150D02*
X12810587Y-8430579D01*
X12810587Y-8430579D02*
X12820111Y-8411531D01*
X12820111Y-8411531D02*
X12829634Y-8382960D01*
X12829634Y-8382960D02*
X12839158Y-8335341D01*
X12839158Y-8335341D02*
X12839158Y-8297246D01*
X12839158Y-8297246D02*
X12829634Y-8249627D01*
X12829634Y-8249627D02*
X12820111Y-8221055D01*
X12820111Y-8221055D02*
X12810587Y-8202008D01*
X12810587Y-8202008D02*
X12791539Y-8173436D01*
X12791539Y-8173436D02*
X12782015Y-8163912D01*
X6026000Y-8565000D02*
G75*
G02*
X5826000Y-8565000I-100000J0D01*
G01*
X5826000Y-8565000D02*
G75*
G02*
X6026000Y-8565000I100000J0D01*
G01*
X6277253Y-8475531D02*
X6286777Y-8466008D01*
X6286777Y-8466008D02*
X6305824Y-8456484D01*
X6305824Y-8456484D02*
X6353443Y-8456484D01*
X6353443Y-8456484D02*
X6372491Y-8466008D01*
X6372491Y-8466008D02*
X6382015Y-8475531D01*
X6382015Y-8475531D02*
X6391539Y-8494579D01*
X6391539Y-8494579D02*
X6391539Y-8513627D01*
X6391539Y-8513627D02*
X6382015Y-8542198D01*
X6382015Y-8542198D02*
X6267729Y-8656484D01*
X6267729Y-8656484D02*
X6391539Y-8656484D01*
X6477253Y-8637436D02*
X6486777Y-8646960D01*
X6486777Y-8646960D02*
X6477253Y-8656484D01*
X6477253Y-8656484D02*
X6467729Y-8646960D01*
X6467729Y-8646960D02*
X6477253Y-8637436D01*
X6477253Y-8637436D02*
X6477253Y-8656484D01*
X6562967Y-8475531D02*
X6572491Y-8466008D01*
X6572491Y-8466008D02*
X6591539Y-8456484D01*
X6591539Y-8456484D02*
X6639158Y-8456484D01*
X6639158Y-8456484D02*
X6658205Y-8466008D01*
X6658205Y-8466008D02*
X6667729Y-8475531D01*
X6667729Y-8475531D02*
X6677253Y-8494579D01*
X6677253Y-8494579D02*
X6677253Y-8513627D01*
X6677253Y-8513627D02*
X6667729Y-8542198D01*
X6667729Y-8542198D02*
X6553443Y-8656484D01*
X6553443Y-8656484D02*
X6677253Y-8656484D01*
X6801062Y-8456484D02*
X6820110Y-8456484D01*
X6820110Y-8456484D02*
X6839158Y-8466008D01*
X6839158Y-8466008D02*
X6848682Y-8475531D01*
X6848682Y-8475531D02*
X6858205Y-8494579D01*
X6858205Y-8494579D02*
X6867729Y-8532674D01*
X6867729Y-8532674D02*
X6867729Y-8580293D01*
X6867729Y-8580293D02*
X6858205Y-8618389D01*
X6858205Y-8618389D02*
X6848682Y-8637436D01*
X6848682Y-8637436D02*
X6839158Y-8646960D01*
X6839158Y-8646960D02*
X6820110Y-8656484D01*
X6820110Y-8656484D02*
X6801062Y-8656484D01*
X6801062Y-8656484D02*
X6782015Y-8646960D01*
X6782015Y-8646960D02*
X6772491Y-8637436D01*
X6772491Y-8637436D02*
X6762967Y-8618389D01*
X6762967Y-8618389D02*
X6753443Y-8580293D01*
X6753443Y-8580293D02*
X6753443Y-8532674D01*
X6753443Y-8532674D02*
X6762967Y-8494579D01*
X6762967Y-8494579D02*
X6772491Y-8475531D01*
X6772491Y-8475531D02*
X6782015Y-8466008D01*
X6782015Y-8466008D02*
X6801062Y-8456484D01*
X6991539Y-8456484D02*
X7010586Y-8456484D01*
X7010586Y-8456484D02*
X7029634Y-8466008D01*
X7029634Y-8466008D02*
X7039158Y-8475531D01*
X7039158Y-8475531D02*
X7048682Y-8494579D01*
X7048682Y-8494579D02*
X7058205Y-8532674D01*
X7058205Y-8532674D02*
X7058205Y-8580293D01*
X7058205Y-8580293D02*
X7048682Y-8618389D01*
X7048682Y-8618389D02*
X7039158Y-8637436D01*
X7039158Y-8637436D02*
X7029634Y-8646960D01*
X7029634Y-8646960D02*
X7010586Y-8656484D01*
X7010586Y-8656484D02*
X6991539Y-8656484D01*
X6991539Y-8656484D02*
X6972491Y-8646960D01*
X6972491Y-8646960D02*
X6962967Y-8637436D01*
X6962967Y-8637436D02*
X6953443Y-8618389D01*
X6953443Y-8618389D02*
X6943920Y-8580293D01*
X6943920Y-8580293D02*
X6943920Y-8532674D01*
X6943920Y-8532674D02*
X6953443Y-8494579D01*
X6953443Y-8494579D02*
X6962967Y-8475531D01*
X6962967Y-8475531D02*
X6972491Y-8466008D01*
X6972491Y-8466008D02*
X6991539Y-8456484D01*
X7143920Y-8656484D02*
X7143920Y-8523150D01*
X7143920Y-8542198D02*
X7153443Y-8532674D01*
X7153443Y-8532674D02*
X7172491Y-8523150D01*
X7172491Y-8523150D02*
X7201063Y-8523150D01*
X7201063Y-8523150D02*
X7220110Y-8532674D01*
X7220110Y-8532674D02*
X7229634Y-8551722D01*
X7229634Y-8551722D02*
X7229634Y-8656484D01*
X7229634Y-8551722D02*
X7239158Y-8532674D01*
X7239158Y-8532674D02*
X7258205Y-8523150D01*
X7258205Y-8523150D02*
X7286777Y-8523150D01*
X7286777Y-8523150D02*
X7305824Y-8532674D01*
X7305824Y-8532674D02*
X7315348Y-8551722D01*
X7315348Y-8551722D02*
X7315348Y-8656484D01*
X7410586Y-8656484D02*
X7410586Y-8523150D01*
X7410586Y-8542198D02*
X7420110Y-8532674D01*
X7420110Y-8532674D02*
X7439158Y-8523150D01*
X7439158Y-8523150D02*
X7467729Y-8523150D01*
X7467729Y-8523150D02*
X7486777Y-8532674D01*
X7486777Y-8532674D02*
X7496301Y-8551722D01*
X7496301Y-8551722D02*
X7496301Y-8656484D01*
X7496301Y-8551722D02*
X7505824Y-8532674D01*
X7505824Y-8532674D02*
X7524872Y-8523150D01*
X7524872Y-8523150D02*
X7553443Y-8523150D01*
X7553443Y-8523150D02*
X7572491Y-8532674D01*
X7572491Y-8532674D02*
X7582015Y-8551722D01*
X7582015Y-8551722D02*
X7582015Y-8656484D01*
X7972491Y-8446960D02*
X7801063Y-8704103D01*
X8229634Y-8456484D02*
X8248682Y-8456484D01*
X8248682Y-8456484D02*
X8267729Y-8466008D01*
X8267729Y-8466008D02*
X8277253Y-8475531D01*
X8277253Y-8475531D02*
X8286777Y-8494579D01*
X8286777Y-8494579D02*
X8296301Y-8532674D01*
X8296301Y-8532674D02*
X8296301Y-8580293D01*
X8296301Y-8580293D02*
X8286777Y-8618389D01*
X8286777Y-8618389D02*
X8277253Y-8637436D01*
X8277253Y-8637436D02*
X8267729Y-8646960D01*
X8267729Y-8646960D02*
X8248682Y-8656484D01*
X8248682Y-8656484D02*
X8229634Y-8656484D01*
X8229634Y-8656484D02*
X8210586Y-8646960D01*
X8210586Y-8646960D02*
X8201063Y-8637436D01*
X8201063Y-8637436D02*
X8191539Y-8618389D01*
X8191539Y-8618389D02*
X8182015Y-8580293D01*
X8182015Y-8580293D02*
X8182015Y-8532674D01*
X8182015Y-8532674D02*
X8191539Y-8494579D01*
X8191539Y-8494579D02*
X8201063Y-8475531D01*
X8201063Y-8475531D02*
X8210586Y-8466008D01*
X8210586Y-8466008D02*
X8229634Y-8456484D01*
X8382015Y-8637436D02*
X8391539Y-8646960D01*
X8391539Y-8646960D02*
X8382015Y-8656484D01*
X8382015Y-8656484D02*
X8372491Y-8646960D01*
X8372491Y-8646960D02*
X8382015Y-8637436D01*
X8382015Y-8637436D02*
X8382015Y-8656484D01*
X8515348Y-8456484D02*
X8534396Y-8456484D01*
X8534396Y-8456484D02*
X8553444Y-8466008D01*
X8553444Y-8466008D02*
X8562968Y-8475531D01*
X8562968Y-8475531D02*
X8572491Y-8494579D01*
X8572491Y-8494579D02*
X8582015Y-8532674D01*
X8582015Y-8532674D02*
X8582015Y-8580293D01*
X8582015Y-8580293D02*
X8572491Y-8618389D01*
X8572491Y-8618389D02*
X8562968Y-8637436D01*
X8562968Y-8637436D02*
X8553444Y-8646960D01*
X8553444Y-8646960D02*
X8534396Y-8656484D01*
X8534396Y-8656484D02*
X8515348Y-8656484D01*
X8515348Y-8656484D02*
X8496301Y-8646960D01*
X8496301Y-8646960D02*
X8486777Y-8637436D01*
X8486777Y-8637436D02*
X8477253Y-8618389D01*
X8477253Y-8618389D02*
X8467729Y-8580293D01*
X8467729Y-8580293D02*
X8467729Y-8532674D01*
X8467729Y-8532674D02*
X8477253Y-8494579D01*
X8477253Y-8494579D02*
X8486777Y-8475531D01*
X8486777Y-8475531D02*
X8496301Y-8466008D01*
X8496301Y-8466008D02*
X8515348Y-8456484D01*
X8696301Y-8542198D02*
X8677253Y-8532674D01*
X8677253Y-8532674D02*
X8667729Y-8523150D01*
X8667729Y-8523150D02*
X8658206Y-8504103D01*
X8658206Y-8504103D02*
X8658206Y-8494579D01*
X8658206Y-8494579D02*
X8667729Y-8475531D01*
X8667729Y-8475531D02*
X8677253Y-8466008D01*
X8677253Y-8466008D02*
X8696301Y-8456484D01*
X8696301Y-8456484D02*
X8734396Y-8456484D01*
X8734396Y-8456484D02*
X8753444Y-8466008D01*
X8753444Y-8466008D02*
X8762968Y-8475531D01*
X8762968Y-8475531D02*
X8772491Y-8494579D01*
X8772491Y-8494579D02*
X8772491Y-8504103D01*
X8772491Y-8504103D02*
X8762968Y-8523150D01*
X8762968Y-8523150D02*
X8753444Y-8532674D01*
X8753444Y-8532674D02*
X8734396Y-8542198D01*
X8734396Y-8542198D02*
X8696301Y-8542198D01*
X8696301Y-8542198D02*
X8677253Y-8551722D01*
X8677253Y-8551722D02*
X8667729Y-8561246D01*
X8667729Y-8561246D02*
X8658206Y-8580293D01*
X8658206Y-8580293D02*
X8658206Y-8618389D01*
X8658206Y-8618389D02*
X8667729Y-8637436D01*
X8667729Y-8637436D02*
X8677253Y-8646960D01*
X8677253Y-8646960D02*
X8696301Y-8656484D01*
X8696301Y-8656484D02*
X8734396Y-8656484D01*
X8734396Y-8656484D02*
X8753444Y-8646960D01*
X8753444Y-8646960D02*
X8762968Y-8637436D01*
X8762968Y-8637436D02*
X8772491Y-8618389D01*
X8772491Y-8618389D02*
X8772491Y-8580293D01*
X8772491Y-8580293D02*
X8762968Y-8561246D01*
X8762968Y-8561246D02*
X8753444Y-8551722D01*
X8753444Y-8551722D02*
X8734396Y-8542198D01*
X8943920Y-8456484D02*
X8905825Y-8456484D01*
X8905825Y-8456484D02*
X8886777Y-8466008D01*
X8886777Y-8466008D02*
X8877253Y-8475531D01*
X8877253Y-8475531D02*
X8858206Y-8504103D01*
X8858206Y-8504103D02*
X8848682Y-8542198D01*
X8848682Y-8542198D02*
X8848682Y-8618389D01*
X8848682Y-8618389D02*
X8858206Y-8637436D01*
X8858206Y-8637436D02*
X8867729Y-8646960D01*
X8867729Y-8646960D02*
X8886777Y-8656484D01*
X8886777Y-8656484D02*
X8924872Y-8656484D01*
X8924872Y-8656484D02*
X8943920Y-8646960D01*
X8943920Y-8646960D02*
X8953444Y-8637436D01*
X8953444Y-8637436D02*
X8962968Y-8618389D01*
X8962968Y-8618389D02*
X8962968Y-8570770D01*
X8962968Y-8570770D02*
X8953444Y-8551722D01*
X8953444Y-8551722D02*
X8943920Y-8542198D01*
X8943920Y-8542198D02*
X8924872Y-8532674D01*
X8924872Y-8532674D02*
X8886777Y-8532674D01*
X8886777Y-8532674D02*
X8867729Y-8542198D01*
X8867729Y-8542198D02*
X8858206Y-8551722D01*
X8858206Y-8551722D02*
X8848682Y-8570770D01*
X9134396Y-8456484D02*
X9096301Y-8456484D01*
X9096301Y-8456484D02*
X9077253Y-8466008D01*
X9077253Y-8466008D02*
X9067729Y-8475531D01*
X9067729Y-8475531D02*
X9048682Y-8504103D01*
X9048682Y-8504103D02*
X9039158Y-8542198D01*
X9039158Y-8542198D02*
X9039158Y-8618389D01*
X9039158Y-8618389D02*
X9048682Y-8637436D01*
X9048682Y-8637436D02*
X9058206Y-8646960D01*
X9058206Y-8646960D02*
X9077253Y-8656484D01*
X9077253Y-8656484D02*
X9115349Y-8656484D01*
X9115349Y-8656484D02*
X9134396Y-8646960D01*
X9134396Y-8646960D02*
X9143920Y-8637436D01*
X9143920Y-8637436D02*
X9153444Y-8618389D01*
X9153444Y-8618389D02*
X9153444Y-8570770D01*
X9153444Y-8570770D02*
X9143920Y-8551722D01*
X9143920Y-8551722D02*
X9134396Y-8542198D01*
X9134396Y-8542198D02*
X9115349Y-8532674D01*
X9115349Y-8532674D02*
X9077253Y-8532674D01*
X9077253Y-8532674D02*
X9058206Y-8542198D01*
X9058206Y-8542198D02*
X9048682Y-8551722D01*
X9048682Y-8551722D02*
X9039158Y-8570770D01*
X9229634Y-8456484D02*
X9229634Y-8494579D01*
X9305825Y-8456484D02*
X9305825Y-8494579D01*
X9601063Y-8732674D02*
X9591539Y-8723150D01*
X9591539Y-8723150D02*
X9572491Y-8694579D01*
X9572491Y-8694579D02*
X9562968Y-8675531D01*
X9562968Y-8675531D02*
X9553444Y-8646960D01*
X9553444Y-8646960D02*
X9543920Y-8599341D01*
X9543920Y-8599341D02*
X9543920Y-8561246D01*
X9543920Y-8561246D02*
X9553444Y-8513627D01*
X9553444Y-8513627D02*
X9562968Y-8485055D01*
X9562968Y-8485055D02*
X9572491Y-8466008D01*
X9572491Y-8466008D02*
X9591539Y-8437436D01*
X9591539Y-8437436D02*
X9601063Y-8427912D01*
X9667730Y-8475531D02*
X9677253Y-8466008D01*
X9677253Y-8466008D02*
X9696301Y-8456484D01*
X9696301Y-8456484D02*
X9743920Y-8456484D01*
X9743920Y-8456484D02*
X9762968Y-8466008D01*
X9762968Y-8466008D02*
X9772491Y-8475531D01*
X9772491Y-8475531D02*
X9782015Y-8494579D01*
X9782015Y-8494579D02*
X9782015Y-8513627D01*
X9782015Y-8513627D02*
X9772491Y-8542198D01*
X9772491Y-8542198D02*
X9658206Y-8656484D01*
X9658206Y-8656484D02*
X9782015Y-8656484D01*
X10020111Y-8656484D02*
X10020111Y-8456484D01*
X10105825Y-8656484D02*
X10105825Y-8551722D01*
X10105825Y-8551722D02*
X10096301Y-8532674D01*
X10096301Y-8532674D02*
X10077253Y-8523150D01*
X10077253Y-8523150D02*
X10048682Y-8523150D01*
X10048682Y-8523150D02*
X10029634Y-8532674D01*
X10029634Y-8532674D02*
X10020111Y-8542198D01*
X10229634Y-8656484D02*
X10210587Y-8646960D01*
X10210587Y-8646960D02*
X10201063Y-8637436D01*
X10201063Y-8637436D02*
X10191539Y-8618389D01*
X10191539Y-8618389D02*
X10191539Y-8561246D01*
X10191539Y-8561246D02*
X10201063Y-8542198D01*
X10201063Y-8542198D02*
X10210587Y-8532674D01*
X10210587Y-8532674D02*
X10229634Y-8523150D01*
X10229634Y-8523150D02*
X10258206Y-8523150D01*
X10258206Y-8523150D02*
X10277253Y-8532674D01*
X10277253Y-8532674D02*
X10286777Y-8542198D01*
X10286777Y-8542198D02*
X10296301Y-8561246D01*
X10296301Y-8561246D02*
X10296301Y-8618389D01*
X10296301Y-8618389D02*
X10286777Y-8637436D01*
X10286777Y-8637436D02*
X10277253Y-8646960D01*
X10277253Y-8646960D02*
X10258206Y-8656484D01*
X10258206Y-8656484D02*
X10229634Y-8656484D01*
X10410587Y-8656484D02*
X10391539Y-8646960D01*
X10391539Y-8646960D02*
X10382015Y-8627912D01*
X10382015Y-8627912D02*
X10382015Y-8456484D01*
X10562968Y-8646960D02*
X10543920Y-8656484D01*
X10543920Y-8656484D02*
X10505825Y-8656484D01*
X10505825Y-8656484D02*
X10486777Y-8646960D01*
X10486777Y-8646960D02*
X10477253Y-8627912D01*
X10477253Y-8627912D02*
X10477253Y-8551722D01*
X10477253Y-8551722D02*
X10486777Y-8532674D01*
X10486777Y-8532674D02*
X10505825Y-8523150D01*
X10505825Y-8523150D02*
X10543920Y-8523150D01*
X10543920Y-8523150D02*
X10562968Y-8532674D01*
X10562968Y-8532674D02*
X10572492Y-8551722D01*
X10572492Y-8551722D02*
X10572492Y-8570770D01*
X10572492Y-8570770D02*
X10477253Y-8589817D01*
X10648682Y-8646960D02*
X10667730Y-8656484D01*
X10667730Y-8656484D02*
X10705825Y-8656484D01*
X10705825Y-8656484D02*
X10724873Y-8646960D01*
X10724873Y-8646960D02*
X10734396Y-8627912D01*
X10734396Y-8627912D02*
X10734396Y-8618389D01*
X10734396Y-8618389D02*
X10724873Y-8599341D01*
X10724873Y-8599341D02*
X10705825Y-8589817D01*
X10705825Y-8589817D02*
X10677253Y-8589817D01*
X10677253Y-8589817D02*
X10658206Y-8580293D01*
X10658206Y-8580293D02*
X10648682Y-8561246D01*
X10648682Y-8561246D02*
X10648682Y-8551722D01*
X10648682Y-8551722D02*
X10658206Y-8532674D01*
X10658206Y-8532674D02*
X10677253Y-8523150D01*
X10677253Y-8523150D02*
X10705825Y-8523150D01*
X10705825Y-8523150D02*
X10724873Y-8532674D01*
X10801063Y-8732674D02*
X10810587Y-8723150D01*
X10810587Y-8723150D02*
X10829634Y-8694579D01*
X10829634Y-8694579D02*
X10839158Y-8675531D01*
X10839158Y-8675531D02*
X10848682Y-8646960D01*
X10848682Y-8646960D02*
X10858206Y-8599341D01*
X10858206Y-8599341D02*
X10858206Y-8561246D01*
X10858206Y-8561246D02*
X10848682Y-8513627D01*
X10848682Y-8513627D02*
X10839158Y-8485055D01*
X10839158Y-8485055D02*
X10829634Y-8466008D01*
X10829634Y-8466008D02*
X10810587Y-8437436D01*
X10810587Y-8437436D02*
X10801063Y-8427912D01*
X11162968Y-8732674D02*
X11153444Y-8723150D01*
X11153444Y-8723150D02*
X11134396Y-8694579D01*
X11134396Y-8694579D02*
X11124873Y-8675531D01*
X11124873Y-8675531D02*
X11115349Y-8646960D01*
X11115349Y-8646960D02*
X11105825Y-8599341D01*
X11105825Y-8599341D02*
X11105825Y-8561246D01*
X11105825Y-8561246D02*
X11115349Y-8513627D01*
X11115349Y-8513627D02*
X11124873Y-8485055D01*
X11124873Y-8485055D02*
X11134396Y-8466008D01*
X11134396Y-8466008D02*
X11153444Y-8437436D01*
X11153444Y-8437436D02*
X11162968Y-8427912D01*
X11239158Y-8523150D02*
X11239158Y-8656484D01*
X11239158Y-8542198D02*
X11248682Y-8532674D01*
X11248682Y-8532674D02*
X11267730Y-8523150D01*
X11267730Y-8523150D02*
X11296301Y-8523150D01*
X11296301Y-8523150D02*
X11315349Y-8532674D01*
X11315349Y-8532674D02*
X11324872Y-8551722D01*
X11324872Y-8551722D02*
X11324872Y-8656484D01*
X11448682Y-8656484D02*
X11429634Y-8646960D01*
X11429634Y-8646960D02*
X11420111Y-8637436D01*
X11420111Y-8637436D02*
X11410587Y-8618389D01*
X11410587Y-8618389D02*
X11410587Y-8561246D01*
X11410587Y-8561246D02*
X11420111Y-8542198D01*
X11420111Y-8542198D02*
X11429634Y-8532674D01*
X11429634Y-8532674D02*
X11448682Y-8523150D01*
X11448682Y-8523150D02*
X11477253Y-8523150D01*
X11477253Y-8523150D02*
X11496301Y-8532674D01*
X11496301Y-8532674D02*
X11505825Y-8542198D01*
X11505825Y-8542198D02*
X11515349Y-8561246D01*
X11515349Y-8561246D02*
X11515349Y-8618389D01*
X11515349Y-8618389D02*
X11505825Y-8637436D01*
X11505825Y-8637436D02*
X11496301Y-8646960D01*
X11496301Y-8646960D02*
X11477253Y-8656484D01*
X11477253Y-8656484D02*
X11448682Y-8656484D01*
X11572492Y-8523150D02*
X11648682Y-8523150D01*
X11601063Y-8456484D02*
X11601063Y-8627912D01*
X11601063Y-8627912D02*
X11610587Y-8646960D01*
X11610587Y-8646960D02*
X11629634Y-8656484D01*
X11629634Y-8656484D02*
X11648682Y-8656484D01*
X11867730Y-8523150D02*
X11867730Y-8723150D01*
X11867730Y-8532674D02*
X11886777Y-8523150D01*
X11886777Y-8523150D02*
X11924873Y-8523150D01*
X11924873Y-8523150D02*
X11943920Y-8532674D01*
X11943920Y-8532674D02*
X11953444Y-8542198D01*
X11953444Y-8542198D02*
X11962968Y-8561246D01*
X11962968Y-8561246D02*
X11962968Y-8618389D01*
X11962968Y-8618389D02*
X11953444Y-8637436D01*
X11953444Y-8637436D02*
X11943920Y-8646960D01*
X11943920Y-8646960D02*
X11924873Y-8656484D01*
X11924873Y-8656484D02*
X11886777Y-8656484D01*
X11886777Y-8656484D02*
X11867730Y-8646960D01*
X12077253Y-8656484D02*
X12058206Y-8646960D01*
X12058206Y-8646960D02*
X12048682Y-8627912D01*
X12048682Y-8627912D02*
X12048682Y-8456484D01*
X12239158Y-8656484D02*
X12239158Y-8551722D01*
X12239158Y-8551722D02*
X12229634Y-8532674D01*
X12229634Y-8532674D02*
X12210587Y-8523150D01*
X12210587Y-8523150D02*
X12172492Y-8523150D01*
X12172492Y-8523150D02*
X12153444Y-8532674D01*
X12239158Y-8646960D02*
X12220111Y-8656484D01*
X12220111Y-8656484D02*
X12172492Y-8656484D01*
X12172492Y-8656484D02*
X12153444Y-8646960D01*
X12153444Y-8646960D02*
X12143920Y-8627912D01*
X12143920Y-8627912D02*
X12143920Y-8608865D01*
X12143920Y-8608865D02*
X12153444Y-8589817D01*
X12153444Y-8589817D02*
X12172492Y-8580293D01*
X12172492Y-8580293D02*
X12220111Y-8580293D01*
X12220111Y-8580293D02*
X12239158Y-8570770D01*
X12305825Y-8523150D02*
X12382015Y-8523150D01*
X12334396Y-8456484D02*
X12334396Y-8627912D01*
X12334396Y-8627912D02*
X12343920Y-8646960D01*
X12343920Y-8646960D02*
X12362968Y-8656484D01*
X12362968Y-8656484D02*
X12382015Y-8656484D01*
X12524873Y-8646960D02*
X12505825Y-8656484D01*
X12505825Y-8656484D02*
X12467730Y-8656484D01*
X12467730Y-8656484D02*
X12448682Y-8646960D01*
X12448682Y-8646960D02*
X12439158Y-8627912D01*
X12439158Y-8627912D02*
X12439158Y-8551722D01*
X12439158Y-8551722D02*
X12448682Y-8532674D01*
X12448682Y-8532674D02*
X12467730Y-8523150D01*
X12467730Y-8523150D02*
X12505825Y-8523150D01*
X12505825Y-8523150D02*
X12524873Y-8532674D01*
X12524873Y-8532674D02*
X12534396Y-8551722D01*
X12534396Y-8551722D02*
X12534396Y-8570770D01*
X12534396Y-8570770D02*
X12439158Y-8589817D01*
X12705825Y-8656484D02*
X12705825Y-8456484D01*
X12705825Y-8646960D02*
X12686777Y-8656484D01*
X12686777Y-8656484D02*
X12648682Y-8656484D01*
X12648682Y-8656484D02*
X12629634Y-8646960D01*
X12629634Y-8646960D02*
X12620111Y-8637436D01*
X12620111Y-8637436D02*
X12610587Y-8618389D01*
X12610587Y-8618389D02*
X12610587Y-8561246D01*
X12610587Y-8561246D02*
X12620111Y-8542198D01*
X12620111Y-8542198D02*
X12629634Y-8532674D01*
X12629634Y-8532674D02*
X12648682Y-8523150D01*
X12648682Y-8523150D02*
X12686777Y-8523150D01*
X12686777Y-8523150D02*
X12705825Y-8532674D01*
X12782015Y-8732674D02*
X12791539Y-8723150D01*
X12791539Y-8723150D02*
X12810587Y-8694579D01*
X12810587Y-8694579D02*
X12820111Y-8675531D01*
X12820111Y-8675531D02*
X12829634Y-8646960D01*
X12829634Y-8646960D02*
X12839158Y-8599341D01*
X12839158Y-8599341D02*
X12839158Y-8561246D01*
X12839158Y-8561246D02*
X12829634Y-8513627D01*
X12829634Y-8513627D02*
X12820111Y-8485055D01*
X12820111Y-8485055D02*
X12810587Y-8466008D01*
X12810587Y-8466008D02*
X12791539Y-8437436D01*
X12791539Y-8437436D02*
X12782015Y-8427912D01*
M02*
