M48
; DRILL file {KiCad 9.0.3} date 2025-08-20T13:57:26+0200
; FORMAT={-:-/ absolute / metric / decimal}
; #@! TF.CreationDate,2025-08-20T13:57:26+02:00
; #@! TF.GenerationSoftware,Kicad,Pcbnew,9.0.3
; #@! TF.FileFunction,Plated,1,4,PTH
FMAT,2
METRIC
; #@! TA.AperFunction,Plated,PTH,ViaDrill
T1C0.350
; #@! TA.AperFunction,Plated,PTH,ComponentDrill
T2C0.350
; #@! TA.AperFunction,Plated,PTH,ViaDrill
T3C0.400
; #@! TA.AperFunction,Plated,PTH,ComponentDrill
T4C0.800
; #@! TA.AperFunction,Plated,PTH,ComponentDrill
T5C1.000
; #@! TA.AperFunction,Plated,PTH,ComponentDrill
T6C1.300
; #@! TA.AperFunction,Plated,PTH,ComponentDrill
T7C2.000
; #@! TA.AperFunction,Plated,PTH,ComponentDrill
T8C3.000
%
G90
G05
T1
X61.285Y-55.145
X61.285Y-60.225
X61.285Y-62.765
X61.285Y-65.305
X61.285Y-67.845
X61.285Y-70.385
X61.285Y-72.925
X61.4Y-75.4
X61.6Y-58.2
X62.4Y-47.2
X63.2Y-71.4
X63.2Y-73.0
X63.2Y-75.0
X63.75Y-55.0
X63.825Y-67.845
X64.6Y-59.0
X65.0Y-47.4
X65.0Y-70.4
X65.0Y-75.6
X65.6Y-56.2
X65.75Y-59.0
X65.905Y-69.8
X66.0Y-57.0
X66.2Y-47.4
X66.365Y-67.845
X66.467Y-57.888
X66.6Y-74.0
X66.6Y-74.8
X66.8Y-71.4
X67.0Y-55.75
X67.196Y-72.08
X67.4Y-56.6
X67.6Y-47.4
X67.701Y-73.63
X67.75Y-64.716
X67.833Y-72.364
X68.032Y-61.295
X68.291Y-64.175
X68.451Y-73.65
X68.543Y-72.328
X68.905Y-70.385
X68.905Y-75.465
X68.937Y-62.054
X69.0Y-61.25
X69.195Y-67.973
X69.209Y-64.175
X69.314Y-73.865
X69.456Y-55.955
X70.105Y-56.3
X70.199Y-67.635
X70.205Y-69.2
X70.267Y-73.85
X70.328Y-72.176
X70.454Y-58.566
X70.987Y-56.452
X71.002Y-72.319
X71.002Y-73.702
X71.243Y-66.21
X71.445Y-75.465
X71.488Y-58.487
X71.707Y-72.155
X71.772Y-55.941
X71.802Y-67.25
X71.809Y-68.05
X71.834Y-55.141
X72.0Y-63.2
X72.0Y-65.2
X72.0Y-69.8
X72.005Y-60.85
X72.019Y-57.041
X72.054Y-73.682
X72.125Y-54.389
X72.193Y-66.11
X72.4Y-49.4
X72.6Y-50.2
X72.6Y-51.2
X72.713Y-73.825
X72.938Y-52.431
X73.0Y-69.8
X73.4Y-72.4
X73.4Y-73.6
X73.446Y-51.814
X73.985Y-75.465
X74.0Y-72.2
X74.178Y-73.845
X74.75Y-52.119
X74.8Y-49.8
X74.8Y-50.6
X74.8Y-72.2
X74.9Y-56.1
X74.9Y-58.1
X74.9Y-60.1
X74.9Y-62.1
X74.9Y-64.1
X74.9Y-66.1
X74.916Y-73.987
X75.0Y-69.8
X75.6Y-72.0
X75.651Y-70.187
X75.7Y-57.1
X75.7Y-59.1
X75.7Y-61.1
X75.7Y-63.1
X75.7Y-65.1
X75.7Y-67.0
X75.705Y-55.1
X75.8Y-71.0
X75.8Y-73.8
X76.5Y-52.229
X76.5Y-56.1
X76.5Y-58.1
X76.5Y-60.1
X76.5Y-62.1
X76.5Y-64.1
X76.5Y-66.1
X76.525Y-75.465
X76.636Y-71.19
X76.789Y-73.756
X76.973Y-69.664
X77.3Y-57.1
X77.3Y-59.1
X77.3Y-61.1
X77.3Y-63.1
X77.3Y-65.1
X77.3Y-67.0
X77.358Y-55.1
X77.6Y-73.6
X78.1Y-56.1
X78.1Y-58.1
X78.1Y-60.1
X78.1Y-62.1
X78.1Y-64.1
X78.1Y-66.1
X78.2Y-73.2
X78.25Y-52.466
X78.4Y-69.8
X78.4Y-71.0
X78.4Y-72.0
X78.9Y-55.1
X78.9Y-57.1
X78.9Y-59.1
X78.9Y-61.1
X78.9Y-63.1
X78.9Y-65.1
X78.9Y-67.0
X79.065Y-75.465
X79.2Y-70.4
X79.2Y-71.4
X79.2Y-73.0
X79.25Y-52.466
X79.7Y-56.1
X79.7Y-58.1
X79.7Y-60.1
X79.7Y-62.1
X79.7Y-64.1
X79.7Y-66.1
X79.784Y-69.737
X79.824Y-70.782
X80.0Y-51.0
X80.0Y-52.466
X80.015Y-71.935
X80.086Y-49.323
X80.289Y-73.18
X80.5Y-57.1
X80.5Y-59.1
X80.5Y-61.1
X80.5Y-63.1
X80.5Y-65.1
X80.5Y-67.0
X80.6Y-50.0
X80.8Y-51.0
X81.0Y-52.466
X81.201Y-71.985
X81.268Y-73.47
X81.3Y-56.1
X81.3Y-60.1
X81.3Y-62.1
X81.3Y-64.1
X81.3Y-66.1
X81.3Y-69.649
X81.309Y-58.235
X81.326Y-70.799
X81.501Y-48.701
X81.6Y-51.0
X81.605Y-75.465
X82.2Y-72.2
X82.38Y-73.487
X83.2Y-69.8
X83.2Y-72.2
X83.284Y-73.479
X83.4Y-71.0
X83.906Y-54.75
X83.947Y-64.716
X83.965Y-59.449
X84.0Y-69.6
X84.005Y-65.5
X84.005Y-66.2
X84.039Y-61.644
X84.08Y-53.35
X84.12Y-60.848
X84.145Y-75.465
X84.2Y-69.0
X84.238Y-63.155
X84.302Y-57.65
X84.305Y-64.0
X84.4Y-70.2
X84.4Y-72.2
X84.42Y-60.106
X84.496Y-73.495
X84.505Y-62.401
X84.705Y-59.2
X84.75Y-65.493
X84.758Y-64.771
X84.838Y-53.365
X85.035Y-63.219
X85.234Y-57.482
X85.5Y-69.966
X85.8Y-52.735
X85.8Y-62.4
X85.8Y-63.6
X85.8Y-64.4
X86.2Y-72.2
X86.25Y-57.65
X86.745Y-54.794
X86.8Y-71.2
X86.8Y-74.4
X87.0Y-57.65
X87.0Y-62.966
X87.5Y-64.716
X88.0Y-60.966
X88.205Y-54.8
X88.278Y-68.664
X88.305Y-67.8
X88.5Y-69.966
X88.6Y-75.6
X88.905Y-54.7
X89.247Y-61.799
X89.25Y-62.991
X89.25Y-63.992
X90.2Y-72.4
X90.2Y-73.2
X90.567Y-53.738
X90.6Y-71.4
X90.6Y-74.4
X91.105Y-66.1
X91.45Y-62.466
X91.505Y-54.2
X91.605Y-53.4
X91.75Y-65.716
X91.765Y-72.925
X91.82Y-68.22
X92.005Y-66.7
X92.108Y-63.661
X92.464Y-65.824
X92.6Y-75.8
X92.705Y-68.3
X93.105Y-66.5
X93.259Y-70.425
X93.354Y-68.437
X93.405Y-67.8
X93.443Y-69.235
X94.505Y-61.2
X94.939Y-69.259
X95.605Y-61.7
X95.69Y-62.959
X96.705Y-61.2
X96.705Y-72.4
X96.845Y-75.465
X97.2Y-69.8
X97.453Y-64.651
X97.8Y-61.2
X97.8Y-70.6
X97.855Y-63.8
X97.872Y-63.166
X98.0Y-75.6
X98.2Y-64.576
X99.385Y-75.465
X100.529Y-61.776
X100.605Y-70.8
X100.927Y-62.5
X101.005Y-64.2
X101.925Y-75.465
X102.75Y-71.75
X102.805Y-70.5
X103.0Y-60.2
X103.982Y-66.033
X104.156Y-65.286
X104.465Y-75.465
X105.6Y-63.2
X105.761Y-53.966
X105.819Y-71.952
X106.061Y-53.024
X106.611Y-52.327
X106.805Y-72.1
X107.005Y-75.465
X107.319Y-73.818
X107.438Y-52.613
X107.753Y-63.477
X108.305Y-73.966
X108.548Y-65.104
X108.604Y-64.401
X108.75Y-65.966
X109.105Y-52.3
X109.326Y-66.69
X109.545Y-47.525
X109.6Y-62.4
X109.605Y-57.1
X110.8Y-63.8
X110.905Y-56.6
X111.6Y-64.2
X112.085Y-47.525
X112.085Y-75.465
X112.2Y-61.4
X112.4Y-64.4
X112.5Y-63.115
X112.5Y-65.865
X112.893Y-53.723
X113.0Y-60.4
X114.614Y-71.924
X114.625Y-47.525
X114.625Y-52.605
X114.625Y-75.465
X114.8Y-70.4
X115.0Y-50.4
X115.093Y-55.023
X115.75Y-70.966
X116.2Y-75.8
X116.622Y-58.835
X117.165Y-47.525
X117.165Y-52.605
X117.165Y-65.305
X117.593Y-55.023
X118.805Y-57.944
X119.705Y-47.525
X119.705Y-52.605
X119.705Y-60.225
X120.298Y-54.525
X120.569Y-56.908
X121.25Y-53.5
X121.4Y-52.6
X122.0Y-50.2
X122.0Y-51.2
X122.2Y-52.6
X122.2Y-53.4
X122.245Y-47.525
X122.25Y-54.25
X122.25Y-72.0
X122.291Y-56.617
X122.306Y-55.255
X122.8Y-49.4
X122.8Y-76.0
X123.6Y-49.4
X124.025Y-57.5
X124.6Y-54.4
X124.6Y-55.4
X124.6Y-63.1
X125.2Y-73.733
X125.5Y-67.25
X126.0Y-48.8
X126.0Y-69.733
X126.25Y-62.95
X126.4Y-49.4
X126.769Y-69.513
X126.8Y-48.8
X126.905Y-55.766
X126.975Y-67.775
X127.2Y-74.133
X127.515Y-69.183
X127.75Y-62.95
X127.8Y-51.0
X128.105Y-48.818
X128.53Y-62.77
X128.75Y-48.25
X128.75Y-63.5
X128.751Y-72.0
X128.8Y-76.0
X128.874Y-55.491
X129.541Y-63.599
X129.709Y-55.428
X129.725Y-70.283
X129.821Y-51.274
X130.0Y-62.9
X130.0Y-68.8
X130.25Y-67.5
X130.807Y-72.063
X131.0Y-55.0
X131.49Y-56.475
X131.611Y-47.416
X131.8Y-58.8
X132.0Y-55.25
X132.5Y-48.5
X132.9Y-68.433
X133.0Y-49.75
X133.0Y-56.25
X133.0Y-76.0
X133.2Y-73.533
X133.25Y-63.5
X133.6Y-69.2
X133.75Y-58.75
X133.8Y-74.2
X134.25Y-50.75
X134.25Y-64.5
X134.5Y-56.25
X134.844Y-58.002
X134.945Y-47.525
X135.5Y-55.25
X135.899Y-50.399
X136.0Y-73.8
X136.2Y-69.333
X136.8Y-74.133
X136.8Y-76.0
X137.25Y-51.75
X137.328Y-58.002
X137.485Y-47.525
X137.6Y-68.6
X138.2Y-74.133
X138.4Y-54.6
X138.4Y-73.333
X138.6Y-53.2
X138.75Y-51.75
X139.0Y-68.6
X139.0Y-69.333
X139.8Y-54.2
X140.0Y-67.0
X140.025Y-47.525
X140.2Y-73.6
X140.2Y-74.6
X140.488Y-49.85
X140.8Y-71.4
X141.8Y-76.0
X142.2Y-69.2
X142.4Y-62.0
X142.8Y-71.0
X142.8Y-73.0
X142.8Y-74.6
X144.8Y-59.4
X145.0Y-62.2
X145.888Y-48.025
X145.888Y-48.9
X146.488Y-50.5
X147.4Y-75.8
X147.645Y-56.4
X147.645Y-57.685
X147.645Y-60.225
X147.645Y-62.765
X147.645Y-65.305
X150.185Y-56.4
X150.185Y-57.685
X150.185Y-60.225
X150.185Y-62.765
X150.185Y-65.305
X150.185Y-67.845
X150.185Y-70.385
X150.185Y-72.925
X150.185Y-75.465
X150.364Y-48.319
X150.488Y-49.7
T2
X99.62Y-66.5
X99.62Y-67.5
X99.62Y-68.5
X100.62Y-66.5
X100.62Y-67.5
X100.62Y-68.5
X101.62Y-66.5
X101.62Y-67.5
X101.62Y-68.5
T3
X68.9Y-49.9
X69.463Y-53.282
X70.0Y-52.716
X88.605Y-53.175
X89.331Y-52.625
X95.005Y-71.2
X95.12Y-66.8
X95.787Y-67.425
X95.905Y-71.2
X95.955Y-66.266
X96.555Y-66.866
X104.42Y-67.5
X105.261Y-67.489
X106.078Y-69.7
X121.916Y-60.045
X123.164Y-59.296
X124.64Y-59.253
X130.8Y-58.05
X130.8Y-59.2
T4
X144.52Y-70.07
X144.52Y-73.67
X148.12Y-70.07
X148.12Y-73.67
T5
X83.2Y-49.2
X85.74Y-49.2
X88.28Y-49.2
X90.82Y-49.2
X93.36Y-49.2
X95.9Y-49.2
X98.44Y-49.2
X100.98Y-49.2
X103.52Y-49.2
X106.06Y-49.2
X108.6Y-49.2
X111.14Y-49.2
X113.68Y-49.2
T6
X141.68Y-58.005
X141.68Y-60.155
X143.63Y-57.38
X143.63Y-60.78
T7
X64.745Y-62.0
X137.645Y-62.0
T8
X143.13Y-52.83
X143.13Y-65.33
M30
