  0
SECTION
  2
HEADER
  9
$ACADVER
  1
AC1009
  0
ENDSEC
  0
SECTION
  2
ENTITIES
  0
POLYLINE
  8
FR4_MACRO
 66
1
 39
0
 10
0.000000
 20
0.000000
 30
0.000000
 70
1
  0
VERTEX
  8
FR4_MACRO
 39
0
 10
0.000000
 20
-93.750000
 30
0.000000
 70
0
 42
0
  0
VERTEX
  8
FR4_MACRO
 39
0
 10
25.000000
 20
-93.750000
 30
0.000000
 70
0
 42
0
  0
VERTEX
  8
FR4_MACRO
 39
0
 10
25.000000
 20
26.250000
 30
0.000000
 70
0
 42
0
  0
VERTEX
  8
FR4_MACRO
 39
0
 10
0.000000
 20
26.250000
 30
0.000000
 70
0
 42
0
  0
SEQEND
  8
FR4_MACRO
  0
POLYLINE
  8
MN_COPPERNN
 66
1
 39
0
 10
0.000000
 20
0.000000
 30
0.000000
 70
1
  0
VERTEX
  8
MN_COPPERNN
 39
0
 10
1.500000
 20
0.250000
 30
0.000000
 70
0
 42
0
  0
VERTEX
  8
MN_COPPERNN
 39
0
 10
2.500000
 20
0.250000
 30
0.000000
 70
0
 42
0
  0
VERTEX
  8
MN_COPPERNN
 39
0
 10
2.500000
 20
1.750000
 30
0.000000
 70
0
 42
0
  0
VERTEX
  8
MN_COPPERNN
 39
0
 10
0.000000
 20
1.750000
 30
0.000000
 70
0
 42
0
  0
VERTEX
  8
MN_COPPERNN
 39
0
 10
0.000000
 20
0.750000
 30
0.000000
 70
0
 42
0
  0
VERTEX
  8
MN_COPPERNN
 39
0
 10
1.500000
 20
0.750000
 30
0.000000
 70
0
 42
0
  0
SEQEND
  8
MN_COPPERNN
  0
POLYLINE
  8
MN_COPPERNN
 66
1
 39
0
 10
0.000000
 20
0.000000
 30
0.000000
 70
1
  0
VERTEX
  8
MN_COPPERNN
 39
0
 10
1.000000
 20
13.250000
 30
0.000000
 70
0
 42
0
  0
VERTEX
  8
MN_COPPERNN
 39
0
 10
1.000000
 20
14.250000
 30
0.000000
 70
0
 42
0
  0
VERTEX
  8
MN_COPPERNN
 39
0
 10
0.000000
 20
14.250000
 30
0.000000
 70
0
 42
0
  0
VERTEX
  8
MN_COPPERNN
 39
0
 10
0.000000
 20
13.250000
 30
0.000000
 70
0
 42
0
  0
SEQEND
  8
MN_COPPERNN
  0
POLYLINE
  8
MN_COPPERNN
 66
1
 39
0
 10
0.000000
 20
0.000000
 30
0.000000
 70
1
  0
VERTEX
  8
MN_COPPERNN
 39
0
 10
0.000000
 20
2.000000
 30
0.000000
 70
0
 42
0
  0
VERTEX
  8
MN_COPPERNN
 39
0
 10
1.000000
 20
2.000000
 30
0.000000
 70
0
 42
0
  0
VERTEX
  8
MN_COPPERNN
 39
0
 10
1.000000
 20
4.250000
 30
0.000000
 70
0
 42
0
  0
VERTEX
  8
MN_COPPERNN
 39
0
 10
0.000000
 20
4.250000
 30
0.000000
 70
0
 42
0
  0
SEQEND
  8
MN_COPPERNN
  0
POLYLINE
  8
MN_COPPERNN
 66
1
 39
0
 10
0.000000
 20
0.000000
 30
0.000000
 70
1
  0
VERTEX
  8
MN_COPPERNN
 39
0
 10
0.000000
 20
4.500000
 30
0.000000
 70
0
 42
0
  0
VERTEX
  8
MN_COPPERNN
 39
0
 10
1.000000
 20
4.500000
 30
0.000000
 70
0
 42
0
  0
VERTEX
  8
MN_COPPERNN
 39
0
 10
1.000000
 20
9.250000
 30
0.000000
 70
0
 42
0
  0
VERTEX
  8
MN_COPPERNN
 39
0
 10
0.000000
 20
9.250000
 30
0.000000
 70
0
 42
0
  0
SEQEND
  8
MN_COPPERNN
  0
POLYLINE
  8
MN_COPPERNN
 66
1
 39
0
 10
0.000000
 20
0.000000
 30
0.000000
 70
1
  0
VERTEX
  8
MN_COPPERNN
 39
0
 10
0.000000
 20
9.500000
 30
0.000000
 70
0
 42
0
  0
VERTEX
  8
MN_COPPERNN
 39
0
 10
1.000000
 20
9.500000
 30
0.000000
 70
0
 42
0
  0
VERTEX
  8
MN_COPPERNN
 39
0
 10
1.000000
 20
13.000000
 30
0.000000
 70
0
 42
0
  0
VERTEX
  8
MN_COPPERNN
 39
0
 10
0.000000
 20
13.000000
 30
0.000000
 70
0
 42
0
  0
SEQEND
  8
MN_COPPERNN
  0
POLYLINE
  8
LQW15AN_W05_WPADS_S_TIN
 66
1
 39
0
 10
0.000000
 20
0.000000
 30
0.000000
 70
1
  0
VERTEX
  8
LQW15AN_W05_WPADS_S_TIN
 39
0
 10
1.000000
 20
12.000000
 30
0.000000
 70
0
 42
0
  0
VERTEX
  8
LQW15AN_W05_WPADS_S_TIN
 39
0
 10
1.000000
 20
13.000000
 30
0.000000
 70
0
 42
0
  0
VERTEX
  8
LQW15AN_W05_WPADS_S_TIN
 39
0
 10
0.000000
 20
13.000000
 30
0.000000
 70
0
 42
0
  0
VERTEX
  8
LQW15AN_W05_WPADS_S_TIN
 39
0
 10
0.000000
 20
12.000000
 30
0.000000
 70
0
 42
0
  0
SEQEND
  8
LQW15AN_W05_WPADS_S_TIN
  0
POLYLINE
  8
LQW15AN_W05_WPADS_S_TIN
 66
1
 39
0
 10
0.000000
 20
0.000000
 30
0.000000
 70
1
  0
VERTEX
  8
LQW15AN_W05_WPADS_S_TIN
 39
0
 10
1.000000
 20
13.250000
 30
0.000000
 70
0
 42
0
  0
VERTEX
  8
LQW15AN_W05_WPADS_S_TIN
 39
0
 10
1.000000
 20
14.250000
 30
0.000000
 70
0
 42
0
  0
VERTEX
  8
LQW15AN_W05_WPADS_S_TIN
 39
0
 10
0.000000
 20
14.250000
 30
0.000000
 70
0
 42
0
  0
VERTEX
  8
LQW15AN_W05_WPADS_S_TIN
 39
0
 10
0.000000
 20
13.250000
 30
0.000000
 70
0
 42
0
  0
SEQEND
  8
LQW15AN_W05_WPADS_S_TIN
  0
POLYLINE
  8
LQW15AN_W05_WPADS_P_TIN
 66
1
 39
0
 10
0.000000
 20
0.000000
 30
0.000000
 70
1
  0
VERTEX
  8
LQW15AN_W05_WPADS_P_TIN
 39
0
 10
2.250000
 20
10.750000
 30
0.000000
 70
0
 42
0
  0
VERTEX
  8
LQW15AN_W05_WPADS_P_TIN
 39
0
 10
2.250000
 20
11.750000
 30
0.000000
 70
0
 42
0
  0
VERTEX
  8
LQW15AN_W05_WPADS_P_TIN
 39
0
 10
1.250000
 20
11.750000
 30
0.000000
 70
0
 42
0
  0
VERTEX
  8
LQW15AN_W05_WPADS_P_TIN
 39
0
 10
1.250000
 20
10.750000
 30
0.000000
 70
0
 42
0
  0
SEQEND
  8
LQW15AN_W05_WPADS_P_TIN
  0
POLYLINE
  8
LQW15AN_W05_WPADS_P_TIN
 66
1
 39
0
 10
0.000000
 20
0.000000
 30
0.000000
 70
1
  0
VERTEX
  8
LQW15AN_W05_WPADS_P_TIN
 39
0
 10
0.000000
 20
11.750000
 30
0.000000
 70
0
 42
0
  0
VERTEX
  8
LQW15AN_W05_WPADS_P_TIN
 39
0
 10
-0.000000
 20
10.750000
 30
0.000000
 70
0
 42
0
  0
VERTEX
  8
LQW15AN_W05_WPADS_P_TIN
 39
0
 10
1.000000
 20
10.750000
 30
0.000000
 70
0
 42
0
  0
VERTEX
  8
LQW15AN_W05_WPADS_P_TIN
 39
0
 10
1.000000
 20
11.750000
 30
0.000000
 70
0
 42
0
  0
SEQEND
  8
LQW15AN_W05_WPADS_P_TIN
  0
POLYLINE
  8
LQW15AN_W05_WPADS_S_1_TIN
 66
1
 39
0
 10
0.000000
 20
0.000000
 30
0.000000
 70
1
  0
VERTEX
  8
LQW15AN_W05_WPADS_S_1_TIN
 39
0
 10
1.000000
 20
8.250000
 30
0.000000
 70
0
 42
0
  0
VERTEX
  8
LQW15AN_W05_WPADS_S_1_TIN
 39
0
 10
1.000000
 20
9.250000
 30
0.000000
 70
0
 42
0
  0
VERTEX
  8
LQW15AN_W05_WPADS_S_1_TIN
 39
0
 10
0.000000
 20
9.250000
 30
0.000000
 70
0
 42
0
  0
VERTEX
  8
LQW15AN_W05_WPADS_S_1_TIN
 39
0
 10
0.000000
 20
8.250000
 30
0.000000
 70
0
 42
0
  0
SEQEND
  8
LQW15AN_W05_WPADS_S_1_TIN
  0
POLYLINE
  8
LQW15AN_W05_WPADS_S_1_TIN
 66
1
 39
0
 10
0.000000
 20
0.000000
 30
0.000000
 70
1
  0
VERTEX
  8
LQW15AN_W05_WPADS_S_1_TIN
 39
0
 10
1.000000
 20
9.500000
 30
0.000000
 70
0
 42
0
  0
VERTEX
  8
LQW15AN_W05_WPADS_S_1_TIN
 39
0
 10
1.000000
 20
10.500000
 30
0.000000
 70
0
 42
0
  0
VERTEX
  8
LQW15AN_W05_WPADS_S_1_TIN
 39
0
 10
0.000000
 20
10.500000
 30
0.000000
 70
0
 42
0
  0
VERTEX
  8
LQW15AN_W05_WPADS_S_1_TIN
 39
0
 10
0.000000
 20
9.500000
 30
0.000000
 70
0
 42
0
  0
SEQEND
  8
LQW15AN_W05_WPADS_S_1_TIN
  0
POLYLINE
  8
LQW15AN_W05_WPADS_P_1_TIN
 66
1
 39
0
 10
0.000000
 20
0.000000
 30
0.000000
 70
1
  0
VERTEX
  8
LQW15AN_W05_WPADS_P_1_TIN
 39
0
 10
2.250000
 20
7.000000
 30
0.000000
 70
0
 42
0
  0
VERTEX
  8
LQW15AN_W05_WPADS_P_1_TIN
 39
0
 10
2.250000
 20
8.000000
 30
0.000000
 70
0
 42
0
  0
VERTEX
  8
LQW15AN_W05_WPADS_P_1_TIN
 39
0
 10
1.250000
 20
8.000000
 30
0.000000
 70
0
 42
0
  0
VERTEX
  8
LQW15AN_W05_WPADS_P_1_TIN
 39
0
 10
1.250000
 20
7.000000
 30
0.000000
 70
0
 42
0
  0
SEQEND
  8
LQW15AN_W05_WPADS_P_1_TIN
  0
POLYLINE
  8
LQW15AN_W05_WPADS_P_1_TIN
 66
1
 39
0
 10
0.000000
 20
0.000000
 30
0.000000
 70
1
  0
VERTEX
  8
LQW15AN_W05_WPADS_P_1_TIN
 39
0
 10
0.000000
 20
8.000000
 30
0.000000
 70
0
 42
0
  0
VERTEX
  8
LQW15AN_W05_WPADS_P_1_TIN
 39
0
 10
-0.000000
 20
7.000000
 30
0.000000
 70
0
 42
0
  0
VERTEX
  8
LQW15AN_W05_WPADS_P_1_TIN
 39
0
 10
1.000000
 20
7.000000
 30
0.000000
 70
0
 42
0
  0
VERTEX
  8
LQW15AN_W05_WPADS_P_1_TIN
 39
0
 10
1.000000
 20
8.000000
 30
0.000000
 70
0
 42
0
  0
SEQEND
  8
LQW15AN_W05_WPADS_P_1_TIN
  0
POLYLINE
  8
LQW15AN_W05_WPADS_P_2_TIN
 66
1
 39
0
 10
0.000000
 20
0.000000
 30
0.000000
 70
1
  0
VERTEX
  8
LQW15AN_W05_WPADS_P_2_TIN
 39
0
 10
2.250000
 20
5.750000
 30
0.000000
 70
0
 42
0
  0
VERTEX
  8
LQW15AN_W05_WPADS_P_2_TIN
 39
0
 10
2.250000
 20
6.750000
 30
0.000000
 70
0
 42
0
  0
VERTEX
  8
LQW15AN_W05_WPADS_P_2_TIN
 39
0
 10
1.250000
 20
6.750000
 30
0.000000
 70
0
 42
0
  0
VERTEX
  8
LQW15AN_W05_WPADS_P_2_TIN
 39
0
 10
1.250000
 20
5.750000
 30
0.000000
 70
0
 42
0
  0
SEQEND
  8
LQW15AN_W05_WPADS_P_2_TIN
  0
POLYLINE
  8
LQW15AN_W05_WPADS_P_2_TIN
 66
1
 39
0
 10
0.000000
 20
0.000000
 30
0.000000
 70
1
  0
VERTEX
  8
LQW15AN_W05_WPADS_P_2_TIN
 39
0
 10
0.000000
 20
6.750000
 30
0.000000
 70
0
 42
0
  0
VERTEX
  8
LQW15AN_W05_WPADS_P_2_TIN
 39
0
 10
-0.000000
 20
5.750000
 30
0.000000
 70
0
 42
0
  0
VERTEX
  8
LQW15AN_W05_WPADS_P_2_TIN
 39
0
 10
1.000000
 20
5.750000
 30
0.000000
 70
0
 42
0
  0
VERTEX
  8
LQW15AN_W05_WPADS_P_2_TIN
 39
0
 10
1.000000
 20
6.750000
 30
0.000000
 70
0
 42
0
  0
SEQEND
  8
LQW15AN_W05_WPADS_P_2_TIN
  0
POLYLINE
  8
LQW15AN_W05_WPADS_S_2_TIN
 66
1
 39
0
 10
0.000000
 20
0.000000
 30
0.000000
 70
1
  0
VERTEX
  8
LQW15AN_W05_WPADS_S_2_TIN
 39
0
 10
1.000000
 20
3.250000
 30
0.000000
 70
0
 42
0
  0
VERTEX
  8
LQW15AN_W05_WPADS_S_2_TIN
 39
0
 10
1.000000
 20
4.250000
 30
0.000000
 70
0
 42
0
  0
VERTEX
  8
LQW15AN_W05_WPADS_S_2_TIN
 39
0
 10
0.000000
 20
4.250000
 30
0.000000
 70
0
 42
0
  0
VERTEX
  8
LQW15AN_W05_WPADS_S_2_TIN
 39
0
 10
0.000000
 20
3.250000
 30
0.000000
 70
0
 42
0
  0
SEQEND
  8
LQW15AN_W05_WPADS_S_2_TIN
  0
POLYLINE
  8
LQW15AN_W05_WPADS_S_2_TIN
 66
1
 39
0
 10
0.000000
 20
0.000000
 30
0.000000
 70
1
  0
VERTEX
  8
LQW15AN_W05_WPADS_S_2_TIN
 39
0
 10
1.000000
 20
4.500000
 30
0.000000
 70
0
 42
0
  0
VERTEX
  8
LQW15AN_W05_WPADS_S_2_TIN
 39
0
 10
1.000000
 20
5.500000
 30
0.000000
 70
0
 42
0
  0
VERTEX
  8
LQW15AN_W05_WPADS_S_2_TIN
 39
0
 10
0.000000
 20
5.500000
 30
0.000000
 70
0
 42
0
  0
VERTEX
  8
LQW15AN_W05_WPADS_S_2_TIN
 39
0
 10
0.000000
 20
4.500000
 30
0.000000
 70
0
 42
0
  0
SEQEND
  8
LQW15AN_W05_WPADS_S_2_TIN
  0
POLYLINE
  8
LQW15AN_W05_WPADS_S_3_TIN
 66
1
 39
0
 10
0.000000
 20
0.000000
 30
0.000000
 70
1
  0
VERTEX
  8
LQW15AN_W05_WPADS_S_3_TIN
 39
0
 10
1.000000
 20
0.750000
 30
0.000000
 70
0
 42
0
  0
VERTEX
  8
LQW15AN_W05_WPADS_S_3_TIN
 39
0
 10
1.000000
 20
1.750000
 30
0.000000
 70
0
 42
0
  0
VERTEX
  8
LQW15AN_W05_WPADS_S_3_TIN
 39
0
 10
0.000000
 20
1.750000
 30
0.000000
 70
0
 42
0
  0
VERTEX
  8
LQW15AN_W05_WPADS_S_3_TIN
 39
0
 10
0.000000
 20
0.750000
 30
0.000000
 70
0
 42
0
  0
SEQEND
  8
LQW15AN_W05_WPADS_S_3_TIN
  0
POLYLINE
  8
LQW15AN_W05_WPADS_S_3_TIN
 66
1
 39
0
 10
0.000000
 20
0.000000
 30
0.000000
 70
1
  0
VERTEX
  8
LQW15AN_W05_WPADS_S_3_TIN
 39
0
 10
1.000000
 20
2.000000
 30
0.000000
 70
0
 42
0
  0
VERTEX
  8
LQW15AN_W05_WPADS_S_3_TIN
 39
0
 10
1.000000
 20
3.000000
 30
0.000000
 70
0
 42
0
  0
VERTEX
  8
LQW15AN_W05_WPADS_S_3_TIN
 39
0
 10
0.000000
 20
3.000000
 30
0.000000
 70
0
 42
0
  0
VERTEX
  8
LQW15AN_W05_WPADS_S_3_TIN
 39
0
 10
0.000000
 20
2.000000
 30
0.000000
 70
0
 42
0
  0
SEQEND
  8
LQW15AN_W05_WPADS_S_3_TIN
  0
POLYLINE
  8
MN_COPPERNN
 66
1
 39
0
 10
0.000000
 20
0.000000
 30
0.000000
 70
1
  0
VERTEX
  8
MN_COPPERNN
 39
0
 10
2.950000
 20
2.000000
 30
0.000000
 70
0
 42
0
  0
VERTEX
  8
MN_COPPERNN
 39
0
 10
2.950000
 20
14.250000
 30
0.000000
 70
0
 42
0
  0
VERTEX
  8
MN_COPPERNN
 39
0
 10
1.250000
 20
14.250000
 30
0.000000
 70
0
 42
0
  0
VERTEX
  8
MN_COPPERNN
 39
0
 10
1.250000
 20
2.000000
 30
0.000000
 70
0
 42
0
  0
SEQEND
  8
MN_COPPERNN
  0
POLYLINE
  8
CU_MACRO
 66
1
 39
0
 10
0.000000
 20
0.000000
 30
0.000000
 70
1
  0
VERTEX
  8
CU_MACRO
 39
0
 10
0.000000
 20
14.250000
 30
0.000000
 70
0
 42
0
  0
VERTEX
  8
CU_MACRO
 39
0
 10
1.000000
 20
14.250000
 30
0.000000
 70
0
 42
0
  0
VERTEX
  8
CU_MACRO
 39
0
 10
1.000000
 20
15.250000
 30
0.000000
 70
0
 42
0
  0
VERTEX
  8
CU_MACRO
 39
0
 10
0.000000
 20
15.250000
 30
0.000000
 70
0
 42
0
  0
SEQEND
  8
CU_MACRO
  0
POLYLINE
  8
CU_MACRO
 66
1
 39
0
 10
0.000000
 20
0.000000
 30
0.000000
 70
1
  0
VERTEX
  8
CU_MACRO
 39
0
 10
0.000000
 20
-93.750000
 30
0.000000
 70
0
 42
0
  0
VERTEX
  8
CU_MACRO
 39
0
 10
25.000000
 20
-93.750000
 30
0.000000
 70
0
 42
0
  0
VERTEX
  8
CU_MACRO
 39
0
 10
25.000000
 20
14.250000
 30
0.000000
 70
0
 42
0
  0
VERTEX
  8
CU_MACRO
 39
0
 10
2.950000
 20
14.250000
 30
0.000000
 70
0
 42
0
  0
VERTEX
  8
CU_MACRO
 39
0
 10
2.950000
 20
0.000000
 30
0.000000
 70
0
 42
0
  0
VERTEX
  8
CU_MACRO
 39
0
 10
0.000000
 20
0.000000
 30
0.000000
 70
0
 42
0
  0
SEQEND
  8
CU_MACRO
  0
POLYLINE
  8
NN02-220_TOPROTECT_HCU_WSOLDER_WCUPADS_V1_LEAD
 66
1
 39
0
 10
0.000000
 20
0.000000
 30
0.000000
 70
1
  0
VERTEX
  8
NN02-220_TOPROTECT_HCU_WSOLDER_WCUPADS_V1_LEAD
 39
0
 10
24.000000
 20
19.250000
 30
0.000000
 70
0
 42
0
  0
VERTEX
  8
NN02-220_TOPROTECT_HCU_WSOLDER_WCUPADS_V1_LEAD
 39
0
 10
21.000000
 20
19.250000
 30
0.000000
 70
0
 42
0
  0
VERTEX
  8
NN02-220_TOPROTECT_HCU_WSOLDER_WCUPADS_V1_LEAD
 39
0
 10
21.000000
 20
16.250000
 30
0.000000
 70
0
 42
0
  0
VERTEX
  8
NN02-220_TOPROTECT_HCU_WSOLDER_WCUPADS_V1_LEAD
 39
0
 10
24.000000
 20
16.250000
 30
0.000000
 70
0
 42
0
  0
SEQEND
  8
NN02-220_TOPROTECT_HCU_WSOLDER_WCUPADS_V1_LEAD
  0
POLYLINE
  8
NN02-220_TOPROTECT_HCU_WSOLDER_WCUPADS_V1_LEAD
 66
1
 39
0
 10
0.000000
 20
0.000000
 30
0.000000
 70
1
  0
VERTEX
  8
NN02-220_TOPROTECT_HCU_WSOLDER_WCUPADS_V1_LEAD
 39
0
 10
24.000000
 20
26.250000
 30
0.000000
 70
0
 42
0
  0
VERTEX
  8
NN02-220_TOPROTECT_HCU_WSOLDER_WCUPADS_V1_LEAD
 39
0
 10
21.000000
 20
26.250000
 30
0.000000
 70
0
 42
0
  0
VERTEX
  8
NN02-220_TOPROTECT_HCU_WSOLDER_WCUPADS_V1_LEAD
 39
0
 10
21.000000
 20
23.250000
 30
0.000000
 70
0
 42
0
  0
VERTEX
  8
NN02-220_TOPROTECT_HCU_WSOLDER_WCUPADS_V1_LEAD
 39
0
 10
24.000000
 20
23.250000
 30
0.000000
 70
0
 42
0
  0
SEQEND
  8
NN02-220_TOPROTECT_HCU_WSOLDER_WCUPADS_V1_LEAD
  0
POLYLINE
  8
NN02-220_TOPROTECT_HCU_WSOLDER_WCUPADS_V1_LEAD
 66
1
 39
0
 10
0.000000
 20
0.000000
 30
0.000000
 70
1
  0
VERTEX
  8
NN02-220_TOPROTECT_HCU_WSOLDER_WCUPADS_V1_LEAD
 39
0
 10
3.000000
 20
19.250000
 30
0.000000
 70
0
 42
0
  0
VERTEX
  8
NN02-220_TOPROTECT_HCU_WSOLDER_WCUPADS_V1_LEAD
 39
0
 10
-0.000000
 20
19.250000
 30
0.000000
 70
0
 42
0
  0
VERTEX
  8
NN02-220_TOPROTECT_HCU_WSOLDER_WCUPADS_V1_LEAD
 39
0
 10
0.000000
 20
15.250000
 30
0.000000
 70
0
 42
0
  0
VERTEX
  8
NN02-220_TOPROTECT_HCU_WSOLDER_WCUPADS_V1_LEAD
 39
0
 10
1.500000
 20
15.250000
 30
0.000000
 70
0
 42
0
  0
VERTEX
  8
NN02-220_TOPROTECT_HCU_WSOLDER_WCUPADS_V1_LEAD
 39
0
 10
1.500000
 20
16.250000
 30
0.000000
 70
0
 42
0
  0
VERTEX
  8
NN02-220_TOPROTECT_HCU_WSOLDER_WCUPADS_V1_LEAD
 39
0
 10
3.000000
 20
16.250000
 30
0.000000
 70
0
 42
0
  0
SEQEND
  8
NN02-220_TOPROTECT_HCU_WSOLDER_WCUPADS_V1_LEAD
  0
POLYLINE
  8
NN02-220_TOPROTECT_HCU_WSOLDER_WCUPADS_V1_LEAD
 66
1
 39
0
 10
0.000000
 20
0.000000
 30
0.000000
 70
1
  0
VERTEX
  8
NN02-220_TOPROTECT_HCU_WSOLDER_WCUPADS_V1_LEAD
 39
0
 10
3.000000
 20
26.250000
 30
0.000000
 70
0
 42
0
  0
VERTEX
  8
NN02-220_TOPROTECT_HCU_WSOLDER_WCUPADS_V1_LEAD
 39
0
 10
-0.000000
 20
26.250000
 30
0.000000
 70
0
 42
0
  0
VERTEX
  8
NN02-220_TOPROTECT_HCU_WSOLDER_WCUPADS_V1_LEAD
 39
0
 10
-0.000000
 20
23.250000
 30
0.000000
 70
0
 42
0
  0
VERTEX
  8
NN02-220_TOPROTECT_HCU_WSOLDER_WCUPADS_V1_LEAD
 39
0
 10
3.000000
 20
23.250000
 30
0.000000
 70
0
 42
0
  0
SEQEND
  8
NN02-220_TOPROTECT_HCU_WSOLDER_WCUPADS_V1_LEAD
  0
POLYLINE
  8
NN02-220_TOPROTECT_HCU_WSOLDER_WCUPADS_V1_COPPER_MSS
 66
1
 39
0
 10
0.000000
 20
0.000000
 30
0.000000
 70
1
  0
VERTEX
  8
NN02-220_TOPROTECT_HCU_WSOLDER_WCUPADS_V1_COPPER_MSS
 39
0
 10
21.000000
 20
23.250000
 30
0.000000
 70
0
 42
0
  0
VERTEX
  8
NN02-220_TOPROTECT_HCU_WSOLDER_WCUPADS_V1_COPPER_MSS
 39
0
 10
24.000000
 20
23.250000
 30
0.000000
 70
0
 42
0
  0
VERTEX
  8
NN02-220_TOPROTECT_HCU_WSOLDER_WCUPADS_V1_COPPER_MSS
 39
0
 10
24.000000
 20
26.250000
 30
0.000000
 70
0
 42
0
  0
VERTEX
  8
NN02-220_TOPROTECT_HCU_WSOLDER_WCUPADS_V1_COPPER_MSS
 39
0
 10
21.000000
 20
26.250000
 30
0.000000
 70
0
 42
0
  0
SEQEND
  8
NN02-220_TOPROTECT_HCU_WSOLDER_WCUPADS_V1_COPPER_MSS
  0
POLYLINE
  8
NN02-220_TOPROTECT_HCU_WSOLDER_WCUPADS_V1_COPPER_MSS
 66
1
 39
0
 10
0.000000
 20
0.000000
 30
0.000000
 70
1
  0
VERTEX
  8
NN02-220_TOPROTECT_HCU_WSOLDER_WCUPADS_V1_COPPER_MSS
 39
0
 10
1.500000
 20
15.250000
 30
0.000000
 70
0
 42
0
  0
VERTEX
  8
NN02-220_TOPROTECT_HCU_WSOLDER_WCUPADS_V1_COPPER_MSS
 39
0
 10
1.500000
 20
16.250000
 30
0.000000
 70
0
 42
0
  0
VERTEX
  8
NN02-220_TOPROTECT_HCU_WSOLDER_WCUPADS_V1_COPPER_MSS
 39
0
 10
3.000000
 20
16.250000
 30
0.000000
 70
0
 42
0
  0
VERTEX
  8
NN02-220_TOPROTECT_HCU_WSOLDER_WCUPADS_V1_COPPER_MSS
 39
0
 10
3.000000
 20
19.250000
 30
0.000000
 70
0
 42
0
  0
VERTEX
  8
NN02-220_TOPROTECT_HCU_WSOLDER_WCUPADS_V1_COPPER_MSS
 39
0
 10
-0.000000
 20
19.250000
 30
0.000000
 70
0
 42
0
  0
VERTEX
  8
NN02-220_TOPROTECT_HCU_WSOLDER_WCUPADS_V1_COPPER_MSS
 39
0
 10
-0.000000
 20
15.250000
 30
0.000000
 70
0
 42
0
  0
SEQEND
  8
NN02-220_TOPROTECT_HCU_WSOLDER_WCUPADS_V1_COPPER_MSS
  0
POLYLINE
  8
NN02-220_TOPROTECT_HCU_WSOLDER_WCUPADS_V1_COPPER_MSS
 66
1
 39
0
 10
0.000000
 20
0.000000
 30
0.000000
 70
1
  0
VERTEX
  8
NN02-220_TOPROTECT_HCU_WSOLDER_WCUPADS_V1_COPPER_MSS
 39
0
 10
21.000000
 20
16.250000
 30
0.000000
 70
0
 42
0
  0
VERTEX
  8
NN02-220_TOPROTECT_HCU_WSOLDER_WCUPADS_V1_COPPER_MSS
 39
0
 10
24.000000
 20
16.250000
 30
0.000000
 70
0
 42
0
  0
VERTEX
  8
NN02-220_TOPROTECT_HCU_WSOLDER_WCUPADS_V1_COPPER_MSS
 39
0
 10
24.000000
 20
19.250000
 30
0.000000
 70
0
 42
0
  0
VERTEX
  8
NN02-220_TOPROTECT_HCU_WSOLDER_WCUPADS_V1_COPPER_MSS
 39
0
 10
21.000000
 20
19.250000
 30
0.000000
 70
0
 42
0
  0
SEQEND
  8
NN02-220_TOPROTECT_HCU_WSOLDER_WCUPADS_V1_COPPER_MSS
  0
POLYLINE
  8
NN02-220_TOPROTECT_HCU_WSOLDER_WCUPADS_V1_COPPER_MSS
 66
1
 39
0
 10
0.000000
 20
0.000000
 30
0.000000
 70
1
  0
VERTEX
  8
NN02-220_TOPROTECT_HCU_WSOLDER_WCUPADS_V1_COPPER_MSS
 39
0
 10
-0.000000
 20
23.250000
 30
0.000000
 70
0
 42
0
  0
VERTEX
  8
NN02-220_TOPROTECT_HCU_WSOLDER_WCUPADS_V1_COPPER_MSS
 39
0
 10
3.000000
 20
23.250000
 30
0.000000
 70
0
 42
0
  0
VERTEX
  8
NN02-220_TOPROTECT_HCU_WSOLDER_WCUPADS_V1_COPPER_MSS
 39
0
 10
3.000000
 20
26.250000
 30
0.000000
 70
0
 42
0
  0
VERTEX
  8
NN02-220_TOPROTECT_HCU_WSOLDER_WCUPADS_V1_COPPER_MSS
 39
0
 10
-0.000000
 20
26.250000
 30
0.000000
 70
0
 42
0
  0
SEQEND
  8
NN02-220_TOPROTECT_HCU_WSOLDER_WCUPADS_V1_COPPER_MSS
  0
ENDSEC
  0
EOF
