%TF.GenerationSoftware,KiCad,Pcbnew,9.0.3*%
%TF.CreationDate,2025-08-21T12:38:23+02:00*%
%TF.ProjectId,Methanesense,4d657468-616e-4657-9365-6e73652e6b69,v1.3.2*%
%TF.SameCoordinates,Original*%
%TF.FileFunction,Soldermask,Top*%
%TF.FilePolarity,Negative*%
%FSLAX46Y46*%
G04 Gerber Fmt 4.6, Leading zero omitted, Abs format (unit mm)*
G04 Created by KiCad (PCBNEW 9.0.3) date 2025-08-21 12:38:23*
%MOMM*%
%LPD*%
G01*
G04 APERTURE LIST*
G04 Aperture macros list*
%AMRoundRect*
0 Rectangle with rounded corners*
0 $1 Rounding radius*
0 $2 $3 $4 $5 $6 $7 $8 $9 X,Y pos of 4 corners*
0 Add a 4 corners polygon primitive as box body*
4,1,4,$2,$3,$4,$5,$6,$7,$8,$9,$2,$3,0*
0 Add four circle primitives for the rounded corners*
1,1,$1+$1,$2,$3*
1,1,$1+$1,$4,$5*
1,1,$1+$1,$6,$7*
1,1,$1+$1,$8,$9*
0 Add four rect primitives between the rounded corners*
20,1,$1+$1,$2,$3,$4,$5,0*
20,1,$1+$1,$4,$5,$6,$7,0*
20,1,$1+$1,$6,$7,$8,$9,0*
20,1,$1+$1,$8,$9,$2,$3,0*%
%AMRotRect*
0 Rectangle, with rotation*
0 The origin of the aperture is its center*
0 $1 length*
0 $2 width*
0 $3 Rotation angle, in degrees counterclockwise*
0 Add horizontal line*
21,1,$1,$2,0,0,$3*%
G04 Aperture macros list end*
%ADD10C,2.200000*%
%ADD11RoundRect,0.155000X-0.155000X0.155000X-0.155000X-0.155000X0.155000X-0.155000X0.155000X0.155000X0*%
%ADD12C,1.000000*%
%ADD13RoundRect,0.200000X-0.200000X-0.275000X0.200000X-0.275000X0.200000X0.275000X-0.200000X0.275000X0*%
%ADD14RoundRect,0.200000X0.200000X0.275000X-0.200000X0.275000X-0.200000X-0.275000X0.200000X-0.275000X0*%
%ADD15RoundRect,0.150000X-0.825000X-0.150000X0.825000X-0.150000X0.825000X0.150000X-0.825000X0.150000X0*%
%ADD16RoundRect,0.225000X-0.250000X0.225000X-0.250000X-0.225000X0.250000X-0.225000X0.250000X0.225000X0*%
%ADD17RoundRect,0.125000X0.137500X-0.125000X0.137500X0.125000X-0.137500X0.125000X-0.137500X-0.125000X0*%
%ADD18RoundRect,0.225000X0.250000X-0.225000X0.250000X0.225000X-0.250000X0.225000X-0.250000X-0.225000X0*%
%ADD19RoundRect,0.200000X0.275000X-0.200000X0.275000X0.200000X-0.275000X0.200000X-0.275000X-0.200000X0*%
%ADD20RoundRect,0.250000X-0.250000X-0.475000X0.250000X-0.475000X0.250000X0.475000X-0.250000X0.475000X0*%
%ADD21RoundRect,0.250000X0.475000X-0.250000X0.475000X0.250000X-0.475000X0.250000X-0.475000X-0.250000X0*%
%ADD22RoundRect,0.155000X0.155000X-0.155000X0.155000X0.155000X-0.155000X0.155000X-0.155000X-0.155000X0*%
%ADD23RoundRect,0.218750X-0.256250X0.218750X-0.256250X-0.218750X0.256250X-0.218750X0.256250X0.218750X0*%
%ADD24C,0.990600*%
%ADD25R,0.740000X2.400000*%
%ADD26C,0.787400*%
%ADD27RoundRect,0.200000X-0.275000X0.200000X-0.275000X-0.200000X0.275000X-0.200000X0.275000X0.200000X0*%
%ADD28RoundRect,0.250000X-0.475000X0.250000X-0.475000X-0.250000X0.475000X-0.250000X0.475000X0.250000X0*%
%ADD29R,0.900000X1.000000*%
%ADD30RoundRect,0.225000X0.225000X0.250000X-0.225000X0.250000X-0.225000X-0.250000X0.225000X-0.250000X0*%
%ADD31RoundRect,0.218750X0.218750X0.256250X-0.218750X0.256250X-0.218750X-0.256250X0.218750X-0.256250X0*%
%ADD32RoundRect,0.135000X0.185000X-0.135000X0.185000X0.135000X-0.185000X0.135000X-0.185000X-0.135000X0*%
%ADD33RoundRect,0.150000X-0.512500X-0.150000X0.512500X-0.150000X0.512500X0.150000X-0.512500X0.150000X0*%
%ADD34RoundRect,0.155000X0.155000X0.155000X-0.155000X0.155000X-0.155000X-0.155000X0.155000X-0.155000X0*%
%ADD35R,2.000000X1.100000*%
%ADD36R,0.800000X0.800000*%
%ADD37RoundRect,0.243750X0.243750X0.456250X-0.243750X0.456250X-0.243750X-0.456250X0.243750X-0.456250X0*%
%ADD38RoundRect,0.250000X0.275000X0.250000X-0.275000X0.250000X-0.275000X-0.250000X0.275000X-0.250000X0*%
%ADD39RoundRect,0.250000X0.850000X0.275000X-0.850000X0.275000X-0.850000X-0.275000X0.850000X-0.275000X0*%
%ADD40R,1.100000X0.250000*%
%ADD41RoundRect,0.225000X-0.225000X-0.250000X0.225000X-0.250000X0.225000X0.250000X-0.225000X0.250000X0*%
%ADD42RoundRect,0.102000X0.650000X-0.325000X0.650000X0.325000X-0.650000X0.325000X-0.650000X-0.325000X0*%
%ADD43RoundRect,0.102000X0.515000X-0.500000X0.515000X0.500000X-0.515000X0.500000X-0.515000X-0.500000X0*%
%ADD44RoundRect,0.102000X0.900000X-0.240000X0.900000X0.240000X-0.900000X0.240000X-0.900000X-0.240000X0*%
%ADD45R,0.540000X0.540000*%
%ADD46R,0.300000X0.540000*%
%ADD47R,0.540000X0.300000*%
%ADD48R,0.300000X0.300000*%
%ADD49R,1.395000X2.300000*%
%ADD50RoundRect,0.150000X0.512500X0.150000X-0.512500X0.150000X-0.512500X-0.150000X0.512500X-0.150000X0*%
%ADD51RoundRect,0.062500X0.337500X0.062500X-0.337500X0.062500X-0.337500X-0.062500X0.337500X-0.062500X0*%
%ADD52RoundRect,0.062500X0.062500X0.337500X-0.062500X0.337500X-0.062500X-0.337500X0.062500X-0.337500X0*%
%ADD53C,0.650000*%
%ADD54R,3.600000X3.600000*%
%ADD55R,1.100000X2.000000*%
%ADD56RoundRect,0.250000X0.850000X-0.375000X0.850000X0.375000X-0.850000X0.375000X-0.850000X-0.375000X0*%
%ADD57RoundRect,0.135000X-0.135000X-0.185000X0.135000X-0.185000X0.135000X0.185000X-0.135000X0.185000X0*%
%ADD58RoundRect,0.135000X0.135000X0.185000X-0.135000X0.185000X-0.135000X-0.185000X0.135000X-0.185000X0*%
%ADD59RoundRect,0.250000X-0.275000X-0.250000X0.275000X-0.250000X0.275000X0.250000X-0.275000X0.250000X0*%
%ADD60RoundRect,0.250000X-0.850000X-0.275000X0.850000X-0.275000X0.850000X0.275000X-0.850000X0.275000X0*%
%ADD61C,1.600000*%
%ADD62R,3.500000X3.500000*%
%ADD63C,3.500000*%
%ADD64RotRect,1.740000X1.740000X107.800000*%
%ADD65C,1.740000*%
%ADD66C,5.000000*%
%ADD67R,1.700000X1.700000*%
%ADD68C,1.700000*%
%ADD69C,0.350000*%
G04 APERTURE END LIST*
%TO.C,J1*%
G36*
X65915000Y-73940000D02*
G01*
X63825000Y-73940000D01*
X63825000Y-72060000D01*
X65915000Y-72060000D01*
X65915000Y-73940000D01*
G37*
%TO.C,J4*%
G36*
X87685000Y-72060000D02*
G01*
X89775000Y-72060000D01*
X89775000Y-73940000D01*
X87685000Y-73940000D01*
X87685000Y-72060000D01*
G37*
%TD*%
D10*
%TO.C,H2*%
X117800000Y-49000000D03*
%TD*%
D11*
%TO.C,C30*%
X80600000Y-70320000D03*
X80600000Y-71280000D03*
%TD*%
D12*
%TO.C,TP15*%
X61600000Y-58200000D03*
%TD*%
D13*
%TO.C,R37*%
X127175000Y-50000000D03*
X128825000Y-50000000D03*
%TD*%
D12*
%TO.C,TP9*%
X105500000Y-73500000D03*
%TD*%
D14*
%TO.C,R19*%
X91344839Y-58378948D03*
X89694839Y-58378948D03*
%TD*%
D15*
%TO.C,Q1*%
X112449029Y-68975296D03*
X112449029Y-70245296D03*
X112449029Y-71515296D03*
X112449029Y-72785296D03*
X117399029Y-72785296D03*
X117399029Y-71515296D03*
X117399029Y-70245296D03*
X117399029Y-68975296D03*
%TD*%
D12*
%TO.C,TP11*%
X141000000Y-70250000D03*
%TD*%
D16*
%TO.C,C34*%
X85854782Y-54275000D03*
X85854782Y-55825000D03*
%TD*%
D17*
%TO.C,U6*%
X147300001Y-50549460D03*
X147300001Y-49749460D03*
X147300001Y-48949460D03*
X147300001Y-48149460D03*
X149675001Y-48149460D03*
X149675001Y-48949460D03*
X149675001Y-49749460D03*
X149675001Y-50549460D03*
%TD*%
D12*
%TO.C,TP6*%
X123000000Y-64250000D03*
%TD*%
D18*
%TO.C,C23*%
X79000000Y-51241393D03*
X79000000Y-49691393D03*
%TD*%
D16*
%TO.C,C38*%
X138687501Y-49125000D03*
X138687501Y-50675000D03*
%TD*%
D19*
%TO.C,R21*%
X124750000Y-66325000D03*
X124750000Y-64675000D03*
%TD*%
D20*
%TO.C,C8*%
X127700000Y-58600000D03*
X129600000Y-58600000D03*
%TD*%
D11*
%TO.C,C27*%
X77600000Y-71520000D03*
X77600000Y-72480000D03*
%TD*%
D14*
%TO.C,R18*%
X91355563Y-56866905D03*
X89705563Y-56866905D03*
%TD*%
D16*
%TO.C,C6*%
X133000000Y-53725000D03*
X133000000Y-55275000D03*
%TD*%
D18*
%TO.C,C7*%
X133000000Y-52275000D03*
X133000000Y-50725000D03*
%TD*%
D13*
%TO.C,R12*%
X122425000Y-69500000D03*
X124075000Y-69500000D03*
%TD*%
D21*
%TO.C,C21*%
X71250000Y-52416393D03*
X71250000Y-50516393D03*
%TD*%
D22*
%TO.C,L8*%
X85400000Y-72880000D03*
X85400000Y-71920000D03*
%TD*%
D13*
%TO.C,R5*%
X122425000Y-68000000D03*
X124075000Y-68000000D03*
%TD*%
D23*
%TO.C,D10*%
X99120468Y-71712500D03*
X99120468Y-73287500D03*
%TD*%
%TO.C,D9*%
X97620468Y-71712500D03*
X97620468Y-73287500D03*
%TD*%
D24*
%TO.C,J6*%
X61190000Y-50234000D03*
X68810000Y-51250000D03*
X61190000Y-52266000D03*
D25*
X67540000Y-49300000D03*
D26*
X67540000Y-50615000D03*
X67540000Y-51885000D03*
D25*
X67540000Y-53200000D03*
X66270000Y-49300000D03*
D26*
X66270000Y-50615000D03*
X66270000Y-51885000D03*
D25*
X66270000Y-53200000D03*
X65000000Y-49300000D03*
D26*
X65000000Y-50615000D03*
X65000000Y-51885000D03*
D25*
X65000000Y-53200000D03*
X63730000Y-49300000D03*
D26*
X63730000Y-50615000D03*
X63730000Y-51885000D03*
D25*
X63730000Y-53200000D03*
X62460000Y-49300000D03*
D26*
X62460000Y-50615000D03*
X62460000Y-51885000D03*
D25*
X62460000Y-53200000D03*
%TD*%
D19*
%TO.C,R9*%
X139200000Y-72332903D03*
X139200000Y-70682903D03*
%TD*%
D27*
%TO.C,R24*%
X113500000Y-64575000D03*
X113500000Y-66225000D03*
%TD*%
D23*
%TO.C,D11*%
X100620468Y-71712500D03*
X100620468Y-73287500D03*
%TD*%
D28*
%TO.C,C22*%
X87444652Y-53850000D03*
X87444652Y-55750000D03*
%TD*%
D19*
%TO.C,R22*%
X126000000Y-66325000D03*
X126000000Y-64675000D03*
%TD*%
D13*
%TO.C,R15*%
X129925000Y-50010000D03*
X131575000Y-50010000D03*
%TD*%
D29*
%TO.C,SW1*%
X106705165Y-61296556D03*
X110805165Y-61296556D03*
X106705165Y-62896556D03*
X110805165Y-62896556D03*
%TD*%
D30*
%TO.C,C16*%
X95779782Y-68500000D03*
X94229782Y-68500000D03*
%TD*%
D31*
%TO.C,D7*%
X88187500Y-51600000D03*
X86612500Y-51600000D03*
%TD*%
D32*
%TO.C,R31*%
X72600000Y-73000000D03*
X72600000Y-71980000D03*
%TD*%
D21*
%TO.C,C12*%
X105255665Y-66550000D03*
X105255665Y-64650000D03*
%TD*%
D33*
%TO.C,U1*%
X123475000Y-54000000D03*
X123475000Y-54950000D03*
X123475000Y-55900000D03*
X125750000Y-55900000D03*
X125750000Y-54950000D03*
X125750000Y-54000000D03*
%TD*%
D15*
%TO.C,Q2*%
X115525000Y-61960000D03*
X115525000Y-63230000D03*
X115525000Y-64500000D03*
X115525000Y-65770000D03*
X120475000Y-65770000D03*
X120475000Y-64500000D03*
X120475000Y-63230000D03*
X120475000Y-61960000D03*
%TD*%
D19*
%TO.C,R30*%
X127250000Y-66325000D03*
X127250000Y-64675000D03*
%TD*%
D12*
%TO.C,TP4*%
X69800000Y-58600000D03*
%TD*%
D11*
%TO.C,C35*%
X84631485Y-54226959D03*
X84631485Y-55186959D03*
%TD*%
D12*
%TO.C,TP3*%
X64500000Y-56750000D03*
%TD*%
D34*
%TO.C,C29*%
X85400000Y-71000000D03*
X84440000Y-71000000D03*
%TD*%
D14*
%TO.C,R8*%
X133825000Y-61950000D03*
X132175000Y-61950000D03*
%TD*%
D18*
%TO.C,C17*%
X133269945Y-72308939D03*
X133269945Y-70758939D03*
%TD*%
D16*
%TO.C,C20*%
X124000000Y-72382903D03*
X124000000Y-73932903D03*
%TD*%
D19*
%TO.C,R14*%
X121250000Y-56075000D03*
X121250000Y-54425000D03*
%TD*%
D18*
%TO.C,C13*%
X134738938Y-73763401D03*
X134738938Y-72213401D03*
%TD*%
D27*
%TO.C,R10*%
X110449029Y-71455296D03*
X110449029Y-73105296D03*
%TD*%
D31*
%TO.C,D3*%
X130287500Y-64500000D03*
X128712500Y-64500000D03*
%TD*%
D35*
%TO.C,D1*%
X125130000Y-50750000D03*
D36*
X123230000Y-50750000D03*
%TD*%
D37*
%TO.C,F1*%
X66437500Y-66000000D03*
X64562500Y-66000000D03*
%TD*%
D38*
%TO.C,J1*%
X66450000Y-73000000D03*
D39*
X64925000Y-74475000D03*
X64925000Y-71525000D03*
%TD*%
D40*
%TO.C,U2*%
X129888938Y-73013401D03*
X129888938Y-72513401D03*
X129888938Y-72013401D03*
X129888938Y-71513401D03*
X129888938Y-71013401D03*
X125588938Y-71013401D03*
X125588938Y-71513401D03*
X125588938Y-72013401D03*
X125588938Y-72513401D03*
X125588938Y-73013401D03*
%TD*%
D41*
%TO.C,C28*%
X91068339Y-69259686D03*
X92618339Y-69259686D03*
%TD*%
D42*
%TO.C,J3*%
X92999782Y-53771393D03*
X92999782Y-56311393D03*
X92999782Y-57581393D03*
X92999782Y-52501393D03*
X92999782Y-55041393D03*
X92999782Y-58851393D03*
D43*
X105139782Y-51216393D03*
D44*
X99419782Y-51021393D03*
X93669782Y-51021393D03*
X93669782Y-60351393D03*
X99419782Y-60351393D03*
D43*
X105139782Y-60146393D03*
%TD*%
D14*
%TO.C,R23*%
X133325000Y-66000000D03*
X131675000Y-66000000D03*
%TD*%
D12*
%TO.C,TP13*%
X110500000Y-75000000D03*
%TD*%
%TO.C,TP17*%
X98000000Y-75600000D03*
%TD*%
D22*
%TO.C,L2*%
X76400000Y-72960000D03*
X76400000Y-72000000D03*
%TD*%
D19*
%TO.C,R34*%
X124725000Y-62025000D03*
X124725000Y-60375000D03*
%TD*%
D13*
%TO.C,R2*%
X136113938Y-72213401D03*
X137763938Y-72213401D03*
%TD*%
D14*
%TO.C,R20*%
X91354782Y-59855000D03*
X89704782Y-59855000D03*
%TD*%
D12*
%TO.C,TP18*%
X148120000Y-67600000D03*
%TD*%
%TO.C,TP14*%
X110250000Y-66750000D03*
%TD*%
D45*
%TO.C,U5*%
X83219782Y-53230000D03*
D46*
X82599782Y-53230000D03*
X82099782Y-53230000D03*
X81599782Y-53230000D03*
X81099782Y-53230000D03*
X80599782Y-53230000D03*
X80099782Y-53230000D03*
X79599782Y-53230000D03*
X79099782Y-53230000D03*
X78599782Y-53230000D03*
X78099782Y-53230000D03*
X77599782Y-53230000D03*
X77099782Y-53230000D03*
X76599782Y-53230000D03*
X76099782Y-53230000D03*
X75599782Y-53230000D03*
X75099782Y-53230000D03*
X74599782Y-53230000D03*
X74099782Y-53230000D03*
X73599782Y-53230000D03*
D45*
X72979782Y-53230000D03*
D47*
X72979782Y-53850000D03*
X72979782Y-54350000D03*
X72979782Y-54850000D03*
X72979782Y-55350000D03*
X72979782Y-55850000D03*
X72979782Y-56350000D03*
X72979782Y-56850000D03*
X72979782Y-57350000D03*
X72979782Y-57850000D03*
X72979782Y-58350000D03*
X72979782Y-58850000D03*
X72979782Y-59350000D03*
X72979782Y-59850000D03*
X72979782Y-60350000D03*
X72979782Y-60850000D03*
X72979782Y-61350000D03*
X72979782Y-61850000D03*
X72979782Y-62350000D03*
X72979782Y-62850000D03*
X72979782Y-63350000D03*
X72979782Y-63850000D03*
X72979782Y-64350000D03*
X72979782Y-64850000D03*
X72979782Y-65350000D03*
X72979782Y-65850000D03*
X72979782Y-66350000D03*
X72979782Y-66850000D03*
X72979782Y-67350000D03*
X72979782Y-67850000D03*
X72979782Y-68350000D03*
D45*
X72979782Y-68970000D03*
D46*
X73599782Y-68970000D03*
X74099782Y-68970000D03*
X74599782Y-68970000D03*
X75099782Y-68970000D03*
X75599782Y-68970000D03*
X76099782Y-68970000D03*
X76599782Y-68970000D03*
X77099782Y-68970000D03*
X77599782Y-68970000D03*
X78099782Y-68970000D03*
X78599782Y-68970000D03*
X79099782Y-68970000D03*
X79599782Y-68970000D03*
X80099782Y-68970000D03*
X80599782Y-68970000D03*
X81099782Y-68970000D03*
X81599782Y-68970000D03*
X82099782Y-68970000D03*
X82599782Y-68970000D03*
D45*
X83219782Y-68970000D03*
D47*
X83219782Y-68350000D03*
X83219782Y-67850000D03*
X83219782Y-67350000D03*
X83219782Y-66850000D03*
X83219782Y-66350000D03*
X83219782Y-65850000D03*
X83219782Y-65350000D03*
X83219782Y-64850000D03*
X83219782Y-64350000D03*
X83219782Y-63850000D03*
X83219782Y-63350000D03*
X83219782Y-62850000D03*
X83219782Y-62350000D03*
X83219782Y-61850000D03*
X83219782Y-61350000D03*
X83219782Y-60850000D03*
X83219782Y-60350000D03*
X83219782Y-59850000D03*
X83219782Y-59350000D03*
X83219782Y-58850000D03*
X83219782Y-58350000D03*
X83219782Y-57850000D03*
X83219782Y-57350000D03*
X83219782Y-56850000D03*
X83219782Y-56350000D03*
X83219782Y-55850000D03*
X83219782Y-55350000D03*
X83219782Y-54850000D03*
X83219782Y-54350000D03*
X83219782Y-53850000D03*
D36*
X81299782Y-55100000D03*
X79699782Y-55100000D03*
X78099782Y-55100000D03*
X76499782Y-55100000D03*
X74899782Y-55100000D03*
X81299782Y-57100000D03*
X79699782Y-57100000D03*
X78099782Y-57100000D03*
X76499782Y-57100000D03*
X74899782Y-57100000D03*
X81299782Y-59100000D03*
X79699782Y-59100000D03*
X78099782Y-59100000D03*
X76499782Y-59100000D03*
X74899782Y-59100000D03*
X81299782Y-61100000D03*
X79699782Y-61100000D03*
X78099782Y-61100000D03*
X76499782Y-61100000D03*
X74899782Y-61100000D03*
X81299782Y-63100000D03*
X79699782Y-63100000D03*
X78099782Y-63100000D03*
X76499782Y-63100000D03*
X74899782Y-63100000D03*
X81299782Y-65100000D03*
X79699782Y-65100000D03*
X78099782Y-65100000D03*
X76499782Y-65100000D03*
X74899782Y-65100000D03*
X81299782Y-67100000D03*
X79699782Y-67100000D03*
X78099782Y-67100000D03*
X76499782Y-67100000D03*
X74899782Y-67100000D03*
D48*
X73749782Y-55350000D03*
X73749782Y-55850000D03*
X73749782Y-56350000D03*
X73749782Y-56850000D03*
X73749782Y-59350000D03*
X73749782Y-59850000D03*
X73749782Y-60350000D03*
X73749782Y-60850000D03*
X73749782Y-64350000D03*
X73749782Y-64850000D03*
X73749782Y-65350000D03*
X73749782Y-65850000D03*
X82449782Y-65850000D03*
X82449782Y-65350000D03*
X82449782Y-64850000D03*
X82449782Y-64350000D03*
X82449782Y-60850000D03*
X82449782Y-60350000D03*
X82449782Y-59850000D03*
X82449782Y-59350000D03*
X82449782Y-56850000D03*
X82449782Y-56350000D03*
X82449782Y-55850000D03*
X82449782Y-55350000D03*
%TD*%
D49*
%TO.C,L1*%
X127472500Y-53250000D03*
X131027500Y-53250000D03*
%TD*%
D21*
%TO.C,C10*%
X104820468Y-71150000D03*
X104820468Y-69250000D03*
%TD*%
D50*
%TO.C,U9*%
X89442282Y-69250000D03*
X89442282Y-68300000D03*
X89442282Y-67350000D03*
X87167282Y-67350000D03*
X87167282Y-68300000D03*
X87167282Y-69250000D03*
%TD*%
D14*
%TO.C,R17*%
X92654782Y-67385000D03*
X91004782Y-67385000D03*
%TD*%
D34*
%TO.C,C26*%
X77560000Y-70400000D03*
X76600000Y-70400000D03*
%TD*%
D14*
%TO.C,R4*%
X133325000Y-64500000D03*
X131675000Y-64500000D03*
%TD*%
D31*
%TO.C,D6*%
X130750000Y-61950000D03*
X129175000Y-61950000D03*
%TD*%
D19*
%TO.C,R26*%
X127750000Y-62025000D03*
X127750000Y-60375000D03*
%TD*%
D18*
%TO.C,C25*%
X76250000Y-51241393D03*
X76250000Y-49691393D03*
%TD*%
D12*
%TO.C,TP8*%
X135200000Y-52000000D03*
%TD*%
D16*
%TO.C,C14*%
X134738938Y-69263401D03*
X134738938Y-70813401D03*
%TD*%
D12*
%TO.C,TP5*%
X139200000Y-55800000D03*
%TD*%
D16*
%TO.C,C39*%
X137173028Y-49125000D03*
X137173028Y-50675000D03*
%TD*%
D14*
%TO.C,R13*%
X123150000Y-57500000D03*
X121500000Y-57500000D03*
%TD*%
D19*
%TO.C,R27*%
X123200000Y-62025000D03*
X123200000Y-60375000D03*
%TD*%
D32*
%TO.C,R32*%
X69400000Y-73000000D03*
X69400000Y-71980000D03*
%TD*%
D18*
%TO.C,C24*%
X85504782Y-69075000D03*
X85504782Y-67525000D03*
%TD*%
D30*
%TO.C,C31*%
X91279782Y-55400000D03*
X89729782Y-55400000D03*
%TD*%
D27*
%TO.C,TH1*%
X94501944Y-62117763D03*
X94501944Y-63767763D03*
%TD*%
%TO.C,R25*%
X113500000Y-61540000D03*
X113500000Y-63190000D03*
%TD*%
D14*
%TO.C,R29*%
X84825000Y-51600000D03*
X83175000Y-51600000D03*
%TD*%
D11*
%TO.C,C33*%
X69704342Y-54086190D03*
X69704342Y-55046190D03*
%TD*%
D12*
%TO.C,TP10*%
X102750000Y-71750000D03*
%TD*%
D16*
%TO.C,C5*%
X134500000Y-53725000D03*
X134500000Y-55275000D03*
%TD*%
D41*
%TO.C,C2*%
X119475000Y-69500000D03*
X121025000Y-69500000D03*
%TD*%
D29*
%TO.C,SW3*%
X103054782Y-63395085D03*
X98954782Y-63395085D03*
X103054782Y-61795085D03*
X98954782Y-61795085D03*
%TD*%
D19*
%TO.C,R1*%
X96759160Y-63825000D03*
X96759160Y-62175000D03*
%TD*%
D21*
%TO.C,C37*%
X107220468Y-66550000D03*
X107220468Y-64650000D03*
%TD*%
D51*
%TO.C,U3*%
X103070468Y-69250000D03*
X103070468Y-68750000D03*
X103070468Y-68250000D03*
X103070468Y-67750000D03*
X103070468Y-67250000D03*
X103070468Y-66750000D03*
X103070468Y-66250000D03*
X103070468Y-65750000D03*
D52*
X102370468Y-65050000D03*
X101870468Y-65050000D03*
X101370468Y-65050000D03*
X100870468Y-65050000D03*
X100370468Y-65050000D03*
X99870468Y-65050000D03*
X99370468Y-65050000D03*
X98870468Y-65050000D03*
D51*
X98170468Y-65750000D03*
X98170468Y-66250000D03*
X98170468Y-66750000D03*
X98170468Y-67250000D03*
X98170468Y-67750000D03*
X98170468Y-68250000D03*
X98170468Y-68750000D03*
X98170468Y-69250000D03*
D52*
X98870468Y-69950000D03*
X99370468Y-69950000D03*
X99870468Y-69950000D03*
X100370468Y-69950000D03*
X100870468Y-69950000D03*
X101370468Y-69950000D03*
X101870468Y-69950000D03*
X102370468Y-69950000D03*
D53*
X101620468Y-68500000D03*
X101620468Y-67500000D03*
X101620468Y-66500000D03*
X100620468Y-68500000D03*
X100620468Y-67500000D03*
D54*
X100620468Y-67500000D03*
D53*
X100620468Y-66500000D03*
X99620468Y-68500000D03*
X99620468Y-67500000D03*
X99620468Y-66500000D03*
%TD*%
D16*
%TO.C,C32*%
X70854782Y-53925000D03*
X70854782Y-55475000D03*
%TD*%
D41*
%TO.C,C4*%
X123725000Y-52500000D03*
X125275000Y-52500000D03*
%TD*%
D12*
%TO.C,TP7*%
X125800000Y-58600000D03*
%TD*%
D31*
%TO.C,D4*%
X130287500Y-66250000D03*
X128712500Y-66250000D03*
%TD*%
D13*
%TO.C,R3*%
X136113938Y-70813401D03*
X137763938Y-70813401D03*
%TD*%
D12*
%TO.C,TP12*%
X131750000Y-74500000D03*
%TD*%
D16*
%TO.C,C15*%
X94004782Y-65425000D03*
X94004782Y-66975000D03*
%TD*%
D13*
%TO.C,R16*%
X129925000Y-48500000D03*
X131575000Y-48500000D03*
%TD*%
D41*
%TO.C,C1*%
X119475000Y-68000000D03*
X121025000Y-68000000D03*
%TD*%
D27*
%TO.C,R11*%
X110449029Y-68455296D03*
X110449029Y-70105296D03*
%TD*%
D55*
%TO.C,D8*%
X119400000Y-55900000D03*
D36*
X119400000Y-54000000D03*
%TD*%
D31*
%TO.C,D5*%
X130750000Y-60450000D03*
X129175000Y-60450000D03*
%TD*%
D12*
%TO.C,TP2*%
X68000000Y-57500000D03*
%TD*%
%TO.C,TP16*%
X119400000Y-59000000D03*
%TD*%
D19*
%TO.C,R28*%
X126250000Y-62025000D03*
X126250000Y-60375000D03*
%TD*%
D56*
%TO.C,L3*%
X107320468Y-70775000D03*
X107320468Y-68625000D03*
%TD*%
D30*
%TO.C,C11*%
X95779782Y-70000000D03*
X94229782Y-70000000D03*
%TD*%
D50*
%TO.C,U8*%
X90387500Y-63916393D03*
X90387500Y-62966393D03*
X90387500Y-62016393D03*
X88112500Y-62016393D03*
X88112500Y-62966393D03*
X88112500Y-63916393D03*
%TD*%
D57*
%TO.C,R6*%
X74090000Y-73000000D03*
X75110000Y-73000000D03*
%TD*%
D12*
%TO.C,TP1*%
X69500000Y-60250000D03*
%TD*%
D35*
%TO.C,D2*%
X128120000Y-56750000D03*
D36*
X130020000Y-56750000D03*
%TD*%
D58*
%TO.C,R33*%
X71510000Y-73000000D03*
X70490000Y-73000000D03*
%TD*%
D59*
%TO.C,J4*%
X87150000Y-73000000D03*
D60*
X88675000Y-71525000D03*
X88675000Y-74475000D03*
%TD*%
D18*
%TO.C,C36*%
X77750000Y-51241393D03*
X77750000Y-49691393D03*
%TD*%
D10*
%TO.C,H1*%
X93800000Y-74400000D03*
%TD*%
D14*
%TO.C,R7*%
X133825000Y-60450000D03*
X132175000Y-60450000D03*
%TD*%
D61*
%TO.C,S1*%
X148120000Y-73670000D03*
X144520000Y-73670000D03*
X144520000Y-70070000D03*
X148120000Y-70070000D03*
%TD*%
D62*
%TO.C,BT1*%
X64745000Y-62000000D03*
D63*
X137645000Y-62000000D03*
%TD*%
D64*
%TO.C,J2*%
X143630000Y-57380000D03*
D65*
X141680000Y-58005000D03*
X143630000Y-60780000D03*
X141680000Y-60155000D03*
D66*
X143130000Y-65330000D03*
X143130000Y-52830000D03*
%TD*%
D67*
%TO.C,J5*%
X83200000Y-49200000D03*
D68*
X85740000Y-49200000D03*
X88280000Y-49200000D03*
X90820000Y-49200000D03*
X93360000Y-49200000D03*
X95900000Y-49200000D03*
X98440000Y-49200000D03*
X100980000Y-49200000D03*
X103520000Y-49200000D03*
X106060000Y-49200000D03*
X108600000Y-49200000D03*
X111140000Y-49200000D03*
X113680000Y-49200000D03*
%TD*%
D69*
X117800000Y-49000000D03*
X61190000Y-50234000D03*
X68810000Y-51250000D03*
X61190000Y-52266000D03*
X101620468Y-68500000D03*
X101620468Y-67500000D03*
X101620468Y-66500000D03*
X100620468Y-68500000D03*
X100620468Y-67500000D03*
X100620468Y-66500000D03*
X99620468Y-68500000D03*
X99620468Y-67500000D03*
X99620468Y-66500000D03*
X93800000Y-74400000D03*
X148120000Y-73670000D03*
X144520000Y-73670000D03*
X144520000Y-70070000D03*
X148120000Y-70070000D03*
X64745000Y-62000000D03*
X137645000Y-62000000D03*
X143630000Y-57380000D03*
X141680000Y-58005000D03*
X143630000Y-60780000D03*
X141680000Y-60155000D03*
X143130000Y-65330000D03*
X143130000Y-52830000D03*
X83200000Y-49200000D03*
X85740000Y-49200000D03*
X88280000Y-49200000D03*
X90820000Y-49200000D03*
X93360000Y-49200000D03*
X95900000Y-49200000D03*
X98440000Y-49200000D03*
X100980000Y-49200000D03*
X103520000Y-49200000D03*
X106060000Y-49200000D03*
X108600000Y-49200000D03*
X111140000Y-49200000D03*
X113680000Y-49200000D03*
M02*
