%TF.GenerationSoftware,KiCad,Pcbnew,9.0.3*%
%TF.CreationDate,2025-08-20T13:57:21+02:00*%
%TF.ProjectId,Methanesense,4d657468-616e-4657-9365-6e73652e6b69,v2.0.0*%
%TF.SameCoordinates,Original*%
%TF.FileFunction,Copper,L2,Inr*%
%TF.FilePolarity,Positive*%
%FSLAX46Y46*%
G04 Gerber Fmt 4.6, Leading zero omitted, Abs format (unit mm)*
G04 Created by KiCad (PCBNEW 9.0.3) date 2025-08-20 13:57:21*
%MOMM*%
%LPD*%
G01*
G04 APERTURE LIST*
G04 Aperture macros list*
%AMRotRect*
0 Rectangle, with rotation*
0 The origin of the aperture is its center*
0 $1 length*
0 $2 width*
0 $3 Rotation angle, in degrees counterclockwise*
0 Add horizontal line*
21,1,$1,$2,0,0,$3*%
G04 Aperture macros list end*
%ADD10C,0.250000*%
%TA.AperFunction,NonConductor*%
%ADD11C,0.250000*%
%TD*%
%TA.AperFunction,HeatsinkPad*%
%ADD12C,0.650000*%
%TD*%
%TA.AperFunction,ComponentPad*%
%ADD13C,1.600000*%
%TD*%
%TA.AperFunction,ComponentPad*%
%ADD14R,3.500000X3.500000*%
%TD*%
%TA.AperFunction,ComponentPad*%
%ADD15C,3.500000*%
%TD*%
%TA.AperFunction,ComponentPad*%
%ADD16RotRect,1.740000X1.740000X107.800000*%
%TD*%
%TA.AperFunction,ComponentPad*%
%ADD17C,1.740000*%
%TD*%
%TA.AperFunction,ComponentPad*%
%ADD18C,5.000000*%
%TD*%
%TA.AperFunction,ComponentPad*%
%ADD19R,1.700000X1.700000*%
%TD*%
%TA.AperFunction,ComponentPad*%
%ADD20C,1.700000*%
%TD*%
%TA.AperFunction,ViaPad*%
%ADD21C,0.650000*%
%TD*%
%TA.AperFunction,ViaPad*%
%ADD22C,0.800000*%
%TD*%
%ADD23C,0.350000*%
G04 APERTURE END LIST*
D10*
D11*
X147854616Y-54559857D02*
X147902235Y-54512238D01*
X147902235Y-54512238D02*
X147997473Y-54464619D01*
X147997473Y-54464619D02*
X148235568Y-54464619D01*
X148235568Y-54464619D02*
X148330806Y-54512238D01*
X148330806Y-54512238D02*
X148378425Y-54559857D01*
X148378425Y-54559857D02*
X148426044Y-54655095D01*
X148426044Y-54655095D02*
X148426044Y-54750333D01*
X148426044Y-54750333D02*
X148378425Y-54893190D01*
X148378425Y-54893190D02*
X147806997Y-55464619D01*
X147806997Y-55464619D02*
X148426044Y-55464619D01*
D12*
%TO.N,GND*%
%TO.C,U3*%
X101620468Y-68500000D03*
X101620468Y-67500000D03*
X101620468Y-66500000D03*
X100620468Y-68500000D03*
X100620468Y-67500000D03*
X100620468Y-66500000D03*
X99620468Y-68500000D03*
X99620468Y-67500000D03*
X99620468Y-66500000D03*
%TD*%
D13*
%TO.N,Net-(S1-Rh-)*%
%TO.C,S1*%
X148120000Y-73670000D03*
%TO.N,AIN1*%
X144520000Y-73670000D03*
%TO.N,+2V0*%
X144520000Y-70070000D03*
X148120000Y-70070000D03*
%TD*%
D14*
%TO.N,Net-(BT1-+)*%
%TO.C,BT1*%
X64745000Y-62000000D03*
D15*
%TO.N,GND*%
X137645000Y-62000000D03*
%TD*%
D16*
%TO.N,/POWER/VIN*%
%TO.C,J2*%
X143630000Y-57380000D03*
D17*
%TO.N,/POWER/GPIO2*%
X141680000Y-58005000D03*
%TO.N,GND*%
X143630000Y-60780000D03*
%TO.N,/POWER/GPIO1*%
X141680000Y-60155000D03*
D18*
%TO.N,GND*%
X143130000Y-65330000D03*
X143130000Y-52830000D03*
%TD*%
D19*
%TO.N,GND*%
%TO.C,J5*%
X83200000Y-49200000D03*
D20*
%TO.N,+BATT*%
X85740000Y-49200000D03*
%TO.N,GND*%
X88280000Y-49200000D03*
%TO.N,+2V0*%
X90820000Y-49200000D03*
%TO.N,GND*%
X93360000Y-49200000D03*
%TO.N,P0.08*%
X95900000Y-49200000D03*
%TO.N,P0.09*%
X98440000Y-49200000D03*
%TO.N,P0.10*%
X100980000Y-49200000D03*
%TO.N,P0.18{slash}AIN5*%
X103520000Y-49200000D03*
%TO.N,P0.19{slash}AIN6*%
X106060000Y-49200000D03*
%TO.N,P0.14{slash}AIN1*%
X108600000Y-49200000D03*
%TO.N,GND*%
X111140000Y-49200000D03*
%TO.N,/nrf9160/12vin*%
X113680000Y-49200000D03*
%TD*%
D21*
%TO.N,GND*%
X74800000Y-72200000D03*
X83964782Y-59448603D03*
X130807025Y-72063401D03*
X95689602Y-62958533D03*
X121400000Y-52600000D03*
X114625000Y-52605000D03*
X134500000Y-56250000D03*
X78400000Y-72000000D03*
X132000000Y-55250000D03*
X107753463Y-63477229D03*
X116200000Y-75800000D03*
X71445000Y-75465000D03*
X89250000Y-62991088D03*
X122800000Y-76000000D03*
X122305526Y-55255448D03*
X104155666Y-65286252D03*
X129724696Y-70282904D03*
X74899782Y-60100000D03*
X79200000Y-73000000D03*
X103981740Y-66033107D03*
X82379757Y-73487009D03*
X150185000Y-62765000D03*
X122250000Y-54250000D03*
X72004782Y-60850000D03*
X70986510Y-56452269D03*
X91604782Y-53400000D03*
X68451055Y-73650172D03*
X147645000Y-57685000D03*
X93258855Y-70425114D03*
X84838101Y-53364598D03*
X73400000Y-72400000D03*
X78099782Y-62100000D03*
X84200000Y-69000000D03*
X79699782Y-62100000D03*
X78099782Y-64100000D03*
X117593152Y-55023240D03*
X138400000Y-73332903D03*
X138200000Y-74132903D03*
X90600000Y-71400000D03*
X73400000Y-73600000D03*
X133000000Y-49750000D03*
X133200000Y-73532903D03*
X67600000Y-47400000D03*
X80000000Y-52466393D03*
X66467495Y-57887957D03*
X76788634Y-73755951D03*
X113000000Y-60400000D03*
X64600000Y-59000000D03*
X70266951Y-73850172D03*
X63750000Y-55000000D03*
X94939088Y-69258591D03*
X76499782Y-56100000D03*
X88204782Y-54800000D03*
X128751305Y-72000000D03*
X90200000Y-73200000D03*
X112085000Y-75465000D03*
X80014889Y-71935324D03*
X134250000Y-64500000D03*
X100604782Y-70800000D03*
X65000000Y-75600000D03*
X134250000Y-50750000D03*
X79824040Y-70781932D03*
X79784257Y-69737443D03*
X103000000Y-60200000D03*
X112200000Y-61400000D03*
X115093152Y-55023240D03*
X150185000Y-60225000D03*
X145000000Y-62200000D03*
X116621604Y-58834587D03*
X74000000Y-72200000D03*
X137250000Y-51750000D03*
X66365000Y-67845000D03*
X68937409Y-62054209D03*
X92704782Y-68300000D03*
X125200000Y-73732903D03*
X63200000Y-71400000D03*
X76499782Y-64100000D03*
X74177811Y-73845066D03*
X85800000Y-62400000D03*
X78899782Y-57100000D03*
X71706719Y-72155126D03*
X146487501Y-50500000D03*
X81299782Y-64100000D03*
X121250000Y-53500000D03*
X80499782Y-67000000D03*
X96845000Y-75465000D03*
X79699782Y-58100000D03*
X133000000Y-56250000D03*
X68905000Y-75465000D03*
X129540839Y-63599280D03*
X72600000Y-50200000D03*
X75699782Y-63100000D03*
X96704782Y-61200000D03*
X150185000Y-72925000D03*
X77299782Y-59100000D03*
X65600000Y-56200000D03*
X112085000Y-47525000D03*
X150185000Y-67845000D03*
X81308931Y-58235037D03*
X142200000Y-69200000D03*
X132900000Y-68432903D03*
X75699782Y-59100000D03*
X89247112Y-61799327D03*
X85034948Y-63219210D03*
X117165000Y-47525000D03*
X109600000Y-62400000D03*
X78899782Y-61100000D03*
X92004782Y-66700000D03*
X110800000Y-63800000D03*
X107005000Y-75465000D03*
X84495692Y-73495307D03*
X92108419Y-63661385D03*
X79200000Y-70400000D03*
X74750000Y-52118820D03*
X81299782Y-62100000D03*
X131490331Y-56475174D03*
X80499782Y-65100000D03*
X72053898Y-73681688D03*
X150185000Y-75465000D03*
X112400000Y-64400000D03*
X66600000Y-74800000D03*
X80499782Y-61100000D03*
X91765000Y-72925000D03*
X72000000Y-69800000D03*
X142400000Y-62000000D03*
X119705000Y-60225000D03*
X79699782Y-66100000D03*
X75699782Y-67000000D03*
X133250000Y-63500000D03*
X137485000Y-47525000D03*
X67195582Y-72079799D03*
X76972781Y-69664056D03*
X86800000Y-71200000D03*
X91819891Y-68219891D03*
X67700538Y-73629750D03*
X68031975Y-61294565D03*
X135500000Y-55250000D03*
X78099782Y-56100000D03*
X138750000Y-51750000D03*
X136800000Y-76000000D03*
X147645000Y-56400000D03*
X114614254Y-71923983D03*
X72400000Y-49400000D03*
X77600000Y-73600000D03*
X83400000Y-71000000D03*
X84145000Y-75465000D03*
X81299782Y-66100000D03*
X140025000Y-47525000D03*
X93404782Y-67800000D03*
X90600000Y-74400000D03*
X61600000Y-58200000D03*
X108548278Y-65104439D03*
X98000000Y-75600000D03*
X81325939Y-70798527D03*
X78400000Y-69800000D03*
X139000000Y-69332903D03*
X86744866Y-54793516D03*
X79065000Y-75465000D03*
X133000000Y-76000000D03*
X150185000Y-56400000D03*
X132500000Y-48500000D03*
X85800000Y-64400000D03*
X147645000Y-62765000D03*
X79200000Y-71400000D03*
X120298118Y-54525452D03*
X61285000Y-60225000D03*
X70204782Y-69200000D03*
X80086395Y-49323268D03*
X140200000Y-73600000D03*
X97854782Y-63800000D03*
X98199772Y-64576195D03*
X84004782Y-66200000D03*
X80499782Y-59100000D03*
X124600000Y-55400000D03*
X75651493Y-70186817D03*
X84079782Y-53350000D03*
X134843619Y-58002436D03*
X127200000Y-74132903D03*
X72600000Y-51200000D03*
X91504782Y-54200000D03*
X101925000Y-75465000D03*
X133750000Y-58750000D03*
X78099782Y-60100000D03*
X61400000Y-75400000D03*
X73000000Y-69800000D03*
D22*
X130800000Y-59200000D03*
D21*
X79699782Y-60100000D03*
X79250000Y-52466393D03*
X69313895Y-73864606D03*
X95604782Y-61700000D03*
X73985000Y-75465000D03*
X84504782Y-62400889D03*
X150185000Y-65305000D03*
D22*
X123163888Y-59296185D03*
D21*
X144800000Y-59400000D03*
X77357753Y-55100000D03*
X88277878Y-68664012D03*
X81299782Y-60100000D03*
X77299782Y-57100000D03*
X77299782Y-63100000D03*
X141800000Y-76000000D03*
X83284216Y-73478711D03*
X147400000Y-75800000D03*
X76499782Y-60100000D03*
X71243153Y-66209546D03*
X142800000Y-74600000D03*
X80499782Y-57100000D03*
X93442501Y-69234583D03*
X115750000Y-70966393D03*
X112893152Y-53723240D03*
X130000000Y-62900000D03*
X129709358Y-55428462D03*
X84000000Y-69600000D03*
X81000000Y-52466393D03*
X120568903Y-56908093D03*
X131611476Y-47415571D03*
X97872016Y-63166382D03*
X97200000Y-69800000D03*
X74899782Y-62100000D03*
X75704782Y-55100000D03*
X84758402Y-64770975D03*
X134945000Y-47525000D03*
X114625000Y-75465000D03*
X122800000Y-49400000D03*
X140487501Y-49850000D03*
X81605000Y-75465000D03*
X74899782Y-66100000D03*
X133800000Y-74200000D03*
X74800000Y-50600000D03*
X142800000Y-71000000D03*
X81267854Y-73470414D03*
X70328218Y-72175548D03*
D22*
X130800000Y-58050000D03*
D21*
X71002152Y-73702111D03*
X99385000Y-75465000D03*
X81299782Y-56100000D03*
X84704782Y-59200000D03*
X68542955Y-72327832D03*
X94504782Y-61200000D03*
X74800000Y-49800000D03*
X61285000Y-67845000D03*
X115000000Y-50400000D03*
X78899782Y-65100000D03*
X77299782Y-67000000D03*
X97452818Y-64651270D03*
X78400000Y-71000000D03*
X75800000Y-71000000D03*
X137327608Y-58002436D03*
X78099782Y-66100000D03*
X62400000Y-47200000D03*
X76499782Y-66100000D03*
X128104640Y-48817557D03*
X65000000Y-70400000D03*
X75699782Y-65100000D03*
X75000000Y-69800000D03*
D22*
X121916078Y-60044871D03*
D21*
X147645000Y-60225000D03*
X74899782Y-58100000D03*
X85800000Y-63600000D03*
X76499782Y-62100000D03*
X86200000Y-72200000D03*
X78899782Y-59100000D03*
X77299782Y-65100000D03*
X84400000Y-72200000D03*
X97800000Y-70600000D03*
X124600000Y-54400000D03*
X76499782Y-52228856D03*
X65000000Y-47400000D03*
X67400000Y-56600000D03*
X63825000Y-67845000D03*
X76635516Y-71190229D03*
X127800000Y-51000000D03*
X77299782Y-61100000D03*
X65904782Y-69800000D03*
X105600000Y-63200000D03*
X79699782Y-56100000D03*
X63200000Y-73000000D03*
X138600000Y-53200000D03*
X81201472Y-71985110D03*
X83200000Y-72200000D03*
X76525000Y-75465000D03*
X78899782Y-55100000D03*
X86800000Y-74400000D03*
X90200000Y-72400000D03*
X74916402Y-73986817D03*
X61285000Y-70385000D03*
X70104782Y-56300000D03*
X122200000Y-52600000D03*
X78099782Y-58100000D03*
X93104782Y-66500000D03*
X72000000Y-63200000D03*
X140200000Y-74600000D03*
X97800000Y-61200000D03*
X66200000Y-47400000D03*
X78899782Y-63100000D03*
X78200000Y-73200000D03*
X66800000Y-71400000D03*
X72000000Y-65200000D03*
X147645000Y-65305000D03*
X71487533Y-58487005D03*
X78899782Y-67000000D03*
D22*
X124639559Y-59252783D03*
D21*
X88304782Y-67800000D03*
X71002152Y-72318504D03*
X90566642Y-53738139D03*
X93353844Y-68436673D03*
X79699782Y-64100000D03*
X75699782Y-61100000D03*
X69455912Y-55955022D03*
X138400000Y-54600000D03*
X117165000Y-65305000D03*
X136000000Y-73800000D03*
X92600000Y-75800000D03*
X126905129Y-55765816D03*
X84400000Y-70200000D03*
X150185000Y-70385000D03*
X123600000Y-49400000D03*
X130000000Y-68800000D03*
X109104782Y-52300000D03*
X76499782Y-58100000D03*
X122290943Y-56617359D03*
X129821276Y-51273661D03*
X142800000Y-73000000D03*
X75600000Y-72000000D03*
X75699782Y-57100000D03*
X122000000Y-50200000D03*
X61285000Y-55145000D03*
X122000000Y-51200000D03*
D22*
X106078414Y-69700000D03*
D21*
X136800000Y-74132903D03*
X122245000Y-47525000D03*
X80600000Y-50000000D03*
X61285000Y-65305000D03*
X66600000Y-74000000D03*
X89250000Y-63992061D03*
X69195102Y-67972502D03*
X109545000Y-47525000D03*
X84004782Y-65500000D03*
X136200000Y-69332903D03*
X82200000Y-72200000D03*
X119705000Y-47525000D03*
X67833282Y-72363571D03*
X137600000Y-68600000D03*
X81299986Y-69648933D03*
X139800000Y-54200000D03*
X139000000Y-68600000D03*
X122200000Y-53400000D03*
X108604405Y-64400782D03*
X133600000Y-69200000D03*
X61285000Y-62765000D03*
X75800000Y-73800000D03*
X118804795Y-57943806D03*
X150185000Y-57685000D03*
X128750000Y-63500000D03*
X128800000Y-76000000D03*
X88904782Y-54700000D03*
X111600000Y-64200000D03*
X80288716Y-73179991D03*
X128529515Y-62770112D03*
X80499782Y-63100000D03*
X109604782Y-57100000D03*
X72712515Y-73824644D03*
X150487501Y-49700000D03*
X84750132Y-65493243D03*
X63200000Y-75000000D03*
X83200000Y-69800000D03*
X74899782Y-56100000D03*
X68905000Y-70385000D03*
X83947010Y-64715544D03*
X104465000Y-75465000D03*
X128873550Y-55490952D03*
X61285000Y-72925000D03*
X117165000Y-52605000D03*
X74899782Y-64100000D03*
X114625000Y-47525000D03*
X150364088Y-48319051D03*
X119705000Y-52605000D03*
X110904782Y-56600000D03*
X88600000Y-75600000D03*
X140800000Y-71400000D03*
X78250000Y-52466393D03*
X86250000Y-57650000D03*
X140000000Y-67000000D03*
X87000000Y-57650000D03*
%TO.N,+2V0*%
X81600000Y-51000000D03*
X122250000Y-72000000D03*
X105819341Y-71951850D03*
X101004782Y-64200000D03*
X80800000Y-51000000D03*
X108304782Y-73966393D03*
X135899014Y-50399014D03*
X80000000Y-51000000D03*
X107319341Y-73818243D03*
X131800000Y-58800000D03*
D22*
X68900000Y-49900000D03*
D21*
X130250000Y-67500000D03*
X106804782Y-72100000D03*
%TO.N,VCC*%
X85500000Y-69966393D03*
D22*
X104420468Y-67500000D03*
X89330615Y-52625000D03*
X95904782Y-71200000D03*
D21*
X96704782Y-72400000D03*
D22*
X95954782Y-66265686D03*
X70000000Y-52716393D03*
X69463284Y-53282379D03*
X105261168Y-67489070D03*
X95004782Y-71200000D03*
D21*
X88500000Y-69966393D03*
D22*
X88604782Y-53175000D03*
D21*
X102804782Y-70500000D03*
D22*
X96554782Y-66865686D03*
D21*
%TO.N,/POWER/SW5V*%
X124025000Y-57500348D03*
X131000000Y-55000000D03*
%TO.N,+5VL*%
X126400000Y-49400000D03*
X126000000Y-48800000D03*
D22*
X95786614Y-67424634D03*
D21*
X126800000Y-48800000D03*
D22*
X95120468Y-66800000D03*
D21*
%TO.N,+BATT*%
X67750000Y-64716393D03*
X69208607Y-64175000D03*
X68291393Y-64175000D03*
X91750000Y-65716393D03*
X92464034Y-65824289D03*
X91104782Y-66100000D03*
%TO.N,+1V8SIM*%
X71808844Y-68050000D03*
X87000000Y-62966393D03*
%TO.N,+2V0SW*%
X124600000Y-63100000D03*
X114800000Y-70400000D03*
X102750000Y-71750000D03*
%TO.N,P0.08*%
X81501000Y-48701000D03*
%TO.N,P0.05*%
X128750000Y-48250000D03*
X85800000Y-52735000D03*
%TO.N,~{RESET}*%
X70453553Y-58566392D03*
X65750000Y-59000000D03*
%TO.N,SWDIO*%
X67000000Y-55750000D03*
X66000000Y-57000000D03*
%TO.N,SWO*%
X84302097Y-57650000D03*
X69000000Y-61250000D03*
%TO.N,SIM_RST*%
X70199419Y-67635173D03*
X88000000Y-60966393D03*
%TO.N,SIM_CLK*%
X72193130Y-66109569D03*
X91450000Y-62466393D03*
%TO.N,SIM_IO*%
X71801623Y-67250030D03*
X87500000Y-64716393D03*
%TO.N,P0.12*%
X105761091Y-53966393D03*
X72937720Y-52431393D03*
%TO.N,P0.29*%
X100529047Y-61775735D03*
X126769222Y-69513125D03*
X145887501Y-48024997D03*
X84120361Y-60847937D03*
%TO.N,P0.31*%
X108750000Y-65966393D03*
X84420266Y-60106279D03*
%TO.N,P0.15{slash}AIN2*%
X126250000Y-62950000D03*
X71834281Y-55141147D03*
%TO.N,P0.11*%
X106061091Y-53023951D03*
X73446275Y-51813839D03*
%TO.N,P0.16{slash}AIN3*%
X125499710Y-67249710D03*
X71772254Y-55941294D03*
%TO.N,P0.26*%
X84304782Y-64000000D03*
X127514752Y-69182903D03*
%TO.N,P0.14{slash}AIN1*%
X72125282Y-54388730D03*
X107438140Y-52613175D03*
%TO.N,P0.17{slash}AIN4*%
X72018793Y-57040975D03*
X112500000Y-63115000D03*
%TO.N,P0.28*%
X145887501Y-48900000D03*
X84038827Y-61643774D03*
X126000000Y-69732903D03*
X100926883Y-62500000D03*
%TO.N,P0.27*%
X84237532Y-63154932D03*
X109326426Y-66689967D03*
%TO.N,P0.01*%
X112500000Y-65865000D03*
X85233932Y-57482461D03*
%TO.N,P0.04*%
X83905539Y-54749621D03*
X106611091Y-52327484D03*
%TO.N,/GAS_SENSOR/AIN3*%
X127750000Y-62950000D03*
X126975000Y-67775000D03*
%TD*%
%TA.AperFunction,Conductor*%
%TO.N,GND*%
G36*
X140098394Y-46761046D02*
G01*
X140230255Y-46773465D01*
X140253097Y-46777807D01*
X140310475Y-46794414D01*
X140369398Y-46831961D01*
X140398669Y-46895404D01*
X140400000Y-46913525D01*
X140400000Y-55800000D01*
X150985500Y-55800000D01*
X151052539Y-55819685D01*
X151098294Y-55872489D01*
X151109500Y-55924000D01*
X151109500Y-75105904D01*
X151109499Y-75105907D01*
X151109499Y-75119523D01*
X151109499Y-75131765D01*
X151109499Y-75140916D01*
X151109117Y-75150644D01*
X151100423Y-75261123D01*
X151097379Y-75280343D01*
X151072649Y-75383349D01*
X151066635Y-75401857D01*
X151026092Y-75499729D01*
X151017257Y-75517067D01*
X150961906Y-75607384D01*
X150950468Y-75623126D01*
X150878465Y-75707423D01*
X150878340Y-75707569D01*
X150871731Y-75714717D01*
X150841776Y-75744669D01*
X150841753Y-75744695D01*
X150464574Y-76121875D01*
X150457424Y-76128485D01*
X150373141Y-76200468D01*
X150357399Y-76211905D01*
X150267074Y-76267255D01*
X150249736Y-76276089D01*
X150151860Y-76316629D01*
X150133355Y-76322641D01*
X150030348Y-76347370D01*
X150011128Y-76350414D01*
X149900515Y-76359117D01*
X149890792Y-76359499D01*
X149871503Y-76359499D01*
X149855907Y-76359499D01*
X149855905Y-76359499D01*
X149841471Y-76359500D01*
X149841470Y-76359499D01*
X149841468Y-76359500D01*
X61778532Y-76359500D01*
X61778524Y-76359499D01*
X61729083Y-76359499D01*
X61719356Y-76359117D01*
X61608866Y-76350423D01*
X61589648Y-76347379D01*
X61486640Y-76322651D01*
X61468133Y-76316638D01*
X61370261Y-76276099D01*
X61352924Y-76267266D01*
X61262594Y-76211913D01*
X61246852Y-76200476D01*
X61162663Y-76128573D01*
X61155513Y-76121963D01*
X60748130Y-75714580D01*
X60741514Y-75707423D01*
X60669546Y-75623146D01*
X60658112Y-75607407D01*
X60657630Y-75606620D01*
X60602755Y-75517062D01*
X60593938Y-75499754D01*
X60553389Y-75401847D01*
X60547386Y-75383369D01*
X60522655Y-75280335D01*
X60519615Y-75261137D01*
X60510882Y-75150147D01*
X60510500Y-75140421D01*
X60510500Y-75131765D01*
X60510501Y-75105907D01*
X60510500Y-75105904D01*
X60510500Y-74299216D01*
X92519500Y-74299216D01*
X92519500Y-74500783D01*
X92551030Y-74699852D01*
X92613312Y-74891539D01*
X92613314Y-74891542D01*
X92704818Y-75071129D01*
X92823289Y-75234190D01*
X92965810Y-75376711D01*
X93128871Y-75495182D01*
X93171837Y-75517074D01*
X93308460Y-75586687D01*
X93397837Y-75615727D01*
X93500149Y-75648970D01*
X93592348Y-75663572D01*
X93699217Y-75680500D01*
X93699222Y-75680500D01*
X93900783Y-75680500D01*
X93997289Y-75665214D01*
X94099851Y-75648970D01*
X94291542Y-75586686D01*
X94471129Y-75495182D01*
X94634190Y-75376711D01*
X94776711Y-75234190D01*
X94895182Y-75071129D01*
X94986686Y-74891542D01*
X95006682Y-74830000D01*
X143450000Y-74830000D01*
X149250000Y-74830000D01*
X149250000Y-69030000D01*
X143450000Y-69030000D01*
X143450000Y-74830000D01*
X95006682Y-74830000D01*
X95048970Y-74699851D01*
X95065214Y-74597289D01*
X95080500Y-74500783D01*
X95080500Y-74299216D01*
X95050563Y-74110208D01*
X95048970Y-74100149D01*
X94986686Y-73908458D01*
X94908822Y-73755642D01*
X106843841Y-73755642D01*
X106843841Y-73880844D01*
X106876246Y-74001779D01*
X106938846Y-74110207D01*
X107027377Y-74198738D01*
X107135805Y-74261338D01*
X107256740Y-74293743D01*
X107256742Y-74293743D01*
X107381940Y-74293743D01*
X107381942Y-74293743D01*
X107502877Y-74261338D01*
X107611305Y-74198738D01*
X107673640Y-74136402D01*
X107734959Y-74102920D01*
X107804651Y-74107904D01*
X107860585Y-74149775D01*
X107868705Y-74162086D01*
X107924284Y-74258353D01*
X107924286Y-74258355D01*
X107924287Y-74258357D01*
X108012818Y-74346888D01*
X108121246Y-74409488D01*
X108242181Y-74441893D01*
X108242183Y-74441893D01*
X108367381Y-74441893D01*
X108367383Y-74441893D01*
X108488318Y-74409488D01*
X108596746Y-74346888D01*
X108685277Y-74258357D01*
X108747877Y-74149929D01*
X108780282Y-74028994D01*
X108780282Y-73903792D01*
X108747877Y-73782857D01*
X108685277Y-73674429D01*
X108596746Y-73585898D01*
X108488318Y-73523298D01*
X108488319Y-73523298D01*
X108448006Y-73512496D01*
X108367383Y-73490893D01*
X108242181Y-73490893D01*
X108161557Y-73512496D01*
X108121245Y-73523298D01*
X108012819Y-73585896D01*
X107950485Y-73648231D01*
X107889161Y-73681715D01*
X107819470Y-73676730D01*
X107763536Y-73634859D01*
X107755416Y-73622548D01*
X107734257Y-73585899D01*
X107699836Y-73526279D01*
X107611305Y-73437748D01*
X107502877Y-73375148D01*
X107502878Y-73375148D01*
X107462565Y-73364346D01*
X107381942Y-73342743D01*
X107256740Y-73342743D01*
X107176116Y-73364346D01*
X107135804Y-73375148D01*
X107027378Y-73437747D01*
X107027375Y-73437749D01*
X106938847Y-73526277D01*
X106938845Y-73526280D01*
X106876246Y-73634706D01*
X106876246Y-73634707D01*
X106843841Y-73755642D01*
X94908822Y-73755642D01*
X94895182Y-73728871D01*
X94776711Y-73565810D01*
X94634190Y-73423289D01*
X94471129Y-73304818D01*
X94402795Y-73270000D01*
X94291539Y-73213312D01*
X94099852Y-73151030D01*
X93900783Y-73119500D01*
X93900778Y-73119500D01*
X93699222Y-73119500D01*
X93699217Y-73119500D01*
X93500147Y-73151030D01*
X93308460Y-73213312D01*
X93128870Y-73304818D01*
X93035838Y-73372410D01*
X92965810Y-73423289D01*
X92965808Y-73423291D01*
X92965807Y-73423291D01*
X92823291Y-73565807D01*
X92823291Y-73565808D01*
X92823289Y-73565810D01*
X92782066Y-73622548D01*
X92704818Y-73728870D01*
X92613312Y-73908460D01*
X92551030Y-74100147D01*
X92519500Y-74299216D01*
X60510500Y-74299216D01*
X60510500Y-73500000D01*
X65925000Y-73500000D01*
X66975000Y-73500000D01*
X86625000Y-73500000D01*
X87675000Y-73500000D01*
X87675000Y-72500000D01*
X86625000Y-72500000D01*
X86625000Y-73500000D01*
X66975000Y-73500000D01*
X66975000Y-73320000D01*
X70220000Y-73320000D01*
X71780000Y-73320000D01*
X73820000Y-73320000D01*
X75380000Y-73320000D01*
X75380000Y-73270000D01*
X76090000Y-73270000D01*
X76710000Y-73270000D01*
X76710000Y-73190000D01*
X85090000Y-73190000D01*
X85710000Y-73190000D01*
X85710000Y-72570000D01*
X85090000Y-72570000D01*
X85090000Y-73190000D01*
X76710000Y-73190000D01*
X76710000Y-72790000D01*
X77290000Y-72790000D01*
X77910000Y-72790000D01*
X77910000Y-72337399D01*
X96229282Y-72337399D01*
X96229282Y-72462601D01*
X96261687Y-72583536D01*
X96324287Y-72691964D01*
X96412818Y-72780495D01*
X96521246Y-72843095D01*
X96642181Y-72875500D01*
X96642183Y-72875500D01*
X96767381Y-72875500D01*
X96767383Y-72875500D01*
X96888318Y-72843095D01*
X96996746Y-72780495D01*
X97085277Y-72691964D01*
X97147877Y-72583536D01*
X97180282Y-72462601D01*
X97180282Y-72337399D01*
X97147877Y-72216464D01*
X97085277Y-72108036D01*
X96996746Y-72019505D01*
X96888318Y-71956905D01*
X96888319Y-71956905D01*
X96848006Y-71946103D01*
X96767383Y-71924500D01*
X96642181Y-71924500D01*
X96561557Y-71946103D01*
X96521245Y-71956905D01*
X96412819Y-72019504D01*
X96412816Y-72019506D01*
X96324288Y-72108034D01*
X96324286Y-72108037D01*
X96261687Y-72216463D01*
X96254359Y-72243812D01*
X96229282Y-72337399D01*
X77910000Y-72337399D01*
X77910000Y-71590000D01*
X80290000Y-71590000D01*
X80910000Y-71590000D01*
X80910000Y-71127525D01*
X94454282Y-71127525D01*
X94454282Y-71272475D01*
X94480282Y-71369506D01*
X94491799Y-71412488D01*
X94564270Y-71538011D01*
X94564272Y-71538013D01*
X94564273Y-71538015D01*
X94666767Y-71640509D01*
X94666768Y-71640510D01*
X94666770Y-71640511D01*
X94792293Y-71712982D01*
X94792294Y-71712982D01*
X94792297Y-71712984D01*
X94932307Y-71750500D01*
X94932310Y-71750500D01*
X95077254Y-71750500D01*
X95077257Y-71750500D01*
X95217267Y-71712984D01*
X95342797Y-71640509D01*
X95367101Y-71616205D01*
X95428424Y-71582720D01*
X95498116Y-71587704D01*
X95542463Y-71616205D01*
X95566767Y-71640509D01*
X95566768Y-71640510D01*
X95566770Y-71640511D01*
X95692293Y-71712982D01*
X95692294Y-71712982D01*
X95692297Y-71712984D01*
X95832307Y-71750500D01*
X95832310Y-71750500D01*
X95977254Y-71750500D01*
X95977257Y-71750500D01*
X96117267Y-71712984D01*
X96161581Y-71687399D01*
X102274500Y-71687399D01*
X102274500Y-71812601D01*
X102306905Y-71933536D01*
X102369505Y-72041964D01*
X102458036Y-72130495D01*
X102566464Y-72193095D01*
X102687399Y-72225500D01*
X102687401Y-72225500D01*
X102812599Y-72225500D01*
X102812601Y-72225500D01*
X102933536Y-72193095D01*
X103041964Y-72130495D01*
X103130495Y-72041964D01*
X103193095Y-71933536D01*
X103204962Y-71889249D01*
X105343841Y-71889249D01*
X105343841Y-72014451D01*
X105376246Y-72135386D01*
X105438846Y-72243814D01*
X105527377Y-72332345D01*
X105635805Y-72394945D01*
X105756740Y-72427350D01*
X105756742Y-72427350D01*
X105881940Y-72427350D01*
X105881942Y-72427350D01*
X106002877Y-72394945D01*
X106111305Y-72332345D01*
X106173640Y-72270009D01*
X106234959Y-72236527D01*
X106304651Y-72241511D01*
X106360585Y-72283382D01*
X106368705Y-72295693D01*
X106424284Y-72391960D01*
X106424286Y-72391962D01*
X106424287Y-72391964D01*
X106512818Y-72480495D01*
X106621246Y-72543095D01*
X106742181Y-72575500D01*
X106742183Y-72575500D01*
X106867381Y-72575500D01*
X106867383Y-72575500D01*
X106988318Y-72543095D01*
X107096746Y-72480495D01*
X107185277Y-72391964D01*
X107247877Y-72283536D01*
X107280282Y-72162601D01*
X107280282Y-72037399D01*
X107253487Y-71937399D01*
X121774500Y-71937399D01*
X121774500Y-72062601D01*
X121806905Y-72183536D01*
X121869505Y-72291964D01*
X121958036Y-72380495D01*
X122066464Y-72443095D01*
X122187399Y-72475500D01*
X122187401Y-72475500D01*
X122312599Y-72475500D01*
X122312601Y-72475500D01*
X122433536Y-72443095D01*
X122541964Y-72380495D01*
X122630495Y-72291964D01*
X122693095Y-72183536D01*
X122725500Y-72062601D01*
X122725500Y-71937399D01*
X122693095Y-71816464D01*
X122630495Y-71708036D01*
X122541964Y-71619505D01*
X122433536Y-71556905D01*
X122433537Y-71556905D01*
X122363046Y-71538017D01*
X122312601Y-71524500D01*
X122187399Y-71524500D01*
X122136954Y-71538017D01*
X122066463Y-71556905D01*
X121958037Y-71619504D01*
X121958034Y-71619506D01*
X121869506Y-71708034D01*
X121869504Y-71708037D01*
X121806905Y-71816463D01*
X121790702Y-71876931D01*
X121774500Y-71937399D01*
X107253487Y-71937399D01*
X107247877Y-71916464D01*
X107185277Y-71808036D01*
X107096746Y-71719505D01*
X106988318Y-71656905D01*
X106988319Y-71656905D01*
X106948006Y-71646103D01*
X106867383Y-71624500D01*
X106742181Y-71624500D01*
X106661557Y-71646103D01*
X106621245Y-71656905D01*
X106512819Y-71719503D01*
X106450485Y-71781838D01*
X106389161Y-71815322D01*
X106319470Y-71810337D01*
X106263536Y-71768466D01*
X106255416Y-71756155D01*
X106234257Y-71719506D01*
X106199836Y-71659886D01*
X106111305Y-71571355D01*
X106002877Y-71508755D01*
X106002878Y-71508755D01*
X105962565Y-71497953D01*
X105881942Y-71476350D01*
X105756740Y-71476350D01*
X105676116Y-71497953D01*
X105635804Y-71508755D01*
X105527378Y-71571354D01*
X105527375Y-71571356D01*
X105438847Y-71659884D01*
X105438845Y-71659887D01*
X105376246Y-71768313D01*
X105376246Y-71768314D01*
X105343841Y-71889249D01*
X103204962Y-71889249D01*
X103225500Y-71812601D01*
X103225500Y-71687399D01*
X103193095Y-71566464D01*
X103130495Y-71458036D01*
X103041964Y-71369505D01*
X102933536Y-71306905D01*
X102933537Y-71306905D01*
X102893224Y-71296103D01*
X102812601Y-71274500D01*
X102687399Y-71274500D01*
X102606775Y-71296103D01*
X102566463Y-71306905D01*
X102458037Y-71369504D01*
X102458034Y-71369506D01*
X102369506Y-71458034D01*
X102369504Y-71458037D01*
X102306905Y-71566463D01*
X102300598Y-71590000D01*
X102274500Y-71687399D01*
X96161581Y-71687399D01*
X96242797Y-71640509D01*
X96345291Y-71538015D01*
X96417766Y-71412485D01*
X96455282Y-71272475D01*
X96455282Y-71127525D01*
X96417766Y-70987515D01*
X96392119Y-70943094D01*
X96345293Y-70861988D01*
X96345288Y-70861982D01*
X96242799Y-70759493D01*
X96242793Y-70759488D01*
X96117270Y-70687017D01*
X96117271Y-70687017D01*
X96104280Y-70683536D01*
X95977257Y-70649500D01*
X95832307Y-70649500D01*
X95705284Y-70683536D01*
X95692293Y-70687017D01*
X95566770Y-70759488D01*
X95542462Y-70783796D01*
X95481138Y-70817280D01*
X95411447Y-70812294D01*
X95367102Y-70783796D01*
X95363799Y-70780493D01*
X95342797Y-70759491D01*
X95342794Y-70759489D01*
X95342793Y-70759488D01*
X95217270Y-70687017D01*
X95217271Y-70687017D01*
X95204280Y-70683536D01*
X95077257Y-70649500D01*
X94932307Y-70649500D01*
X94805284Y-70683536D01*
X94792293Y-70687017D01*
X94666770Y-70759488D01*
X94666764Y-70759493D01*
X94564275Y-70861982D01*
X94564270Y-70861988D01*
X94491799Y-70987511D01*
X94491798Y-70987515D01*
X94454282Y-71127525D01*
X80910000Y-71127525D01*
X80910000Y-69970000D01*
X80290000Y-69970000D01*
X80290000Y-71590000D01*
X77910000Y-71590000D01*
X77910000Y-71210000D01*
X77290000Y-71210000D01*
X77290000Y-72790000D01*
X76710000Y-72790000D01*
X76710000Y-72650000D01*
X76090000Y-72650000D01*
X76090000Y-73270000D01*
X75380000Y-73270000D01*
X75380000Y-72680000D01*
X73820000Y-72680000D01*
X73820000Y-73320000D01*
X71780000Y-73320000D01*
X71780000Y-73270000D01*
X72280000Y-73270000D01*
X72920000Y-73270000D01*
X72920000Y-72730000D01*
X72280000Y-72730000D01*
X72280000Y-73270000D01*
X71780000Y-73270000D01*
X71780000Y-72680000D01*
X70220000Y-72680000D01*
X70220000Y-73320000D01*
X66975000Y-73320000D01*
X66975000Y-73270000D01*
X69080000Y-73270000D01*
X69720000Y-73270000D01*
X69720000Y-72730000D01*
X69080000Y-72730000D01*
X69080000Y-73270000D01*
X66975000Y-73270000D01*
X66975000Y-72500000D01*
X65925000Y-72500000D01*
X65925000Y-73500000D01*
X60510500Y-73500000D01*
X60510500Y-70710000D01*
X77250000Y-70710000D01*
X77870000Y-70710000D01*
X77870000Y-70090000D01*
X77250000Y-70090000D01*
X77250000Y-70710000D01*
X60510500Y-70710000D01*
X60510500Y-69903792D01*
X85024500Y-69903792D01*
X85024500Y-70028994D01*
X85056905Y-70149929D01*
X85119505Y-70258357D01*
X85208036Y-70346888D01*
X85316464Y-70409488D01*
X85437399Y-70441893D01*
X85437401Y-70441893D01*
X85562599Y-70441893D01*
X85562601Y-70441893D01*
X85683536Y-70409488D01*
X85791964Y-70346888D01*
X85880495Y-70258357D01*
X85943095Y-70149929D01*
X85975500Y-70028994D01*
X85975500Y-69903792D01*
X88024500Y-69903792D01*
X88024500Y-70028994D01*
X88056905Y-70149929D01*
X88119505Y-70258357D01*
X88208036Y-70346888D01*
X88316464Y-70409488D01*
X88437399Y-70441893D01*
X88437401Y-70441893D01*
X88562599Y-70441893D01*
X88562601Y-70441893D01*
X88579373Y-70437399D01*
X102329282Y-70437399D01*
X102329282Y-70562601D01*
X102361687Y-70683536D01*
X102424287Y-70791964D01*
X102512818Y-70880495D01*
X102621246Y-70943095D01*
X102742181Y-70975500D01*
X102742183Y-70975500D01*
X102867381Y-70975500D01*
X102867383Y-70975500D01*
X102988318Y-70943095D01*
X103096746Y-70880495D01*
X103185277Y-70791964D01*
X103247877Y-70683536D01*
X103280282Y-70562601D01*
X103280282Y-70437399D01*
X103253487Y-70337399D01*
X114324500Y-70337399D01*
X114324500Y-70462601D01*
X114356905Y-70583536D01*
X114419505Y-70691964D01*
X114508036Y-70780495D01*
X114616464Y-70843095D01*
X114737399Y-70875500D01*
X114737401Y-70875500D01*
X114862599Y-70875500D01*
X114862601Y-70875500D01*
X114983536Y-70843095D01*
X115091964Y-70780495D01*
X115180495Y-70691964D01*
X115243095Y-70583536D01*
X115275500Y-70462601D01*
X115275500Y-70337399D01*
X115243095Y-70216464D01*
X115180495Y-70108036D01*
X115091964Y-70019505D01*
X114983536Y-69956905D01*
X114983537Y-69956905D01*
X114934270Y-69943704D01*
X114862601Y-69924500D01*
X114737399Y-69924500D01*
X114665730Y-69943704D01*
X114616463Y-69956905D01*
X114508037Y-70019504D01*
X114508034Y-70019506D01*
X114419506Y-70108034D01*
X114419504Y-70108037D01*
X114356905Y-70216463D01*
X114356905Y-70216464D01*
X114324500Y-70337399D01*
X103253487Y-70337399D01*
X103247877Y-70316464D01*
X103185277Y-70208036D01*
X103096746Y-70119505D01*
X102988318Y-70056905D01*
X102988319Y-70056905D01*
X102948006Y-70046103D01*
X102867383Y-70024500D01*
X102742181Y-70024500D01*
X102661557Y-70046103D01*
X102621245Y-70056905D01*
X102512819Y-70119504D01*
X102512816Y-70119506D01*
X102424288Y-70208034D01*
X102424286Y-70208037D01*
X102361687Y-70316463D01*
X102361687Y-70316464D01*
X102329282Y-70437399D01*
X88579373Y-70437399D01*
X88683536Y-70409488D01*
X88791964Y-70346888D01*
X88880495Y-70258357D01*
X88943095Y-70149929D01*
X88975500Y-70028994D01*
X88975500Y-69903792D01*
X88943095Y-69782857D01*
X88880495Y-69674429D01*
X88876368Y-69670302D01*
X125524500Y-69670302D01*
X125524500Y-69795504D01*
X125556905Y-69916439D01*
X125619505Y-70024867D01*
X125708036Y-70113398D01*
X125816464Y-70175998D01*
X125937399Y-70208403D01*
X125937401Y-70208403D01*
X126062599Y-70208403D01*
X126062601Y-70208403D01*
X126183536Y-70175998D01*
X126291964Y-70113398D01*
X126380495Y-70024867D01*
X126399517Y-69991918D01*
X126450081Y-69943704D01*
X126518687Y-69930479D01*
X126568903Y-69946530D01*
X126585686Y-69956220D01*
X126706621Y-69988625D01*
X126706623Y-69988625D01*
X126831821Y-69988625D01*
X126831823Y-69988625D01*
X126952758Y-69956220D01*
X127061186Y-69893620D01*
X127149717Y-69805089D01*
X127212317Y-69696661D01*
X127212317Y-69696658D01*
X127216002Y-69690277D01*
X127266568Y-69642060D01*
X127335175Y-69628836D01*
X127355475Y-69632498D01*
X127452151Y-69658403D01*
X127452153Y-69658403D01*
X127577351Y-69658403D01*
X127577353Y-69658403D01*
X127698288Y-69625998D01*
X127806716Y-69563398D01*
X127895247Y-69474867D01*
X127957847Y-69366439D01*
X127990252Y-69245504D01*
X127990252Y-69120302D01*
X127957847Y-68999367D01*
X127895247Y-68890939D01*
X127806716Y-68802408D01*
X127698288Y-68739808D01*
X127698289Y-68739808D01*
X127657976Y-68729006D01*
X127577353Y-68707403D01*
X127452151Y-68707403D01*
X127371527Y-68729006D01*
X127331215Y-68739808D01*
X127222789Y-68802407D01*
X127222786Y-68802409D01*
X127134258Y-68890937D01*
X127134254Y-68890942D01*
X127067970Y-69005752D01*
X127017404Y-69053967D01*
X126948797Y-69067191D01*
X126928489Y-69063527D01*
X126923724Y-69062250D01*
X126831823Y-69037625D01*
X126706621Y-69037625D01*
X126645633Y-69053967D01*
X126585685Y-69070030D01*
X126477259Y-69132629D01*
X126477256Y-69132631D01*
X126388728Y-69221159D01*
X126388724Y-69221164D01*
X126369704Y-69254109D01*
X126319137Y-69302325D01*
X126250530Y-69315548D01*
X126200319Y-69299497D01*
X126183540Y-69289810D01*
X126183537Y-69289808D01*
X126143224Y-69279006D01*
X126062601Y-69257403D01*
X125937399Y-69257403D01*
X125856775Y-69279006D01*
X125816463Y-69289808D01*
X125708037Y-69352407D01*
X125708034Y-69352409D01*
X125619506Y-69440937D01*
X125619504Y-69440940D01*
X125556905Y-69549366D01*
X125556905Y-69549367D01*
X125524500Y-69670302D01*
X88876368Y-69670302D01*
X88791964Y-69585898D01*
X88683536Y-69523298D01*
X88683537Y-69523298D01*
X88643224Y-69512496D01*
X88562601Y-69490893D01*
X88437399Y-69490893D01*
X88356775Y-69512496D01*
X88316463Y-69523298D01*
X88208037Y-69585897D01*
X88208034Y-69585899D01*
X88119506Y-69674427D01*
X88119504Y-69674430D01*
X88056905Y-69782856D01*
X88040702Y-69843324D01*
X88024500Y-69903792D01*
X85975500Y-69903792D01*
X85943095Y-69782857D01*
X85880495Y-69674429D01*
X85791964Y-69585898D01*
X85683536Y-69523298D01*
X85683537Y-69523298D01*
X85643224Y-69512496D01*
X85562601Y-69490893D01*
X85437399Y-69490893D01*
X85356775Y-69512496D01*
X85316463Y-69523298D01*
X85208037Y-69585897D01*
X85208034Y-69585899D01*
X85119506Y-69674427D01*
X85119504Y-69674430D01*
X85056905Y-69782856D01*
X85040702Y-69843324D01*
X85024500Y-69903792D01*
X60510500Y-69903792D01*
X60510500Y-69240000D01*
X77449782Y-69240000D01*
X77749782Y-69240000D01*
X77749782Y-68961971D01*
X99370627Y-68961971D01*
X99417825Y-68989221D01*
X99417824Y-68989221D01*
X99551353Y-69025000D01*
X99689583Y-69025000D01*
X99823113Y-68989220D01*
X99870308Y-68961972D01*
X99870308Y-68961971D01*
X100370627Y-68961971D01*
X100417825Y-68989221D01*
X100417824Y-68989221D01*
X100551353Y-69025000D01*
X100689583Y-69025000D01*
X100823113Y-68989220D01*
X100870308Y-68961972D01*
X100870308Y-68961971D01*
X101370627Y-68961971D01*
X101417825Y-68989221D01*
X101417824Y-68989221D01*
X101551353Y-69025000D01*
X101689583Y-69025000D01*
X101823113Y-68989220D01*
X101870308Y-68961972D01*
X101870308Y-68961971D01*
X101620469Y-68712132D01*
X101370627Y-68961971D01*
X100870308Y-68961971D01*
X100620469Y-68712132D01*
X100370627Y-68961971D01*
X99870308Y-68961971D01*
X99620469Y-68712132D01*
X99370627Y-68961971D01*
X77749782Y-68961971D01*
X77749782Y-68700000D01*
X77449782Y-68700000D01*
X77449782Y-69240000D01*
X60510500Y-69240000D01*
X60510500Y-67572572D01*
X69723919Y-67572572D01*
X69723919Y-67697774D01*
X69756324Y-67818709D01*
X69818924Y-67927137D01*
X69907455Y-68015668D01*
X70015883Y-68078268D01*
X70136818Y-68110673D01*
X70136820Y-68110673D01*
X70262018Y-68110673D01*
X70262020Y-68110673D01*
X70382955Y-68078268D01*
X70491383Y-68015668D01*
X70579914Y-67927137D01*
X70642514Y-67818709D01*
X70674919Y-67697774D01*
X70674919Y-67572572D01*
X70642514Y-67451637D01*
X70579914Y-67343209D01*
X70491383Y-67254678D01*
X70382955Y-67192078D01*
X70382956Y-67192078D01*
X70365606Y-67187429D01*
X71326123Y-67187429D01*
X71326123Y-67312631D01*
X71358528Y-67433566D01*
X71416980Y-67534810D01*
X71421127Y-67541992D01*
X71421129Y-67541995D01*
X71445078Y-67565944D01*
X71478563Y-67627267D01*
X71473579Y-67696959D01*
X71445080Y-67741304D01*
X71428351Y-67758033D01*
X71428348Y-67758037D01*
X71365749Y-67866463D01*
X71365749Y-67866464D01*
X71333344Y-67987399D01*
X71333344Y-68112601D01*
X71365749Y-68233536D01*
X71428349Y-68341964D01*
X71516880Y-68430495D01*
X71625308Y-68493095D01*
X71746243Y-68525500D01*
X71746245Y-68525500D01*
X71871443Y-68525500D01*
X71871445Y-68525500D01*
X71992380Y-68493095D01*
X72100134Y-68430884D01*
X99095468Y-68430884D01*
X99095468Y-68569115D01*
X99131246Y-68702640D01*
X99131248Y-68702645D01*
X99158494Y-68749839D01*
X99408335Y-68499999D01*
X99373526Y-68465190D01*
X99445468Y-68465190D01*
X99445468Y-68534810D01*
X99472111Y-68599129D01*
X99521339Y-68648357D01*
X99585658Y-68675000D01*
X99655278Y-68675000D01*
X99719597Y-68648357D01*
X99768825Y-68599129D01*
X99795468Y-68534810D01*
X99795468Y-68500000D01*
X99832600Y-68500000D01*
X99832600Y-68500001D01*
X100082438Y-68749839D01*
X100104283Y-68746964D01*
X100136656Y-68746964D01*
X100158494Y-68749839D01*
X100408335Y-68499999D01*
X100373526Y-68465190D01*
X100445468Y-68465190D01*
X100445468Y-68534810D01*
X100472111Y-68599129D01*
X100521339Y-68648357D01*
X100585658Y-68675000D01*
X100655278Y-68675000D01*
X100719597Y-68648357D01*
X100768825Y-68599129D01*
X100795468Y-68534810D01*
X100795468Y-68500000D01*
X100832600Y-68500000D01*
X100832600Y-68500001D01*
X101082438Y-68749839D01*
X101104283Y-68746964D01*
X101136656Y-68746964D01*
X101158494Y-68749839D01*
X101408335Y-68499999D01*
X101373526Y-68465190D01*
X101445468Y-68465190D01*
X101445468Y-68534810D01*
X101472111Y-68599129D01*
X101521339Y-68648357D01*
X101585658Y-68675000D01*
X101655278Y-68675000D01*
X101719597Y-68648357D01*
X101768825Y-68599129D01*
X101795468Y-68534810D01*
X101795468Y-68500000D01*
X101832600Y-68500000D01*
X101832600Y-68500001D01*
X102082439Y-68749840D01*
X102082440Y-68749840D01*
X102109688Y-68702645D01*
X102145468Y-68569115D01*
X102145468Y-68430884D01*
X102109689Y-68297357D01*
X102082439Y-68250159D01*
X101832600Y-68500000D01*
X101795468Y-68500000D01*
X101795468Y-68465190D01*
X101768825Y-68400871D01*
X101719597Y-68351643D01*
X101655278Y-68325000D01*
X101585658Y-68325000D01*
X101521339Y-68351643D01*
X101472111Y-68400871D01*
X101445468Y-68465190D01*
X101373526Y-68465190D01*
X101158494Y-68250158D01*
X101136652Y-68253034D01*
X101132886Y-68252446D01*
X101129314Y-68253779D01*
X101104282Y-68253034D01*
X101082440Y-68250158D01*
X100832600Y-68500000D01*
X100795468Y-68500000D01*
X100795468Y-68465190D01*
X100768825Y-68400871D01*
X100719597Y-68351643D01*
X100655278Y-68325000D01*
X100585658Y-68325000D01*
X100521339Y-68351643D01*
X100472111Y-68400871D01*
X100445468Y-68465190D01*
X100373526Y-68465190D01*
X100158494Y-68250158D01*
X100136652Y-68253034D01*
X100132886Y-68252446D01*
X100129314Y-68253779D01*
X100104282Y-68253034D01*
X100082440Y-68250158D01*
X99832600Y-68500000D01*
X99795468Y-68500000D01*
X99795468Y-68465190D01*
X99768825Y-68400871D01*
X99719597Y-68351643D01*
X99655278Y-68325000D01*
X99585658Y-68325000D01*
X99521339Y-68351643D01*
X99472111Y-68400871D01*
X99445468Y-68465190D01*
X99373526Y-68465190D01*
X99158494Y-68250158D01*
X99158494Y-68250159D01*
X99131247Y-68297353D01*
X99095468Y-68430884D01*
X72100134Y-68430884D01*
X72100808Y-68430495D01*
X72189339Y-68341964D01*
X72251939Y-68233536D01*
X72284344Y-68112601D01*
X72284344Y-67987399D01*
X72251939Y-67866464D01*
X72189339Y-67758036D01*
X72165388Y-67734085D01*
X72131903Y-67672762D01*
X72136887Y-67603070D01*
X72165388Y-67558723D01*
X72182118Y-67541994D01*
X72244718Y-67433566D01*
X72277123Y-67312631D01*
X72277123Y-67187429D01*
X72244718Y-67066494D01*
X72182118Y-66958066D01*
X72093587Y-66869535D01*
X71985159Y-66806935D01*
X71985160Y-66806935D01*
X71944847Y-66796133D01*
X71864224Y-66774530D01*
X71739022Y-66774530D01*
X71658398Y-66796133D01*
X71618086Y-66806935D01*
X71509660Y-66869534D01*
X71509657Y-66869536D01*
X71421129Y-66958064D01*
X71421127Y-66958067D01*
X71358528Y-67066493D01*
X71355487Y-67077843D01*
X71326123Y-67187429D01*
X70365606Y-67187429D01*
X70342643Y-67181276D01*
X70262020Y-67159673D01*
X70136818Y-67159673D01*
X70056194Y-67181276D01*
X70015882Y-67192078D01*
X69907456Y-67254677D01*
X69907453Y-67254679D01*
X69818925Y-67343207D01*
X69818923Y-67343210D01*
X69756324Y-67451636D01*
X69747910Y-67483037D01*
X69723919Y-67572572D01*
X60510500Y-67572572D01*
X60510500Y-66727525D01*
X94569968Y-66727525D01*
X94569968Y-66872475D01*
X94599802Y-66983814D01*
X94607485Y-67012488D01*
X94679956Y-67138011D01*
X94679958Y-67138013D01*
X94679959Y-67138015D01*
X94782453Y-67240509D01*
X94782454Y-67240510D01*
X94782456Y-67240511D01*
X94907979Y-67312982D01*
X94907980Y-67312982D01*
X94907983Y-67312984D01*
X95047993Y-67350500D01*
X95047996Y-67350500D01*
X95112114Y-67350500D01*
X95179153Y-67370185D01*
X95224908Y-67422989D01*
X95236114Y-67474500D01*
X95236114Y-67497109D01*
X95271863Y-67630525D01*
X95273631Y-67637122D01*
X95346102Y-67762645D01*
X95346104Y-67762647D01*
X95346105Y-67762649D01*
X95448599Y-67865143D01*
X95448600Y-67865144D01*
X95448602Y-67865145D01*
X95574125Y-67937616D01*
X95574126Y-67937616D01*
X95574129Y-67937618D01*
X95714139Y-67975134D01*
X95714142Y-67975134D01*
X95859086Y-67975134D01*
X95859089Y-67975134D01*
X95908210Y-67961972D01*
X99370626Y-67961972D01*
X99373502Y-67983814D01*
X99373502Y-68016184D01*
X99370626Y-68038026D01*
X99620467Y-68287867D01*
X99870307Y-68038026D01*
X99867432Y-68016188D01*
X99867432Y-67983815D01*
X99870307Y-67961972D01*
X100370626Y-67961972D01*
X100373502Y-67983814D01*
X100373502Y-68016184D01*
X100370626Y-68038026D01*
X100620467Y-68287867D01*
X100870307Y-68038026D01*
X100867432Y-68016188D01*
X100867432Y-67983815D01*
X100870307Y-67961972D01*
X101370626Y-67961972D01*
X101373502Y-67983814D01*
X101373502Y-68016184D01*
X101370626Y-68038026D01*
X101620467Y-68287867D01*
X101870307Y-68038026D01*
X101867432Y-68016188D01*
X101867432Y-67983815D01*
X101870307Y-67961970D01*
X101620469Y-67712132D01*
X101370626Y-67961972D01*
X100870307Y-67961972D01*
X100870307Y-67961970D01*
X100620469Y-67712132D01*
X100370626Y-67961972D01*
X99870307Y-67961972D01*
X99870307Y-67961970D01*
X99620469Y-67712132D01*
X99370626Y-67961972D01*
X95908210Y-67961972D01*
X95999099Y-67937618D01*
X96124629Y-67865143D01*
X96227123Y-67762649D01*
X96299598Y-67637119D01*
X96334978Y-67505079D01*
X96371341Y-67445422D01*
X96401269Y-67430884D01*
X99095468Y-67430884D01*
X99095468Y-67569115D01*
X99131246Y-67702640D01*
X99131248Y-67702645D01*
X99158494Y-67749839D01*
X99408335Y-67499999D01*
X99373526Y-67465190D01*
X99445468Y-67465190D01*
X99445468Y-67534810D01*
X99472111Y-67599129D01*
X99521339Y-67648357D01*
X99585658Y-67675000D01*
X99655278Y-67675000D01*
X99719597Y-67648357D01*
X99768825Y-67599129D01*
X99795468Y-67534810D01*
X99795468Y-67500000D01*
X99832600Y-67500000D01*
X99832600Y-67500001D01*
X100082438Y-67749839D01*
X100104283Y-67746964D01*
X100136656Y-67746964D01*
X100158494Y-67749839D01*
X100408335Y-67499999D01*
X100373526Y-67465190D01*
X100445468Y-67465190D01*
X100445468Y-67534810D01*
X100472111Y-67599129D01*
X100521339Y-67648357D01*
X100585658Y-67675000D01*
X100655278Y-67675000D01*
X100719597Y-67648357D01*
X100768825Y-67599129D01*
X100795468Y-67534810D01*
X100795468Y-67500000D01*
X100832600Y-67500000D01*
X100832600Y-67500001D01*
X101082438Y-67749839D01*
X101104283Y-67746964D01*
X101136656Y-67746964D01*
X101158494Y-67749839D01*
X101408335Y-67499999D01*
X101373526Y-67465190D01*
X101445468Y-67465190D01*
X101445468Y-67534810D01*
X101472111Y-67599129D01*
X101521339Y-67648357D01*
X101585658Y-67675000D01*
X101655278Y-67675000D01*
X101719597Y-67648357D01*
X101768825Y-67599129D01*
X101795468Y-67534810D01*
X101795468Y-67500000D01*
X101832600Y-67500000D01*
X101832600Y-67500001D01*
X102082439Y-67749840D01*
X102082440Y-67749840D01*
X102109688Y-67702645D01*
X102145468Y-67569115D01*
X102145468Y-67430884D01*
X102144568Y-67427525D01*
X103869968Y-67427525D01*
X103869968Y-67572475D01*
X103907461Y-67712399D01*
X103907485Y-67712488D01*
X103979956Y-67838011D01*
X103979958Y-67838013D01*
X103979959Y-67838015D01*
X104082453Y-67940509D01*
X104082454Y-67940510D01*
X104082456Y-67940511D01*
X104207979Y-68012982D01*
X104207980Y-68012982D01*
X104207983Y-68012984D01*
X104347993Y-68050500D01*
X104347996Y-68050500D01*
X104492940Y-68050500D01*
X104492943Y-68050500D01*
X104632953Y-68012984D01*
X104758483Y-67940509D01*
X104759265Y-67939726D01*
X104760085Y-67939278D01*
X104764929Y-67935562D01*
X104765508Y-67936317D01*
X104820582Y-67906240D01*
X104890274Y-67911219D01*
X104916108Y-67925524D01*
X104916114Y-67925515D01*
X104916670Y-67925836D01*
X104922436Y-67929029D01*
X104923152Y-67929578D01*
X104923153Y-67929579D01*
X104973308Y-67958536D01*
X105048679Y-68002052D01*
X105048680Y-68002052D01*
X105048683Y-68002054D01*
X105188693Y-68039570D01*
X105188696Y-68039570D01*
X105333640Y-68039570D01*
X105333643Y-68039570D01*
X105473653Y-68002054D01*
X105599183Y-67929579D01*
X105701677Y-67827085D01*
X105774152Y-67701555D01*
X105811668Y-67561545D01*
X105811668Y-67416595D01*
X105774152Y-67276585D01*
X105761503Y-67254677D01*
X105722493Y-67187109D01*
X125024210Y-67187109D01*
X125024210Y-67312311D01*
X125056615Y-67433246D01*
X125119215Y-67541674D01*
X125207746Y-67630205D01*
X125316174Y-67692805D01*
X125437109Y-67725210D01*
X125437111Y-67725210D01*
X125562309Y-67725210D01*
X125562311Y-67725210D01*
X125610121Y-67712399D01*
X126499500Y-67712399D01*
X126499500Y-67837601D01*
X126531905Y-67958536D01*
X126594505Y-68066964D01*
X126683036Y-68155495D01*
X126791464Y-68218095D01*
X126912399Y-68250500D01*
X126912401Y-68250500D01*
X127037599Y-68250500D01*
X127037601Y-68250500D01*
X127158536Y-68218095D01*
X127266964Y-68155495D01*
X127355495Y-68066964D01*
X127418095Y-67958536D01*
X127450500Y-67837601D01*
X127450500Y-67712399D01*
X127418095Y-67591464D01*
X127365289Y-67500000D01*
X127360249Y-67491270D01*
X127355495Y-67483036D01*
X127309858Y-67437399D01*
X129774500Y-67437399D01*
X129774500Y-67562601D01*
X129806905Y-67683536D01*
X129869505Y-67791964D01*
X129958036Y-67880495D01*
X130066464Y-67943095D01*
X130187399Y-67975500D01*
X130187401Y-67975500D01*
X130312599Y-67975500D01*
X130312601Y-67975500D01*
X130433536Y-67943095D01*
X130541964Y-67880495D01*
X130630495Y-67791964D01*
X130693095Y-67683536D01*
X130725500Y-67562601D01*
X130725500Y-67437399D01*
X130695382Y-67325000D01*
X130693096Y-67316468D01*
X130693095Y-67316464D01*
X130630495Y-67208036D01*
X130541964Y-67119505D01*
X130433536Y-67056905D01*
X130433537Y-67056905D01*
X130393224Y-67046103D01*
X130312601Y-67024500D01*
X130187399Y-67024500D01*
X130106775Y-67046103D01*
X130066463Y-67056905D01*
X129958037Y-67119504D01*
X129958034Y-67119506D01*
X129869506Y-67208034D01*
X129869504Y-67208037D01*
X129806905Y-67316463D01*
X129798882Y-67346406D01*
X129774500Y-67437399D01*
X127309858Y-67437399D01*
X127266965Y-67394506D01*
X127266964Y-67394505D01*
X127158536Y-67331905D01*
X127158537Y-67331905D01*
X127100910Y-67316464D01*
X127037601Y-67299500D01*
X126912399Y-67299500D01*
X126849090Y-67316464D01*
X126791463Y-67331905D01*
X126683037Y-67394504D01*
X126683034Y-67394506D01*
X126594506Y-67483034D01*
X126594504Y-67483037D01*
X126531905Y-67591463D01*
X126531905Y-67591464D01*
X126499500Y-67712399D01*
X125610121Y-67712399D01*
X125683246Y-67692805D01*
X125791674Y-67630205D01*
X125880205Y-67541674D01*
X125942805Y-67433246D01*
X125975210Y-67312311D01*
X125975210Y-67187109D01*
X125942805Y-67066174D01*
X125880205Y-66957746D01*
X125791674Y-66869215D01*
X125683246Y-66806615D01*
X125683247Y-66806615D01*
X125633222Y-66793211D01*
X125562311Y-66774210D01*
X125437109Y-66774210D01*
X125366198Y-66793211D01*
X125316173Y-66806615D01*
X125207747Y-66869214D01*
X125207744Y-66869216D01*
X125119216Y-66957744D01*
X125119214Y-66957747D01*
X125056615Y-67066173D01*
X125052151Y-67082833D01*
X125024210Y-67187109D01*
X105722493Y-67187109D01*
X105701679Y-67151058D01*
X105701674Y-67151052D01*
X105599185Y-67048563D01*
X105599179Y-67048558D01*
X105473656Y-66976087D01*
X105473657Y-66976087D01*
X105462174Y-66973010D01*
X105333643Y-66938570D01*
X105188693Y-66938570D01*
X105060161Y-66973010D01*
X105048679Y-66976087D01*
X104923156Y-67048558D01*
X104923150Y-67048563D01*
X104922361Y-67049353D01*
X104921531Y-67049805D01*
X104916707Y-67053508D01*
X104916129Y-67052755D01*
X104861035Y-67082833D01*
X104791344Y-67077843D01*
X104765527Y-67063545D01*
X104765522Y-67063555D01*
X104764995Y-67063251D01*
X104759201Y-67060042D01*
X104758482Y-67059490D01*
X104632956Y-66987017D01*
X104632957Y-66987017D01*
X104613968Y-66981929D01*
X104492943Y-66949500D01*
X104347993Y-66949500D01*
X104226968Y-66981929D01*
X104207979Y-66987017D01*
X104082456Y-67059488D01*
X104082450Y-67059493D01*
X103979961Y-67161982D01*
X103979956Y-67161988D01*
X103907485Y-67287511D01*
X103907484Y-67287515D01*
X103869968Y-67427525D01*
X102144568Y-67427525D01*
X102109689Y-67297357D01*
X102082439Y-67250159D01*
X101832600Y-67500000D01*
X101795468Y-67500000D01*
X101795468Y-67465190D01*
X101768825Y-67400871D01*
X101719597Y-67351643D01*
X101655278Y-67325000D01*
X101585658Y-67325000D01*
X101521339Y-67351643D01*
X101472111Y-67400871D01*
X101445468Y-67465190D01*
X101373526Y-67465190D01*
X101158494Y-67250158D01*
X101136652Y-67253034D01*
X101132886Y-67252446D01*
X101129314Y-67253779D01*
X101104282Y-67253034D01*
X101082440Y-67250158D01*
X100832600Y-67500000D01*
X100795468Y-67500000D01*
X100795468Y-67465190D01*
X100768825Y-67400871D01*
X100719597Y-67351643D01*
X100655278Y-67325000D01*
X100585658Y-67325000D01*
X100521339Y-67351643D01*
X100472111Y-67400871D01*
X100445468Y-67465190D01*
X100373526Y-67465190D01*
X100158494Y-67250158D01*
X100136652Y-67253034D01*
X100132886Y-67252446D01*
X100129314Y-67253779D01*
X100104282Y-67253034D01*
X100082440Y-67250158D01*
X99832600Y-67500000D01*
X99795468Y-67500000D01*
X99795468Y-67465190D01*
X99768825Y-67400871D01*
X99719597Y-67351643D01*
X99655278Y-67325000D01*
X99585658Y-67325000D01*
X99521339Y-67351643D01*
X99472111Y-67400871D01*
X99445468Y-67465190D01*
X99373526Y-67465190D01*
X99158494Y-67250158D01*
X99158494Y-67250159D01*
X99131247Y-67297353D01*
X99095468Y-67430884D01*
X96401269Y-67430884D01*
X96434188Y-67414893D01*
X96474031Y-67416792D01*
X96474251Y-67415125D01*
X96482305Y-67416185D01*
X96482307Y-67416186D01*
X96482309Y-67416186D01*
X96627254Y-67416186D01*
X96627257Y-67416186D01*
X96767267Y-67378670D01*
X96892797Y-67306195D01*
X96995291Y-67203701D01*
X97067766Y-67078171D01*
X97098902Y-66961972D01*
X99370626Y-66961972D01*
X99373502Y-66983814D01*
X99373502Y-67016184D01*
X99370626Y-67038026D01*
X99620467Y-67287867D01*
X99870307Y-67038026D01*
X99867432Y-67016188D01*
X99867432Y-66983815D01*
X99870307Y-66961972D01*
X100370626Y-66961972D01*
X100373502Y-66983814D01*
X100373502Y-67016184D01*
X100370626Y-67038026D01*
X100620467Y-67287867D01*
X100870307Y-67038026D01*
X100867432Y-67016188D01*
X100867432Y-66983815D01*
X100870307Y-66961972D01*
X101370626Y-66961972D01*
X101373502Y-66983814D01*
X101373502Y-67016184D01*
X101370626Y-67038026D01*
X101620467Y-67287867D01*
X101870307Y-67038026D01*
X101867432Y-67016188D01*
X101867432Y-66983815D01*
X101870307Y-66961970D01*
X101620469Y-66712132D01*
X101370626Y-66961972D01*
X100870307Y-66961972D01*
X100870307Y-66961970D01*
X100620469Y-66712132D01*
X100370626Y-66961972D01*
X99870307Y-66961972D01*
X99870307Y-66961970D01*
X99620469Y-66712132D01*
X99370626Y-66961972D01*
X97098902Y-66961972D01*
X97105282Y-66938161D01*
X97105282Y-66793211D01*
X97067766Y-66653201D01*
X97064969Y-66648357D01*
X96995293Y-66527674D01*
X96995288Y-66527668D01*
X96898504Y-66430884D01*
X99095468Y-66430884D01*
X99095468Y-66569115D01*
X99131246Y-66702640D01*
X99131248Y-66702645D01*
X99158494Y-66749839D01*
X99408335Y-66499999D01*
X99373526Y-66465190D01*
X99445468Y-66465190D01*
X99445468Y-66534810D01*
X99472111Y-66599129D01*
X99521339Y-66648357D01*
X99585658Y-66675000D01*
X99655278Y-66675000D01*
X99719597Y-66648357D01*
X99768825Y-66599129D01*
X99795468Y-66534810D01*
X99795468Y-66500000D01*
X99832600Y-66500000D01*
X99832600Y-66500001D01*
X100082438Y-66749839D01*
X100104283Y-66746964D01*
X100136656Y-66746964D01*
X100158494Y-66749839D01*
X100408335Y-66499999D01*
X100373526Y-66465190D01*
X100445468Y-66465190D01*
X100445468Y-66534810D01*
X100472111Y-66599129D01*
X100521339Y-66648357D01*
X100585658Y-66675000D01*
X100655278Y-66675000D01*
X100719597Y-66648357D01*
X100768825Y-66599129D01*
X100795468Y-66534810D01*
X100795468Y-66500000D01*
X100832600Y-66500000D01*
X100832600Y-66500001D01*
X101082438Y-66749839D01*
X101104283Y-66746964D01*
X101136656Y-66746964D01*
X101158494Y-66749839D01*
X101408335Y-66499999D01*
X101373526Y-66465190D01*
X101445468Y-66465190D01*
X101445468Y-66534810D01*
X101472111Y-66599129D01*
X101521339Y-66648357D01*
X101585658Y-66675000D01*
X101655278Y-66675000D01*
X101719597Y-66648357D01*
X101768825Y-66599129D01*
X101795468Y-66534810D01*
X101795468Y-66500000D01*
X101832600Y-66500000D01*
X101832600Y-66500001D01*
X102082439Y-66749840D01*
X102082440Y-66749840D01*
X102109688Y-66702645D01*
X102145468Y-66569115D01*
X102145468Y-66430884D01*
X102109689Y-66297357D01*
X102082439Y-66250159D01*
X101832600Y-66500000D01*
X101795468Y-66500000D01*
X101795468Y-66465190D01*
X101768825Y-66400871D01*
X101719597Y-66351643D01*
X101655278Y-66325000D01*
X101585658Y-66325000D01*
X101521339Y-66351643D01*
X101472111Y-66400871D01*
X101445468Y-66465190D01*
X101373526Y-66465190D01*
X101158494Y-66250158D01*
X101136652Y-66253034D01*
X101121322Y-66251114D01*
X101108777Y-66253543D01*
X101104282Y-66253034D01*
X101082440Y-66250158D01*
X100832600Y-66500000D01*
X100795468Y-66500000D01*
X100795468Y-66465190D01*
X100768825Y-66400871D01*
X100719597Y-66351643D01*
X100655278Y-66325000D01*
X100585658Y-66325000D01*
X100521339Y-66351643D01*
X100472111Y-66400871D01*
X100445468Y-66465190D01*
X100373526Y-66465190D01*
X100158494Y-66250158D01*
X100136652Y-66253034D01*
X100121322Y-66251114D01*
X100108777Y-66253543D01*
X100104282Y-66253034D01*
X100082440Y-66250158D01*
X99832600Y-66500000D01*
X99795468Y-66500000D01*
X99795468Y-66465190D01*
X99768825Y-66400871D01*
X99719597Y-66351643D01*
X99655278Y-66325000D01*
X99585658Y-66325000D01*
X99521339Y-66351643D01*
X99472111Y-66400871D01*
X99445468Y-66465190D01*
X99373526Y-66465190D01*
X99158494Y-66250158D01*
X99158494Y-66250159D01*
X99131247Y-66297353D01*
X99095468Y-66430884D01*
X96898504Y-66430884D01*
X96892799Y-66425179D01*
X96892793Y-66425174D01*
X96767270Y-66352703D01*
X96767271Y-66352703D01*
X96627253Y-66315185D01*
X96619197Y-66314125D01*
X96619437Y-66312295D01*
X96562243Y-66295501D01*
X96516488Y-66242697D01*
X96508509Y-66219291D01*
X96505282Y-66205424D01*
X96505282Y-66193211D01*
X96467766Y-66053201D01*
X96464167Y-66046968D01*
X96459004Y-66038026D01*
X99370626Y-66038026D01*
X99620467Y-66287867D01*
X99870307Y-66038026D01*
X100370626Y-66038026D01*
X100620467Y-66287867D01*
X100870307Y-66038026D01*
X101370626Y-66038026D01*
X101620467Y-66287867D01*
X101870307Y-66038026D01*
X101823113Y-66010780D01*
X101823108Y-66010778D01*
X101689583Y-65975000D01*
X101551353Y-65975000D01*
X101417821Y-66010779D01*
X101370627Y-66038026D01*
X101370626Y-66038026D01*
X100870307Y-66038026D01*
X100823113Y-66010780D01*
X100823108Y-66010778D01*
X100689583Y-65975000D01*
X100551353Y-65975000D01*
X100417821Y-66010779D01*
X100370627Y-66038026D01*
X100370626Y-66038026D01*
X99870307Y-66038026D01*
X99823113Y-66010780D01*
X99823108Y-66010778D01*
X99689583Y-65975000D01*
X99551353Y-65975000D01*
X99417821Y-66010779D01*
X99370627Y-66038026D01*
X99370626Y-66038026D01*
X96459004Y-66038026D01*
X96395293Y-65927674D01*
X96395288Y-65927668D01*
X96371412Y-65903792D01*
X108274500Y-65903792D01*
X108274500Y-66028994D01*
X108306905Y-66149929D01*
X108369505Y-66258357D01*
X108458036Y-66346888D01*
X108566464Y-66409488D01*
X108687399Y-66441893D01*
X108687401Y-66441893D01*
X108739024Y-66441893D01*
X108806063Y-66461578D01*
X108851818Y-66514382D01*
X108861762Y-66583540D01*
X108858798Y-66597988D01*
X108850926Y-66627363D01*
X108850926Y-66627366D01*
X108850926Y-66752568D01*
X108883331Y-66873503D01*
X108945931Y-66981931D01*
X109034462Y-67070462D01*
X109142890Y-67133062D01*
X109263825Y-67165467D01*
X109263827Y-67165467D01*
X109389025Y-67165467D01*
X109389027Y-67165467D01*
X109509962Y-67133062D01*
X109618390Y-67070462D01*
X109706921Y-66981931D01*
X109769521Y-66873503D01*
X109801926Y-66752568D01*
X109801926Y-66627366D01*
X109769521Y-66506431D01*
X109706921Y-66398003D01*
X109618390Y-66309472D01*
X109509962Y-66246872D01*
X109509963Y-66246872D01*
X109469650Y-66236070D01*
X109389027Y-66214467D01*
X109337402Y-66214467D01*
X109270363Y-66194782D01*
X109224608Y-66141978D01*
X109214664Y-66072820D01*
X109217628Y-66058372D01*
X109219015Y-66053196D01*
X109225500Y-66028994D01*
X109225500Y-65903792D01*
X109204753Y-65826364D01*
X109204753Y-65826362D01*
X109198332Y-65802399D01*
X112024500Y-65802399D01*
X112024500Y-65927601D01*
X112056905Y-66048536D01*
X112119505Y-66156964D01*
X112208036Y-66245495D01*
X112316464Y-66308095D01*
X112437399Y-66340500D01*
X112437401Y-66340500D01*
X112562599Y-66340500D01*
X112562601Y-66340500D01*
X112683536Y-66308095D01*
X112791964Y-66245495D01*
X112880495Y-66156964D01*
X112943095Y-66048536D01*
X112975500Y-65927601D01*
X112975500Y-65802399D01*
X112943095Y-65681464D01*
X112880495Y-65573036D01*
X112791964Y-65484505D01*
X112683536Y-65421905D01*
X112683537Y-65421905D01*
X112643224Y-65411103D01*
X112562601Y-65389500D01*
X112437399Y-65389500D01*
X112356775Y-65411103D01*
X112316463Y-65421905D01*
X112208037Y-65484504D01*
X112208034Y-65484506D01*
X112119506Y-65573034D01*
X112119504Y-65573037D01*
X112056905Y-65681463D01*
X112056905Y-65681464D01*
X112024500Y-65802399D01*
X109198332Y-65802399D01*
X109193096Y-65782861D01*
X109193095Y-65782857D01*
X109130495Y-65674429D01*
X109041964Y-65585898D01*
X108933536Y-65523298D01*
X108933537Y-65523298D01*
X108893224Y-65512496D01*
X108812601Y-65490893D01*
X108687399Y-65490893D01*
X108606775Y-65512496D01*
X108566463Y-65523298D01*
X108458037Y-65585897D01*
X108458034Y-65585899D01*
X108369506Y-65674427D01*
X108369504Y-65674430D01*
X108306905Y-65782856D01*
X108301668Y-65802400D01*
X108274500Y-65903792D01*
X96371412Y-65903792D01*
X96292799Y-65825179D01*
X96292793Y-65825174D01*
X96167270Y-65752703D01*
X96167271Y-65752703D01*
X96155788Y-65749626D01*
X96027257Y-65715186D01*
X95882307Y-65715186D01*
X95753775Y-65749626D01*
X95742293Y-65752703D01*
X95616770Y-65825174D01*
X95616764Y-65825179D01*
X95514275Y-65927668D01*
X95514270Y-65927674D01*
X95441799Y-66053196D01*
X95441798Y-66053201D01*
X95413995Y-66156964D01*
X95408146Y-66178791D01*
X95371780Y-66238451D01*
X95308933Y-66268979D01*
X95256279Y-66266471D01*
X95192943Y-66249500D01*
X95047993Y-66249500D01*
X94925520Y-66282317D01*
X94907979Y-66287017D01*
X94782456Y-66359488D01*
X94782450Y-66359493D01*
X94679961Y-66461982D01*
X94679956Y-66461988D01*
X94607485Y-66587511D01*
X94607484Y-66587515D01*
X94569968Y-66727525D01*
X60510500Y-66727525D01*
X60510500Y-66046968D01*
X71717630Y-66046968D01*
X71717630Y-66172170D01*
X71750035Y-66293105D01*
X71812635Y-66401533D01*
X71901166Y-66490064D01*
X72009594Y-66552664D01*
X72130529Y-66585069D01*
X72130531Y-66585069D01*
X72255729Y-66585069D01*
X72255731Y-66585069D01*
X72376666Y-66552664D01*
X72485094Y-66490064D01*
X72573625Y-66401533D01*
X72636225Y-66293105D01*
X72668630Y-66172170D01*
X72668630Y-66162598D01*
X90629281Y-66162598D01*
X90652999Y-66251114D01*
X90661687Y-66283536D01*
X90724287Y-66391964D01*
X90812818Y-66480495D01*
X90921246Y-66543095D01*
X91042181Y-66575500D01*
X91042183Y-66575500D01*
X91167381Y-66575500D01*
X91167383Y-66575500D01*
X91288318Y-66543095D01*
X91396746Y-66480495D01*
X91485277Y-66391964D01*
X91547877Y-66283536D01*
X91548204Y-66282315D01*
X91548760Y-66281402D01*
X91550986Y-66276029D01*
X91551823Y-66276376D01*
X91584566Y-66222655D01*
X91647411Y-66192124D01*
X91684168Y-66191467D01*
X91687395Y-66191891D01*
X91687399Y-66191893D01*
X91687403Y-66191893D01*
X91812599Y-66191893D01*
X91812601Y-66191893D01*
X91933536Y-66159488D01*
X91973644Y-66136331D01*
X92041543Y-66119859D01*
X92107570Y-66142711D01*
X92123324Y-66156038D01*
X92172070Y-66204784D01*
X92280498Y-66267384D01*
X92401433Y-66299789D01*
X92401435Y-66299789D01*
X92526633Y-66299789D01*
X92526635Y-66299789D01*
X92647570Y-66267384D01*
X92755998Y-66204784D01*
X92844529Y-66116253D01*
X92907129Y-66007825D01*
X92939534Y-65886890D01*
X92939534Y-65761688D01*
X92907129Y-65640753D01*
X92844529Y-65532325D01*
X92755998Y-65443794D01*
X92647570Y-65381194D01*
X92647571Y-65381194D01*
X92607258Y-65370392D01*
X92526635Y-65348789D01*
X92401433Y-65348789D01*
X92340965Y-65364991D01*
X92280496Y-65381194D01*
X92280493Y-65381196D01*
X92240388Y-65404350D01*
X92172487Y-65420821D01*
X92106461Y-65397968D01*
X92105301Y-65397132D01*
X92097521Y-65391455D01*
X92041964Y-65335898D01*
X91933536Y-65273298D01*
X91933537Y-65273298D01*
X91893224Y-65262496D01*
X91812601Y-65240893D01*
X91687399Y-65240893D01*
X91606775Y-65262496D01*
X91566463Y-65273298D01*
X91458037Y-65335897D01*
X91458034Y-65335899D01*
X91369506Y-65424427D01*
X91369504Y-65424430D01*
X91306905Y-65532856D01*
X91306903Y-65532862D01*
X91306575Y-65534087D01*
X91306016Y-65535003D01*
X91303795Y-65540366D01*
X91302958Y-65540019D01*
X91270206Y-65593745D01*
X91207357Y-65624270D01*
X91170623Y-65624926D01*
X91167386Y-65624500D01*
X91167383Y-65624500D01*
X91042181Y-65624500D01*
X90961557Y-65646103D01*
X90921245Y-65656905D01*
X90812819Y-65719504D01*
X90812816Y-65719506D01*
X90724288Y-65808034D01*
X90724286Y-65808037D01*
X90661687Y-65916463D01*
X90661687Y-65916464D01*
X90631535Y-66028993D01*
X90629282Y-66037400D01*
X90629282Y-66162597D01*
X90629281Y-66162598D01*
X72668630Y-66162598D01*
X72668630Y-66046968D01*
X72636225Y-65926033D01*
X72573625Y-65817605D01*
X72485094Y-65729074D01*
X72376666Y-65666474D01*
X72376667Y-65666474D01*
X72336354Y-65655672D01*
X72255731Y-65634069D01*
X72130529Y-65634069D01*
X72049905Y-65655672D01*
X72009593Y-65666474D01*
X71901167Y-65729073D01*
X71901164Y-65729075D01*
X71812636Y-65817603D01*
X71812634Y-65817606D01*
X71750035Y-65926032D01*
X71750035Y-65926033D01*
X71717630Y-66046968D01*
X60510500Y-66046968D01*
X60510500Y-64653792D01*
X67274500Y-64653792D01*
X67274500Y-64778994D01*
X67306905Y-64899929D01*
X67369505Y-65008357D01*
X67458036Y-65096888D01*
X67566464Y-65159488D01*
X67687399Y-65191893D01*
X67687401Y-65191893D01*
X67812599Y-65191893D01*
X67812601Y-65191893D01*
X67933536Y-65159488D01*
X68041964Y-65096888D01*
X68130495Y-65008357D01*
X68193095Y-64899929D01*
X68225500Y-64778994D01*
X68225500Y-64774500D01*
X68245185Y-64707461D01*
X68297989Y-64661706D01*
X68334368Y-64653792D01*
X87024500Y-64653792D01*
X87024500Y-64778994D01*
X87056905Y-64899929D01*
X87119505Y-65008357D01*
X87208036Y-65096888D01*
X87316464Y-65159488D01*
X87437399Y-65191893D01*
X87437401Y-65191893D01*
X87562599Y-65191893D01*
X87562601Y-65191893D01*
X87613084Y-65178366D01*
X140430000Y-65178366D01*
X140430000Y-65481633D01*
X140463952Y-65782966D01*
X140463954Y-65782982D01*
X140531434Y-66078633D01*
X140531438Y-66078645D01*
X140631592Y-66364866D01*
X140631598Y-66364880D01*
X140763172Y-66638096D01*
X140924515Y-66894872D01*
X141113593Y-67131969D01*
X141114746Y-67133122D01*
X141966851Y-66281016D01*
X141985864Y-66307184D01*
X142152816Y-66474136D01*
X142178983Y-66493148D01*
X141326878Y-67345254D01*
X141328030Y-67346406D01*
X141565127Y-67535484D01*
X141821903Y-67696827D01*
X142095119Y-67828401D01*
X142095133Y-67828407D01*
X142381354Y-67928561D01*
X142381366Y-67928565D01*
X142677017Y-67996045D01*
X142677033Y-67996047D01*
X142978366Y-68029999D01*
X142978368Y-68030000D01*
X143281632Y-68030000D01*
X143281633Y-68029999D01*
X143582966Y-67996047D01*
X143582982Y-67996045D01*
X143878633Y-67928565D01*
X143878645Y-67928561D01*
X144164866Y-67828407D01*
X144164880Y-67828401D01*
X144438096Y-67696827D01*
X144694872Y-67535484D01*
X144931969Y-67346406D01*
X144933122Y-67345254D01*
X144081016Y-66493148D01*
X144107184Y-66474136D01*
X144274136Y-66307184D01*
X144293148Y-66281016D01*
X145145254Y-67133122D01*
X145146406Y-67131969D01*
X145335484Y-66894872D01*
X145496827Y-66638096D01*
X145628401Y-66364880D01*
X145628407Y-66364866D01*
X145728561Y-66078645D01*
X145728565Y-66078633D01*
X145796045Y-65782982D01*
X145796047Y-65782966D01*
X145829999Y-65481633D01*
X145830000Y-65481631D01*
X145830000Y-65178368D01*
X145829999Y-65178366D01*
X145796047Y-64877033D01*
X145796045Y-64877017D01*
X145728565Y-64581366D01*
X145728561Y-64581354D01*
X145628407Y-64295133D01*
X145628401Y-64295119D01*
X145496827Y-64021903D01*
X145335484Y-63765127D01*
X145146406Y-63528030D01*
X145145254Y-63526878D01*
X144293148Y-64378983D01*
X144274136Y-64352816D01*
X144107184Y-64185864D01*
X144081016Y-64166851D01*
X144933122Y-63314746D01*
X144931969Y-63313593D01*
X144694872Y-63124515D01*
X144438096Y-62963172D01*
X144164880Y-62831598D01*
X144164866Y-62831592D01*
X143878645Y-62731438D01*
X143878633Y-62731434D01*
X143582982Y-62663954D01*
X143582966Y-62663952D01*
X143281633Y-62630000D01*
X142978366Y-62630000D01*
X142677033Y-62663952D01*
X142677017Y-62663954D01*
X142381366Y-62731434D01*
X142381354Y-62731438D01*
X142095133Y-62831592D01*
X142095119Y-62831598D01*
X141821903Y-62963172D01*
X141565127Y-63124515D01*
X141328030Y-63313593D01*
X141326878Y-63314746D01*
X142178983Y-64166851D01*
X142152816Y-64185864D01*
X141985864Y-64352816D01*
X141966851Y-64378983D01*
X141114746Y-63526878D01*
X141113593Y-63528030D01*
X140924515Y-63765127D01*
X140763172Y-64021903D01*
X140631598Y-64295119D01*
X140631592Y-64295133D01*
X140531438Y-64581354D01*
X140531434Y-64581366D01*
X140463954Y-64877017D01*
X140463952Y-64877033D01*
X140430000Y-65178366D01*
X87613084Y-65178366D01*
X87683536Y-65159488D01*
X87791964Y-65096888D01*
X87880495Y-65008357D01*
X87943095Y-64899929D01*
X87975500Y-64778994D01*
X87975500Y-64653792D01*
X87943095Y-64532857D01*
X87880495Y-64424429D01*
X87791964Y-64335898D01*
X87683536Y-64273298D01*
X87683537Y-64273298D01*
X87643607Y-64262599D01*
X87562601Y-64240893D01*
X87437399Y-64240893D01*
X87356775Y-64262496D01*
X87316463Y-64273298D01*
X87208037Y-64335897D01*
X87208034Y-64335899D01*
X87119506Y-64424427D01*
X87119504Y-64424430D01*
X87056905Y-64532856D01*
X87050839Y-64555495D01*
X87024500Y-64653792D01*
X68334368Y-64653792D01*
X68349500Y-64650500D01*
X68353992Y-64650500D01*
X68353994Y-64650500D01*
X68474929Y-64618095D01*
X68583357Y-64555495D01*
X68662319Y-64476533D01*
X68723642Y-64443048D01*
X68793334Y-64448032D01*
X68837681Y-64476533D01*
X68916643Y-64555495D01*
X69025071Y-64618095D01*
X69146006Y-64650500D01*
X69146008Y-64650500D01*
X69271206Y-64650500D01*
X69271208Y-64650500D01*
X69392143Y-64618095D01*
X69500571Y-64555495D01*
X69589102Y-64466964D01*
X69651702Y-64358536D01*
X69684107Y-64237601D01*
X69684107Y-64112399D01*
X69651702Y-63991464D01*
X69589102Y-63883036D01*
X69500571Y-63794505D01*
X69392143Y-63731905D01*
X69392144Y-63731905D01*
X69351831Y-63721103D01*
X69271208Y-63699500D01*
X69146006Y-63699500D01*
X69065382Y-63721103D01*
X69025070Y-63731905D01*
X68916644Y-63794504D01*
X68916641Y-63794506D01*
X68837681Y-63873467D01*
X68776358Y-63906952D01*
X68706666Y-63901968D01*
X68662319Y-63873467D01*
X68583358Y-63794506D01*
X68583357Y-63794505D01*
X68474929Y-63731905D01*
X68474930Y-63731905D01*
X68434617Y-63721103D01*
X68353994Y-63699500D01*
X68228792Y-63699500D01*
X68148168Y-63721103D01*
X68107856Y-63731905D01*
X67999430Y-63794504D01*
X67999427Y-63794506D01*
X67910899Y-63883034D01*
X67910897Y-63883037D01*
X67848298Y-63991463D01*
X67815893Y-64112400D01*
X67815893Y-64116893D01*
X67796208Y-64183932D01*
X67743404Y-64229687D01*
X67691893Y-64240893D01*
X67687399Y-64240893D01*
X67606775Y-64262496D01*
X67566463Y-64273298D01*
X67458037Y-64335897D01*
X67458034Y-64335899D01*
X67369506Y-64424427D01*
X67369504Y-64424430D01*
X67306905Y-64532856D01*
X67300839Y-64555495D01*
X67274500Y-64653792D01*
X60510500Y-64653792D01*
X60510500Y-64200000D01*
X62600000Y-64200000D01*
X67000000Y-64200000D01*
X67000000Y-63092331D01*
X83762032Y-63092331D01*
X83762032Y-63217533D01*
X83794437Y-63338468D01*
X83833981Y-63406962D01*
X83857036Y-63446894D01*
X83857038Y-63446897D01*
X83933551Y-63523410D01*
X83967036Y-63584733D01*
X83962052Y-63654425D01*
X83933551Y-63698772D01*
X83924288Y-63708034D01*
X83924286Y-63708037D01*
X83861687Y-63816463D01*
X83861687Y-63816464D01*
X83829282Y-63937399D01*
X83829282Y-64062601D01*
X83861687Y-64183536D01*
X83924287Y-64291964D01*
X84012818Y-64380495D01*
X84121246Y-64443095D01*
X84242181Y-64475500D01*
X84242183Y-64475500D01*
X84367381Y-64475500D01*
X84367383Y-64475500D01*
X84488318Y-64443095D01*
X84596746Y-64380495D01*
X84685277Y-64291964D01*
X84747877Y-64183536D01*
X84760240Y-64137399D01*
X100529282Y-64137399D01*
X100529282Y-64262601D01*
X100561687Y-64383536D01*
X100624287Y-64491964D01*
X100712818Y-64580495D01*
X100821246Y-64643095D01*
X100942181Y-64675500D01*
X100942183Y-64675500D01*
X101067381Y-64675500D01*
X101067383Y-64675500D01*
X101188318Y-64643095D01*
X101296746Y-64580495D01*
X101385277Y-64491964D01*
X101447877Y-64383536D01*
X101480282Y-64262601D01*
X101480282Y-64137399D01*
X101447877Y-64016464D01*
X101385277Y-63908036D01*
X101296746Y-63819505D01*
X101188318Y-63756905D01*
X101188319Y-63756905D01*
X101148006Y-63746103D01*
X101067383Y-63724500D01*
X100942181Y-63724500D01*
X100861557Y-63746103D01*
X100821245Y-63756905D01*
X100712819Y-63819504D01*
X100712816Y-63819506D01*
X100624288Y-63908034D01*
X100624286Y-63908037D01*
X100561687Y-64016463D01*
X100553482Y-64047085D01*
X100529282Y-64137399D01*
X84760240Y-64137399D01*
X84780282Y-64062601D01*
X84780282Y-63937399D01*
X84747877Y-63816464D01*
X84685277Y-63708036D01*
X84608763Y-63631522D01*
X84575278Y-63570199D01*
X84580262Y-63500507D01*
X84608763Y-63456160D01*
X84618027Y-63446896D01*
X84680627Y-63338468D01*
X84713032Y-63217533D01*
X84713032Y-63092331D01*
X84680627Y-62971396D01*
X84641596Y-62903792D01*
X86524500Y-62903792D01*
X86524500Y-63028994D01*
X86556905Y-63149929D01*
X86619505Y-63258357D01*
X86708036Y-63346888D01*
X86816464Y-63409488D01*
X86937399Y-63441893D01*
X86937401Y-63441893D01*
X87062599Y-63441893D01*
X87062601Y-63441893D01*
X87183536Y-63409488D01*
X87291964Y-63346888D01*
X87380495Y-63258357D01*
X87443095Y-63149929D01*
X87469229Y-63052399D01*
X112024500Y-63052399D01*
X112024500Y-63177601D01*
X112056905Y-63298536D01*
X112119505Y-63406964D01*
X112208036Y-63495495D01*
X112316464Y-63558095D01*
X112437399Y-63590500D01*
X112437401Y-63590500D01*
X112562599Y-63590500D01*
X112562601Y-63590500D01*
X112683536Y-63558095D01*
X112791964Y-63495495D01*
X112880495Y-63406964D01*
X112943095Y-63298536D01*
X112975500Y-63177601D01*
X112975500Y-63052399D01*
X112971481Y-63037399D01*
X124124500Y-63037399D01*
X124124500Y-63162601D01*
X124156905Y-63283536D01*
X124219505Y-63391964D01*
X124308036Y-63480495D01*
X124416464Y-63543095D01*
X124537399Y-63575500D01*
X124537401Y-63575500D01*
X124662599Y-63575500D01*
X124662601Y-63575500D01*
X124783536Y-63543095D01*
X124891964Y-63480495D01*
X124980495Y-63391964D01*
X125043095Y-63283536D01*
X125075500Y-63162601D01*
X125075500Y-63037399D01*
X125043095Y-62916464D01*
X125026315Y-62887399D01*
X125774500Y-62887399D01*
X125774500Y-63012601D01*
X125806905Y-63133536D01*
X125869505Y-63241964D01*
X125958036Y-63330495D01*
X126066464Y-63393095D01*
X126187399Y-63425500D01*
X126187401Y-63425500D01*
X126312599Y-63425500D01*
X126312601Y-63425500D01*
X126433536Y-63393095D01*
X126541964Y-63330495D01*
X126630495Y-63241964D01*
X126693095Y-63133536D01*
X126725500Y-63012601D01*
X126725500Y-62887399D01*
X127274500Y-62887399D01*
X127274500Y-63012601D01*
X127306905Y-63133536D01*
X127369505Y-63241964D01*
X127458036Y-63330495D01*
X127566464Y-63393095D01*
X127687399Y-63425500D01*
X127687401Y-63425500D01*
X127812599Y-63425500D01*
X127812601Y-63425500D01*
X127933536Y-63393095D01*
X128041964Y-63330495D01*
X128130495Y-63241964D01*
X128193095Y-63133536D01*
X128225500Y-63012601D01*
X128225500Y-62887399D01*
X128193095Y-62766464D01*
X128130495Y-62658036D01*
X128041964Y-62569505D01*
X127933536Y-62506905D01*
X127933537Y-62506905D01*
X127873779Y-62490893D01*
X127812601Y-62474500D01*
X127687399Y-62474500D01*
X127626221Y-62490893D01*
X127566463Y-62506905D01*
X127458037Y-62569504D01*
X127458034Y-62569506D01*
X127369506Y-62658034D01*
X127369504Y-62658037D01*
X127306905Y-62766463D01*
X127302513Y-62782856D01*
X127274500Y-62887399D01*
X126725500Y-62887399D01*
X126693095Y-62766464D01*
X126630495Y-62658036D01*
X126541964Y-62569505D01*
X126433536Y-62506905D01*
X126433537Y-62506905D01*
X126373779Y-62490893D01*
X126312601Y-62474500D01*
X126187399Y-62474500D01*
X126126221Y-62490893D01*
X126066463Y-62506905D01*
X125958037Y-62569504D01*
X125958034Y-62569506D01*
X125869506Y-62658034D01*
X125869504Y-62658037D01*
X125806905Y-62766463D01*
X125802513Y-62782856D01*
X125774500Y-62887399D01*
X125026315Y-62887399D01*
X124980495Y-62808036D01*
X124891964Y-62719505D01*
X124783536Y-62656905D01*
X124783537Y-62656905D01*
X124743224Y-62646103D01*
X124662601Y-62624500D01*
X124537399Y-62624500D01*
X124456775Y-62646103D01*
X124416463Y-62656905D01*
X124308037Y-62719504D01*
X124308034Y-62719506D01*
X124219506Y-62808034D01*
X124219504Y-62808037D01*
X124156905Y-62916463D01*
X124145865Y-62957665D01*
X124124500Y-63037399D01*
X112971481Y-63037399D01*
X112943095Y-62931464D01*
X112880495Y-62823036D01*
X112791964Y-62734505D01*
X112683536Y-62671905D01*
X112683537Y-62671905D01*
X112631777Y-62658036D01*
X112562601Y-62639500D01*
X112437399Y-62639500D01*
X112368223Y-62658036D01*
X112316463Y-62671905D01*
X112208037Y-62734504D01*
X112208034Y-62734506D01*
X112119506Y-62823034D01*
X112119504Y-62823037D01*
X112056905Y-62931463D01*
X112053788Y-62943095D01*
X112024500Y-63052399D01*
X87469229Y-63052399D01*
X87475500Y-63028994D01*
X87475500Y-62903792D01*
X87443095Y-62782857D01*
X87380495Y-62674429D01*
X87291964Y-62585898D01*
X87183536Y-62523298D01*
X87183537Y-62523298D01*
X87174711Y-62520933D01*
X87062601Y-62490893D01*
X86937399Y-62490893D01*
X86856775Y-62512496D01*
X86816463Y-62523298D01*
X86708037Y-62585897D01*
X86708034Y-62585899D01*
X86619506Y-62674427D01*
X86619504Y-62674430D01*
X86556905Y-62782856D01*
X86556905Y-62782857D01*
X86524500Y-62903792D01*
X84641596Y-62903792D01*
X84618027Y-62862968D01*
X84529496Y-62774437D01*
X84421068Y-62711837D01*
X84421069Y-62711837D01*
X84380756Y-62701035D01*
X84300133Y-62679432D01*
X84174931Y-62679432D01*
X84094307Y-62701035D01*
X84053995Y-62711837D01*
X83945569Y-62774436D01*
X83945566Y-62774438D01*
X83857038Y-62862966D01*
X83857036Y-62862969D01*
X83794437Y-62971395D01*
X83794437Y-62971396D01*
X83762032Y-63092331D01*
X67000000Y-63092331D01*
X67000000Y-62403792D01*
X90974500Y-62403792D01*
X90974500Y-62528994D01*
X91006905Y-62649929D01*
X91069505Y-62758357D01*
X91158036Y-62846888D01*
X91266464Y-62909488D01*
X91387399Y-62941893D01*
X91387401Y-62941893D01*
X91512599Y-62941893D01*
X91512601Y-62941893D01*
X91633536Y-62909488D01*
X91741964Y-62846888D01*
X91830495Y-62758357D01*
X91893095Y-62649929D01*
X91925500Y-62528994D01*
X91925500Y-62403792D01*
X91893095Y-62282857D01*
X91830495Y-62174429D01*
X91741964Y-62085898D01*
X91633536Y-62023298D01*
X91633537Y-62023298D01*
X91589592Y-62011523D01*
X91512601Y-61990893D01*
X91387399Y-61990893D01*
X91310408Y-62011523D01*
X91266463Y-62023298D01*
X91158037Y-62085897D01*
X91158034Y-62085899D01*
X91069506Y-62174427D01*
X91069504Y-62174430D01*
X91006905Y-62282856D01*
X91006905Y-62282857D01*
X90974500Y-62403792D01*
X67000000Y-62403792D01*
X67000000Y-61187399D01*
X68524500Y-61187399D01*
X68524500Y-61312601D01*
X68556905Y-61433536D01*
X68619505Y-61541964D01*
X68708036Y-61630495D01*
X68816464Y-61693095D01*
X68937399Y-61725500D01*
X68937401Y-61725500D01*
X69062599Y-61725500D01*
X69062601Y-61725500D01*
X69183536Y-61693095D01*
X69291964Y-61630495D01*
X69341286Y-61581173D01*
X83563327Y-61581173D01*
X83563327Y-61706375D01*
X83595732Y-61827310D01*
X83658332Y-61935738D01*
X83746863Y-62024269D01*
X83855291Y-62086869D01*
X83976226Y-62119274D01*
X83976228Y-62119274D01*
X84101426Y-62119274D01*
X84101428Y-62119274D01*
X84222363Y-62086869D01*
X84330791Y-62024269D01*
X84419322Y-61935738D01*
X84481922Y-61827310D01*
X84512516Y-61713134D01*
X100053547Y-61713134D01*
X100053547Y-61838336D01*
X100085952Y-61959271D01*
X100148552Y-62067699D01*
X100237083Y-62156230D01*
X100345511Y-62218830D01*
X100379160Y-62227846D01*
X100438818Y-62264209D01*
X100469348Y-62327056D01*
X100466839Y-62379713D01*
X100451383Y-62437399D01*
X100451383Y-62562601D01*
X100483788Y-62683536D01*
X100546388Y-62791964D01*
X100634919Y-62880495D01*
X100743347Y-62943095D01*
X100864282Y-62975500D01*
X100864284Y-62975500D01*
X100989482Y-62975500D01*
X100989484Y-62975500D01*
X101110419Y-62943095D01*
X101218847Y-62880495D01*
X101307378Y-62791964D01*
X101369978Y-62683536D01*
X101402383Y-62562601D01*
X101402383Y-62437399D01*
X101369978Y-62316464D01*
X101307378Y-62208036D01*
X101218847Y-62119505D01*
X101110419Y-62056905D01*
X101076767Y-62047887D01*
X101069037Y-62043175D01*
X101060049Y-62042101D01*
X101039676Y-62025279D01*
X101017109Y-62011523D01*
X101013152Y-62003377D01*
X101006172Y-61997614D01*
X100998126Y-61972445D01*
X100986581Y-61948676D01*
X100987093Y-61937926D01*
X100984899Y-61931062D01*
X100989089Y-61896024D01*
X100995474Y-61872196D01*
X135695000Y-61872196D01*
X135695000Y-62127803D01*
X135695001Y-62127819D01*
X135728363Y-62381231D01*
X135728366Y-62381244D01*
X135794523Y-62628150D01*
X135892342Y-62864306D01*
X135892347Y-62864316D01*
X136020154Y-63085685D01*
X136162141Y-63270725D01*
X136839071Y-62593795D01*
X136868249Y-62637463D01*
X137007537Y-62776751D01*
X137051203Y-62805927D01*
X136374273Y-63482857D01*
X136559318Y-63624848D01*
X136780683Y-63752652D01*
X136780693Y-63752657D01*
X137016849Y-63850476D01*
X137263755Y-63916633D01*
X137263768Y-63916636D01*
X137517180Y-63949998D01*
X137517197Y-63950000D01*
X137772803Y-63950000D01*
X137772819Y-63949998D01*
X138026231Y-63916636D01*
X138026244Y-63916633D01*
X138273150Y-63850476D01*
X138509306Y-63752657D01*
X138509316Y-63752652D01*
X138730681Y-63624848D01*
X138915725Y-63482857D01*
X138238796Y-62805928D01*
X138282463Y-62776751D01*
X138421751Y-62637463D01*
X138450928Y-62593796D01*
X139127857Y-63270725D01*
X139127858Y-63270725D01*
X139191413Y-63187899D01*
X139191415Y-63187897D01*
X139269848Y-63085681D01*
X139397652Y-62864316D01*
X139397657Y-62864306D01*
X139495476Y-62628150D01*
X139561633Y-62381244D01*
X139561636Y-62381231D01*
X139594998Y-62127819D01*
X139595000Y-62127803D01*
X139595000Y-61872196D01*
X139594998Y-61872180D01*
X139561636Y-61618768D01*
X139561633Y-61618755D01*
X139495476Y-61371849D01*
X139397657Y-61135693D01*
X139397652Y-61135683D01*
X139269848Y-60914318D01*
X139127857Y-60729273D01*
X138450927Y-61406202D01*
X138421751Y-61362537D01*
X138282463Y-61223249D01*
X138238796Y-61194071D01*
X138915725Y-60517141D01*
X138915725Y-60517140D01*
X138730685Y-60375154D01*
X138509316Y-60247347D01*
X138509306Y-60247342D01*
X138273150Y-60149523D01*
X138026244Y-60083366D01*
X138026231Y-60083363D01*
X137772819Y-60050001D01*
X137772803Y-60050000D01*
X137517197Y-60050000D01*
X137517180Y-60050001D01*
X137263768Y-60083363D01*
X137263755Y-60083366D01*
X137016849Y-60149523D01*
X136780693Y-60247342D01*
X136780683Y-60247347D01*
X136559314Y-60375154D01*
X136374273Y-60517140D01*
X136374273Y-60517141D01*
X137051203Y-61194071D01*
X137007537Y-61223249D01*
X136868249Y-61362537D01*
X136839071Y-61406203D01*
X136162141Y-60729273D01*
X136162140Y-60729273D01*
X136020154Y-60914314D01*
X135892347Y-61135683D01*
X135892342Y-61135693D01*
X135794523Y-61371849D01*
X135728366Y-61618755D01*
X135728363Y-61618768D01*
X135695001Y-61872180D01*
X135695000Y-61872196D01*
X100995474Y-61872196D01*
X101004547Y-61838336D01*
X101004547Y-61713134D01*
X100972142Y-61592199D01*
X100909542Y-61483771D01*
X100821011Y-61395240D01*
X100712583Y-61332640D01*
X100712584Y-61332640D01*
X100672271Y-61321838D01*
X100591648Y-61300235D01*
X100466446Y-61300235D01*
X100385822Y-61321838D01*
X100345510Y-61332640D01*
X100237084Y-61395239D01*
X100237081Y-61395241D01*
X100148553Y-61483769D01*
X100148551Y-61483772D01*
X100085952Y-61592198D01*
X100085952Y-61592199D01*
X100053547Y-61713134D01*
X84512516Y-61713134D01*
X84514327Y-61706375D01*
X84514327Y-61581173D01*
X84481922Y-61460238D01*
X84419322Y-61351810D01*
X84419175Y-61351555D01*
X84402704Y-61283655D01*
X84425556Y-61217628D01*
X84438882Y-61201875D01*
X84465258Y-61175499D01*
X84500856Y-61139901D01*
X84563456Y-61031473D01*
X84595861Y-60910538D01*
X84595861Y-60903792D01*
X87524500Y-60903792D01*
X87524500Y-61028994D01*
X87556905Y-61149929D01*
X87619505Y-61258357D01*
X87708036Y-61346888D01*
X87816464Y-61409488D01*
X87937399Y-61441893D01*
X87937401Y-61441893D01*
X88062599Y-61441893D01*
X88062601Y-61441893D01*
X88183536Y-61409488D01*
X88291964Y-61346888D01*
X88380495Y-61258357D01*
X88443095Y-61149929D01*
X88475500Y-61028994D01*
X88475500Y-60903792D01*
X88443095Y-60782857D01*
X88380495Y-60674429D01*
X88291964Y-60585898D01*
X88183536Y-60523298D01*
X88183537Y-60523298D01*
X88143224Y-60512496D01*
X88062601Y-60490893D01*
X87937399Y-60490893D01*
X87856775Y-60512496D01*
X87816463Y-60523298D01*
X87708037Y-60585897D01*
X87708034Y-60585899D01*
X87619506Y-60674427D01*
X87619504Y-60674430D01*
X87556905Y-60782856D01*
X87550461Y-60806905D01*
X87524500Y-60903792D01*
X84595861Y-60903792D01*
X84595861Y-60785336D01*
X84566795Y-60676862D01*
X84568458Y-60607014D01*
X84607620Y-60549152D01*
X84624566Y-60537385D01*
X84712230Y-60486774D01*
X84800761Y-60398243D01*
X84863361Y-60289815D01*
X84895766Y-60168880D01*
X84895766Y-60043678D01*
X84863361Y-59922743D01*
X84800761Y-59814315D01*
X84712230Y-59725784D01*
X84603802Y-59663184D01*
X84603803Y-59663184D01*
X84563490Y-59652382D01*
X84482867Y-59630779D01*
X84357665Y-59630779D01*
X84277041Y-59652382D01*
X84236729Y-59663184D01*
X84128303Y-59725783D01*
X84128300Y-59725785D01*
X84039772Y-59814313D01*
X84039770Y-59814316D01*
X83977171Y-59922742D01*
X83944766Y-60043679D01*
X83944766Y-60168880D01*
X83973831Y-60277352D01*
X83972168Y-60347201D01*
X83933005Y-60405064D01*
X83916056Y-60416832D01*
X83828400Y-60467439D01*
X83828395Y-60467443D01*
X83739867Y-60555971D01*
X83739865Y-60555974D01*
X83677266Y-60664400D01*
X83674530Y-60674611D01*
X83644861Y-60785336D01*
X83644861Y-60910538D01*
X83677266Y-61031473D01*
X83737777Y-61136283D01*
X83740013Y-61140155D01*
X83756485Y-61208055D01*
X83733632Y-61274082D01*
X83720307Y-61289835D01*
X83658331Y-61351811D01*
X83595732Y-61460237D01*
X83595732Y-61460238D01*
X83563327Y-61581173D01*
X69341286Y-61581173D01*
X69380495Y-61541964D01*
X69443095Y-61433536D01*
X69475500Y-61312601D01*
X69475500Y-61187399D01*
X69443095Y-61066464D01*
X69380495Y-60958036D01*
X69291964Y-60869505D01*
X69183536Y-60806905D01*
X69183537Y-60806905D01*
X69143224Y-60796103D01*
X69062601Y-60774500D01*
X68937399Y-60774500D01*
X68856775Y-60796103D01*
X68816463Y-60806905D01*
X68708037Y-60869504D01*
X68708034Y-60869506D01*
X68619506Y-60958034D01*
X68619504Y-60958037D01*
X68556905Y-61066463D01*
X68556905Y-61066464D01*
X68524500Y-61187399D01*
X67000000Y-61187399D01*
X67000000Y-59800000D01*
X62600000Y-59800000D01*
X62600000Y-64200000D01*
X60510500Y-64200000D01*
X60510500Y-58937399D01*
X65274500Y-58937399D01*
X65274500Y-59062601D01*
X65306905Y-59183536D01*
X65369505Y-59291964D01*
X65458036Y-59380495D01*
X65566464Y-59443095D01*
X65687399Y-59475500D01*
X65687401Y-59475500D01*
X65812599Y-59475500D01*
X65812601Y-59475500D01*
X65933536Y-59443095D01*
X66041964Y-59380495D01*
X66130495Y-59291964D01*
X66193095Y-59183536D01*
X66225500Y-59062601D01*
X66225500Y-58937399D01*
X66193095Y-58816464D01*
X66130495Y-58708036D01*
X66041964Y-58619505D01*
X66041963Y-58619504D01*
X66013464Y-58603051D01*
X65933536Y-58556905D01*
X65933537Y-58556905D01*
X65893224Y-58546103D01*
X65812601Y-58524500D01*
X65687399Y-58524500D01*
X65606775Y-58546103D01*
X65566463Y-58556905D01*
X65458037Y-58619504D01*
X65458034Y-58619506D01*
X65369506Y-58708034D01*
X65369504Y-58708037D01*
X65306905Y-58816463D01*
X65306905Y-58816464D01*
X65274500Y-58937399D01*
X60510500Y-58937399D01*
X60510500Y-58503791D01*
X69978053Y-58503791D01*
X69978053Y-58628993D01*
X70010458Y-58749928D01*
X70073058Y-58858356D01*
X70161589Y-58946887D01*
X70270017Y-59009487D01*
X70390952Y-59041892D01*
X70390954Y-59041892D01*
X70516152Y-59041892D01*
X70516154Y-59041892D01*
X70637089Y-59009487D01*
X70745517Y-58946887D01*
X70834048Y-58858356D01*
X70896648Y-58749928D01*
X70900005Y-58737399D01*
X131324500Y-58737399D01*
X131324500Y-58862601D01*
X131356905Y-58983536D01*
X131419505Y-59091964D01*
X131508036Y-59180495D01*
X131616464Y-59243095D01*
X131737399Y-59275500D01*
X131737401Y-59275500D01*
X131862599Y-59275500D01*
X131862601Y-59275500D01*
X131983536Y-59243095D01*
X132091964Y-59180495D01*
X132180495Y-59091964D01*
X132243095Y-58983536D01*
X132275500Y-58862601D01*
X132275500Y-58737399D01*
X132243095Y-58616464D01*
X132180495Y-58508036D01*
X132091964Y-58419505D01*
X131983536Y-58356905D01*
X131983537Y-58356905D01*
X131935901Y-58344141D01*
X131862601Y-58324500D01*
X131737399Y-58324500D01*
X131664099Y-58344141D01*
X131616463Y-58356905D01*
X131508037Y-58419504D01*
X131508034Y-58419506D01*
X131419506Y-58508034D01*
X131419504Y-58508037D01*
X131356905Y-58616463D01*
X131353548Y-58628991D01*
X131324500Y-58737399D01*
X70900005Y-58737399D01*
X70929053Y-58628993D01*
X70929053Y-58503791D01*
X70896648Y-58382856D01*
X70834048Y-58274428D01*
X70745517Y-58185897D01*
X70637089Y-58123297D01*
X70637090Y-58123297D01*
X70596777Y-58112495D01*
X70516154Y-58090892D01*
X70390952Y-58090892D01*
X70310328Y-58112495D01*
X70270016Y-58123297D01*
X70161590Y-58185896D01*
X70161587Y-58185898D01*
X70073059Y-58274426D01*
X70073057Y-58274429D01*
X70010458Y-58382855D01*
X70010458Y-58382856D01*
X69978053Y-58503791D01*
X60510500Y-58503791D01*
X60510500Y-57587399D01*
X83826597Y-57587399D01*
X83826597Y-57712601D01*
X83859002Y-57833536D01*
X83921602Y-57941964D01*
X84010133Y-58030495D01*
X84118561Y-58093095D01*
X84239496Y-58125500D01*
X84239498Y-58125500D01*
X84364696Y-58125500D01*
X84364698Y-58125500D01*
X84485633Y-58093095D01*
X84594061Y-58030495D01*
X84682592Y-57941964D01*
X84725648Y-57867386D01*
X84776215Y-57819171D01*
X84844822Y-57805947D01*
X84909687Y-57831915D01*
X84920717Y-57841705D01*
X84941968Y-57862956D01*
X85050396Y-57925556D01*
X85171331Y-57957961D01*
X85171333Y-57957961D01*
X85296531Y-57957961D01*
X85296533Y-57957961D01*
X85417468Y-57925556D01*
X85525896Y-57862956D01*
X85614427Y-57774425D01*
X85677027Y-57665997D01*
X85709432Y-57545062D01*
X85709432Y-57437747D01*
X123549500Y-57437747D01*
X123549500Y-57562949D01*
X123581905Y-57683884D01*
X123644505Y-57792312D01*
X123733036Y-57880843D01*
X123841464Y-57943443D01*
X123962399Y-57975848D01*
X123962401Y-57975848D01*
X124087599Y-57975848D01*
X124087601Y-57975848D01*
X124208536Y-57943443D01*
X124276016Y-57904484D01*
X140659500Y-57904484D01*
X140659500Y-58105515D01*
X140698715Y-58302661D01*
X140698718Y-58302673D01*
X140775640Y-58488381D01*
X140775647Y-58488394D01*
X140887325Y-58655530D01*
X140887328Y-58655534D01*
X141029465Y-58797671D01*
X141029469Y-58797674D01*
X141196605Y-58909352D01*
X141196618Y-58909359D01*
X141332008Y-58965439D01*
X141386412Y-59009280D01*
X141408477Y-59075574D01*
X141391198Y-59143273D01*
X141340061Y-59190884D01*
X141332008Y-59194561D01*
X141196618Y-59250640D01*
X141196605Y-59250647D01*
X141029469Y-59362325D01*
X141029465Y-59362328D01*
X140887328Y-59504465D01*
X140887325Y-59504469D01*
X140775647Y-59671605D01*
X140775640Y-59671618D01*
X140698718Y-59857326D01*
X140698715Y-59857338D01*
X140659500Y-60054484D01*
X140659500Y-60255515D01*
X140698715Y-60452661D01*
X140698718Y-60452673D01*
X140775640Y-60638381D01*
X140775647Y-60638394D01*
X140887325Y-60805530D01*
X140887328Y-60805534D01*
X141029465Y-60947671D01*
X141029469Y-60947674D01*
X141196605Y-61059352D01*
X141196618Y-61059359D01*
X141382326Y-61136281D01*
X141382331Y-61136283D01*
X141579484Y-61175499D01*
X141579488Y-61175500D01*
X141579489Y-61175500D01*
X141780512Y-61175500D01*
X141780513Y-61175499D01*
X141977669Y-61136283D01*
X142163388Y-61059356D01*
X142330531Y-60947674D01*
X142368222Y-60909983D01*
X142429544Y-60876497D01*
X142499236Y-60881481D01*
X142555170Y-60923351D01*
X142577521Y-60973471D01*
X142601118Y-61092101D01*
X142601120Y-61092107D01*
X142681777Y-61286832D01*
X142681782Y-61286840D01*
X142773605Y-61424261D01*
X143076407Y-61121459D01*
X143125112Y-61194351D01*
X143215649Y-61284888D01*
X143288539Y-61333591D01*
X142985736Y-61636394D01*
X143123167Y-61728222D01*
X143317892Y-61808879D01*
X143317898Y-61808881D01*
X143524611Y-61850000D01*
X143735388Y-61850000D01*
X143942101Y-61808881D01*
X143942107Y-61808879D01*
X144136832Y-61728222D01*
X144274262Y-61636394D01*
X143971460Y-61333591D01*
X144044351Y-61284888D01*
X144134888Y-61194351D01*
X144183591Y-61121459D01*
X144486394Y-61424262D01*
X144578222Y-61286832D01*
X144658879Y-61092107D01*
X144658881Y-61092101D01*
X144700000Y-60885388D01*
X144700000Y-60674611D01*
X144658881Y-60467898D01*
X144658879Y-60467892D01*
X144578222Y-60273167D01*
X144486394Y-60135736D01*
X144183591Y-60438539D01*
X144134888Y-60365649D01*
X144044351Y-60275112D01*
X143971459Y-60226408D01*
X144274261Y-59923605D01*
X144274261Y-59923604D01*
X144136840Y-59831782D01*
X144136832Y-59831777D01*
X143942107Y-59751120D01*
X143942101Y-59751118D01*
X143735388Y-59710000D01*
X143524612Y-59710000D01*
X143317898Y-59751118D01*
X143317892Y-59751120D01*
X143123162Y-59831779D01*
X142985737Y-59923603D01*
X142985737Y-59923605D01*
X143288540Y-60226408D01*
X143215649Y-60275112D01*
X143125112Y-60365649D01*
X143076408Y-60438540D01*
X142732135Y-60094267D01*
X142734352Y-60092049D01*
X142733665Y-60091336D01*
X142710236Y-60069124D01*
X142708950Y-60065722D01*
X142707571Y-60064293D01*
X142695830Y-60031012D01*
X142661283Y-59857331D01*
X142643465Y-59814315D01*
X142584359Y-59671618D01*
X142584352Y-59671605D01*
X142472674Y-59504469D01*
X142472671Y-59504465D01*
X142330534Y-59362328D01*
X142330530Y-59362325D01*
X142163394Y-59250647D01*
X142163381Y-59250640D01*
X142027991Y-59194561D01*
X141973587Y-59150721D01*
X141951522Y-59084427D01*
X141968801Y-59016727D01*
X142019938Y-58969116D01*
X142027991Y-58965439D01*
X142163381Y-58909359D01*
X142163381Y-58909358D01*
X142163388Y-58909356D01*
X142330531Y-58797674D01*
X142472674Y-58655531D01*
X142584356Y-58488388D01*
X142640770Y-58352190D01*
X142684608Y-58297792D01*
X142750902Y-58275726D01*
X142818601Y-58293005D01*
X142866212Y-58344141D01*
X142873393Y-58361740D01*
X142928837Y-58534426D01*
X142941324Y-58556905D01*
X142950573Y-58573556D01*
X142997462Y-58610786D01*
X143055029Y-58627239D01*
X143099499Y-58622133D01*
X144784425Y-58081163D01*
X144823556Y-58059427D01*
X144860786Y-58012538D01*
X144877239Y-57954971D01*
X144872133Y-57910501D01*
X144486064Y-56708036D01*
X144331163Y-56225574D01*
X144313121Y-56193095D01*
X144309427Y-56186444D01*
X144262538Y-56149214D01*
X144262536Y-56149213D01*
X144262534Y-56149212D01*
X144204971Y-56132761D01*
X144160502Y-56137866D01*
X144160500Y-56137867D01*
X142475574Y-56678836D01*
X142436445Y-56700572D01*
X142436444Y-56700572D01*
X142436444Y-56700573D01*
X142430518Y-56708037D01*
X142399214Y-56747462D01*
X142399212Y-56747465D01*
X142382761Y-56805027D01*
X142382761Y-56805029D01*
X142387866Y-56849497D01*
X142387867Y-56849499D01*
X142443134Y-57021637D01*
X142444885Y-57091485D01*
X142408596Y-57151191D01*
X142345788Y-57181800D01*
X142276402Y-57173593D01*
X142256179Y-57162645D01*
X142163393Y-57100647D01*
X142163381Y-57100640D01*
X141977673Y-57023718D01*
X141977661Y-57023715D01*
X141780515Y-56984500D01*
X141780511Y-56984500D01*
X141579489Y-56984500D01*
X141579484Y-56984500D01*
X141382338Y-57023715D01*
X141382326Y-57023718D01*
X141196618Y-57100640D01*
X141196605Y-57100647D01*
X141029469Y-57212325D01*
X141029465Y-57212328D01*
X140887328Y-57354465D01*
X140887325Y-57354469D01*
X140775647Y-57521605D01*
X140775640Y-57521618D01*
X140698718Y-57707326D01*
X140698715Y-57707338D01*
X140659500Y-57904484D01*
X124276016Y-57904484D01*
X124316964Y-57880843D01*
X124405495Y-57792312D01*
X124468095Y-57683884D01*
X124500500Y-57562949D01*
X124500500Y-57437747D01*
X124468095Y-57316812D01*
X124405495Y-57208384D01*
X124316964Y-57119853D01*
X124208536Y-57057253D01*
X124208537Y-57057253D01*
X124168224Y-57046451D01*
X124087601Y-57024848D01*
X123962399Y-57024848D01*
X123881775Y-57046451D01*
X123841463Y-57057253D01*
X123733037Y-57119852D01*
X123733034Y-57119854D01*
X123644506Y-57208382D01*
X123644504Y-57208385D01*
X123581905Y-57316811D01*
X123581905Y-57316812D01*
X123549500Y-57437747D01*
X85709432Y-57437747D01*
X85709432Y-57419860D01*
X85677027Y-57298925D01*
X85614427Y-57190497D01*
X85525896Y-57101966D01*
X85417468Y-57039366D01*
X85417469Y-57039366D01*
X85363287Y-57024848D01*
X85296533Y-57006961D01*
X85171331Y-57006961D01*
X85104577Y-57024848D01*
X85050395Y-57039366D01*
X84941969Y-57101965D01*
X84941966Y-57101967D01*
X84853436Y-57190497D01*
X84810379Y-57265075D01*
X84759812Y-57313290D01*
X84691204Y-57326512D01*
X84626340Y-57300544D01*
X84615311Y-57290755D01*
X84594062Y-57269506D01*
X84594061Y-57269505D01*
X84485633Y-57206905D01*
X84485634Y-57206905D01*
X84424402Y-57190498D01*
X84364698Y-57174500D01*
X84239496Y-57174500D01*
X84179792Y-57190498D01*
X84118560Y-57206905D01*
X84010134Y-57269504D01*
X84010131Y-57269506D01*
X83921603Y-57358034D01*
X83921601Y-57358037D01*
X83859002Y-57466463D01*
X83854284Y-57484070D01*
X83826597Y-57587399D01*
X60510500Y-57587399D01*
X60510500Y-56937399D01*
X65524500Y-56937399D01*
X65524500Y-57062601D01*
X65556905Y-57183536D01*
X65619505Y-57291964D01*
X65708036Y-57380495D01*
X65816464Y-57443095D01*
X65937399Y-57475500D01*
X65937401Y-57475500D01*
X66062599Y-57475500D01*
X66062601Y-57475500D01*
X66183536Y-57443095D01*
X66291964Y-57380495D01*
X66380495Y-57291964D01*
X66443095Y-57183536D01*
X66475500Y-57062601D01*
X66475500Y-56937399D01*
X66443095Y-56816464D01*
X66380495Y-56708036D01*
X66291964Y-56619505D01*
X66183536Y-56556905D01*
X66183537Y-56556905D01*
X66143224Y-56546103D01*
X66062601Y-56524500D01*
X65937399Y-56524500D01*
X65856775Y-56546103D01*
X65816463Y-56556905D01*
X65708037Y-56619504D01*
X65708034Y-56619506D01*
X65619506Y-56708034D01*
X65619504Y-56708037D01*
X65556905Y-56816463D01*
X65556905Y-56816464D01*
X65524500Y-56937399D01*
X60510500Y-56937399D01*
X60510500Y-55687399D01*
X66524500Y-55687399D01*
X66524500Y-55812601D01*
X66556905Y-55933536D01*
X66619505Y-56041964D01*
X66708036Y-56130495D01*
X66816464Y-56193095D01*
X66937399Y-56225500D01*
X66937401Y-56225500D01*
X67062599Y-56225500D01*
X67062601Y-56225500D01*
X67183536Y-56193095D01*
X67291964Y-56130495D01*
X67380495Y-56041964D01*
X67443095Y-55933536D01*
X67457790Y-55878693D01*
X71296754Y-55878693D01*
X71296754Y-56003895D01*
X71329159Y-56124830D01*
X71391759Y-56233258D01*
X71480290Y-56321789D01*
X71588718Y-56384389D01*
X71709653Y-56416794D01*
X71709655Y-56416794D01*
X71717503Y-56418897D01*
X71716840Y-56421367D01*
X71769060Y-56444461D01*
X71807539Y-56502780D01*
X71808379Y-56572645D01*
X71771314Y-56631873D01*
X71750991Y-56646530D01*
X71726829Y-56660479D01*
X71638299Y-56749009D01*
X71638297Y-56749012D01*
X71575698Y-56857438D01*
X71575698Y-56857439D01*
X71543293Y-56978374D01*
X71543293Y-57103576D01*
X71575698Y-57224511D01*
X71638298Y-57332939D01*
X71726829Y-57421470D01*
X71835257Y-57484070D01*
X71956192Y-57516475D01*
X71956194Y-57516475D01*
X72081392Y-57516475D01*
X72081394Y-57516475D01*
X72202329Y-57484070D01*
X72310757Y-57421470D01*
X72399288Y-57332939D01*
X72461888Y-57224511D01*
X72494293Y-57103576D01*
X72494293Y-56978374D01*
X72461888Y-56857439D01*
X72399288Y-56749011D01*
X72310757Y-56660480D01*
X72202329Y-56597880D01*
X72202330Y-56597880D01*
X72153433Y-56584778D01*
X72081394Y-56565475D01*
X72081393Y-56565475D01*
X72073544Y-56563372D01*
X72074204Y-56560905D01*
X72021963Y-56537788D01*
X71983499Y-56479459D01*
X71982675Y-56409595D01*
X72019755Y-56350375D01*
X72040052Y-56335741D01*
X72064218Y-56321789D01*
X72152749Y-56233258D01*
X72215349Y-56124830D01*
X72247754Y-56003895D01*
X72247754Y-55878693D01*
X72215349Y-55757758D01*
X72152749Y-55649330D01*
X72152744Y-55649325D01*
X72152006Y-55648363D01*
X72151631Y-55647394D01*
X72148685Y-55642291D01*
X72149480Y-55641831D01*
X72126809Y-55583195D01*
X72140843Y-55514750D01*
X72162697Y-55485190D01*
X72172387Y-55475500D01*
X72214776Y-55433111D01*
X72277376Y-55324683D01*
X72309781Y-55203748D01*
X72309781Y-55078546D01*
X72277376Y-54957611D01*
X72277373Y-54957606D01*
X72277025Y-54956306D01*
X72278688Y-54886456D01*
X72317850Y-54828593D01*
X72334793Y-54816828D01*
X72417246Y-54769225D01*
X72499451Y-54687020D01*
X83430039Y-54687020D01*
X83430039Y-54812222D01*
X83462444Y-54933157D01*
X83525044Y-55041585D01*
X83613575Y-55130116D01*
X83722003Y-55192716D01*
X83842938Y-55225121D01*
X83842940Y-55225121D01*
X83968138Y-55225121D01*
X83968140Y-55225121D01*
X84089075Y-55192716D01*
X84197503Y-55130116D01*
X84286034Y-55041585D01*
X84310043Y-55000000D01*
X128132263Y-55000000D01*
X130373766Y-55000000D01*
X130383961Y-54994432D01*
X130453653Y-54999413D01*
X130509589Y-55041281D01*
X130530100Y-55083501D01*
X130556905Y-55183536D01*
X130619505Y-55291964D01*
X130708036Y-55380495D01*
X130816464Y-55443095D01*
X130937399Y-55475500D01*
X130937401Y-55475500D01*
X131062599Y-55475500D01*
X131062601Y-55475500D01*
X131183536Y-55443095D01*
X131291964Y-55380495D01*
X131380495Y-55291964D01*
X131443095Y-55183536D01*
X131475500Y-55062601D01*
X131475500Y-54937399D01*
X131443095Y-54816464D01*
X131380495Y-54708036D01*
X131291964Y-54619505D01*
X131183536Y-54556905D01*
X131183537Y-54556905D01*
X131143224Y-54546103D01*
X131062601Y-54524500D01*
X130937399Y-54524500D01*
X130856775Y-54546103D01*
X130816463Y-54556905D01*
X130708037Y-54619504D01*
X130708034Y-54619506D01*
X130619506Y-54708034D01*
X130619500Y-54708042D01*
X130581949Y-54773084D01*
X130531383Y-54821300D01*
X130462776Y-54834524D01*
X130397911Y-54808556D01*
X130357382Y-54751642D01*
X130350562Y-54711085D01*
X130350562Y-51600000D01*
X128132263Y-51600000D01*
X128132263Y-55000000D01*
X84310043Y-55000000D01*
X84348634Y-54933157D01*
X84381039Y-54812222D01*
X84381039Y-54687020D01*
X84348634Y-54566085D01*
X84286034Y-54457657D01*
X84197503Y-54369126D01*
X84089075Y-54306526D01*
X84089076Y-54306526D01*
X84048763Y-54295724D01*
X83968140Y-54274121D01*
X83842938Y-54274121D01*
X83762314Y-54295724D01*
X83722002Y-54306526D01*
X83613576Y-54369125D01*
X83613573Y-54369127D01*
X83525045Y-54457655D01*
X83525043Y-54457658D01*
X83462444Y-54566084D01*
X83462444Y-54566085D01*
X83430039Y-54687020D01*
X72499451Y-54687020D01*
X72505777Y-54680694D01*
X72527296Y-54643421D01*
X72542610Y-54616897D01*
X72542612Y-54616893D01*
X72543256Y-54615777D01*
X72568377Y-54572266D01*
X72600782Y-54451331D01*
X72600782Y-54326129D01*
X72568377Y-54205194D01*
X72505777Y-54096766D01*
X72417246Y-54008235D01*
X72417245Y-54008234D01*
X72417242Y-54008232D01*
X72408269Y-54003052D01*
X72308818Y-53945635D01*
X72308819Y-53945635D01*
X72268506Y-53934833D01*
X72187883Y-53913230D01*
X72062681Y-53913230D01*
X71982057Y-53934833D01*
X71941745Y-53945635D01*
X71833319Y-54008234D01*
X71833316Y-54008236D01*
X71744788Y-54096764D01*
X71744786Y-54096767D01*
X71682187Y-54205193D01*
X71665984Y-54265661D01*
X71649782Y-54326129D01*
X71649782Y-54451331D01*
X71678071Y-54556905D01*
X71682537Y-54573571D01*
X71680874Y-54643421D01*
X71641712Y-54701284D01*
X71624762Y-54713052D01*
X71542320Y-54760649D01*
X71542315Y-54760653D01*
X71453787Y-54849181D01*
X71453785Y-54849184D01*
X71391186Y-54957610D01*
X71391186Y-54957611D01*
X71358781Y-55078546D01*
X71358781Y-55203748D01*
X71364508Y-55225121D01*
X71391186Y-55324683D01*
X71453786Y-55433112D01*
X71454534Y-55434086D01*
X71454908Y-55435055D01*
X71457850Y-55440150D01*
X71457055Y-55440608D01*
X71479726Y-55499256D01*
X71465686Y-55567701D01*
X71443838Y-55597250D01*
X71391760Y-55649328D01*
X71391758Y-55649331D01*
X71329159Y-55757757D01*
X71329159Y-55757758D01*
X71296754Y-55878693D01*
X67457790Y-55878693D01*
X67475500Y-55812601D01*
X67475500Y-55687399D01*
X67443095Y-55566464D01*
X67380495Y-55458036D01*
X67291964Y-55369505D01*
X67183536Y-55306905D01*
X67183537Y-55306905D01*
X67127769Y-55291962D01*
X67062601Y-55274500D01*
X66937399Y-55274500D01*
X66872231Y-55291962D01*
X66816463Y-55306905D01*
X66708037Y-55369504D01*
X66708034Y-55369506D01*
X66619506Y-55458034D01*
X66619504Y-55458037D01*
X66556905Y-55566463D01*
X66552422Y-55583195D01*
X66524500Y-55687399D01*
X60510500Y-55687399D01*
X60510500Y-53903792D01*
X105285591Y-53903792D01*
X105285591Y-54028994D01*
X105317996Y-54149929D01*
X105380596Y-54258357D01*
X105469127Y-54346888D01*
X105577555Y-54409488D01*
X105698490Y-54441893D01*
X105698492Y-54441893D01*
X105823690Y-54441893D01*
X105823692Y-54441893D01*
X105944627Y-54409488D01*
X106053055Y-54346888D01*
X106141586Y-54258357D01*
X106204186Y-54149929D01*
X106236591Y-54028994D01*
X106236591Y-53903792D01*
X106204186Y-53782857D01*
X106141586Y-53674429D01*
X106141585Y-53674428D01*
X106141584Y-53674426D01*
X106140140Y-53672544D01*
X106139415Y-53670669D01*
X106137522Y-53667390D01*
X106138033Y-53667094D01*
X106114945Y-53607375D01*
X106128983Y-53538930D01*
X106177796Y-53488940D01*
X106206416Y-53477284D01*
X106244627Y-53467046D01*
X106353055Y-53404446D01*
X106441586Y-53315915D01*
X106504186Y-53207487D01*
X106536591Y-53086552D01*
X106536591Y-52961350D01*
X106535982Y-52959076D01*
X106536029Y-52957085D01*
X106535530Y-52953293D01*
X106536121Y-52953215D01*
X106537646Y-52889226D01*
X106576809Y-52831364D01*
X106621291Y-52807870D01*
X106638177Y-52802984D01*
X106673692Y-52802984D01*
X106794627Y-52770579D01*
X106839296Y-52744789D01*
X106853772Y-52740601D01*
X106874242Y-52740681D01*
X106894137Y-52735855D01*
X106908471Y-52740816D01*
X106923641Y-52740876D01*
X106940819Y-52752011D01*
X106960164Y-52758707D01*
X106973101Y-52772938D01*
X106982270Y-52778882D01*
X106985992Y-52787118D01*
X106995623Y-52797713D01*
X107034403Y-52864882D01*
X107057643Y-52905137D01*
X107057645Y-52905139D01*
X107146176Y-52993670D01*
X107254604Y-53056270D01*
X107375539Y-53088675D01*
X107375541Y-53088675D01*
X107500739Y-53088675D01*
X107500741Y-53088675D01*
X107621676Y-53056270D01*
X107730104Y-52993670D01*
X107818635Y-52905139D01*
X107881235Y-52796711D01*
X107913640Y-52675776D01*
X107913640Y-52550574D01*
X107881235Y-52429639D01*
X107818635Y-52321211D01*
X107730104Y-52232680D01*
X107621676Y-52170080D01*
X107621677Y-52170080D01*
X107581364Y-52159278D01*
X107500741Y-52137675D01*
X107375539Y-52137675D01*
X107270230Y-52165893D01*
X107254604Y-52170080D01*
X107222990Y-52188332D01*
X107155089Y-52204802D01*
X107089063Y-52181949D01*
X107053607Y-52142945D01*
X106991586Y-52035520D01*
X106903055Y-51946989D01*
X106794627Y-51884389D01*
X106794628Y-51884389D01*
X106754315Y-51873587D01*
X106673692Y-51851984D01*
X106548490Y-51851984D01*
X106467866Y-51873587D01*
X106427554Y-51884389D01*
X106319128Y-51946988D01*
X106319125Y-51946990D01*
X106230597Y-52035518D01*
X106230595Y-52035521D01*
X106167996Y-52143947D01*
X106153127Y-52199440D01*
X106137034Y-52259500D01*
X106135591Y-52264884D01*
X106135591Y-52390087D01*
X106136200Y-52392359D01*
X106136152Y-52394349D01*
X106136652Y-52398142D01*
X106136060Y-52398219D01*
X106134536Y-52462209D01*
X106095373Y-52520071D01*
X106031144Y-52547574D01*
X106016425Y-52548451D01*
X105998490Y-52548451D01*
X105920514Y-52569345D01*
X105877554Y-52580856D01*
X105769128Y-52643455D01*
X105769125Y-52643457D01*
X105680597Y-52731985D01*
X105680595Y-52731988D01*
X105617996Y-52840414D01*
X105608866Y-52874487D01*
X105585591Y-52961350D01*
X105585591Y-53086552D01*
X105602040Y-53147938D01*
X105617996Y-53207487D01*
X105680596Y-53315916D01*
X105682043Y-53317801D01*
X105682768Y-53319677D01*
X105684660Y-53322954D01*
X105684149Y-53323248D01*
X105707236Y-53382970D01*
X105693197Y-53451415D01*
X105644383Y-53501404D01*
X105615761Y-53513060D01*
X105577559Y-53523296D01*
X105577554Y-53523298D01*
X105469128Y-53585897D01*
X105469125Y-53585899D01*
X105380597Y-53674427D01*
X105380595Y-53674430D01*
X105317996Y-53782856D01*
X105314645Y-53795363D01*
X105285591Y-53903792D01*
X60510500Y-53903792D01*
X60510500Y-53209904D01*
X68912784Y-53209904D01*
X68912784Y-53354854D01*
X68938658Y-53451415D01*
X68950301Y-53494867D01*
X69022772Y-53620390D01*
X69022774Y-53620392D01*
X69022775Y-53620394D01*
X69125269Y-53722888D01*
X69125270Y-53722889D01*
X69125272Y-53722890D01*
X69250795Y-53795361D01*
X69250796Y-53795361D01*
X69250799Y-53795363D01*
X69390809Y-53832879D01*
X69390812Y-53832879D01*
X69535756Y-53832879D01*
X69535759Y-53832879D01*
X69675769Y-53795363D01*
X69801299Y-53722888D01*
X69903793Y-53620394D01*
X69976268Y-53494864D01*
X70013784Y-53354854D01*
X70013784Y-53354851D01*
X70015887Y-53347003D01*
X70019150Y-53347877D01*
X70041005Y-53298329D01*
X70099288Y-53259795D01*
X70103622Y-53258546D01*
X70212485Y-53229377D01*
X70338015Y-53156902D01*
X70440509Y-53054408D01*
X70512984Y-52928878D01*
X70550500Y-52788868D01*
X70550500Y-52643918D01*
X70512984Y-52503908D01*
X70498458Y-52478749D01*
X70466079Y-52422666D01*
X70466078Y-52422665D01*
X70460218Y-52412515D01*
X70440509Y-52378378D01*
X70430923Y-52368792D01*
X72462220Y-52368792D01*
X72462220Y-52493994D01*
X72494625Y-52614929D01*
X72557225Y-52723357D01*
X72645756Y-52811888D01*
X72754184Y-52874488D01*
X72875119Y-52906893D01*
X72875121Y-52906893D01*
X73000319Y-52906893D01*
X73000321Y-52906893D01*
X73121256Y-52874488D01*
X73229684Y-52811888D01*
X73318215Y-52723357D01*
X73347635Y-52672399D01*
X85324500Y-52672399D01*
X85324500Y-52797601D01*
X85356905Y-52918536D01*
X85419505Y-53026964D01*
X85508036Y-53115495D01*
X85616464Y-53178095D01*
X85737399Y-53210500D01*
X85737401Y-53210500D01*
X85862599Y-53210500D01*
X85862601Y-53210500D01*
X85983536Y-53178095D01*
X86091964Y-53115495D01*
X86104934Y-53102525D01*
X88054282Y-53102525D01*
X88054282Y-53247475D01*
X88090588Y-53382970D01*
X88091799Y-53387488D01*
X88164270Y-53513011D01*
X88164272Y-53513013D01*
X88164273Y-53513015D01*
X88266767Y-53615509D01*
X88266768Y-53615510D01*
X88266770Y-53615511D01*
X88392293Y-53687982D01*
X88392294Y-53687982D01*
X88392297Y-53687984D01*
X88532307Y-53725500D01*
X88532310Y-53725500D01*
X88677254Y-53725500D01*
X88677257Y-53725500D01*
X88817267Y-53687984D01*
X88942797Y-53615509D01*
X89045291Y-53513015D01*
X89117766Y-53387485D01*
X89149941Y-53267404D01*
X89186306Y-53207746D01*
X89249154Y-53177217D01*
X89269716Y-53175500D01*
X89403087Y-53175500D01*
X89403090Y-53175500D01*
X89543100Y-53137984D01*
X89668630Y-53065509D01*
X89771124Y-52963015D01*
X89843599Y-52837485D01*
X89881115Y-52697475D01*
X89881115Y-52552525D01*
X89843599Y-52412515D01*
X89818355Y-52368792D01*
X89771126Y-52286988D01*
X89771121Y-52286982D01*
X89668632Y-52184493D01*
X89668626Y-52184488D01*
X89543103Y-52112017D01*
X89543104Y-52112017D01*
X89531621Y-52108940D01*
X89403090Y-52074500D01*
X89258140Y-52074500D01*
X89129608Y-52108940D01*
X89118126Y-52112017D01*
X88992603Y-52184488D01*
X88992597Y-52184493D01*
X88890108Y-52286982D01*
X88890103Y-52286988D01*
X88817632Y-52412511D01*
X88817631Y-52412515D01*
X88788812Y-52520071D01*
X88785456Y-52532594D01*
X88749091Y-52592254D01*
X88686243Y-52622783D01*
X88665681Y-52624500D01*
X88532307Y-52624500D01*
X88403775Y-52658940D01*
X88392293Y-52662017D01*
X88266770Y-52734488D01*
X88266764Y-52734493D01*
X88164275Y-52836982D01*
X88164270Y-52836988D01*
X88091799Y-52962511D01*
X88091798Y-52962515D01*
X88054282Y-53102525D01*
X86104934Y-53102525D01*
X86180495Y-53026964D01*
X86243095Y-52918536D01*
X86275500Y-52797601D01*
X86275500Y-52672399D01*
X86243095Y-52551464D01*
X86180495Y-52443036D01*
X86091964Y-52354505D01*
X85983536Y-52291905D01*
X85983537Y-52291905D01*
X85923753Y-52275886D01*
X85862601Y-52259500D01*
X85737399Y-52259500D01*
X85676247Y-52275886D01*
X85616463Y-52291905D01*
X85508037Y-52354504D01*
X85508034Y-52354506D01*
X85419506Y-52443034D01*
X85419504Y-52443037D01*
X85356905Y-52551463D01*
X85345975Y-52592254D01*
X85324500Y-52672399D01*
X73347635Y-52672399D01*
X73380815Y-52614929D01*
X73413220Y-52493994D01*
X73413220Y-52410118D01*
X73432905Y-52343079D01*
X73485709Y-52297324D01*
X73505126Y-52290343D01*
X73508873Y-52289339D01*
X73508876Y-52289339D01*
X73629811Y-52256934D01*
X73738239Y-52194334D01*
X73826770Y-52105803D01*
X73889370Y-51997375D01*
X73921775Y-51876440D01*
X73921775Y-51751238D01*
X73889370Y-51630303D01*
X73826770Y-51521875D01*
X73738239Y-51433344D01*
X73629811Y-51370744D01*
X73629812Y-51370744D01*
X73589499Y-51359942D01*
X73508876Y-51338339D01*
X73383674Y-51338339D01*
X73303050Y-51359942D01*
X73262738Y-51370744D01*
X73154312Y-51433343D01*
X73154309Y-51433345D01*
X73065781Y-51521873D01*
X73065779Y-51521876D01*
X73003180Y-51630302D01*
X72989650Y-51680796D01*
X72973499Y-51741074D01*
X72970775Y-51751239D01*
X72970775Y-51835113D01*
X72951090Y-51902152D01*
X72898286Y-51947907D01*
X72878870Y-51954887D01*
X72754188Y-51988296D01*
X72754183Y-51988298D01*
X72645757Y-52050897D01*
X72645754Y-52050899D01*
X72557226Y-52139427D01*
X72557224Y-52139430D01*
X72494625Y-52247856D01*
X72484140Y-52286988D01*
X72462220Y-52368792D01*
X70430923Y-52368792D01*
X70338015Y-52275884D01*
X70338013Y-52275883D01*
X70338011Y-52275881D01*
X70212488Y-52203410D01*
X70212489Y-52203410D01*
X70178617Y-52194334D01*
X70072475Y-52165893D01*
X69927525Y-52165893D01*
X69821383Y-52194334D01*
X69787511Y-52203410D01*
X69661988Y-52275881D01*
X69661982Y-52275886D01*
X69559493Y-52378375D01*
X69559488Y-52378381D01*
X69487017Y-52503904D01*
X69487016Y-52503908D01*
X69449500Y-52643918D01*
X69449500Y-52643920D01*
X69447397Y-52651769D01*
X69444158Y-52650901D01*
X69422165Y-52700575D01*
X69363828Y-52739028D01*
X69359613Y-52740237D01*
X69250799Y-52769394D01*
X69250795Y-52769396D01*
X69125272Y-52841867D01*
X69125266Y-52841872D01*
X69022777Y-52944361D01*
X69022772Y-52944367D01*
X68950301Y-53069890D01*
X68950300Y-53069894D01*
X68912784Y-53209904D01*
X60510500Y-53209904D01*
X60510500Y-52841588D01*
X60530185Y-52774549D01*
X60582989Y-52728794D01*
X60652147Y-52718850D01*
X60715703Y-52747875D01*
X60722181Y-52753907D01*
X60759199Y-52790925D01*
X60759203Y-52790928D01*
X60869882Y-52864882D01*
X60869888Y-52864885D01*
X60869889Y-52864886D01*
X60992876Y-52915829D01*
X60992880Y-52915829D01*
X60992881Y-52915830D01*
X61123437Y-52941800D01*
X61123440Y-52941800D01*
X61256562Y-52941800D01*
X61344398Y-52924327D01*
X61387124Y-52915829D01*
X61510111Y-52864886D01*
X61620797Y-52790928D01*
X61714928Y-52696797D01*
X61788886Y-52586111D01*
X61839829Y-52463124D01*
X61854357Y-52390087D01*
X61865800Y-52332562D01*
X61865800Y-52199437D01*
X61839830Y-52068881D01*
X61839829Y-52068880D01*
X61839829Y-52068876D01*
X61788886Y-51945889D01*
X61788885Y-51945888D01*
X61788882Y-51945882D01*
X61714928Y-51835203D01*
X61714925Y-51835199D01*
X61620800Y-51741074D01*
X61620796Y-51741071D01*
X61510117Y-51667117D01*
X61510108Y-51667112D01*
X61387124Y-51616171D01*
X61387118Y-51616169D01*
X61256562Y-51590200D01*
X61256560Y-51590200D01*
X61123440Y-51590200D01*
X61123438Y-51590200D01*
X60992881Y-51616169D01*
X60992875Y-51616171D01*
X60869891Y-51667112D01*
X60869882Y-51667117D01*
X60759203Y-51741071D01*
X60759199Y-51741074D01*
X60722181Y-51778093D01*
X60660858Y-51811578D01*
X60591166Y-51806594D01*
X60535233Y-51764722D01*
X60510816Y-51699258D01*
X60510500Y-51690412D01*
X60510500Y-51316562D01*
X68134199Y-51316562D01*
X68160169Y-51447118D01*
X68160171Y-51447124D01*
X68211112Y-51570108D01*
X68211117Y-51570117D01*
X68285071Y-51680796D01*
X68285074Y-51680800D01*
X68379199Y-51774925D01*
X68379203Y-51774928D01*
X68489882Y-51848882D01*
X68489888Y-51848885D01*
X68489889Y-51848886D01*
X68612876Y-51899829D01*
X68612880Y-51899829D01*
X68612881Y-51899830D01*
X68743437Y-51925800D01*
X68743440Y-51925800D01*
X68876562Y-51925800D01*
X68964398Y-51908327D01*
X69007124Y-51899829D01*
X69130111Y-51848886D01*
X69240797Y-51774928D01*
X69334928Y-51680797D01*
X69408886Y-51570111D01*
X69459829Y-51447124D01*
X69468327Y-51404398D01*
X69485800Y-51316562D01*
X69485800Y-51183437D01*
X69459830Y-51052881D01*
X69459829Y-51052880D01*
X69459829Y-51052876D01*
X69459827Y-51052871D01*
X69428286Y-50976723D01*
X69411997Y-50937399D01*
X79524500Y-50937399D01*
X79524500Y-51062601D01*
X79556905Y-51183536D01*
X79619505Y-51291964D01*
X79708036Y-51380495D01*
X79816464Y-51443095D01*
X79937399Y-51475500D01*
X79937401Y-51475500D01*
X80062599Y-51475500D01*
X80062601Y-51475500D01*
X80183536Y-51443095D01*
X80291964Y-51380495D01*
X80312319Y-51360140D01*
X80373642Y-51326655D01*
X80443334Y-51331639D01*
X80487681Y-51360140D01*
X80508036Y-51380495D01*
X80616464Y-51443095D01*
X80737399Y-51475500D01*
X80737401Y-51475500D01*
X80862599Y-51475500D01*
X80862601Y-51475500D01*
X80983536Y-51443095D01*
X81091964Y-51380495D01*
X81112319Y-51360140D01*
X81173642Y-51326655D01*
X81243334Y-51331639D01*
X81287681Y-51360140D01*
X81308036Y-51380495D01*
X81416464Y-51443095D01*
X81537399Y-51475500D01*
X81537401Y-51475500D01*
X81662599Y-51475500D01*
X81662601Y-51475500D01*
X81783536Y-51443095D01*
X81891964Y-51380495D01*
X81980495Y-51291964D01*
X82043095Y-51183536D01*
X82075500Y-51062601D01*
X82075500Y-50937399D01*
X82043095Y-50816464D01*
X81980495Y-50708036D01*
X81891964Y-50619505D01*
X81783536Y-50556905D01*
X81783537Y-50556905D01*
X81743224Y-50546103D01*
X81662601Y-50524500D01*
X81537399Y-50524500D01*
X81456775Y-50546103D01*
X81416463Y-50556905D01*
X81308037Y-50619504D01*
X81308034Y-50619506D01*
X81287681Y-50639860D01*
X81226358Y-50673345D01*
X81156666Y-50668361D01*
X81112319Y-50639860D01*
X81091965Y-50619506D01*
X81091964Y-50619505D01*
X80983536Y-50556905D01*
X80983537Y-50556905D01*
X80943224Y-50546103D01*
X80862601Y-50524500D01*
X80737399Y-50524500D01*
X80656775Y-50546103D01*
X80616463Y-50556905D01*
X80508037Y-50619504D01*
X80508034Y-50619506D01*
X80487681Y-50639860D01*
X80426358Y-50673345D01*
X80356666Y-50668361D01*
X80312319Y-50639860D01*
X80291965Y-50619506D01*
X80291964Y-50619505D01*
X80183536Y-50556905D01*
X80183537Y-50556905D01*
X80143224Y-50546103D01*
X80062601Y-50524500D01*
X79937399Y-50524500D01*
X79856775Y-50546103D01*
X79816463Y-50556905D01*
X79708037Y-50619504D01*
X79708034Y-50619506D01*
X79619506Y-50708034D01*
X79619504Y-50708037D01*
X79556905Y-50816463D01*
X79550033Y-50842109D01*
X79524500Y-50937399D01*
X69411997Y-50937399D01*
X69408887Y-50929892D01*
X69408887Y-50929891D01*
X69408886Y-50929889D01*
X69408884Y-50929886D01*
X69408882Y-50929882D01*
X69334928Y-50819203D01*
X69334925Y-50819199D01*
X69240800Y-50725074D01*
X69240796Y-50725071D01*
X69130117Y-50651117D01*
X69130107Y-50651112D01*
X69110424Y-50642959D01*
X69056020Y-50599117D01*
X69033956Y-50532823D01*
X69051236Y-50465124D01*
X69102373Y-50417514D01*
X69110435Y-50413833D01*
X69112477Y-50412986D01*
X69112485Y-50412984D01*
X69238015Y-50340509D01*
X69242111Y-50336413D01*
X135423514Y-50336413D01*
X135423514Y-50461615D01*
X135455919Y-50582550D01*
X135518519Y-50690978D01*
X135607050Y-50779509D01*
X135715478Y-50842109D01*
X135836413Y-50874514D01*
X135836415Y-50874514D01*
X135961613Y-50874514D01*
X135961615Y-50874514D01*
X136082550Y-50842109D01*
X136190978Y-50779509D01*
X136279509Y-50690978D01*
X136342109Y-50582550D01*
X136374514Y-50461615D01*
X136374514Y-50336413D01*
X136342109Y-50215478D01*
X136279509Y-50107050D01*
X136190978Y-50018519D01*
X136082550Y-49955919D01*
X136082551Y-49955919D01*
X136042238Y-49945117D01*
X135961615Y-49923514D01*
X135836413Y-49923514D01*
X135755789Y-49945117D01*
X135715477Y-49955919D01*
X135607051Y-50018518D01*
X135607048Y-50018520D01*
X135518520Y-50107048D01*
X135518518Y-50107051D01*
X135455919Y-50215477D01*
X135449778Y-50238396D01*
X135423514Y-50336413D01*
X69242111Y-50336413D01*
X69340509Y-50238015D01*
X69412984Y-50112485D01*
X69450500Y-49972475D01*
X69450500Y-49827525D01*
X69412984Y-49687515D01*
X69405131Y-49673914D01*
X69340511Y-49561988D01*
X69340506Y-49561982D01*
X69238017Y-49459493D01*
X69238011Y-49459488D01*
X69112488Y-49387017D01*
X69112489Y-49387017D01*
X69101006Y-49383940D01*
X68972475Y-49349500D01*
X68827525Y-49349500D01*
X68698993Y-49383940D01*
X68687511Y-49387017D01*
X68561988Y-49459488D01*
X68561982Y-49459493D01*
X68459493Y-49561982D01*
X68459488Y-49561988D01*
X68387017Y-49687511D01*
X68387016Y-49687515D01*
X68349500Y-49827525D01*
X68349500Y-49972475D01*
X68382380Y-50095182D01*
X68387017Y-50112488D01*
X68459488Y-50238011D01*
X68459490Y-50238013D01*
X68459491Y-50238015D01*
X68561985Y-50340509D01*
X68627356Y-50378251D01*
X68675571Y-50428819D01*
X68688793Y-50497426D01*
X68662825Y-50562290D01*
X68612808Y-50600199D01*
X68489892Y-50651112D01*
X68489882Y-50651117D01*
X68379203Y-50725071D01*
X68379199Y-50725074D01*
X68285074Y-50819199D01*
X68285071Y-50819203D01*
X68211117Y-50929882D01*
X68211112Y-50929891D01*
X68160171Y-51052875D01*
X68160169Y-51052881D01*
X68134200Y-51183437D01*
X68134200Y-51183440D01*
X68134200Y-51316560D01*
X68134200Y-51316562D01*
X68134199Y-51316562D01*
X60510500Y-51316562D01*
X60510500Y-50809588D01*
X60530185Y-50742549D01*
X60582989Y-50696794D01*
X60652147Y-50686850D01*
X60715703Y-50715875D01*
X60722181Y-50721907D01*
X60759199Y-50758925D01*
X60759203Y-50758928D01*
X60869882Y-50832882D01*
X60869888Y-50832885D01*
X60869889Y-50832886D01*
X60992876Y-50883829D01*
X60992880Y-50883829D01*
X60992881Y-50883830D01*
X61123437Y-50909800D01*
X61123440Y-50909800D01*
X61256562Y-50909800D01*
X61344398Y-50892327D01*
X61387124Y-50883829D01*
X61510111Y-50832886D01*
X61620797Y-50758928D01*
X61714928Y-50664797D01*
X61788886Y-50554111D01*
X61839829Y-50431124D01*
X61858668Y-50336414D01*
X61865800Y-50300562D01*
X61865800Y-50167437D01*
X61839830Y-50036881D01*
X61839829Y-50036880D01*
X61839829Y-50036876D01*
X61788886Y-49913889D01*
X61788885Y-49913888D01*
X61788882Y-49913882D01*
X61714928Y-49803203D01*
X61714925Y-49803199D01*
X61620800Y-49709074D01*
X61620796Y-49709071D01*
X61510117Y-49635117D01*
X61510108Y-49635112D01*
X61387124Y-49584171D01*
X61387118Y-49584169D01*
X61256562Y-49558200D01*
X61256560Y-49558200D01*
X61123440Y-49558200D01*
X61123438Y-49558200D01*
X60992881Y-49584169D01*
X60992875Y-49584171D01*
X60869891Y-49635112D01*
X60869882Y-49635117D01*
X60759203Y-49709071D01*
X60759199Y-49709074D01*
X60722181Y-49746093D01*
X60660858Y-49779578D01*
X60591166Y-49774594D01*
X60535233Y-49732722D01*
X60510816Y-49667258D01*
X60510500Y-49658412D01*
X60510500Y-48638399D01*
X81025500Y-48638399D01*
X81025500Y-48763601D01*
X81057905Y-48884536D01*
X81120505Y-48992964D01*
X81209036Y-49081495D01*
X81317464Y-49144095D01*
X81438399Y-49176500D01*
X81438401Y-49176500D01*
X81563599Y-49176500D01*
X81563601Y-49176500D01*
X81684536Y-49144095D01*
X81792964Y-49081495D01*
X81881495Y-48992964D01*
X81918612Y-48928673D01*
X81969179Y-48880458D01*
X82037786Y-48867234D01*
X82102651Y-48893202D01*
X82143180Y-48950116D01*
X82150000Y-48990673D01*
X82150000Y-49050000D01*
X82722555Y-49050000D01*
X82700000Y-49134174D01*
X82700000Y-49265826D01*
X82722555Y-49350000D01*
X82150000Y-49350000D01*
X82150000Y-50069702D01*
X82161602Y-50128033D01*
X82161603Y-50128034D01*
X82205808Y-50194191D01*
X82271965Y-50238396D01*
X82271966Y-50238397D01*
X82330297Y-50249999D01*
X82330301Y-50250000D01*
X83050000Y-50250000D01*
X83050000Y-49677445D01*
X83134174Y-49700000D01*
X83265826Y-49700000D01*
X83350000Y-49677445D01*
X83350000Y-50250000D01*
X84069699Y-50250000D01*
X84069702Y-50249999D01*
X84128033Y-50238397D01*
X84128034Y-50238396D01*
X84194191Y-50194191D01*
X84238396Y-50128034D01*
X84238397Y-50128033D01*
X84249999Y-50069702D01*
X84250000Y-50069699D01*
X84250000Y-49350000D01*
X83677445Y-49350000D01*
X83691233Y-49298543D01*
X84739499Y-49298543D01*
X84777947Y-49491829D01*
X84777950Y-49491839D01*
X84853364Y-49673907D01*
X84853371Y-49673920D01*
X84962860Y-49837781D01*
X84962863Y-49837785D01*
X85102214Y-49977136D01*
X85102218Y-49977139D01*
X85266079Y-50086628D01*
X85266092Y-50086635D01*
X85371991Y-50130499D01*
X85448165Y-50162051D01*
X85448169Y-50162051D01*
X85448170Y-50162052D01*
X85641456Y-50200500D01*
X85641459Y-50200500D01*
X85838543Y-50200500D01*
X85968582Y-50174632D01*
X86031835Y-50162051D01*
X86213914Y-50086632D01*
X86377782Y-49977139D01*
X86399002Y-49955919D01*
X86446838Y-49908084D01*
X86517136Y-49837785D01*
X86517139Y-49837782D01*
X86626632Y-49673914D01*
X86702051Y-49491835D01*
X86732771Y-49337399D01*
X86740500Y-49298543D01*
X86740500Y-49101456D01*
X86739530Y-49096579D01*
X87230000Y-49096579D01*
X87230000Y-49303420D01*
X87270348Y-49506266D01*
X87270350Y-49506274D01*
X87349502Y-49697363D01*
X87349502Y-49697364D01*
X87438021Y-49829843D01*
X87438023Y-49829843D01*
X87836329Y-49431538D01*
X87879901Y-49507007D01*
X87972993Y-49600099D01*
X88048460Y-49643670D01*
X87650155Y-50041975D01*
X87782631Y-50130494D01*
X87782641Y-50130499D01*
X87973725Y-50209649D01*
X87973733Y-50209651D01*
X88176579Y-50249999D01*
X88176583Y-50250000D01*
X88383417Y-50250000D01*
X88383420Y-50249999D01*
X88586266Y-50209651D01*
X88586274Y-50209649D01*
X88777359Y-50130499D01*
X88909844Y-50041976D01*
X88511539Y-49643670D01*
X88587007Y-49600099D01*
X88680099Y-49507007D01*
X88723670Y-49431538D01*
X89121976Y-49829844D01*
X89210499Y-49697359D01*
X89289649Y-49506274D01*
X89289651Y-49506266D01*
X89329999Y-49303420D01*
X89330000Y-49303417D01*
X89330000Y-49298543D01*
X89819499Y-49298543D01*
X89857947Y-49491829D01*
X89857950Y-49491839D01*
X89933364Y-49673907D01*
X89933371Y-49673920D01*
X90042860Y-49837781D01*
X90042863Y-49837785D01*
X90182214Y-49977136D01*
X90182218Y-49977139D01*
X90346079Y-50086628D01*
X90346092Y-50086635D01*
X90451991Y-50130499D01*
X90528165Y-50162051D01*
X90528169Y-50162051D01*
X90528170Y-50162052D01*
X90721456Y-50200500D01*
X90721459Y-50200500D01*
X90918543Y-50200500D01*
X91048582Y-50174632D01*
X91111835Y-50162051D01*
X91293914Y-50086632D01*
X91457782Y-49977139D01*
X91479002Y-49955919D01*
X91526838Y-49908084D01*
X91597136Y-49837785D01*
X91597139Y-49837782D01*
X91706632Y-49673914D01*
X91782051Y-49491835D01*
X91812771Y-49337399D01*
X91820500Y-49298543D01*
X91820500Y-49101456D01*
X91819530Y-49096579D01*
X92310000Y-49096579D01*
X92310000Y-49303420D01*
X92350348Y-49506266D01*
X92350350Y-49506274D01*
X92429502Y-49697363D01*
X92429502Y-49697364D01*
X92518021Y-49829843D01*
X92518023Y-49829843D01*
X92916329Y-49431538D01*
X92959901Y-49507007D01*
X93052993Y-49600099D01*
X93128460Y-49643670D01*
X92730155Y-50041975D01*
X92862631Y-50130494D01*
X92862641Y-50130499D01*
X93053725Y-50209649D01*
X93053733Y-50209651D01*
X93256579Y-50249999D01*
X93256583Y-50250000D01*
X93463417Y-50250000D01*
X93463420Y-50249999D01*
X93666266Y-50209651D01*
X93666274Y-50209649D01*
X93857359Y-50130499D01*
X93989844Y-50041976D01*
X93591539Y-49643670D01*
X93667007Y-49600099D01*
X93760099Y-49507007D01*
X93803670Y-49431538D01*
X94201976Y-49829844D01*
X94290499Y-49697359D01*
X94369649Y-49506274D01*
X94369651Y-49506266D01*
X94409999Y-49303420D01*
X94410000Y-49303417D01*
X94410000Y-49298543D01*
X94899499Y-49298543D01*
X94937947Y-49491829D01*
X94937950Y-49491839D01*
X95013364Y-49673907D01*
X95013371Y-49673920D01*
X95122860Y-49837781D01*
X95122863Y-49837785D01*
X95262214Y-49977136D01*
X95262218Y-49977139D01*
X95426079Y-50086628D01*
X95426092Y-50086635D01*
X95531991Y-50130499D01*
X95608165Y-50162051D01*
X95608169Y-50162051D01*
X95608170Y-50162052D01*
X95801456Y-50200500D01*
X95801459Y-50200500D01*
X95998543Y-50200500D01*
X96128582Y-50174632D01*
X96191835Y-50162051D01*
X96373914Y-50086632D01*
X96537782Y-49977139D01*
X96677139Y-49837782D01*
X96786632Y-49673914D01*
X96862051Y-49491835D01*
X96892771Y-49337399D01*
X96900500Y-49298543D01*
X97439499Y-49298543D01*
X97477947Y-49491829D01*
X97477950Y-49491839D01*
X97553364Y-49673907D01*
X97553371Y-49673920D01*
X97662860Y-49837781D01*
X97662863Y-49837785D01*
X97802214Y-49977136D01*
X97802218Y-49977139D01*
X97966079Y-50086628D01*
X97966092Y-50086635D01*
X98071991Y-50130499D01*
X98148165Y-50162051D01*
X98148169Y-50162051D01*
X98148170Y-50162052D01*
X98341456Y-50200500D01*
X98341459Y-50200500D01*
X98538543Y-50200500D01*
X98668582Y-50174632D01*
X98731835Y-50162051D01*
X98913914Y-50086632D01*
X99077782Y-49977139D01*
X99217139Y-49837782D01*
X99326632Y-49673914D01*
X99402051Y-49491835D01*
X99432771Y-49337399D01*
X99440500Y-49298543D01*
X99979499Y-49298543D01*
X100017947Y-49491829D01*
X100017950Y-49491839D01*
X100093364Y-49673907D01*
X100093371Y-49673920D01*
X100202860Y-49837781D01*
X100202863Y-49837785D01*
X100342214Y-49977136D01*
X100342218Y-49977139D01*
X100506079Y-50086628D01*
X100506092Y-50086635D01*
X100611991Y-50130499D01*
X100688165Y-50162051D01*
X100688169Y-50162051D01*
X100688170Y-50162052D01*
X100881456Y-50200500D01*
X100881459Y-50200500D01*
X101078543Y-50200500D01*
X101208582Y-50174632D01*
X101271835Y-50162051D01*
X101453914Y-50086632D01*
X101617782Y-49977139D01*
X101757139Y-49837782D01*
X101866632Y-49673914D01*
X101942051Y-49491835D01*
X101972771Y-49337399D01*
X101980500Y-49298543D01*
X102519499Y-49298543D01*
X102557947Y-49491829D01*
X102557950Y-49491839D01*
X102633364Y-49673907D01*
X102633371Y-49673920D01*
X102742860Y-49837781D01*
X102742863Y-49837785D01*
X102882214Y-49977136D01*
X102882218Y-49977139D01*
X103046079Y-50086628D01*
X103046092Y-50086635D01*
X103151991Y-50130499D01*
X103228165Y-50162051D01*
X103228169Y-50162051D01*
X103228170Y-50162052D01*
X103421456Y-50200500D01*
X103421459Y-50200500D01*
X103618543Y-50200500D01*
X103748582Y-50174632D01*
X103811835Y-50162051D01*
X103993914Y-50086632D01*
X104157782Y-49977139D01*
X104297139Y-49837782D01*
X104406632Y-49673914D01*
X104482051Y-49491835D01*
X104512771Y-49337399D01*
X104520500Y-49298543D01*
X105059499Y-49298543D01*
X105097947Y-49491829D01*
X105097950Y-49491839D01*
X105173364Y-49673907D01*
X105173371Y-49673920D01*
X105282860Y-49837781D01*
X105282863Y-49837785D01*
X105422214Y-49977136D01*
X105422218Y-49977139D01*
X105586079Y-50086628D01*
X105586092Y-50086635D01*
X105691991Y-50130499D01*
X105768165Y-50162051D01*
X105768169Y-50162051D01*
X105768170Y-50162052D01*
X105961456Y-50200500D01*
X105961459Y-50200500D01*
X106158543Y-50200500D01*
X106288582Y-50174632D01*
X106351835Y-50162051D01*
X106533914Y-50086632D01*
X106697782Y-49977139D01*
X106837139Y-49837782D01*
X106946632Y-49673914D01*
X107022051Y-49491835D01*
X107052771Y-49337399D01*
X107060500Y-49298543D01*
X107599499Y-49298543D01*
X107637947Y-49491829D01*
X107637950Y-49491839D01*
X107713364Y-49673907D01*
X107713371Y-49673920D01*
X107822860Y-49837781D01*
X107822863Y-49837785D01*
X107962214Y-49977136D01*
X107962218Y-49977139D01*
X108126079Y-50086628D01*
X108126092Y-50086635D01*
X108231991Y-50130499D01*
X108308165Y-50162051D01*
X108308169Y-50162051D01*
X108308170Y-50162052D01*
X108501456Y-50200500D01*
X108501459Y-50200500D01*
X108698543Y-50200500D01*
X108828582Y-50174632D01*
X108891835Y-50162051D01*
X109073914Y-50086632D01*
X109237782Y-49977139D01*
X109259002Y-49955919D01*
X109306838Y-49908084D01*
X109377136Y-49837785D01*
X109377139Y-49837782D01*
X109486632Y-49673914D01*
X109562051Y-49491835D01*
X109592771Y-49337399D01*
X109600500Y-49298543D01*
X109600500Y-49101456D01*
X109599530Y-49096579D01*
X110090000Y-49096579D01*
X110090000Y-49303420D01*
X110130348Y-49506266D01*
X110130350Y-49506274D01*
X110209502Y-49697363D01*
X110209502Y-49697364D01*
X110298021Y-49829843D01*
X110298023Y-49829843D01*
X110696329Y-49431538D01*
X110739901Y-49507007D01*
X110832993Y-49600099D01*
X110908460Y-49643670D01*
X110510155Y-50041975D01*
X110642631Y-50130494D01*
X110642641Y-50130499D01*
X110833725Y-50209649D01*
X110833733Y-50209651D01*
X111036579Y-50249999D01*
X111036583Y-50250000D01*
X111243417Y-50250000D01*
X111243420Y-50249999D01*
X111446266Y-50209651D01*
X111446274Y-50209649D01*
X111637359Y-50130499D01*
X111769844Y-50041976D01*
X111371539Y-49643670D01*
X111447007Y-49600099D01*
X111540099Y-49507007D01*
X111583670Y-49431538D01*
X111981976Y-49829844D01*
X112070499Y-49697359D01*
X112149649Y-49506274D01*
X112149651Y-49506266D01*
X112189999Y-49303420D01*
X112190000Y-49303417D01*
X112190000Y-49298543D01*
X112679499Y-49298543D01*
X112717947Y-49491829D01*
X112717950Y-49491839D01*
X112793364Y-49673907D01*
X112793371Y-49673920D01*
X112902860Y-49837781D01*
X112902863Y-49837785D01*
X113042214Y-49977136D01*
X113042218Y-49977139D01*
X113206079Y-50086628D01*
X113206092Y-50086635D01*
X113311991Y-50130499D01*
X113388165Y-50162051D01*
X113388169Y-50162051D01*
X113388170Y-50162052D01*
X113581456Y-50200500D01*
X113581459Y-50200500D01*
X113778543Y-50200500D01*
X113908582Y-50174632D01*
X113971835Y-50162051D01*
X114153914Y-50086632D01*
X114317782Y-49977139D01*
X114457139Y-49837782D01*
X114566632Y-49673914D01*
X114642051Y-49491835D01*
X114672771Y-49337399D01*
X114680500Y-49298543D01*
X114680500Y-49101456D01*
X114650396Y-48950116D01*
X114642051Y-48908165D01*
X114638344Y-48899216D01*
X116519500Y-48899216D01*
X116519500Y-49100783D01*
X116551030Y-49299852D01*
X116613312Y-49491539D01*
X116647278Y-49558200D01*
X116704818Y-49671129D01*
X116823289Y-49834190D01*
X116965810Y-49976711D01*
X117128871Y-50095182D01*
X117260105Y-50162049D01*
X117308460Y-50186687D01*
X117349434Y-50200000D01*
X117500149Y-50248970D01*
X117592348Y-50263572D01*
X117699217Y-50280500D01*
X117699222Y-50280500D01*
X117900783Y-50280500D01*
X117997289Y-50265214D01*
X118099851Y-50248970D01*
X118163104Y-50228417D01*
X118218701Y-50210354D01*
X118291539Y-50186687D01*
X118291539Y-50186686D01*
X118291542Y-50186686D01*
X118471129Y-50095182D01*
X118634190Y-49976711D01*
X118776711Y-49834190D01*
X118895182Y-49671129D01*
X118986686Y-49491542D01*
X119048970Y-49299851D01*
X119067874Y-49180495D01*
X119080500Y-49100783D01*
X119080500Y-48899216D01*
X119056655Y-48748669D01*
X119054870Y-48737399D01*
X125524500Y-48737399D01*
X125524500Y-48862601D01*
X125556905Y-48983536D01*
X125619505Y-49091964D01*
X125708036Y-49180495D01*
X125816464Y-49243095D01*
X125832593Y-49247416D01*
X125892253Y-49283780D01*
X125922783Y-49346626D01*
X125924500Y-49367191D01*
X125924500Y-49462601D01*
X125956905Y-49583536D01*
X126019505Y-49691964D01*
X126108036Y-49780495D01*
X126216464Y-49843095D01*
X126337399Y-49875500D01*
X126337401Y-49875500D01*
X126462599Y-49875500D01*
X126462601Y-49875500D01*
X126583536Y-49843095D01*
X126691964Y-49780495D01*
X126780495Y-49691964D01*
X126843095Y-49583536D01*
X126875500Y-49462601D01*
X126875500Y-49367191D01*
X126895185Y-49300152D01*
X126947989Y-49254397D01*
X126967401Y-49247418D01*
X126983536Y-49243095D01*
X127091964Y-49180495D01*
X127180495Y-49091964D01*
X127243095Y-48983536D01*
X127275500Y-48862601D01*
X127275500Y-48737399D01*
X127243095Y-48616464D01*
X127180495Y-48508036D01*
X127091964Y-48419505D01*
X126983536Y-48356905D01*
X126983537Y-48356905D01*
X126943224Y-48346103D01*
X126862601Y-48324500D01*
X126737399Y-48324500D01*
X126656775Y-48346103D01*
X126616463Y-48356905D01*
X126508037Y-48419504D01*
X126508034Y-48419506D01*
X126487681Y-48439860D01*
X126426358Y-48473345D01*
X126356666Y-48468361D01*
X126312319Y-48439860D01*
X126291965Y-48419506D01*
X126291964Y-48419505D01*
X126183536Y-48356905D01*
X126183537Y-48356905D01*
X126143224Y-48346103D01*
X126062601Y-48324500D01*
X125937399Y-48324500D01*
X125856775Y-48346103D01*
X125816463Y-48356905D01*
X125708037Y-48419504D01*
X125708034Y-48419506D01*
X125619506Y-48508034D01*
X125619504Y-48508037D01*
X125556905Y-48616463D01*
X125556905Y-48616464D01*
X125524500Y-48737399D01*
X119054870Y-48737399D01*
X119052985Y-48725500D01*
X119048970Y-48700149D01*
X118991775Y-48524120D01*
X118986687Y-48508460D01*
X118968785Y-48473326D01*
X118895182Y-48328871D01*
X118883918Y-48313368D01*
X118839448Y-48252159D01*
X118839446Y-48252157D01*
X118792396Y-48187399D01*
X128274500Y-48187399D01*
X128274500Y-48312601D01*
X128306905Y-48433536D01*
X128369505Y-48541964D01*
X128458036Y-48630495D01*
X128566464Y-48693095D01*
X128687399Y-48725500D01*
X128687401Y-48725500D01*
X128812599Y-48725500D01*
X128812601Y-48725500D01*
X128933536Y-48693095D01*
X129041964Y-48630495D01*
X129130495Y-48541964D01*
X129193095Y-48433536D01*
X129225500Y-48312601D01*
X129225500Y-48187399D01*
X129193095Y-48066464D01*
X129130495Y-47958036D01*
X129041964Y-47869505D01*
X128933536Y-47806905D01*
X128933537Y-47806905D01*
X128893224Y-47796103D01*
X128812601Y-47774500D01*
X128687399Y-47774500D01*
X128606775Y-47796103D01*
X128566463Y-47806905D01*
X128458037Y-47869504D01*
X128458034Y-47869506D01*
X128369506Y-47958034D01*
X128369504Y-47958037D01*
X128306905Y-48066463D01*
X128306905Y-48066464D01*
X128274500Y-48187399D01*
X118792396Y-48187399D01*
X118776711Y-48165810D01*
X118634190Y-48023289D01*
X118471129Y-47904818D01*
X118421901Y-47879735D01*
X118291539Y-47813312D01*
X118099852Y-47751030D01*
X117900783Y-47719500D01*
X117900778Y-47719500D01*
X117699222Y-47719500D01*
X117699217Y-47719500D01*
X117500147Y-47751030D01*
X117308460Y-47813312D01*
X117128870Y-47904818D01*
X117055623Y-47958036D01*
X116965810Y-48023289D01*
X116965808Y-48023291D01*
X116965807Y-48023291D01*
X116823291Y-48165807D01*
X116823291Y-48165808D01*
X116823289Y-48165810D01*
X116807604Y-48187399D01*
X116704818Y-48328870D01*
X116613312Y-48508460D01*
X116551030Y-48700147D01*
X116519500Y-48899216D01*
X114638344Y-48899216D01*
X114632264Y-48884536D01*
X114566635Y-48726092D01*
X114566628Y-48726079D01*
X114457139Y-48562218D01*
X114457136Y-48562214D01*
X114317785Y-48422863D01*
X114317781Y-48422860D01*
X114153920Y-48313371D01*
X114153907Y-48313364D01*
X113971839Y-48237950D01*
X113971829Y-48237947D01*
X113778543Y-48199500D01*
X113778541Y-48199500D01*
X113581459Y-48199500D01*
X113581457Y-48199500D01*
X113388170Y-48237947D01*
X113388160Y-48237950D01*
X113206092Y-48313364D01*
X113206079Y-48313371D01*
X113042218Y-48422860D01*
X113042214Y-48422863D01*
X112902863Y-48562214D01*
X112902860Y-48562218D01*
X112793371Y-48726079D01*
X112793364Y-48726092D01*
X112717950Y-48908160D01*
X112717947Y-48908170D01*
X112679500Y-49101456D01*
X112679500Y-49101459D01*
X112679500Y-49298541D01*
X112679500Y-49298543D01*
X112679499Y-49298543D01*
X112190000Y-49298543D01*
X112190000Y-49096583D01*
X112189999Y-49096579D01*
X112149651Y-48893733D01*
X112149649Y-48893725D01*
X112070499Y-48702641D01*
X112070494Y-48702631D01*
X111981975Y-48570155D01*
X111583670Y-48968460D01*
X111540099Y-48892993D01*
X111447007Y-48799901D01*
X111371538Y-48756329D01*
X111769843Y-48358023D01*
X111769843Y-48358021D01*
X111637363Y-48269502D01*
X111446274Y-48190350D01*
X111446266Y-48190348D01*
X111243420Y-48150000D01*
X111036579Y-48150000D01*
X110833733Y-48190348D01*
X110833725Y-48190350D01*
X110642639Y-48269501D01*
X110510155Y-48358023D01*
X110510154Y-48358023D01*
X110908461Y-48756329D01*
X110832993Y-48799901D01*
X110739901Y-48892993D01*
X110696329Y-48968460D01*
X110298023Y-48570154D01*
X110298023Y-48570155D01*
X110209501Y-48702639D01*
X110130350Y-48893725D01*
X110130348Y-48893733D01*
X110090000Y-49096579D01*
X109599530Y-49096579D01*
X109562052Y-48908170D01*
X109562051Y-48908166D01*
X109562051Y-48908165D01*
X109552264Y-48884536D01*
X109486635Y-48726092D01*
X109486628Y-48726079D01*
X109377139Y-48562218D01*
X109377136Y-48562214D01*
X109237785Y-48422863D01*
X109237781Y-48422860D01*
X109073920Y-48313371D01*
X109073907Y-48313364D01*
X108891839Y-48237950D01*
X108891829Y-48237947D01*
X108698543Y-48199500D01*
X108698541Y-48199500D01*
X108501459Y-48199500D01*
X108501457Y-48199500D01*
X108308170Y-48237947D01*
X108308160Y-48237950D01*
X108126092Y-48313364D01*
X108126079Y-48313371D01*
X107962218Y-48422860D01*
X107962214Y-48422863D01*
X107822863Y-48562214D01*
X107822860Y-48562218D01*
X107713371Y-48726079D01*
X107713364Y-48726092D01*
X107637950Y-48908160D01*
X107637947Y-48908170D01*
X107599500Y-49101456D01*
X107599500Y-49101459D01*
X107599500Y-49298541D01*
X107599500Y-49298543D01*
X107599499Y-49298543D01*
X107060500Y-49298543D01*
X107060500Y-49101456D01*
X107022052Y-48908170D01*
X107022051Y-48908166D01*
X107022051Y-48908165D01*
X107012264Y-48884536D01*
X106946635Y-48726092D01*
X106946628Y-48726079D01*
X106837139Y-48562218D01*
X106837136Y-48562214D01*
X106697785Y-48422863D01*
X106697781Y-48422860D01*
X106533920Y-48313371D01*
X106533907Y-48313364D01*
X106351839Y-48237950D01*
X106351829Y-48237947D01*
X106158543Y-48199500D01*
X106158541Y-48199500D01*
X105961459Y-48199500D01*
X105961457Y-48199500D01*
X105768170Y-48237947D01*
X105768160Y-48237950D01*
X105586092Y-48313364D01*
X105586079Y-48313371D01*
X105422218Y-48422860D01*
X105422214Y-48422863D01*
X105282863Y-48562214D01*
X105282860Y-48562218D01*
X105173371Y-48726079D01*
X105173364Y-48726092D01*
X105097950Y-48908160D01*
X105097947Y-48908170D01*
X105059500Y-49101456D01*
X105059500Y-49101459D01*
X105059500Y-49298541D01*
X105059500Y-49298543D01*
X105059499Y-49298543D01*
X104520500Y-49298543D01*
X104520500Y-49101456D01*
X104482052Y-48908170D01*
X104482051Y-48908166D01*
X104482051Y-48908165D01*
X104472264Y-48884536D01*
X104406635Y-48726092D01*
X104406628Y-48726079D01*
X104297139Y-48562218D01*
X104297136Y-48562214D01*
X104157785Y-48422863D01*
X104157781Y-48422860D01*
X103993920Y-48313371D01*
X103993907Y-48313364D01*
X103811839Y-48237950D01*
X103811829Y-48237947D01*
X103618543Y-48199500D01*
X103618541Y-48199500D01*
X103421459Y-48199500D01*
X103421457Y-48199500D01*
X103228170Y-48237947D01*
X103228160Y-48237950D01*
X103046092Y-48313364D01*
X103046079Y-48313371D01*
X102882218Y-48422860D01*
X102882214Y-48422863D01*
X102742863Y-48562214D01*
X102742860Y-48562218D01*
X102633371Y-48726079D01*
X102633364Y-48726092D01*
X102557950Y-48908160D01*
X102557947Y-48908170D01*
X102519500Y-49101456D01*
X102519500Y-49101459D01*
X102519500Y-49298541D01*
X102519500Y-49298543D01*
X102519499Y-49298543D01*
X101980500Y-49298543D01*
X101980500Y-49101456D01*
X101942052Y-48908170D01*
X101942051Y-48908166D01*
X101942051Y-48908165D01*
X101932264Y-48884536D01*
X101866635Y-48726092D01*
X101866628Y-48726079D01*
X101757139Y-48562218D01*
X101757136Y-48562214D01*
X101617785Y-48422863D01*
X101617781Y-48422860D01*
X101453920Y-48313371D01*
X101453907Y-48313364D01*
X101271839Y-48237950D01*
X101271829Y-48237947D01*
X101078543Y-48199500D01*
X101078541Y-48199500D01*
X100881459Y-48199500D01*
X100881457Y-48199500D01*
X100688170Y-48237947D01*
X100688160Y-48237950D01*
X100506092Y-48313364D01*
X100506079Y-48313371D01*
X100342218Y-48422860D01*
X100342214Y-48422863D01*
X100202863Y-48562214D01*
X100202860Y-48562218D01*
X100093371Y-48726079D01*
X100093364Y-48726092D01*
X100017950Y-48908160D01*
X100017947Y-48908170D01*
X99979500Y-49101456D01*
X99979500Y-49101459D01*
X99979500Y-49298541D01*
X99979500Y-49298543D01*
X99979499Y-49298543D01*
X99440500Y-49298543D01*
X99440500Y-49101456D01*
X99402052Y-48908170D01*
X99402051Y-48908166D01*
X99402051Y-48908165D01*
X99392264Y-48884536D01*
X99326635Y-48726092D01*
X99326628Y-48726079D01*
X99217139Y-48562218D01*
X99217136Y-48562214D01*
X99077785Y-48422863D01*
X99077781Y-48422860D01*
X98913920Y-48313371D01*
X98913907Y-48313364D01*
X98731839Y-48237950D01*
X98731829Y-48237947D01*
X98538543Y-48199500D01*
X98538541Y-48199500D01*
X98341459Y-48199500D01*
X98341457Y-48199500D01*
X98148170Y-48237947D01*
X98148160Y-48237950D01*
X97966092Y-48313364D01*
X97966079Y-48313371D01*
X97802218Y-48422860D01*
X97802214Y-48422863D01*
X97662863Y-48562214D01*
X97662860Y-48562218D01*
X97553371Y-48726079D01*
X97553364Y-48726092D01*
X97477950Y-48908160D01*
X97477947Y-48908170D01*
X97439500Y-49101456D01*
X97439500Y-49101459D01*
X97439500Y-49298541D01*
X97439500Y-49298543D01*
X97439499Y-49298543D01*
X96900500Y-49298543D01*
X96900500Y-49101456D01*
X96862052Y-48908170D01*
X96862051Y-48908166D01*
X96862051Y-48908165D01*
X96852264Y-48884536D01*
X96786635Y-48726092D01*
X96786628Y-48726079D01*
X96677139Y-48562218D01*
X96677136Y-48562214D01*
X96537785Y-48422863D01*
X96537781Y-48422860D01*
X96373920Y-48313371D01*
X96373907Y-48313364D01*
X96191839Y-48237950D01*
X96191829Y-48237947D01*
X95998543Y-48199500D01*
X95998541Y-48199500D01*
X95801459Y-48199500D01*
X95801457Y-48199500D01*
X95608170Y-48237947D01*
X95608160Y-48237950D01*
X95426092Y-48313364D01*
X95426079Y-48313371D01*
X95262218Y-48422860D01*
X95262214Y-48422863D01*
X95122863Y-48562214D01*
X95122860Y-48562218D01*
X95013371Y-48726079D01*
X95013364Y-48726092D01*
X94937950Y-48908160D01*
X94937947Y-48908170D01*
X94899500Y-49101456D01*
X94899500Y-49101459D01*
X94899500Y-49298541D01*
X94899500Y-49298543D01*
X94899499Y-49298543D01*
X94410000Y-49298543D01*
X94410000Y-49096583D01*
X94409999Y-49096579D01*
X94369651Y-48893733D01*
X94369649Y-48893725D01*
X94290499Y-48702641D01*
X94290494Y-48702631D01*
X94201975Y-48570155D01*
X93803670Y-48968460D01*
X93760099Y-48892993D01*
X93667007Y-48799901D01*
X93591538Y-48756329D01*
X93989843Y-48358023D01*
X93989843Y-48358021D01*
X93857363Y-48269502D01*
X93666274Y-48190350D01*
X93666266Y-48190348D01*
X93463420Y-48150000D01*
X93256579Y-48150000D01*
X93053733Y-48190348D01*
X93053725Y-48190350D01*
X92862639Y-48269501D01*
X92730155Y-48358023D01*
X92730154Y-48358023D01*
X93128461Y-48756329D01*
X93052993Y-48799901D01*
X92959901Y-48892993D01*
X92916329Y-48968460D01*
X92518023Y-48570154D01*
X92518023Y-48570155D01*
X92429501Y-48702639D01*
X92350350Y-48893725D01*
X92350348Y-48893733D01*
X92310000Y-49096579D01*
X91819530Y-49096579D01*
X91782052Y-48908170D01*
X91782051Y-48908166D01*
X91782051Y-48908165D01*
X91772264Y-48884536D01*
X91706635Y-48726092D01*
X91706628Y-48726079D01*
X91597139Y-48562218D01*
X91597136Y-48562214D01*
X91457785Y-48422863D01*
X91457781Y-48422860D01*
X91293920Y-48313371D01*
X91293907Y-48313364D01*
X91111839Y-48237950D01*
X91111829Y-48237947D01*
X90918543Y-48199500D01*
X90918541Y-48199500D01*
X90721459Y-48199500D01*
X90721457Y-48199500D01*
X90528170Y-48237947D01*
X90528160Y-48237950D01*
X90346092Y-48313364D01*
X90346079Y-48313371D01*
X90182218Y-48422860D01*
X90182214Y-48422863D01*
X90042863Y-48562214D01*
X90042860Y-48562218D01*
X89933371Y-48726079D01*
X89933364Y-48726092D01*
X89857950Y-48908160D01*
X89857947Y-48908170D01*
X89819500Y-49101456D01*
X89819500Y-49101459D01*
X89819500Y-49298541D01*
X89819500Y-49298543D01*
X89819499Y-49298543D01*
X89330000Y-49298543D01*
X89330000Y-49096583D01*
X89329999Y-49096579D01*
X89289651Y-48893733D01*
X89289649Y-48893725D01*
X89210499Y-48702641D01*
X89210494Y-48702631D01*
X89121975Y-48570155D01*
X88723670Y-48968460D01*
X88680099Y-48892993D01*
X88587007Y-48799901D01*
X88511538Y-48756329D01*
X88909843Y-48358023D01*
X88909843Y-48358021D01*
X88777363Y-48269502D01*
X88586274Y-48190350D01*
X88586266Y-48190348D01*
X88383420Y-48150000D01*
X88176579Y-48150000D01*
X87973733Y-48190348D01*
X87973725Y-48190350D01*
X87782639Y-48269501D01*
X87650155Y-48358023D01*
X87650154Y-48358023D01*
X88048461Y-48756329D01*
X87972993Y-48799901D01*
X87879901Y-48892993D01*
X87836329Y-48968460D01*
X87438023Y-48570154D01*
X87438023Y-48570155D01*
X87349501Y-48702639D01*
X87270350Y-48893725D01*
X87270348Y-48893733D01*
X87230000Y-49096579D01*
X86739530Y-49096579D01*
X86702052Y-48908170D01*
X86702051Y-48908166D01*
X86702051Y-48908165D01*
X86692264Y-48884536D01*
X86626635Y-48726092D01*
X86626628Y-48726079D01*
X86517139Y-48562218D01*
X86517136Y-48562214D01*
X86377785Y-48422863D01*
X86377781Y-48422860D01*
X86213920Y-48313371D01*
X86213907Y-48313364D01*
X86031839Y-48237950D01*
X86031829Y-48237947D01*
X85838543Y-48199500D01*
X85838541Y-48199500D01*
X85641459Y-48199500D01*
X85641457Y-48199500D01*
X85448170Y-48237947D01*
X85448160Y-48237950D01*
X85266092Y-48313364D01*
X85266079Y-48313371D01*
X85102218Y-48422860D01*
X85102214Y-48422863D01*
X84962863Y-48562214D01*
X84962860Y-48562218D01*
X84853371Y-48726079D01*
X84853364Y-48726092D01*
X84777950Y-48908160D01*
X84777947Y-48908170D01*
X84739500Y-49101456D01*
X84739500Y-49101459D01*
X84739500Y-49298541D01*
X84739500Y-49298543D01*
X84739499Y-49298543D01*
X83691233Y-49298543D01*
X83700000Y-49265826D01*
X83700000Y-49134174D01*
X83677445Y-49050000D01*
X84250000Y-49050000D01*
X84250000Y-48330301D01*
X84249999Y-48330297D01*
X84238397Y-48271966D01*
X84238396Y-48271965D01*
X84194191Y-48205808D01*
X84128034Y-48161603D01*
X84128033Y-48161602D01*
X84069702Y-48150000D01*
X83350000Y-48150000D01*
X83350000Y-48722554D01*
X83265826Y-48700000D01*
X83134174Y-48700000D01*
X83050000Y-48722554D01*
X83050000Y-48150000D01*
X82330297Y-48150000D01*
X82271966Y-48161602D01*
X82271965Y-48161603D01*
X82205808Y-48205808D01*
X82161603Y-48271965D01*
X82161602Y-48271966D01*
X82150000Y-48330297D01*
X82150000Y-48411326D01*
X82130315Y-48478365D01*
X82077511Y-48524120D01*
X82008353Y-48534064D01*
X81944797Y-48505039D01*
X81918613Y-48473326D01*
X81881497Y-48409039D01*
X81881496Y-48409037D01*
X81881495Y-48409036D01*
X81792964Y-48320505D01*
X81684536Y-48257905D01*
X81684537Y-48257905D01*
X81644224Y-48247103D01*
X81563601Y-48225500D01*
X81438399Y-48225500D01*
X81357775Y-48247103D01*
X81317463Y-48257905D01*
X81209037Y-48320504D01*
X81209034Y-48320506D01*
X81120506Y-48409034D01*
X81120504Y-48409037D01*
X81057905Y-48517463D01*
X81043786Y-48570155D01*
X81025500Y-48638399D01*
X60510500Y-48638399D01*
X60510500Y-48014095D01*
X60510501Y-48014093D01*
X60510500Y-47979078D01*
X60510882Y-47969356D01*
X60513640Y-47934308D01*
X60519577Y-47858856D01*
X60522618Y-47839658D01*
X60547351Y-47736630D01*
X60553357Y-47718142D01*
X60593903Y-47620253D01*
X60602729Y-47602931D01*
X60658092Y-47512585D01*
X60669523Y-47496853D01*
X60693192Y-47469140D01*
X60741426Y-47412663D01*
X60748023Y-47405525D01*
X61155432Y-46998117D01*
X61162560Y-46991528D01*
X61246855Y-46919544D01*
X61262585Y-46908116D01*
X61352942Y-46852752D01*
X61370240Y-46843940D01*
X61468155Y-46803388D01*
X61486626Y-46797387D01*
X61589666Y-46772654D01*
X61608860Y-46769615D01*
X61719852Y-46760882D01*
X61729577Y-46760500D01*
X61764093Y-46760501D01*
X61764095Y-46760500D01*
X140052715Y-46760500D01*
X140086767Y-46760500D01*
X140098394Y-46761046D01*
G37*
%TD.AperFunction*%
%TD*%
D23*
X74800000Y-72200000D03*
X83964782Y-59448603D03*
X130807025Y-72063401D03*
X95689602Y-62958533D03*
X121400000Y-52600000D03*
X114625000Y-52605000D03*
X134500000Y-56250000D03*
X78400000Y-72000000D03*
X132000000Y-55250000D03*
X107753463Y-63477229D03*
X116200000Y-75800000D03*
X71445000Y-75465000D03*
X89250000Y-62991088D03*
X122800000Y-76000000D03*
X122305526Y-55255448D03*
X104155666Y-65286252D03*
X129724696Y-70282904D03*
X74899782Y-60100000D03*
X79200000Y-73000000D03*
X103981740Y-66033107D03*
X82379757Y-73487009D03*
X150185000Y-62765000D03*
X122250000Y-54250000D03*
X72004782Y-60850000D03*
X70986510Y-56452269D03*
X91604782Y-53400000D03*
X68451055Y-73650172D03*
X147645000Y-57685000D03*
X93258855Y-70425114D03*
X84838101Y-53364598D03*
X73400000Y-72400000D03*
X78099782Y-62100000D03*
X84200000Y-69000000D03*
X79699782Y-62100000D03*
X78099782Y-64100000D03*
X117593152Y-55023240D03*
X138400000Y-73332903D03*
X138200000Y-74132903D03*
X90600000Y-71400000D03*
X73400000Y-73600000D03*
X133000000Y-49750000D03*
X133200000Y-73532903D03*
X67600000Y-47400000D03*
X80000000Y-52466393D03*
X66467495Y-57887957D03*
X76788634Y-73755951D03*
X113000000Y-60400000D03*
X64600000Y-59000000D03*
X70266951Y-73850172D03*
X63750000Y-55000000D03*
X94939088Y-69258591D03*
X76499782Y-56100000D03*
X88204782Y-54800000D03*
X128751305Y-72000000D03*
X90200000Y-73200000D03*
X112085000Y-75465000D03*
X80014889Y-71935324D03*
X134250000Y-64500000D03*
X100604782Y-70800000D03*
X65000000Y-75600000D03*
X134250000Y-50750000D03*
X79824040Y-70781932D03*
X79784257Y-69737443D03*
X103000000Y-60200000D03*
X112200000Y-61400000D03*
X115093152Y-55023240D03*
X150185000Y-60225000D03*
X145000000Y-62200000D03*
X116621604Y-58834587D03*
X74000000Y-72200000D03*
X137250000Y-51750000D03*
X66365000Y-67845000D03*
X68937409Y-62054209D03*
X92704782Y-68300000D03*
X125200000Y-73732903D03*
X63200000Y-71400000D03*
X76499782Y-64100000D03*
X74177811Y-73845066D03*
X85800000Y-62400000D03*
X78899782Y-57100000D03*
X71706719Y-72155126D03*
X146487501Y-50500000D03*
X81299782Y-64100000D03*
X121250000Y-53500000D03*
X80499782Y-67000000D03*
X96845000Y-75465000D03*
X79699782Y-58100000D03*
X133000000Y-56250000D03*
X68905000Y-75465000D03*
X129540839Y-63599280D03*
X72600000Y-50200000D03*
X75699782Y-63100000D03*
X96704782Y-61200000D03*
X150185000Y-72925000D03*
X77299782Y-59100000D03*
X65600000Y-56200000D03*
X112085000Y-47525000D03*
X150185000Y-67845000D03*
X81308931Y-58235037D03*
X142200000Y-69200000D03*
X132900000Y-68432903D03*
X75699782Y-59100000D03*
X89247112Y-61799327D03*
X85034948Y-63219210D03*
X117165000Y-47525000D03*
X109600000Y-62400000D03*
X78899782Y-61100000D03*
X92004782Y-66700000D03*
X110800000Y-63800000D03*
X107005000Y-75465000D03*
X84495692Y-73495307D03*
X92108419Y-63661385D03*
X79200000Y-70400000D03*
X74750000Y-52118820D03*
X81299782Y-62100000D03*
X131490331Y-56475174D03*
X80499782Y-65100000D03*
X72053898Y-73681688D03*
X150185000Y-75465000D03*
X112400000Y-64400000D03*
X66600000Y-74800000D03*
X80499782Y-61100000D03*
X91765000Y-72925000D03*
X72000000Y-69800000D03*
X142400000Y-62000000D03*
X119705000Y-60225000D03*
X79699782Y-66100000D03*
X75699782Y-67000000D03*
X133250000Y-63500000D03*
X137485000Y-47525000D03*
X67195582Y-72079799D03*
X76972781Y-69664056D03*
X86800000Y-71200000D03*
X91819891Y-68219891D03*
X67700538Y-73629750D03*
X68031975Y-61294565D03*
X135500000Y-55250000D03*
X78099782Y-56100000D03*
X138750000Y-51750000D03*
X136800000Y-76000000D03*
X147645000Y-56400000D03*
X114614254Y-71923983D03*
X72400000Y-49400000D03*
X77600000Y-73600000D03*
X83400000Y-71000000D03*
X84145000Y-75465000D03*
X81299782Y-66100000D03*
X140025000Y-47525000D03*
X93404782Y-67800000D03*
X90600000Y-74400000D03*
X61600000Y-58200000D03*
X108548278Y-65104439D03*
X98000000Y-75600000D03*
X81325939Y-70798527D03*
X78400000Y-69800000D03*
X139000000Y-69332903D03*
X86744866Y-54793516D03*
X79065000Y-75465000D03*
X133000000Y-76000000D03*
X150185000Y-56400000D03*
X132500000Y-48500000D03*
X85800000Y-64400000D03*
X147645000Y-62765000D03*
X79200000Y-71400000D03*
X120298118Y-54525452D03*
X61285000Y-60225000D03*
X70204782Y-69200000D03*
X80086395Y-49323268D03*
X140200000Y-73600000D03*
X97854782Y-63800000D03*
X98199772Y-64576195D03*
X84004782Y-66200000D03*
X80499782Y-59100000D03*
X124600000Y-55400000D03*
X75651493Y-70186817D03*
X84079782Y-53350000D03*
X134843619Y-58002436D03*
X127200000Y-74132903D03*
X72600000Y-51200000D03*
X91504782Y-54200000D03*
X101925000Y-75465000D03*
X133750000Y-58750000D03*
X78099782Y-60100000D03*
X61400000Y-75400000D03*
X73000000Y-69800000D03*
X130800000Y-59200000D03*
X79699782Y-60100000D03*
X79250000Y-52466393D03*
X69313895Y-73864606D03*
X95604782Y-61700000D03*
X73985000Y-75465000D03*
X84504782Y-62400889D03*
X150185000Y-65305000D03*
X123163888Y-59296185D03*
X144800000Y-59400000D03*
X77357753Y-55100000D03*
X88277878Y-68664012D03*
X81299782Y-60100000D03*
X77299782Y-57100000D03*
X77299782Y-63100000D03*
X141800000Y-76000000D03*
X83284216Y-73478711D03*
X147400000Y-75800000D03*
X76499782Y-60100000D03*
X71243153Y-66209546D03*
X142800000Y-74600000D03*
X80499782Y-57100000D03*
X93442501Y-69234583D03*
X115750000Y-70966393D03*
X112893152Y-53723240D03*
X130000000Y-62900000D03*
X129709358Y-55428462D03*
X84000000Y-69600000D03*
X81000000Y-52466393D03*
X120568903Y-56908093D03*
X131611476Y-47415571D03*
X97872016Y-63166382D03*
X97200000Y-69800000D03*
X74899782Y-62100000D03*
X75704782Y-55100000D03*
X84758402Y-64770975D03*
X134945000Y-47525000D03*
X114625000Y-75465000D03*
X122800000Y-49400000D03*
X140487501Y-49850000D03*
X81605000Y-75465000D03*
X74899782Y-66100000D03*
X133800000Y-74200000D03*
X74800000Y-50600000D03*
X142800000Y-71000000D03*
X81267854Y-73470414D03*
X70328218Y-72175548D03*
X130800000Y-58050000D03*
X71002152Y-73702111D03*
X99385000Y-75465000D03*
X81299782Y-56100000D03*
X84704782Y-59200000D03*
X68542955Y-72327832D03*
X94504782Y-61200000D03*
X74800000Y-49800000D03*
X61285000Y-67845000D03*
X115000000Y-50400000D03*
X78899782Y-65100000D03*
X77299782Y-67000000D03*
X97452818Y-64651270D03*
X78400000Y-71000000D03*
X75800000Y-71000000D03*
X137327608Y-58002436D03*
X78099782Y-66100000D03*
X62400000Y-47200000D03*
X76499782Y-66100000D03*
X128104640Y-48817557D03*
X65000000Y-70400000D03*
X75699782Y-65100000D03*
X75000000Y-69800000D03*
X121916078Y-60044871D03*
X147645000Y-60225000D03*
X74899782Y-58100000D03*
X85800000Y-63600000D03*
X76499782Y-62100000D03*
X86200000Y-72200000D03*
X78899782Y-59100000D03*
X77299782Y-65100000D03*
X84400000Y-72200000D03*
X97800000Y-70600000D03*
X124600000Y-54400000D03*
X76499782Y-52228856D03*
X65000000Y-47400000D03*
X67400000Y-56600000D03*
X63825000Y-67845000D03*
X76635516Y-71190229D03*
X127800000Y-51000000D03*
X77299782Y-61100000D03*
X65904782Y-69800000D03*
X105600000Y-63200000D03*
X79699782Y-56100000D03*
X63200000Y-73000000D03*
X138600000Y-53200000D03*
X81201472Y-71985110D03*
X83200000Y-72200000D03*
X76525000Y-75465000D03*
X78899782Y-55100000D03*
X86800000Y-74400000D03*
X90200000Y-72400000D03*
X74916402Y-73986817D03*
X61285000Y-70385000D03*
X70104782Y-56300000D03*
X122200000Y-52600000D03*
X78099782Y-58100000D03*
X93104782Y-66500000D03*
X72000000Y-63200000D03*
X140200000Y-74600000D03*
X97800000Y-61200000D03*
X66200000Y-47400000D03*
X78899782Y-63100000D03*
X78200000Y-73200000D03*
X66800000Y-71400000D03*
X72000000Y-65200000D03*
X147645000Y-65305000D03*
X71487533Y-58487005D03*
X78899782Y-67000000D03*
X124639559Y-59252783D03*
X88304782Y-67800000D03*
X71002152Y-72318504D03*
X90566642Y-53738139D03*
X93353844Y-68436673D03*
X79699782Y-64100000D03*
X75699782Y-61100000D03*
X69455912Y-55955022D03*
X138400000Y-54600000D03*
X117165000Y-65305000D03*
X136000000Y-73800000D03*
X92600000Y-75800000D03*
X126905129Y-55765816D03*
X84400000Y-70200000D03*
X150185000Y-70385000D03*
X123600000Y-49400000D03*
X130000000Y-68800000D03*
X109104782Y-52300000D03*
X76499782Y-58100000D03*
X122290943Y-56617359D03*
X129821276Y-51273661D03*
X142800000Y-73000000D03*
X75600000Y-72000000D03*
X75699782Y-57100000D03*
X122000000Y-50200000D03*
X61285000Y-55145000D03*
X122000000Y-51200000D03*
X106078414Y-69700000D03*
X136800000Y-74132903D03*
X122245000Y-47525000D03*
X80600000Y-50000000D03*
X61285000Y-65305000D03*
X66600000Y-74000000D03*
X89250000Y-63992061D03*
X69195102Y-67972502D03*
X109545000Y-47525000D03*
X84004782Y-65500000D03*
X136200000Y-69332903D03*
X82200000Y-72200000D03*
X119705000Y-47525000D03*
X67833282Y-72363571D03*
X137600000Y-68600000D03*
X81299986Y-69648933D03*
X139800000Y-54200000D03*
X139000000Y-68600000D03*
X122200000Y-53400000D03*
X108604405Y-64400782D03*
X133600000Y-69200000D03*
X61285000Y-62765000D03*
X75800000Y-73800000D03*
X118804795Y-57943806D03*
X150185000Y-57685000D03*
X128750000Y-63500000D03*
X128800000Y-76000000D03*
X88904782Y-54700000D03*
X111600000Y-64200000D03*
X80288716Y-73179991D03*
X128529515Y-62770112D03*
X80499782Y-63100000D03*
X109604782Y-57100000D03*
X72712515Y-73824644D03*
X150487501Y-49700000D03*
X84750132Y-65493243D03*
X63200000Y-75000000D03*
X83200000Y-69800000D03*
X74899782Y-56100000D03*
X68905000Y-70385000D03*
X83947010Y-64715544D03*
X104465000Y-75465000D03*
X128873550Y-55490952D03*
X61285000Y-72925000D03*
X117165000Y-52605000D03*
X74899782Y-64100000D03*
X114625000Y-47525000D03*
X150364088Y-48319051D03*
X119705000Y-52605000D03*
X110904782Y-56600000D03*
X88600000Y-75600000D03*
X140800000Y-71400000D03*
X78250000Y-52466393D03*
X86250000Y-57650000D03*
X140000000Y-67000000D03*
X87000000Y-57650000D03*
X81600000Y-51000000D03*
X122250000Y-72000000D03*
X105819341Y-71951850D03*
X101004782Y-64200000D03*
X80800000Y-51000000D03*
X108304782Y-73966393D03*
X135899014Y-50399014D03*
X80000000Y-51000000D03*
X107319341Y-73818243D03*
X131800000Y-58800000D03*
X68900000Y-49900000D03*
X130250000Y-67500000D03*
X106804782Y-72100000D03*
X85500000Y-69966393D03*
X104420468Y-67500000D03*
X89330615Y-52625000D03*
X95904782Y-71200000D03*
X96704782Y-72400000D03*
X95954782Y-66265686D03*
X70000000Y-52716393D03*
X69463284Y-53282379D03*
X105261168Y-67489070D03*
X95004782Y-71200000D03*
X88500000Y-69966393D03*
X88604782Y-53175000D03*
X102804782Y-70500000D03*
X96554782Y-66865686D03*
X124025000Y-57500348D03*
X131000000Y-55000000D03*
X126400000Y-49400000D03*
X126000000Y-48800000D03*
X95786614Y-67424634D03*
X126800000Y-48800000D03*
X95120468Y-66800000D03*
X67750000Y-64716393D03*
X69208607Y-64175000D03*
X68291393Y-64175000D03*
X91750000Y-65716393D03*
X92464034Y-65824289D03*
X91104782Y-66100000D03*
X71808844Y-68050000D03*
X87000000Y-62966393D03*
X124600000Y-63100000D03*
X114800000Y-70400000D03*
X102750000Y-71750000D03*
X81501000Y-48701000D03*
X128750000Y-48250000D03*
X85800000Y-52735000D03*
X70453553Y-58566392D03*
X65750000Y-59000000D03*
X67000000Y-55750000D03*
X66000000Y-57000000D03*
X84302097Y-57650000D03*
X69000000Y-61250000D03*
X70199419Y-67635173D03*
X88000000Y-60966393D03*
X72193130Y-66109569D03*
X91450000Y-62466393D03*
X71801623Y-67250030D03*
X87500000Y-64716393D03*
X105761091Y-53966393D03*
X72937720Y-52431393D03*
X100529047Y-61775735D03*
X126769222Y-69513125D03*
X145887501Y-48024997D03*
X84120361Y-60847937D03*
X108750000Y-65966393D03*
X84420266Y-60106279D03*
X126250000Y-62950000D03*
X71834281Y-55141147D03*
X106061091Y-53023951D03*
X73446275Y-51813839D03*
X125499710Y-67249710D03*
X71772254Y-55941294D03*
X84304782Y-64000000D03*
X127514752Y-69182903D03*
X72125282Y-54388730D03*
X107438140Y-52613175D03*
X72018793Y-57040975D03*
X112500000Y-63115000D03*
X145887501Y-48900000D03*
X84038827Y-61643774D03*
X126000000Y-69732903D03*
X100926883Y-62500000D03*
X84237532Y-63154932D03*
X109326426Y-66689967D03*
X112500000Y-65865000D03*
X85233932Y-57482461D03*
X83905539Y-54749621D03*
X106611091Y-52327484D03*
X127750000Y-62950000D03*
X126975000Y-67775000D03*
X117800000Y-49000000D03*
X61190000Y-50234000D03*
X68810000Y-51250000D03*
X61190000Y-52266000D03*
X101620468Y-68500000D03*
X101620468Y-67500000D03*
X101620468Y-66500000D03*
X100620468Y-68500000D03*
X100620468Y-67500000D03*
X100620468Y-66500000D03*
X99620468Y-68500000D03*
X99620468Y-67500000D03*
X99620468Y-66500000D03*
X93800000Y-74400000D03*
X148120000Y-73670000D03*
X144520000Y-73670000D03*
X144520000Y-70070000D03*
X148120000Y-70070000D03*
X64745000Y-62000000D03*
X137645000Y-62000000D03*
X143630000Y-57380000D03*
X141680000Y-58005000D03*
X143630000Y-60780000D03*
X141680000Y-60155000D03*
X143130000Y-65330000D03*
X143130000Y-52830000D03*
X83200000Y-49200000D03*
X85740000Y-49200000D03*
X88280000Y-49200000D03*
X90820000Y-49200000D03*
X93360000Y-49200000D03*
X95900000Y-49200000D03*
X98440000Y-49200000D03*
X100980000Y-49200000D03*
X103520000Y-49200000D03*
X106060000Y-49200000D03*
X108600000Y-49200000D03*
X111140000Y-49200000D03*
X113680000Y-49200000D03*
M02*
