%TF.GenerationSoftware,KiCad,Pcbnew,9.0.3*%
%TF.CreationDate,2025-08-20T13:57:21+02:00*%
%TF.ProjectId,Methanesense,4d657468-616e-4657-9365-6e73652e6b69,v2.0.0*%
%TF.SameCoordinates,Original*%
%TF.FileFunction,Profile,NP*%
%FSLAX46Y46*%
G04 Gerber Fmt 4.6, Leading zero omitted, Abs format (unit mm)*
G04 Created by KiCad (PCBNEW 9.0.3) date 2025-08-20 13:57:21*
%MOMM*%
%LPD*%
G01*
G04 APERTURE LIST*
%TA.AperFunction,Profile*%
%ADD10C,0.100000*%
%TD*%
%ADD11C,0.350000*%
G04 APERTURE END LIST*
D10*
X151310000Y-50200000D02*
G75*
G02*
X150310000Y-51200000I-1000000J0D01*
G01*
X151017107Y-47267107D02*
G75*
G02*
X151309990Y-47974214I-707107J-707093D01*
G01*
X147000000Y-54000000D02*
G75*
G02*
X146000000Y-53000000I0J1000000D01*
G01*
X150310000Y-54000000D02*
G75*
G02*
X151310000Y-55000000I0J-1000000D01*
G01*
X60310000Y-47974214D02*
G75*
G02*
X60602886Y-47267100I1000000J14D01*
G01*
X149895786Y-46560000D02*
G75*
G02*
X150602900Y-46852886I14J-1000000D01*
G01*
X151017107Y-47267107D02*
X150602893Y-46852893D01*
X149895786Y-76560000D02*
X61724214Y-76560000D01*
X60602893Y-75852893D02*
G75*
G02*
X60310039Y-75145786I707207J707093D01*
G01*
X147000000Y-51200000D02*
X150310000Y-51200000D01*
X145098809Y-47858504D02*
X145936191Y-46901496D01*
X151017107Y-75852893D02*
X150602893Y-76267107D01*
X61017107Y-46852893D02*
G75*
G02*
X61724214Y-46560039I707093J-707207D01*
G01*
X150602893Y-76267107D02*
G75*
G02*
X149895786Y-76559990I-707093J707107D01*
G01*
X60602893Y-75852893D02*
X61017107Y-76267107D01*
X151310000Y-47974214D02*
X151310000Y-50200000D01*
X145098809Y-47858504D02*
G75*
G02*
X144346232Y-48199983I-752509J658404D01*
G01*
X140899627Y-46969490D02*
X141500373Y-47790510D01*
X142307403Y-48200000D02*
X144346232Y-48200000D01*
X142307403Y-48200000D02*
G75*
G02*
X141500371Y-47790512I-3J1000000D01*
G01*
X140092596Y-46560000D02*
G75*
G02*
X140899629Y-46969488I4J-1000000D01*
G01*
X151310000Y-75145786D02*
G75*
G02*
X151017093Y-75852879I-999900J-14D01*
G01*
X61724214Y-76560000D02*
G75*
G02*
X61017100Y-76267114I-14J1000000D01*
G01*
X60310000Y-75145786D02*
X60310000Y-47974214D01*
X151310000Y-75145786D02*
X151310000Y-55000000D01*
X146000000Y-53000000D02*
X146000000Y-52200000D01*
X150310000Y-54000000D02*
X147000000Y-54000000D01*
X146000000Y-52200000D02*
G75*
G02*
X147000000Y-51200000I1000000J0D01*
G01*
X149895786Y-46560000D02*
X146688768Y-46560000D01*
X140092596Y-46560000D02*
X61724214Y-46560000D01*
X60602893Y-47267107D02*
X61017107Y-46852893D01*
X145936191Y-46901496D02*
G75*
G02*
X146688768Y-46560017I752509J-658404D01*
G01*
D11*
X117800000Y-49000000D03*
X61190000Y-50234000D03*
X68810000Y-51250000D03*
X61190000Y-52266000D03*
X101620468Y-68500000D03*
X101620468Y-67500000D03*
X101620468Y-66500000D03*
X100620468Y-68500000D03*
X100620468Y-67500000D03*
X100620468Y-66500000D03*
X99620468Y-68500000D03*
X99620468Y-67500000D03*
X99620468Y-66500000D03*
X93800000Y-74400000D03*
X148120000Y-73670000D03*
X144520000Y-73670000D03*
X144520000Y-70070000D03*
X148120000Y-70070000D03*
X64745000Y-62000000D03*
X137645000Y-62000000D03*
X143630000Y-57380000D03*
X141680000Y-58005000D03*
X143630000Y-60780000D03*
X141680000Y-60155000D03*
X143130000Y-65330000D03*
X143130000Y-52830000D03*
X83200000Y-49200000D03*
X85740000Y-49200000D03*
X88280000Y-49200000D03*
X90820000Y-49200000D03*
X93360000Y-49200000D03*
X95900000Y-49200000D03*
X98440000Y-49200000D03*
X100980000Y-49200000D03*
X103520000Y-49200000D03*
X106060000Y-49200000D03*
X108600000Y-49200000D03*
X111140000Y-49200000D03*
X113680000Y-49200000D03*
M02*
